<svg xmlns="http://www.w3.org/2000/svg" viewBox="0 0 65.4 71.35"><defs><style>.cls-1{fill:#eaeeef;}.cls-2{fill:#bbc1c5;}.cls-3{fill:#93a3a4;}.cls-4{fill:#3e342f;}.cls-5{fill:#fff;}</style></defs><g id="Layer_2" data-name="Layer 2"><g id="Ñëîé_1_êîïèÿ_" data-name="Ñëîé 1 (êîïèÿ)"><path class="cls-1" d="M44.08,2.35c7,.67,18.63,4.73,18.24,13.43a1.35,1.35,0,0,0,.17,2.46C67,31.78,64.22,48.37,47.37,50c-1.62.15-1.67,2.57-.18,2.62a1.27,1.27,0,0,0,.33.73,4.56,4.56,0,0,1,1.26,2.34.53.53,0,0,0,0,.12,1.33,1.33,0,0,0,0,.21,1.12,1.12,0,0,0,.07.42,1.32,1.32,0,0,0,2.39,1,2.09,2.09,0,0,0,.28-.93c.67-.89,1.15-1.88,1.8-2.78a1.14,1.14,0,0,0,.13-.35,17.34,17.34,0,0,1,3-1.18,1,1,0,0,0,.38,0c1.84-.65,3,2.55,3.24,3.82a6.83,6.83,0,0,1-1.18,4.95,11.87,11.87,0,0,1-9.3,5.56,1.29,1.29,0,0,0-1.17.89s-.06,0-.09.05c-1.41,1.28-3.92,3.25-5.83,2a1.21,1.21,0,0,0-1.88.82,1.55,1.55,0,0,1-2.44,0,1.24,1.24,0,0,0-1.89.1c-2.41.39-5,.84-7.11-.64a1.1,1.1,0,0,0-1.28,0,1.43,1.43,0,0,0-.29,0,2,2,0,0,1-1.82-.09,1.13,1.13,0,0,0-1.35,0,1.19,1.19,0,0,0-.64.2c-1.47.94-4.34-.38-5.64-1.22a6.46,6.46,0,0,1-2.88-5.12c-.3-3.1.37-8.22,2.91-10.37a1.17,1.17,0,0,0,.38-.53,1.33,1.33,0,0,0-.77-2.38,1.18,1.18,0,0,0-.67.2c-6.44-1.62-13.42-6.16-15.4-12.62S.94,24.88,3.13,18.64a1.3,1.3,0,0,0-.31-2.38,3.1,3.1,0,0,1-1.67-1.49C3.53,3.1,22.22,2.45,31.31,2.26a1.49,1.49,0,0,0,.44-.1,1.28,1.28,0,0,0,1.64-.61,1.28,1.28,0,0,0,1.54.2A1.43,1.43,0,0,0,35.57.38C38,2.09,40.56,2,44.08,2.35Z"/><path class="cls-2" d="M2.9,37.13c-.46,0-.94,0-1.4-.08C-.19,30.79,1,24.65,3.13,18.64a1.3,1.3,0,0,0-.31-2.38,3.1,3.1,0,0,1-1.67-1.49C3.53,3.1,22.22,2.45,31.31,2.26a1.49,1.49,0,0,0,.44-.1,1.28,1.28,0,0,0,1.64-.61,1.28,1.28,0,0,0,1.54.2A1.43,1.43,0,0,0,35.57.38c2.43,1.71,5,1.64,8.51,2,7,.67,18.63,4.73,18.24,13.43a1.35,1.35,0,0,0,.17,2.46c2.08,6.28,2.6,13.21.88,19a18.59,18.59,0,0,1-3.8.18A24.62,24.62,0,0,1,48.1,34.19a17.15,17.15,0,0,1-7.56-9c-.69-2.07-.92-4.29-1.82-6.28s-2.75-3.81-4.93-3.7c-2.56.12-4.23,2.65-5.56,4.85C24.82,25.64,20.59,31,14.8,34.2A24.1,24.1,0,0,1,2.9,37.13Z"/><path class="cls-2" d="M17.38,63.61a11.42,11.42,0,0,0-.68,3.7,7,7,0,0,1-1.46-3.84c-.3-3.1.37-8.22,2.91-10.37a1.17,1.17,0,0,0,.39-.56,1.39,1.39,0,0,0,.32-1.7c.36,0,.72,0,1.07,0,1.43,0,3.1.48,3.54,1.84s-.53,2.63-1.41,3.69A25.23,25.23,0,0,0,17.38,63.61Z"/><path class="cls-2" d="M48.38,67.35l-.06,0a12.91,12.91,0,0,0-.77-7.45c-1.45-3.35-4.31-6.06-5.15-9.61l3.92.34a1.23,1.23,0,0,0,.87,2,1.22,1.22,0,0,0,.33.71,4.56,4.56,0,0,1,1.26,2.34s0,.07,0,.11,0,.14,0,.22a1.29,1.29,0,0,0,.06.45A1.34,1.34,0,0,0,50.49,58,15.91,15.91,0,0,1,51,64.57a10.7,10.7,0,0,1-.41,1.76,9.65,9.65,0,0,1-1.08.13A1.29,1.29,0,0,0,48.38,67.35Z"/><path class="cls-2" d="M56.79,52.13c1.84-.65,3,2.55,3.24,3.82a6.83,6.83,0,0,1-1.18,4.95,11.75,11.75,0,0,1-3.36,3.48A6.1,6.1,0,0,1,52,60a8.69,8.69,0,0,1,.41-4.1,11.82,11.82,0,0,1,1.17-2.65,20.07,20.07,0,0,1,2.82-1.1A1,1,0,0,0,56.79,52.13Z"/><path class="cls-3" d="M55.78,56a1.25,1.25,0,0,1,2.16-1.26,14,14,0,0,0,2.18,2.42,6.46,6.46,0,0,1-.62,2.54A8.79,8.79,0,0,1,55.78,56Z"/><path class="cls-3" d="M53.32,53.71a1.24,1.24,0,0,0,.12-.32c.17-.1.34-.21.53-.3A9.75,9.75,0,0,0,54,54.88,16.59,16.59,0,0,0,55.49,59a.49.49,0,0,1-.71.54,6.65,6.65,0,0,1-2.42-4.32C52.67,54.71,53,54.19,53.32,53.71Z"/><path class="cls-3" d="M63.74,23,62,23.43c-2.56.55-5.51,1.09-8.1.52-1.71-.38-1.06-2.59.38-2.78,2.55-.33,5.11-.05,7.68-.53a11.22,11.22,0,0,0,1.2-.31C63.36,21.23,63.57,22.13,63.74,23Z"/><path class="cls-3" d="M64.37,28.28c0,.76,0,1.52,0,2.27l-1,.06a31.24,31.24,0,0,1-6.9-.29c-1.93-.32-1.12-3.3.82-2.95a49.88,49.88,0,0,0,6.44.9Z"/><path class="cls-3" d="M63.48,36.87a30.27,30.27,0,0,1-5.58-1.18c-1.67-.53-.95-3.16.72-2.63s3.57,1,5.39,1.44C63.87,35.3,63.69,36.09,63.48,36.87Z"/><path class="cls-3" d="M10.67,23.61a24,24,0,0,1-8,.09l-1-.19c.2-.8.42-1.6.66-2.39l.38,0a39.72,39.72,0,0,0,7.23-.24C11.69,20.67,12.46,23.34,10.67,23.61Z"/><path class="cls-3" d="M7.49,29.13a31.89,31.89,0,0,1-6.68-.62q.1-1.08.27-2.16a25,25,0,0,0,6.41-.14C9.3,26,9.41,29.09,7.49,29.13Z"/><path class="cls-3" d="M5.32,34.66a18.67,18.67,0,0,1-4.3.2,22.77,22.77,0,0,1-.28-2.59,20.22,20.22,0,0,0,3.78-.53C6.44,31.29,7.21,34.34,5.32,34.66Z"/><path class="cls-3" d="M31.75,2.16a1.29,1.29,0,0,0,1.65-.62,1.49,1.49,0,0,0,.67.35c0,.43.09.85.13,1.24.21,1.83.82,4.31.16,6.05a1,1,0,0,1-1.78.23c-1-1.54-.83-3.77-1-5.55,0-.5-.11-1.06-.16-1.63A1.6,1.6,0,0,0,31.75,2.16Z"/><path class="cls-3" d="M26.63,2.41a21.35,21.35,0,0,0,1.83,5.34c.78,1.59-1.55,3-2.39,1.4a18.11,18.11,0,0,1-2-6.58C24.92,2.51,25.79,2.45,26.63,2.41Z"/><path class="cls-3" d="M19.53,3.05a22.46,22.46,0,0,0,1.95,4.18c.89,1.47-1.39,2.79-2.3,1.35a10.8,10.8,0,0,1-1.76-5.19C18.12,3.26,18.82,3.15,19.53,3.05Z"/><path class="cls-3" d="M40.9,2.56c.05-.15.09-.31.13-.47.78.08,1.61.14,2.49.21-.06.45-.13.87-.2,1.26A19.28,19.28,0,0,1,41.4,8.9c-.77,1.54-3,.19-2.29-1.34A46.47,46.47,0,0,0,40.9,2.56Z"/><path class="cls-3" d="M47.41,3l.06-.1q1.08.23,2.19.54c-.09.23-.17.47-.26.7-.5,1.39-1.07,2.75-1.67,4.11S44.9,8.43,45.54,7,46.72,4.28,47.41,3Z"/><path class="cls-4" d="M40.2,2.35a.27.27,0,0,0,0-.46,19,19,0,0,0-2.41-.64C36.93,1,36.21.18,35.35,0,35,0,34.6.23,34.74.61,35.35,2.16,38.78,3.24,40.2,2.35ZM33.05,1.11A.51.51,0,0,1,33.6.88c.48.15.54.65.91.92s.69.3.91.63a.23.23,0,0,1,0,.26C34.79,3.83,32.31,2.12,33.05,1.11ZM7.44,17.22c-.31.12-.92.26-1.11-.14a.6.6,0,0,1,0-.22h0a6.68,6.68,0,0,1-1.94.33.14.14,0,0,1,0,.09C3.55,19.58,2.39,21.68,1.8,24a23.24,23.24,0,0,0-.62,7.05A23.68,23.68,0,0,0,2.74,38a47.05,47.05,0,0,0,3.47,6.16.54.54,0,0,1-.84.65C2,41.55.39,35.93.07,31.41s.51-10.67,3.7-14.22C1.87,17.08.13,16.13.56,13.76c.55-3.09,4.48-5.5,7-7A36.09,36.09,0,0,1,18.7,2.55c4.05-.83,8.47-1.47,12.58-.78a.32.32,0,0,1,0,.62C28.2,3,25.05,3,22,3.44a46.29,46.29,0,0,0-8.14,1.91,28.88,28.88,0,0,0-7.49,3.8A20.68,20.68,0,0,0,3.1,11.91c-.91,1-2.4,3,0,4a4.6,4.6,0,0,0,2.76-.28.63.63,0,0,1,.8.69l.16-.1a2.87,2.87,0,0,1,1.07-.55.57.57,0,0,1,.54.71A1.56,1.56,0,0,1,7.44,17.22Zm.92,0a.28.28,0,0,1,.06-.45,9.46,9.46,0,0,1,2.5-.63c.94-.25,1.71-.92,2.64-1.13a.61.61,0,0,1,.68.89C13.31,17.35,9.78,18.36,8.36,17.2ZM49,15.34a2.73,2.73,0,0,1-.37-.47,1,1,0,0,1-.17-.82.57.57,0,0,1,.41-.41.59.59,0,0,1,.58.15,3.31,3.31,0,0,1,.49.7,1.89,1.89,0,0,1,.44.75.34.34,0,0,1-.26.46C49.8,15.87,49.27,15.58,49,15.34ZM9.63,46.23a.59.59,0,0,1-.57,1,2.94,2.94,0,0,1-1.2-.78,1.88,1.88,0,0,1-.45-.52,1.31,1.31,0,0,1-.12-.33,2.44,2.44,0,0,0,0-.27.26.26,0,0,1,.4-.31l0,0a1.81,1.81,0,0,1,.91.49A9.33,9.33,0,0,1,9.63,46.23Zm55.7-19.54c-.08.53-.89.47-1,0-.41-1.59-.48-3.21-1-4.79a23.11,23.11,0,0,0-2.38-4.64c-3.07,1-6.89.16-9.56-1.47A.66.66,0,0,1,52,14.65c2.4,1.18,5.85,2.23,8.5,1.22C64,14.55,58.78,9.79,57.29,8.6a24.19,24.19,0,0,0-7.51-4c-2.56-.85-5.39-1-7.89-1.95A.35.35,0,0,1,42,2c3.68-.44,8.16,1.18,11.45,2.7a21.72,21.72,0,0,1,8.19,6.42c1.43,1.88,2.44,4.43.22,5.74C64.05,19.31,65.79,23.42,65.33,26.69Zm-.18,1.91A7.54,7.54,0,0,1,65.29,30c.07.83-1.33.86-1.32,0,0-.61-.19-1.72.5-2C64.84,27.78,65.07,28.35,65.15,28.6Zm-.78,3.82c1.5,2.63-.38,7.13-1.73,9.5s-4.29,6.21-7.31,6.53c-.5,0-.66-.61-.38-.93,1-1.13,2.54-1.76,3.65-2.83a16.12,16.12,0,0,0,4.59-8.47,18.4,18.4,0,0,1,.64-3.8A.32.32,0,0,1,64.37,32.42Zm-11.88,17a.68.68,0,0,1-.47-.54.65.65,0,0,1,.32-.66,1.08,1.08,0,0,1,.3-.11h.09l.24-.07a2.1,2.1,0,0,1,.56,0,.38.38,0,0,1,.35.27.89.89,0,0,1-.26.87A1.23,1.23,0,0,1,52.49,49.46Zm8.64,6.61c0,3.1-2.48,6-4.65,7.95C55,65.38,52.13,67,49.85,67c-1.83,2.58-5.06,4.27-8.11,3a3.62,3.62,0,0,1-3.11,1.43A2.68,2.68,0,0,1,37,70.6l-.07,0c-2.53.88-5.83,1-8.22-.4a3,3,0,0,1-1.38.72A3.3,3.3,0,0,1,25,70.47a.91.91,0,0,1-.55.25c-4.41.44-8.74-1.76-9.78-6.3-1-4.36,1.09-9.82,4.16-13.06-.91-.17-1.79-.41-2.53-.61-1.89-.53-4.67-1.29-5.8-3a.34.34,0,0,1,.3-.51c2,.2,3.89,1.6,5.88,2.15a21.78,21.78,0,0,0,4,.71,11.05,11.05,0,0,1,2.76.27.49.49,0,0,1,0,.94,7.52,7.52,0,0,1-3.78.21c-.72,1.72-1.91,3.24-2.7,4.94a11.67,11.67,0,0,0-1.22,6.35c.52,4.14,3.82,6.06,7.58,6.24a6,6,0,0,1-1.37-2.6.23.23,0,0,1,.38-.23c1.12,1.13,2.35,3.36,4.21,3.26,2.18-.13,1.75-3.17,2-4.65a.24.24,0,0,1,.44-.06,5,5,0,0,1,.34,4.74,17.41,17.41,0,0,0,7,0,6.79,6.79,0,0,1-.56-4,.26.26,0,0,1,.46-.06c.87,1.18.83,4.5,3,4.11,1.77-.32,2.18-2.24,3.22-3.37a.38.38,0,0,1,.64.27,4.79,4.79,0,0,1-.38,2.12c3.82.12,6.57-2.45,6.88-6.47a11.8,11.8,0,0,0-1.24-6.32c-.81-1.57-2-2.88-2.87-4.42a11,11,0,0,1-3.25-.44.64.64,0,0,1,.17-1.26,32.29,32.29,0,0,0,4.4.07c1.27-.15,2.53-.75,3.81-.57.26,0,.26.36.14.52-.82,1-2.46,1.49-4.17,1.64a18.92,18.92,0,0,1,3.89,5.86,10.62,10.62,0,0,1,.82,7,7.55,7.55,0,0,1-.47,1.36,2.78,2.78,0,0,0,.38-.12,14.58,14.58,0,0,0,2.85-1.42,11.8,11.8,0,0,0,4.41-4.15c1.15-2,2.07-6.34-1.46-6.54-2.7-.15-3.68,2.17-5.23,3.81a.21.21,0,0,1-.36-.15,6.26,6.26,0,0,1,5.06-5.33A4.33,4.33,0,0,1,61.13,56.07Z"/><path class="cls-5" d="M51.71,27.51c1.53,0,3.26-.23,4.42.76a3.33,3.33,0,0,1,.23,4.34,6.6,6.6,0,0,1-4,2.3,13.59,13.59,0,0,1-13.42-5,5.41,5.41,0,0,1-1.22-2.74A2.56,2.56,0,0,1,39,24.61,3.93,3.93,0,0,1,42,25C45.14,26.22,48.35,27.53,51.71,27.51Z"/><path class="cls-5" d="M25.39,29.5a11,11,0,0,1-5.85,4.91,13.7,13.7,0,0,1-7.69.42,7,7,0,0,1-4.07-2.2,3.48,3.48,0,0,1-.18-4.34,4,4,0,0,1,2.81-1.14c1-.06,2.08.09,3.12.07,3-.07,6.23-1.5,9.06-2.51,1.14-.41,2.12-.58,3,.47S26.12,28.16,25.39,29.5Z"/><path class="cls-4" d="M17.11,35.91c-3.53.55-11.3-.68-11-5.75a3.5,3.5,0,0,1,3.15-3.25c1.58-.28,3.34,0,5-.17a27.1,27.1,0,0,0,5.34-1.46c1.57-.5,3.33-1.39,5-1.52a2.31,2.31,0,0,1,2.68,2.12C27.88,30.88,21.26,35.26,17.11,35.91Zm7.12-10.52c-1.28-.49-4,1.07-5.14,1.59a15,15,0,0,1-7.48,1.37c-1.21-.07-2.61-.11-3.41.8a2.57,2.57,0,0,0,.08,3.08c1.87,2.59,6.16,2.82,9,2.22a11.46,11.46,0,0,0,5.46-2.87,10.83,10.83,0,0,0,2-2.56C25.33,28,25.81,26,24.23,25.39Z"/><path class="cls-4" d="M17.05,29.13a.92.92,0,0,0,0,1.83A.92.92,0,0,0,17.05,29.13Z"/><path class="cls-4" d="M36.78,25.88a2.31,2.31,0,0,1,2.68-2.12c1.64.13,3.4,1,5,1.52a26.91,26.91,0,0,0,5.34,1.46c1.65.16,3.41-.11,5,.17a3.5,3.5,0,0,1,3.15,3.25c.32,5.07-7.45,6.3-11,5.75C42.78,35.26,36.16,30.88,36.78,25.88ZM39.29,29a10.83,10.83,0,0,0,2,2.56,11.46,11.46,0,0,0,5.46,2.87c2.84.6,7.13.37,9-2.22a2.57,2.57,0,0,0,.08-3.08c-.8-.91-2.2-.87-3.41-.8A15,15,0,0,1,45,27c-1.16-.52-3.86-2.08-5.14-1.59C38.23,26,38.71,28,39.29,29Z"/><path class="cls-4" d="M47,29.13A.92.92,0,0,1,47,31,.92.92,0,0,1,47,29.13Z"/><path class="cls-4" d="M12,19.46a.42.42,0,0,0-.62-.25c-1.29.89-1.95,2.39-3.06,3.49a24.42,24.42,0,0,1-4.22,3.06.23.23,0,0,0,.11.42,7.71,7.71,0,0,0,5.25-2C10.85,23,12.32,21.35,12,19.46Z"/><path class="cls-4" d="M60.51,25.85c-.58-.44-1.32-.63-1.94-1a6.17,6.17,0,0,1-1.66-1.52c-.82-1.06-1-2.56-1.95-3.49a.44.44,0,0,0-.68.09c-1.1,1.5.22,3.68,1.28,4.83s3.22,2.48,4.84,1.95A.48.48,0,0,0,60.51,25.85Z"/><path class="cls-4" d="M38.48,32.79a11.69,11.69,0,0,1-1.09-2c-.09-.18-.43-.1-.4.11a5.86,5.86,0,0,0,.81,2.39c.36.59.9,1.47,1.64,1.54.22,0,.34-.22.31-.4C39.62,33.84,38.85,33.31,38.48,32.79Z"/><path class="cls-4" d="M27,30.39c-.43.57-.75,1.2-1.14,1.81a6.35,6.35,0,0,0-1,1.69.32.32,0,0,0,.46.35,3.34,3.34,0,0,0,1.47-1.65,4.56,4.56,0,0,0,.64-2.09C27.42,30.26,27.12,30.23,27,30.39Z"/><path class="cls-5" d="M47.21,29.51a.31.31,0,0,0,0,.62A.31.31,0,0,0,47.21,29.51Z"/><path class="cls-5" d="M17.17,29.54a.4.4,0,0,0,0,.79A.4.4,0,0,0,17.17,29.54Z"/><path class="cls-4" d="M29.56,39.28c.66-1.58,1.31-3.16,2-4.75a.79.79,0,0,1,1.51,0c1.18,2.94,2.5,5.87,3.42,8.9a.62.62,0,0,1-1.13.47c-1.17-2.29-2.12-4.71-3.07-7.11l-1.5,3.52A13,13,0,0,1,29,44a.55.55,0,0,1-.93-.39A14.49,14.49,0,0,1,29.56,39.28Z"/></g></g></svg>