<svg xmlns="http://www.w3.org/2000/svg" viewBox="0 0 69.45 77.23"><defs><style>.cls-1{fill:#eaeeef;}.cls-2{fill:#bbc1c5;}.cls-3{fill:#93a3a4;}.cls-4{fill:#3e342f;}.cls-5{fill:#e54c3c;}.cls-6{fill:#fff;}</style></defs><g id="Layer_2" data-name="Layer 2"><g id="????_1_?????_" data-name="???? 1 (?????)"><path class="cls-1" d="M66.78,35.7c-.64-1.49-1.58-2.94-1.5-4.6a1,1,0,0,1,0-1.33c3.94-5.65,2.56-14.3,1.18-20.56a.22.22,0,0,0,0-.08,1,1,0,0,1-.54-1.35,10.28,10.28,0,0,0,.39-1.52,1.28,1.28,0,0,1-1.16-1.54A15.65,15.65,0,0,0,65.5,2.5a.93.93,0,0,1-.71.31.78.78,0,0,1-.21,0s0,0,0,.07c-.87,1-2.33-.46-1.46-1.46a.87.87,0,0,0,.06-.75A12,12,0,0,1,59.83,3a1.71,1.71,0,0,1-.66.12A28.15,28.15,0,0,1,48.94,7.85a1.14,1.14,0,0,1-1.31-.6C43.17,5.74,38.06,5,34.41,1.94a8.82,8.82,0,0,0,.19,1.38,1.08,1.08,0,0,1,0,.4A.71.71,0,0,1,34.2,5a.66.66,0,0,1-.52-.23,1.12,1.12,0,0,1-1-.17C32.51,6,30.32,6.46,30,4.88l0-.2a1.38,1.38,0,0,1-2.66.4,1.42,1.42,0,0,1-.63.84A1.29,1.29,0,0,1,25.65,6C18.51,8.56,10,5.23,4.74,0a2.41,2.41,0,0,1-.07,1.2c.8.8-.15,2.34-1.19,1.64l-.12-.09c-.08,0-.17.08-.25.12A16.14,16.14,0,0,1,4,6,1.36,1.36,0,0,1,2.9,7.37a3.67,3.67,0,0,0,.27.81,1.38,1.38,0,0,1-.33,1.69c.07.17.15.33.22.5a1.4,1.4,0,0,1-.49,1.89,1.46,1.46,0,0,1-.83.15c-.45,2.54.24,4.92.63,7.47.28,1.8.07,4.36,1.46,5.72A1.26,1.26,0,0,1,4,27.33a1.2,1.2,0,0,1,0,.27C3.28,31.21,3.4,36,1.07,39a1.3,1.3,0,0,1,1.15,1.69,4.45,4.45,0,0,1-.45,1,1.06,1.06,0,0,1,.25.09,1.39,1.39,0,0,1,.5,1.89,3,3,0,0,0-.19.3c.32,0,.64-.08,1-.09a1.29,1.29,0,0,1,1.28,1.67c2.84,4.76,8.88,11.55,14.85,10.51a1.43,1.43,0,0,1,.78.09.84.84,0,0,1,.57-.21.92.92,0,0,1,.38,1.74,1.1,1.1,0,0,1-.86,1,.06.06,0,0,0,0,0c-.73,1.72-1.18,3.54-2,5.21l.07.21a1.23,1.23,0,0,1,.07.52l0,0a2.13,2.13,0,0,1,.29,2,.72.72,0,0,1-1,.42,5.26,5.26,0,0,1-1.78-1.79.59.59,0,0,1-.08-.36s0,0-.05-.07c-1-2.89-2.41-5.54-5.18-7,0,.05.05.1.08.14.56.71-.44,1.72-1,1l-.1-.15a1.15,1.15,0,0,1-.71,0c-1.12-.4-1.82-.25-2.19.93A4.94,4.94,0,0,0,6.88,63a1.36,1.36,0,0,1-1.23,1.89,3.11,3.11,0,0,0,1.58,1,1.17,1.17,0,0,1,.83,1.51c.66.8,1.43,1.86,2.44,2.09a1.07,1.07,0,0,1,.88.93c.06.07.14.11.2.19,1.41,2,4.31,3.42,6.67,2.49a1,1,0,0,1,1.46.84,2.14,2.14,0,0,1,.19.13,4.91,4.91,0,0,0,3,1.78,12.07,12.07,0,0,0,3.42-.57,1.17,1.17,0,0,1,1.17.37,1.17,1.17,0,0,1,.47.42c.29.48,1.43,1.09,1.75.3A1.21,1.21,0,0,1,31.89,76c1.8,1,5.57,1.32,7.22-.14a1.27,1.27,0,0,1,1.88.22,1.8,1.8,0,0,0,1.61-.22A1.21,1.21,0,0,1,44,75.62a1.31,1.31,0,0,1,.28,0c3.32.62,5.87-.58,8.29-2.47a4.35,4.35,0,0,0,.39-1.35,1.37,1.37,0,0,1,1.42-1.19c-.07-.66-.14-1.32-.22-2a1.23,1.23,0,0,1,1.06-1.21A14.27,14.27,0,0,0,54,63.18c-.75-1.48-2.11-2.61-3-4a1.12,1.12,0,0,1-.21-.48,1.38,1.38,0,0,1-.25-.42.82.82,0,0,1,0-1.64h.11a.7.7,0,0,1,.42.13,1.55,1.55,0,0,1,.23-.08,14.54,14.54,0,0,0,4.42-1.22,22.86,22.86,0,0,0,2.85-1.81c1.85-1.37,4.75-4,5-6.36a1.37,1.37,0,0,1,2-1c-.06-.61-.08-1.23-.08-1.84a1.69,1.69,0,0,1,0-.24,1.17,1.17,0,0,1,0-1.16,1.31,1.31,0,0,1,1-.59c-.55-1,.52-2.4,1.7-1.71A2,2,0,0,0,69,41C68.21,39.26,67.54,37.48,66.78,35.7Z" style="fill: #eaeeef;"></path><path class="cls-2" d="M66.78,35.7c-.64-1.49-1.58-2.94-1.5-4.6a1,1,0,0,1,0-1.33c3.94-5.65,2.56-14.3,1.18-20.56a.22.22,0,0,0,0-.08,1,1,0,0,1-.54-1.35,10.28,10.28,0,0,0,.39-1.52,1.28,1.28,0,0,1-1.16-1.54c.12-.58.25-1.13.33-1.7-.09-.09-.17-.2-.27-.29a.92.92,0,0,1-.38.08.65.65,0,0,1-.2,0l0,.07c-.87,1-2.33-.46-1.46-1.46a.67.67,0,0,0,.1-.45L63,.79A11.79,11.79,0,0,1,59.83,3a1.76,1.76,0,0,1-.67.12A28.11,28.11,0,0,1,48.94,7.85a1.14,1.14,0,0,1-1.31-.6C43.17,5.74,38.06,5,34.41,1.94a8.82,8.82,0,0,0,.19,1.38,1.08,1.08,0,0,1,0,.4A.71.71,0,0,1,34.2,5a.66.66,0,0,1-.52-.23,1.12,1.12,0,0,1-1-.17C32.51,6,30.32,6.46,30,4.88l0-.2a1.38,1.38,0,0,1-2.66.4,1.42,1.42,0,0,1-.63.84A1.29,1.29,0,0,1,25.65,6c-6.86,2.42-15-.55-20.27-5.42l-.69.49s0,.06,0,.09c.8.8-.15,2.34-1.19,1.64l-.12-.09-.25.13A15.85,15.85,0,0,1,4,6,1.36,1.36,0,0,1,2.9,7.37a3.67,3.67,0,0,0,.27.81,1.38,1.38,0,0,1-.33,1.69c.07.17.15.33.22.5a1.4,1.4,0,0,1-.49,1.89,1.46,1.46,0,0,1-.83.15c-.45,2.54.24,4.92.63,7.47.28,1.8.07,4.36,1.46,5.72A1.26,1.26,0,0,1,4,27.33a1.2,1.2,0,0,1,0,.27C3.29,31.19,3.4,36,1.12,39l.12.1a1.39,1.39,0,0,1,1,.84,13,13,0,0,0,2.41,1.5c5.57,2.58,14.23,1,19.2-2.3a20.27,20.27,0,0,0,8.68-13.41c.3-1.85.05-10.91,3.14-9.92,2.45.78,2.4,5.71,2.83,7.71a22.3,22.3,0,0,0,8.41,13c5.72,4.24,15,6.07,21.18,2.33C67.64,37.8,67.23,36.75,66.78,35.7Z" style="fill: #bbc1c5;"></path><path class="cls-2" d="M5.65,64.87a3.11,3.11,0,0,0,1.58,1,1.17,1.17,0,0,1,.83,1.51c.66.8,1.43,1.86,2.44,2.09a1.07,1.07,0,0,1,.88.93c.06.07.14.11.2.19a7,7,0,0,0,3.71,2.57,9.56,9.56,0,0,1-2.87-12.14A7.18,7.18,0,0,0,13,59.68a8.88,8.88,0,0,0-2.36-1.85c0,.05.05.1.08.14.56.71-.44,1.72-1,1l-.1-.15a1.15,1.15,0,0,1-.71,0c-1.12-.4-1.82-.25-2.19.93A4.94,4.94,0,0,0,6.88,63,1.36,1.36,0,0,1,5.65,64.87Z" style="fill: #bbc1c5;"></path><path class="cls-2" d="M51.63,73.83c.3-.21.61-.43.91-.67a4.42,4.42,0,0,0,.4-1.36,1.37,1.37,0,0,1,1.42-1.19c-.07-.66-.14-1.32-.22-2a1.23,1.23,0,0,1,1.06-1.21A14.27,14.27,0,0,0,54,63.18c-.75-1.48-2.11-2.61-3-4a1.12,1.12,0,0,1-.21-.48,1.38,1.38,0,0,1-.25-.42.82.82,0,0,1,0-1.64h.11a.7.7,0,0,1,.42.13,1.55,1.55,0,0,1,.23-.08,16.14,16.14,0,0,0,4.08-1.07c-.06-.14-.13-.28-.2-.42A20,20,0,0,1,46,56.7,20.43,20.43,0,0,1,51.63,73.83Z" style="fill: #bbc1c5;"></path><path class="cls-2" d="M19.7,74a1.37,1.37,0,0,1,.2.13,5,5,0,0,0,2.86,1.74,17.24,17.24,0,0,1-1.4-8.74c.11-1,2.63-10.6,3.68-10.51-.76-.07-2.66-.51-4.23-.63a.92.92,0,0,1,.34,1.73,1.1,1.1,0,0,1-.86,1,.06.06,0,0,0,0,0c-.73,1.72-1.18,3.54-2,5.22,0,.07,0,.13.07.2a1.23,1.23,0,0,1,.07.52l0,0a2.13,2.13,0,0,1,.29,2,.72.72,0,0,1-1,.42l-.39-.28a18.2,18.2,0,0,0,.3,2.76A14.33,14.33,0,0,0,18.73,73,1.06,1.06,0,0,1,19.7,74Z" style="fill: #bbc1c5;"></path><path class="cls-3" d="M5.2,37.12a19.19,19.19,0,0,1,10.33-3.37c2.25-.06,4.85.52,5.84,2.53s-.05,4.25-1.7,5.53a12.19,12.19,0,0,1-5.85,2,19,19,0,0,1-8.47-.18,3.88,3.88,0,0,1-2.46-1.76,3,3,0,0,1,.25-2.78A6.7,6.7,0,0,1,5.2,37.12Z" style="fill: #93a3a4;"></path><path class="cls-3" d="M63.2,42.1a37.87,37.87,0,0,1-5.63-.39,17.4,17.4,0,0,1-5.44-1.59c-1.24-.64-2.5-1.82-2.25-3.2s1.71-2,3-2.3a16.54,16.54,0,0,1,11.77,1.76,5.9,5.9,0,0,1,2,1.62A2.61,2.61,0,0,1,67,40.42C66.45,41.79,64.67,42.09,63.2,42.1Z" style="fill: #93a3a4;"></path><path class="cls-1" d="M4.17,11c.15-1.56.62-3.35,2.06-4A4.08,4.08,0,0,1,8.86,7a11.73,11.73,0,0,1,5.86,3.77A26.65,26.65,0,0,0,6,23.51,26.81,26.81,0,0,1,4.17,11Z" style="fill: #eaeeef;"></path><path class="cls-1" d="M62,8.92a5,5,0,0,1,2.25,3.15,12.54,12.54,0,0,1,.23,4,48.72,48.72,0,0,1-1.71,10,15.68,15.68,0,0,0-3-8.85,25.89,25.89,0,0,0-6.83-6.49c1.5-.55,2.88-1.39,4.39-1.91A5.78,5.78,0,0,1,62,8.92Z" style="fill: #eaeeef;"></path><path class="cls-3" d="M9.67,59l-.1-.15a1.15,1.15,0,0,1-.71,0c-1.12-.4-1.82-.25-2.19.93a4.91,4.91,0,0,0,.17,3.12,3.42,3.42,0,0,0,2.88-1.48A2.55,2.55,0,0,0,10,59.19.59.59,0,0,1,9.67,59Z" style="fill: #93a3a4;"></path><path class="cls-4" d="M30.47,6.89a2.13,2.13,0,0,1-.82-1.18,1.62,1.62,0,0,1,0-1.31c.06-.18.33-.31.48-.13s.22.24.32.38a4.11,4.11,0,0,1,.27.56,5.54,5.54,0,0,1,.63,1A.58.58,0,0,1,30.47,6.89Zm-1.83,0a.48.48,0,0,0,.13-.49,4,4,0,0,0-1.19-1.66.36.36,0,0,0-.59.34,4.12,4.12,0,0,0,.93,1.81.51.51,0,0,0,.5.13A.38.38,0,0,0,28.64,6.89Zm-2.78-.8a10.2,10.2,0,0,0-5.75.46c-2.47-.81-5-1.42-7.42-2.37A45.57,45.57,0,0,1,4.77.11c-.48-.3-1.25.21-1,.78L4.4,2.51l-1.07-.3A.69.69,0,0,0,2.49,3c.28,1.61.88,4,2.58,4.55a.29.29,0,0,0,.37-.29,15.24,15.24,0,0,0-1.3-3.45l1.23.36c.46.13,1-.35.84-.84l-.39-1A34.59,34.59,0,0,0,18.46,7.2a13.14,13.14,0,0,0-6,5,.6.6,0,0,0,.94.72c1.92-1.48,3.44-3.17,5.65-4.3s4.49-1.27,6.78-2A.23.23,0,0,0,25.86,6.09Zm38.46,21c0,4.41,1.8,9.1,3.68,13.12A8.76,8.76,0,0,1,66.55,40a.53.53,0,0,0-.64.36,3.69,3.69,0,0,0,0,1.72L65.69,42a.56.56,0,0,0-.69.39,8.25,8.25,0,0,0,.08,4.3c.16.49,1,.44.94-.13a15.1,15.1,0,0,1,0-3.29l.88.31c.58.19.85-.54.54-.93L67,41.18a10.29,10.29,0,0,0,1.86.17.57.57,0,0,0,.49-.85,71.17,71.17,0,0,1-2.66-6.9c-.38-1.22-.7-2.46-1-3.69a.56.56,0,0,0,.14-.16c1.15-1.92,2.64-5.14,1.77-7.4-.08-.2-.42-.32-.53-.06a20.65,20.65,0,0,0-.69,3.16,14.1,14.1,0,0,1-1.15,2.95c-.15-.46-.31-.91-.49-1.36A.21.21,0,0,0,64.32,27.09ZM1.11,39.68a17.83,17.83,0,0,0,2.37-7c.23-1.3.44-2.61.75-3.9s.87-2.41,1.19-3.65A.22.22,0,0,0,5.06,25a4.16,4.16,0,0,0-.42.42,43.66,43.66,0,0,1-1.81-6.52c-.3-2.15.22-4.63-.4-6.68a.28.28,0,0,0-.5-.07C.8,14,1.24,17,1.52,19a18.52,18.52,0,0,0,2.17,7.29.49.49,0,0,0,.19.19,17.36,17.36,0,0,0-1.33,4.77C2.06,34,1.67,36.73.1,39.09-.32,39.72.7,40.31,1.11,39.68ZM.88,41.75a.63.63,0,0,0,.37.92,3.9,3.9,0,0,0,.71.1c-.17.33-.33.66-.49,1a.62.62,0,0,0,.69.9l1.53-.24c.84,2.29,2.48,5.61,4.85,6.25A.41.41,0,0,0,9,50.08,18.84,18.84,0,0,0,6.75,47.4a13.41,13.41,0,0,1-2-3.85.66.66,0,0,0-.78-.44l-.88.15.55-1.17c.24-.49-.27-1.16-.81-.81l-.29,0a7.81,7.81,0,0,0,.81-2.72c0-.33-.43-.4-.58-.16C2.05,39.51,1.54,40.67.88,41.75ZM25.56,55.61a40.13,40.13,0,0,1-9.09-.77,16.34,16.34,0,0,1-4-1.59,22,22,0,0,0-2.57-1.59c-.23-.09-.37.21-.29.38,1,2.18,4.11,3.36,6.27,4a26.41,26.41,0,0,0,5.25.87,16.19,16.19,0,0,0-2.46,3.66A9.32,9.32,0,0,0,17.3,65a.53.53,0,0,0,1,.27c.68-1.24.88-2.73,1.49-4a21.19,21.19,0,0,1,2.5-4,.64.64,0,0,0,.12-.25c1.06,0,2.13.07,3.18.07A.71.71,0,0,0,25.56,55.61ZM66,2.34A.65.65,0,0,0,65,2a6.55,6.55,0,0,1-1.36.71A16.85,16.85,0,0,0,63.94.77.66.66,0,0,0,63,.2a48.33,48.33,0,0,1-6.83,4.2c-2.24,1.12-4.75,1.72-7,2.86a27.4,27.4,0,0,0-2.91-1.15c-2-.66-4-1.11-6-1.76a34.87,34.87,0,0,1-6-2.92.35.35,0,0,0-.51.39,15.24,15.24,0,0,0,.55,2.56,7.27,7.27,0,0,1-1-1,.57.57,0,0,0-.95.25,3.36,3.36,0,0,0,.43,2.82c.46.72,1.62,0,1.13-.66a2.54,2.54,0,0,1-.34-.49,7.72,7.72,0,0,0,1.72,1c.51.22,1.15-.26.81-.81a17.64,17.64,0,0,1-1.23-2.41c2.27,2,5.77,2.83,8.56,3.58,4.11,1.11,7.52,2.39,10.46,5.56.24.26.57-.07.45-.35A8.71,8.71,0,0,0,50.61,8a29.07,29.07,0,0,0,5.57-2.19,41.39,41.39,0,0,0,6.28-3.67q-.1.63-.27,1.26a.63.63,0,0,0,.78.78,7.91,7.91,0,0,0,1.83-.63,6.69,6.69,0,0,1-1,2.51.49.49,0,0,0,.66.66C66,5.91,66.29,3.94,66,2.34Zm.37,3.84c-.09-.22-.45-.35-.57-.08a9,9,0,0,1-.38.9,4.61,4.61,0,0,1-.64.76.49.49,0,0,0-.12.46.55.55,0,0,0,.12.21.52.52,0,0,0,.58.08A2.07,2.07,0,0,0,66.36,6.18Zm1.43,14.14c.85-1.67.5-4,.33-5.77s-.31-4.11-1.38-5.67a.37.37,0,0,0-.68.18c-.2,1.89.5,3.95.65,5.84.14,1.7-.19,3.73.4,5.33A.38.38,0,0,0,67.79,20.32ZM4.49,8.64a2.62,2.62,0,0,1-.71-1.11c-.13-.37-.13-.81-.44-1.08a.29.29,0,0,0-.33,0c-.55.28-.48,1-.37,1.51a3.12,3.12,0,0,0,.95,1.62C4.19,10.11,5.09,9.2,4.49,8.64Zm-2.12.79a1.61,1.61,0,0,0,0,.87,2.3,2.3,0,0,0,1.2,1.5c.54.21.93-.48.7-.91a2.93,2.93,0,0,0-.45-.54,3.38,3.38,0,0,1-.3-.47c-.19-.31-.34-.71-.69-.86S2.42,9.24,2.37,9.43Zm53,58.21a14.58,14.58,0,0,0-2.11-5.86,14.58,14.58,0,0,0-3.3-4.4l.9-.14A17.58,17.58,0,0,0,57,55.07c3-1.75,6.75-5.16,7.26-8.79,0-.31-.37-.7-.63-.37-1.11,1.43-1.82,3.09-3,4.49A16.26,16.26,0,0,1,50.88,56c-1.82.31-4-.24-5.66.28a.36.36,0,0,0-.08.66,6,6,0,0,0,3.94.58c.9,1.72,2.27,3.17,3.19,4.9s1.37,3.71,2.24,5.49A.49.49,0,0,0,55.41,67.64ZM53,66.75a22,22,0,0,0,.51,2.54c.13.75,0,1.75.53,2.32a.4.4,0,0,0,.57,0c.57-.67.25-1.69,0-2.48a5.27,5.27,0,0,0-1.22-2.56A.26.26,0,0,0,53,66.75Zm-45.09-3c-.82-.89-1.66-2-1.32-3.35.59-2.25,3-1.13,4.15,0a.41.41,0,0,0,.68-.39l-.53-1.53c1.4,1,2.17,2.91,2.83,4.42a10.69,10.69,0,0,0,3,4.34c.42.34,1-.22.61-.61-1.73-1.64-2.18-4.06-3.32-6.08a6.38,6.38,0,0,0-3.53-3c-.22-.09-.42.16-.37.36s.18.7.26,1c-1.3-1-2.95-1.39-4.14.15-1.37,1.79-.3,4,1,5.4C7.66,64.93,8.39,64.2,7.94,63.72Zm-2.35.13c-.18.6.33,1.22.69,1.65a3.37,3.37,0,0,0,1.55,1.14c.51.13,1-.56.55-.94a12.92,12.92,0,0,1-1.27-.93c-.34-.35-.55-.91-1-1.14A.37.37,0,0,0,5.59,63.85ZM8.36,69a3,3,0,0,0,2.16,1c.81,0,1.09-1.36.21-1.49A3.32,3.32,0,0,1,9.35,68c-.35-.24-.67-.83-1.14-.78C7.22,67.33,8,68.6,8.36,69Zm2.36,1.74c1.1,2.51,5.74,4.74,8.37,3.71l.09-.06c1.69,2.25,4.46,3.44,7.5,1.79l0,0a3.91,3.91,0,0,0,2.17.82,2.93,2.93,0,0,0,2-.74.91.91,0,0,0,.27.18c2.35.87,6.18,1.47,8.34-.26a3.25,3.25,0,0,0,.92.67,3.49,3.49,0,0,0,3.39-.37.62.62,0,0,0,.31.08c2.46.11,5.18.08,7.24-1.48,1.34-1,2.92-3.22,1.78-4.88a.28.28,0,0,0-.5.07c-.73,1.82-1,3.27-2.94,4.22a9.15,9.15,0,0,1-4.27.73,11.32,11.32,0,0,0,1.34-1.54c.33-.46-.39-1-.77-.59-1.15,1.13-3.56,3.4-5.18,2-1.3-1.1-1.51-3.49-1.59-5a.39.39,0,0,0-.77-.1,6.51,6.51,0,0,0,.48,5.48c-1.08,0-2.15.36-3.25.37a11.79,11.79,0,0,1-3.9-.7A6.44,6.44,0,0,0,32.54,71c-.06-.35-.53-.27-.64,0-.39,1-.38,2.16-1,3.1a2,2,0,0,1-3.1.53c-1.19-1-1.78-2.54-3-3.38a.29.29,0,0,0-.42.17A4.2,4.2,0,0,0,25.56,75c-2.7,1.19-5.44-.69-6.28-3.4-.73-2.35.26-4.39.53-6.68,0-.31-.4-.45-.6-.25C17,67,17.06,70.43,18.39,73.08A15.76,15.76,0,0,1,15,72.46a22.34,22.34,0,0,1-3.69-2.38C10.92,69.81,10.56,70.32,10.72,70.7Z" style="fill: #3e342f;"></path><path class="cls-5" d="M21.5,26.41C20.16,23.88,16.57,23,14,24.36a7.71,7.71,0,0,0-3.8,7.21,11.9,11.9,0,0,0,3.71,7.57,27.08,27.08,0,0,0,7.12,4.77,63.68,63.68,0,0,0,6.9-4,14.45,14.45,0,0,0,5.11-6,8.25,8.25,0,0,0-.5-7.64,6.64,6.64,0,0,0-11.06.11Z" style="fill: #e54c3c;"></path><path class="cls-5" d="M49.88,26.36A6.75,6.75,0,0,0,37.44,30a10.5,10.5,0,0,0,1,4.14,13.11,13.11,0,0,0,2.68,4.1c2.58,2.51,6.43,3.26,9.21,5.53a22.75,22.75,0,0,0,9.25-6.66A9.49,9.49,0,0,0,62,32.29,8,8,0,0,0,59.55,26a7.71,7.71,0,0,0-5.07-2.5A4.73,4.73,0,0,0,49.88,26.36Z" style="fill: #e54c3c;"></path><path class="cls-4" d="M49.69,44.27a.62.62,0,0,0,.83.26c6.25-3,15.12-9.4,11-17.62-2.11-4.24-10.13-6.12-11.78-1.22-2.46-4.89-10.45-3.48-12.51,1.44C33.68,35.7,43.19,41.5,49.69,44.27Zm-11-11.61c-.88-3.25.41-7.13,3.87-8.22,2.91-.91,5,.66,6.91,2.59l0,.37a.25.25,0,0,0,.47.13l.07-.09a.29.29,0,0,0,.26-.35v0c4.5-6.12,11.9-.59,10,6.16-1.3,4.67-5.65,7.6-9.67,9.85L50.5,43C45.88,40.71,40.22,38.12,38.73,32.66Z" style="fill: #3e342f;"></path><path class="cls-4" d="M43.56,15.29c2.65.5,4.85,2.56,7.49,3.34,3.07.9,5.93.49,9,.8a.26.26,0,0,1,.13.47c-4.28,2.83-15.29,1.29-17.1-4.13A.39.39,0,0,1,43.56,15.29Z" style="fill: #3e342f;"></path><path class="cls-4" d="M34.23,27.13c-2.06-4.92-10-6.33-12.51-1.44-1.65-4.9-9.67-3-11.78,1.22C5.85,35.13,14.72,41.5,21,44.53a.62.62,0,0,0,.83-.26C28.3,41.5,37.81,35.7,34.23,27.13ZM21,43l-.12.07c-4-2.25-8.38-5.18-9.68-9.85-1.88-6.75,5.52-12.28,10-6.16v0a.29.29,0,0,0,.26.35l.07.09A.25.25,0,0,0,22,27.4L22,27c1.88-1.93,4-3.5,6.91-2.59,3.46,1.09,4.75,5,3.87,8.22C31.27,38.12,25.61,40.71,21,43Z" style="fill: #3e342f;"></path><path class="cls-4" d="M27.93,15.29c-2.65.5-4.85,2.56-7.49,3.34-3.07.9-5.93.49-9,.8a.25.25,0,0,0-.12.47c4.27,2.83,15.28,1.29,17.09-4.13A.39.39,0,0,0,27.93,15.29Z" style="fill: #3e342f;"></path><path class="cls-4" d="M34,40.78c.29,0,.26.41.07.55a6.44,6.44,0,0,0-1.93,1.55A2.79,2.79,0,0,0,32.28,46a2.15,2.15,0,0,0,2.56.68c.82-.35,1-1,1.37-1.63a1.5,1.5,0,0,1,.16-.43.5.5,0,0,1,.67-.17c1.1.62,1.56,2.65,3.21,1.92,1.92-.84-.09-3.61-1.1-4.31-.2-.14-.09-.52.18-.43,2.21.81,4.43,4.07,2.1,6a3.16,3.16,0,0,1-3.53.27,4,4,0,0,1-1.11-1,3.8,3.8,0,0,1-1.25,1.13,3.72,3.72,0,0,1-4.25-.72C29.11,45.23,30.59,40.18,34,40.78Z" style="fill: #3e342f;"></path><path class="cls-6" d="M15.6,26.16c2.64,0,2.65,4.1,0,4.1S13,26.16,15.6,26.16Z" style="fill: #fff;"></path><path class="cls-6" d="M42.45,25.78l.11,0a2.32,2.32,0,1,1,0,4.47l-.11,0A2.3,2.3,0,0,1,40.77,28,2.33,2.33,0,0,1,42.45,25.78Z" style="fill: #fff;"></path><path class="cls-6" d="M13.8,31.49a.67.67,0,0,1,0,1.33A.67.67,0,0,1,13.8,31.49Z" style="fill: #fff;"></path><path class="cls-6" d="M19,27.09a.56.56,0,0,1,0,1.12A.56.56,0,0,1,19,27.09Z" style="fill: #fff;"></path><path class="cls-6" d="M41.48,31.22a.82.82,0,0,1,0,1.64A.82.82,0,0,1,41.48,31.22Z" style="fill: #fff;"></path><path class="cls-6" d="M47.56,27a.68.68,0,0,1,0,1.36A.68.68,0,0,1,47.56,27Z" style="fill: #fff;"></path></g></g></svg>