<svg xmlns="http://www.w3.org/2000/svg" viewBox="0 0 68.97 81.58"><defs><style>.cls-1{fill:#f5f3f0;}.cls-2{fill:#f9ce97;}.cls-3{fill:#f7b056;}.cls-4{fill:#3e342f;}.cls-5{fill:#e54c3c;}.cls-6{fill:#fff;}</style></defs><g id="Layer_2" data-name="Layer 2"><g id="Ñëîé_1_êîïèÿ_" data-name="Ñëîé 1 (êîïèÿ)"><path class="cls-1" d="M68.33,19.46a1.21,1.21,0,0,0-.36.87v0s0,.06,0,.08a1.45,1.45,0,0,0,0,.42,1.22,1.22,0,0,0,.68.8,4.28,4.28,0,0,1-.56.65A1.14,1.14,0,0,0,68,23.87v0c.1,4.65.12,9.36-2.22,13.53a1,1,0,0,0-.11.36,1.23,1.23,0,0,0-.24,1.09c.88,3.84,1,11.47-3,13.7a1.16,1.16,0,0,0-.62,1.22,3,3,0,0,1-1.14.94,1.6,1.6,0,0,0-.79.63,1.15,1.15,0,0,0-.72.16c-3,1.73-6,4.57-9.6,4.95A1.39,1.39,0,0,0,48.85,63c.31.83.83,1.5,1.19,2.3a13.11,13.11,0,0,1,.47,2.8,1.32,1.32,0,0,0,2.42.91c1.15-2,2-4.26,3.31-6.15a9.1,9.1,0,0,1,2.95-2.49c4.63,1.28,2.7,6.12.87,9.12A14,14,0,0,1,49.8,76.57a1,1,0,0,0-.95,1c-1.16,1.52-4,1.62-5.67,1.3a1.33,1.33,0,0,0-1.38.57A1.25,1.25,0,0,0,41,80c-.83,1.38-2.57.83-3.49-.16a1.16,1.16,0,0,0-1.61-.14s-.07,0-.11,0a7,7,0,0,1-5.21-.19,1.42,1.42,0,0,0-1.86.71l-.07,0a2,2,0,0,1-2.06-.11A1.2,1.2,0,0,0,25,80.06a.89.89,0,0,0-.23,0c-5.25,1.41-7.89-4.66-8-8.76-.09-3.35,1.06-5.53,2.28-8.41a1.33,1.33,0,0,0-.48-2.54c-4.34,0-7.34-2.69-10.1-5.73,0,0,0,0,0,0a1.56,1.56,0,0,0-.87-.86A2.57,2.57,0,0,1,6.4,52.38a1.24,1.24,0,0,0-1.1-.62c-1.52-3.39-1.4-7-1.56-10.72a1.32,1.32,0,0,0-.26-.71,1.24,1.24,0,0,0-.24-1.43c-1.18-1.25-2.22-3.3-1.74-5a1.18,1.18,0,0,0-.63-1.44,1.45,1.45,0,0,0-.06-1.83A11.76,11.76,0,0,0,1,26.06C.58,20.71.15,15.53,2.27,10.47l0-.09a1.16,1.16,0,0,0,.07-1.85l-.21-.17a1.42,1.42,0,0,0,.69-2.17,1.25,1.25,0,0,0,.73-2,1.18,1.18,0,0,0,.59-.17,1.33,1.33,0,0,0,.48-1.81c-.13-.18-.25-.36-.37-.55A1.42,1.42,0,0,0,5.8.75,7.39,7.39,0,0,0,6.94,2a1.45,1.45,0,0,0,1.22.33,17,17,0,0,0,3.69,2.19C15.12,6,19.52,7.22,20.69,11a1.33,1.33,0,0,0,.39.59,1.26,1.26,0,0,0,1.88.75c2.78-1.71,7.48-1.55,10.74-1.71,3.52-.16,7.19-.13,10.21,1.92a1.24,1.24,0,0,0,1.92-1.07h0C49,8.09,53.72,7.59,58,6.3a20.35,20.35,0,0,0,6.84-3.65,1.15,1.15,0,0,0,.33.1,1.31,1.31,0,0,0,.42,1.62A1.39,1.39,0,0,0,67,5.85c-.4.35-.79.71-1.21,1A1.29,1.29,0,0,0,66.18,9a1.47,1.47,0,0,0,.29.64c1.9,2.31,1.59,6,1.58,8.78a1.21,1.21,0,0,0,.41.95A1,1,0,0,0,68.33,19.46Z"/><path class="cls-2" d="M1,26.06C.58,20.71.15,15.53,2.27,10.47l0-.09a1.16,1.16,0,0,0,.07-1.85l-.21-.17a1.42,1.42,0,0,0,.69-2.17,1.25,1.25,0,0,0,.73-2,1.18,1.18,0,0,0,.59-.17,1.33,1.33,0,0,0,.48-1.81c-.13-.17-.24-.36-.36-.54A1.43,1.43,0,0,0,5.8.75,7.39,7.39,0,0,0,6.94,2a1.45,1.45,0,0,0,1.22.33,17,17,0,0,0,3.69,2.19C15.12,6,19.52,7.22,20.69,11a1.33,1.33,0,0,0,.39.59,1.26,1.26,0,0,0,1.88.75c2.78-1.71,7.48-1.55,10.74-1.71,3.52-.16,7.19-.13,10.21,1.92a1.24,1.24,0,0,0,1.92-1.07h0C49,8.09,53.72,7.59,58,6.3a20.55,20.55,0,0,0,6.85-3.64,1,1,0,0,0,.32.09,1.31,1.31,0,0,0,.42,1.62A1.39,1.39,0,0,0,67,5.85c-.4.35-.79.71-1.21,1A1.29,1.29,0,0,0,66.18,9a1.47,1.47,0,0,0,.29.64c1.9,2.31,1.59,6,1.58,8.78a1.21,1.21,0,0,0,.41.95,1,1,0,0,0-.13.09,1.21,1.21,0,0,0-.36.87v0s0,.06,0,.08a1.45,1.45,0,0,0,0,.42,1.22,1.22,0,0,0,.68.8,4.28,4.28,0,0,1-.56.65A1.14,1.14,0,0,0,68,23.87v0c.1,4.65.12,9.36-2.22,13.53a1,1,0,0,0-.11.36,1.23,1.23,0,0,0-.24,1.09,22.34,22.34,0,0,1,.39,6.83l-.08,0c-5.57,2.58-14.23,1-19.2-2.3A20.24,20.24,0,0,1,37.8,30c-.31-1.84,0-10.91-3.14-9.92-2.46.78-2.4,5.71-2.83,7.71a22.3,22.3,0,0,1-8.41,13C18.17,44.75,9.92,46.61,3.84,44c0-1-.06-2-.1-3a1.32,1.32,0,0,0-.26-.71,1.24,1.24,0,0,0-.24-1.43c-1.18-1.25-2.22-3.3-1.74-5a1.18,1.18,0,0,0-.63-1.44,1.45,1.45,0,0,0-.06-1.83A11.76,11.76,0,0,0,1,26.06Z"/><path class="cls-2" d="M60.06,69.49a16.11,16.11,0,0,1-3.38,4c.09-.22.18-.43.26-.65a9.72,9.72,0,0,0-.57-7.44,6.91,6.91,0,0,1-.62-1.75c.16-.27.31-.54.49-.8a9.1,9.1,0,0,1,2.95-2.49C63.82,61.65,61.89,66.49,60.06,69.49Z"/><path class="cls-2" d="M18.58,77.33a12.35,12.35,0,0,1-1.8-6c-.09-3.34,1.06-5.53,2.28-8.4a1.38,1.38,0,0,0,.53-2.06,20,20,0,0,0,4.77.21A20.4,20.4,0,0,0,18.58,77.33Z"/><path class="cls-2" d="M50.46,76.44c-.22,0-.43.1-.66.13a1,1,0,0,0-.94,1,3.77,3.77,0,0,1-2.31,1.29,17.37,17.37,0,0,0,.87-7.4c-.1-1-2.62-10.6-3.68-10.51,1.12-.1,4.75-1,6.07-.52l-.31.06A1.39,1.39,0,0,0,48.85,63c.31.83.83,1.5,1.19,2.3a13.11,13.11,0,0,1,.47,2.8,1.31,1.31,0,0,0,1,1.49,21.57,21.57,0,0,1-.32,4.32A15,15,0,0,1,50.46,76.44Z"/><path class="cls-3" d="M48.94,40.64c1-2,3.59-2.59,5.84-2.53a19.19,19.19,0,0,1,10.33,3.37c.24.17.47.34.7.53a19.66,19.66,0,0,1-.42,5.86L65,48a19,19,0,0,1-8.47.18,12.28,12.28,0,0,1-5.85-2C49,44.89,48,42.51,48.94,40.64Z"/><path class="cls-3" d="M3.78,42.25a6.06,6.06,0,0,1,1.86-1.51A16.54,16.54,0,0,1,17.41,39c1.31.3,2.78,1,3,2.3s-1,2.56-2.25,3.2a17.4,17.4,0,0,1-5.44,1.59,37.87,37.87,0,0,1-5.63.39,5.24,5.24,0,0,1-3.18-.84C3.85,44.51,3.82,43.38,3.78,42.25Z"/><path class="cls-1" d="M64.09,18.18c-.15-1.56-.62-3.34-2.06-4a4,4,0,0,0-2.62,0A11.69,11.69,0,0,0,53.54,18a26.65,26.65,0,0,1,8.75,12.75A26.68,26.68,0,0,0,64.09,18.18Z"/><path class="cls-1" d="M7.58,13.28a5.06,5.06,0,0,0-2.25,3.16,12.45,12.45,0,0,0-.22,3.95,48.06,48.06,0,0,0,1.71,10,15.74,15.74,0,0,1,3-8.85,25.93,25.93,0,0,1,6.84-6.49c-1.5-.55-2.89-1.39-4.4-1.9A5.74,5.74,0,0,0,7.58,13.28Z"/><path class="cls-3" d="M61.26,67.17a3.32,3.32,0,0,1-2.2-1.43C57.94,64,59.24,62,61,61.28,62.56,62.67,62.18,65,61.26,67.17Z"/><path class="cls-4" d="M4.28,44.25a53.18,53.18,0,0,1,.54-8.82c0-.27-.35-.27-.44-.06a17.23,17.23,0,0,0-.71,2.21c-.25-.4-.55-.78-.71-1.1-.45-.92-.55-2-1.24-2.82a.32.32,0,0,0-.52.14c-.43,1,.15,2.24.56,3.2.29.64.79,2,1.59,2.21a25,25,0,0,0-.18,5.73c.19,2.46.4,6.35,2.21,8.15a.23.23,0,0,0,.39-.17A12.57,12.57,0,0,0,5,49.18,29.27,29.27,0,0,1,4.28,44.25Zm2.9,8.36a2,2,0,0,1,.36,1.47.31.31,0,0,1-.44.18c-.5-.23-.64-.79-.84-1.26a3.72,3.72,0,0,1-.43-1.65.24.24,0,0,1,.4-.17A3.86,3.86,0,0,1,7.18,52.61ZM61,53.1a7,7,0,0,1-.15,1.29s0,0,0,0A5.15,5.15,0,0,0,62,51.89a.26.26,0,0,1,.5,0,3.3,3.3,0,0,1-1.1,3,.42.42,0,0,1-.69-.25,1.61,1.61,0,0,1-1.18,1.25.3.3,0,0,1-.37-.27,2.08,2.08,0,0,1,.48-1.34c.26-.47.61-.87.9-1.32A.22.22,0,0,1,61,53.1ZM65.72,3.74a.49.49,0,0,1,.61.46c0,.8-.85,1.35-1.44,1.78a4,4,0,0,1-2.22,1,.43.43,0,0,1-.3-.73c.53-.47,1.18-.77,1.74-1.2S65.07,3.89,65.72,3.74Zm1.47,2.42A4.73,4.73,0,0,1,66,7.48a1.84,1.84,0,0,1-1.59.44.3.3,0,0,1-.17-.44c.2-.4.65-.61,1-.88a4.83,4.83,0,0,0,1-1C66.6,4.94,67.6,5.49,67.19,6.16Zm.26,6.92c-.3-1.53-1.29-2.88-1.47-4.4a.27.27,0,0,1,.41-.23c2.51,1.42,3.38,7.54,1.74,9.79-.14.19-.54.22-.58-.08C67.31,16.47,67.79,14.81,67.45,13.08Zm1.44,6.27a.6.6,0,0,1-.42.73l-.55.11a1.61,1.61,0,0,1-.65-.07.4.4,0,0,1-.17-.66,2.14,2.14,0,0,1,.52-.37c.17-.06.36-.1.54-.15A.6.6,0,0,1,68.89,19.35Zm0,2.33a.51.51,0,0,1-.5.61h0a.65.65,0,0,1-.45-.07h0a1.53,1.53,0,0,1-.26-.08.57.57,0,0,1-.26-.65,1,1,0,0,1,.42-.51.71.71,0,0,1,.82.1.52.52,0,0,1,.1.11A.72.72,0,0,1,68.89,21.68Zm-.58,2.43c.77,2.12.47,4.73.14,6.92-.3,2-.63,5.07-2.16,6.48a.31.31,0,0,1-.24.07,21.14,21.14,0,0,1,.32,6.15c-.2,2.62-.7,6.54-2.79,8.39-.16.13-.47.06-.44-.18a18.27,18.27,0,0,1,1.11-3.7,22.64,22.64,0,0,0,.92-4.83c.24-3-.65-5.8-.82-8.78,0-.25.31-.29.44-.11a8.09,8.09,0,0,1,1,2.22,17.19,17.19,0,0,1,.74-2.42,26.28,26.28,0,0,0,.77-3.52c.32-2.23,0-4.48.36-6.69C67.74,23.77,68.21,23.86,68.31,24.11ZM5,.34c0-.26.32-.42.52-.3.76.47,1.25,1.19,2,1.68a17.27,17.27,0,0,0,2.81,1.43c1.61.67,3.25,1.24,4.81,2,2.68,1.39,5.57,3.69,6.5,6.71A33.12,33.12,0,0,1,34.37,9.78,31.73,31.73,0,0,1,45.1,12c1.66-2.69,5.44-4.13,8.24-5.13,1.84-.67,3.73-1.2,5.62-1.72a46.4,46.4,0,0,0,6.1-2.64.46.46,0,0,1,.55.73C63.28,5.72,59,6.81,55.78,7.74a36.54,36.54,0,0,0-5.74,2,24.19,24.19,0,0,0-3.86,2.65,33.29,33.29,0,0,1,8.21,5.13c.46.38-.15,1.16-.64.82a36.31,36.31,0,0,0-19.38-6.63A34.2,34.2,0,0,0,24,13.06,61.92,61.92,0,0,0,13.9,17.23a.21.21,0,0,1-.25-.33,22.68,22.68,0,0,1,7.16-4.67C18.57,8.52,15.37,6.57,11.26,5,9.12,4.2,5.33,3,5,.34ZM3.34,1.56A.58.58,0,0,1,4.4,1.12a6,6,0,0,0,1,1.45c.4.37,1,.54,1.24,1.08a.39.39,0,0,1-.18.44C5.8,4.45,5,3.82,4.53,3.42A3.38,3.38,0,0,1,3.34,1.56ZM3.08,4.41A.56.56,0,0,1,4,3.73a7.38,7.38,0,0,0,.69.68A3.11,3.11,0,0,1,5.41,5a.35.35,0,0,1-.2.51A1.49,1.49,0,0,1,4,5.3,2.73,2.73,0,0,1,3.08,4.41Zm-.39,2a.52.52,0,0,1,.24-.59c.29-.2.61,0,.89.09a1.29,1.29,0,0,1,.3.22.68.68,0,0,1,.14.23v.08a.34.34,0,0,1-.15.38s0,0,0,0a.21.21,0,0,1-.1.06L3.82,7a1,1,0,0,1-.43,0A.77.77,0,0,1,2.69,6.42ZM2.57,7.84A.57.57,0,0,1,2.57,9,.57.57,0,0,1,2.57,7.84ZM.48,27.89A78.67,78.67,0,0,1,0,17.59c.08-2.37.33-5.38,2.16-7.11.16-.15.46,0,.38.22a25.09,25.09,0,0,0-1.29,4,22.38,22.38,0,0,0-.2,4.17c.06,3,.29,6,.39,9.06C1.49,28.54.54,28.52.48,27.89Zm1.2,1.3c.43,0,.33.68.23.94a2.4,2.4,0,0,1-.73,1.15.54.54,0,0,1-.8-.46,2.06,2.06,0,0,1,.45-1C1,29.47,1.26,29.16,1.68,29.19Zm-.34,3.58a.62.62,0,0,1-.85,0,.59.59,0,0,1,0-.85,5.46,5.46,0,0,1,.45-.36l.18-.1a1.59,1.59,0,0,1,.32-.1A.46.46,0,0,1,2,32a1.06,1.06,0,0,1-.15.27l-.13.16A3.28,3.28,0,0,1,1.34,32.77ZM57.18,60.25c-1.43,1.22-1.92,3.2-2.74,4.83-.72,1.44-1.77,2.74-2.59,4.13a19.94,19.94,0,0,0-3.25-8,22.53,22.53,0,0,0,3-.84c2.48-.91,5.93-2.36,7.25-4.78.08-.16-.06-.4-.25-.33a20.41,20.41,0,0,0-3.16,1.83,23.32,23.32,0,0,1-4.49,2,22.66,22.66,0,0,1-9,1c-.93-.08-.93,1.38,0,1.46a23.62,23.62,0,0,0,5.51-.19c1.3,3.41,3.31,6.51,3.13,10.31s-3.1,7.83-7.27,6.84c.09-.65,0-1.32,0-2.17,0-.24-.39-.31-.43-.06A5.39,5.39,0,0,1,41.8,78.2a3.39,3.39,0,0,1-1.91,1.7,2.13,2.13,0,0,1-2.67-1.29,10.12,10.12,0,0,1-.15-3.06.27.27,0,0,0-.53-.07,5.86,5.86,0,0,0-.28,3.35,9.94,9.94,0,0,1-3.55.53c-.64,0-1.29-.21-1.94-.26a6.26,6.26,0,0,0,.31-3.72c-.09-.42-.82-.45-.88,0-.23,1.62-.4,4.29-2.57,4.44s-2.69-2.06-3.83-3.29a.21.21,0,0,0-.35.14,4.1,4.1,0,0,0,.85,2.78c-4,.18-6.57-3.81-6.71-7.55s1.7-7,2.82-10.56a12.15,12.15,0,0,0,4.3-.06.35.35,0,0,0,0-.66,19.8,19.8,0,0,0-4.22-.41A22,22,0,0,1,15,59.13a12.24,12.24,0,0,1-4.14-2.45c-1-1-1.6-2.23-2.56-3.23a.29.29,0,0,0-.49.2c.09,2.86,3.65,5.17,6,6.17A19.2,19.2,0,0,0,19,61.15l.45.06c-2.51,3.83-4.2,9.06-2.89,13.54,1.15,3.92,4.77,6.76,8.93,6a.85.85,0,0,0,.19-.06,3.76,3.76,0,0,0,2.47.55,3.23,3.23,0,0,0,1.95-1.05,5.52,5.52,0,0,0,2.4.66,10.27,10.27,0,0,0,4.29-.54l.1,0a2.93,2.93,0,0,0,2.37,1.29,4.07,4.07,0,0,0,3.25-1.42l.18-.22a7.06,7.06,0,0,0,7.51-2.72.86.86,0,0,0,.32,0,14.89,14.89,0,0,0,8.73-5c2.13-2.43,4.18-6.22,3.61-9.57C62.37,59.9,59.47,58.31,57.18,60.25Zm3.94,5.52c-1.34,5-5.25,8.3-9.95,9.8a7.18,7.18,0,0,0,.39-1A11.49,11.49,0,0,0,52,70.44c1.77-1.32,3-3.73,4-5.61.77-1.5,1.16-3.16,2.91-3.72C61.76,60.17,61.61,64,61.12,65.77Z"/><path class="cls-4" d="M57.32,32.78A6.93,6.93,0,0,0,55.76,30a5.35,5.35,0,0,0,.69-.66,1.8,1.8,0,0,0,.6-1.29.41.41,0,0,0-.4-.4,1.82,1.82,0,0,0-1.22.76,5,5,0,0,0-.56.79l-.38-.26.12-.08a7.11,7.11,0,0,0,.67-.77c.3-.36.83-1.05.3-1.47s-1.08.28-1.36.66a6.81,6.81,0,0,0-.59.82,1.39,1.39,0,0,0-.12.32c-4.89-2.12-12.29,1.07-12.19,7.33,0,.23.34.35.44.12,1.32-2.85,3.3-5.26,6.59-5.85s5.75,1.19,8.15,3.26A.5.5,0,0,0,57.32,32.78Z"/><path class="cls-4" d="M57.25,22.38c-2.32.07-4.54.67-6.82-.1-2.09-.71-3.21-2.61-5.1-3.42a.41.41,0,0,0-.6.35c0,2.33,2.9,4.17,4.84,4.9,2.61,1,5.92,1.08,8-1A.41.41,0,0,0,57.25,22.38Z"/><path class="cls-4" d="M11.25,32.78A6.81,6.81,0,0,1,12.81,30a5.35,5.35,0,0,1-.69-.66,1.8,1.8,0,0,1-.6-1.29.41.41,0,0,1,.4-.4,1.82,1.82,0,0,1,1.22.76,5,5,0,0,1,.56.79l.37-.26L14,28.84a7.11,7.11,0,0,1-.67-.77c-.3-.36-.84-1.05-.3-1.47s1.08.28,1.36.66a6.81,6.81,0,0,1,.59.82,1.39,1.39,0,0,1,.12.32c4.89-2.12,12.29,1.07,12.19,7.33a.24.24,0,0,1-.45.12C25.49,33,23.51,30.59,20.22,30s-5.75,1.19-8.15,3.26A.5.5,0,0,1,11.25,32.78Z"/><path class="cls-4" d="M11.32,22.38c2.32.07,4.54.67,6.82-.1,2.09-.71,3.21-2.61,5.1-3.42a.41.41,0,0,1,.6.35c0,2.33-2.9,4.17-4.84,4.9-2.61,1-5.92,1.08-8-1A.41.41,0,0,1,11.32,22.38Z"/><path class="cls-4" d="M44.91,42c-.28.67-.56,1.35-.86,2a28,28,0,0,1-2.23,4.14c-1.64,2.45-4,4.52-7.11,4.49s-5.38-1.78-7.11-4.07a22.23,22.23,0,0,1-2.26-3.78c-.18-.36-2.46-4.06-1.25-3.85.53.1,1.28.8,1.79,1a23.51,23.51,0,0,0,2.66,1.2,15.21,15.21,0,0,0,5.78,1.08,16.17,16.17,0,0,0,5.77-1.19,19.68,19.68,0,0,0,2.76-1.37c.55-.33,1.62-1.45,2.26-1.47h0C45.87,40.29,45,41.74,44.91,42Z"/><path class="cls-5" d="M29.67,49.56a6.15,6.15,0,0,0,10-.49,10.13,10.13,0,0,0-2.91,0,3.83,3.83,0,0,0-2.45,1.46A5.61,5.61,0,0,0,29.67,49.56Z"/><path class="cls-6" d="M30.13,45.43A6.17,6.17,0,0,1,28.19,44a17,17,0,0,0,13.11-.5,8.13,8.13,0,0,1-5.21,3A10,10,0,0,1,30.13,45.43Z"/></g></g></svg>