<svg xmlns="http://www.w3.org/2000/svg" viewBox="0 0 68.97 81.58"><defs><style>.cls-1{fill:#f5f3f0;}.cls-2{fill:#7c6253;}.cls-3{fill:#52453e;}.cls-4{fill:#3e342f;}.cls-5{fill:#fff;}</style></defs><g id="Layer_2" data-name="Layer 2"><g id="????_1_?????_" data-name="???? 1 (?????)"><path class="cls-1" d="M.5,29.62a.49.49,0,0,1,.05.16,29,29,0,0,0,1.09,5.89,11.59,11.59,0,0,0,1.47,2.57,1.4,1.4,0,0,1,.3.81,1.35,1.35,0,0,1,0,.7c-.89,3.91-.8,10.61,3.21,12.82A1.16,1.16,0,0,1,7.25,54s.09,0,.13.09a1.77,1.77,0,0,0,.94.65,1.15,1.15,0,0,1,.83.68,1.27,1.27,0,0,1,1.27.58c1.77,2.63,6.39,4,9.37,4.42a1.07,1.07,0,0,1,.87,1.52,1.27,1.27,0,0,1-.29,1.12,9,9,0,0,0-2,5.19c-.05,1.7-2.7,1.7-2.65,0,0,0,0,0,0,0a1.22,1.22,0,0,1-.15-.17c-.88-1.55-1.64-3.19-2.54-4.72a17.41,17.41,0,0,0-2.58-2.92,1.36,1.36,0,0,1-.43,0c-3.55-1.18-3.52,3.19-3.08,5a18.15,18.15,0,0,0,1.37,3.47c.26.54.54,1.1.84,1.67A1.34,1.34,0,0,1,10,71a12.92,12.92,0,0,0,3.42,3.57c1.63,1,3.63,1.18,5.4,1.83a1.29,1.29,0,0,1,.79.76,1.46,1.46,0,0,1,.34.23c1.71,1.75,3.91,3.54,6.37,2.09a1.29,1.29,0,0,1,1.92.88,3.16,3.16,0,0,0,3.6-.57,1.2,1.2,0,0,1,1.76,0,12.86,12.86,0,0,0,5-.41,1.14,1.14,0,0,1,1.43.58,1.66,1.66,0,0,1,.3.19,2.6,2.6,0,0,0,3,.12,1.18,1.18,0,0,1,1.34,0C49,80,51.2,77.11,51.7,73c.34-2.8.27-7.36-1.51-9.89A1.31,1.31,0,0,1,50,60.52a1.21,1.21,0,0,1,1.28-.15.87.87,0,0,1,.17-.07,15,15,0,0,0,9.7-6.06,1.31,1.31,0,0,1,.92-.58,4.44,4.44,0,0,1,.15-.52,1.35,1.35,0,0,1,1.53-.93A42.41,42.41,0,0,0,65.2,40.05s0,0,0-.08a1.1,1.1,0,0,1,.16-1.62,5.46,5.46,0,0,0,1.79-3.43,1.63,1.63,0,0,1,.38-.89,1.35,1.35,0,0,1,.6-1.73,1.46,1.46,0,0,1,.1-1.47c-.66-1.48-.35-3.25-.24-5,.3-4.53.73-9-.35-13.43a1.27,1.27,0,0,1,0-.43A3.81,3.81,0,0,1,66.4,9.25a1.17,1.17,0,0,1,.36-.93,1.32,1.32,0,0,1-.15-.39,1.33,1.33,0,0,1-.67-1.46A1.39,1.39,0,0,1,65,5.31a13.64,13.64,0,0,0-1.27-.63,15.23,15.23,0,0,0-4.68-1.12c-1,.43-2,.81-3,1.3-3.28,1.54-6.8,3.69-8.14,7.25a1.38,1.38,0,0,1-2.6-.06h0c-6-1.79-15-2.72-20.72.31a1.36,1.36,0,0,1-2-1C18.3,7.18,10.21,7.83,5.6,4.25a17,17,0,0,0-3.28,2,3.29,3.29,0,0,0,.31.26A1.35,1.35,0,0,1,3.1,8.28a1.33,1.33,0,0,1-.43.42,1.58,1.58,0,0,1-.11.23C1.23,11.07,0,15.14,1.25,17.54a1.3,1.3,0,0,1-.44,1.7A1.4,1.4,0,0,1,.57,21.3a1.47,1.47,0,0,1,0,.47,2.06,2.06,0,0,1,.33.17L1,22l.08.07a1.5,1.5,0,0,1,.31,1.27A1.14,1.14,0,0,1,.89,24a1.36,1.36,0,0,1,0,.64A31.62,31.62,0,0,0,.5,29.62Z" style="fill: #f5f3f0;"></path><path class="cls-2" d="M64.79,47.06a46.41,46.41,0,0,0,.41-7s0,0,0-.08a1.1,1.1,0,0,1,.16-1.62,5.46,5.46,0,0,0,1.79-3.43,1.63,1.63,0,0,1,.38-.89,1.35,1.35,0,0,1,.6-1.73,1.46,1.46,0,0,1,.1-1.47c-.66-1.48-.35-3.25-.24-5,.3-4.53.73-9-.35-13.43a1.27,1.27,0,0,1,0-.43A3.81,3.81,0,0,1,66.4,9.25a1.17,1.17,0,0,1,.36-.93,1.32,1.32,0,0,1-.15-.39A1.32,1.32,0,0,1,66,6.45a1.35,1.35,0,0,1-.52-2.22h-.11a1.21,1.21,0,0,1-1.25-1.14,14.1,14.1,0,0,0-2.48-.9C60,3.38,58,3.92,56.05,4.86c-3.28,1.54-6.8,3.69-8.14,7.25a1.38,1.38,0,0,1-2.6-.06h0c-6-1.79-15-2.72-20.72.31a1.36,1.36,0,0,1-2-1C18,6.91,9.14,7.93,4.75,3.49l-.26.13a1.19,1.19,0,0,1-1.16.93A1.26,1.26,0,0,1,2.09,6a3.79,3.79,0,0,0,.54.49A1.35,1.35,0,0,1,3.1,8.28a1.33,1.33,0,0,1-.43.42,1.58,1.58,0,0,1-.11.23C1.23,11.07,0,15.14,1.25,17.54a1.3,1.3,0,0,1-.44,1.7A1.4,1.4,0,0,1,.57,21.3a1.47,1.47,0,0,1,0,.47,2.06,2.06,0,0,1,.33.17L1,22l.08.07a1.5,1.5,0,0,1,.31,1.27A1.14,1.14,0,0,1,.89,24a1.36,1.36,0,0,1,0,.64A31.62,31.62,0,0,0,.5,29.62a.49.49,0,0,1,.05.16,29,29,0,0,0,1.09,5.89,11.59,11.59,0,0,0,1.47,2.57,1.4,1.4,0,0,1,.3.81,1.35,1.35,0,0,1,0,.7,19.25,19.25,0,0,0-.4,5.56,14.64,14.64,0,0,0,6.82,1.23,25.44,25.44,0,0,0,23.33-20,7.43,7.43,0,0,1,.85-2.74,2.13,2.13,0,0,1,2.46-1c.94.39,1.23,1.56,1.45,2.55A28.62,28.62,0,0,0,63.57,47C64,47.06,64.38,47.06,64.79,47.06Z" style="fill: #7c6253;"></path><path class="cls-2" d="M9.16,70.43A1.41,1.41,0,0,1,10,71c.39.51.78,1,1.2,1.53a8.73,8.73,0,0,0,2.73-2.37,9.79,9.79,0,0,0,1.42-2.52c-.78-1.42-1.49-2.89-2.31-4.29a17.81,17.81,0,0,0-2.57-2.92,1.38,1.38,0,0,1-.44,0,1.43,1.43,0,0,0-.28-.07,5.71,5.71,0,0,0-1.43.63,7.63,7.63,0,0,0-1.42,1.17,7.48,7.48,0,0,0,.05,3.22,18.15,18.15,0,0,0,1.37,3.47C8.57,69.3,8.86,69.87,9.16,70.43Z" style="fill: #7c6253;"></path><path class="cls-2" d="M51.7,73c.06-.45.1-.94.12-1.46a8.19,8.19,0,0,0-6.2,7.34,5,5,0,0,0,.09,1.22C49.35,79.47,51.24,76.77,51.7,73Z" style="fill: #7c6253;"></path><path class="cls-3" d="M16.81,16.1A49.26,49.26,0,0,0,6,31.87c.37-2.79-.35-5.6-.44-8.41s.68-6,3.08-7.44S14.11,15.3,16.81,16.1Z" style="fill: #52453e;"></path><path class="cls-3" d="M54,16.09a40.67,40.67,0,0,1,8.45,14.72,28.64,28.64,0,0,0,.84-7.12A9.52,9.52,0,0,0,60.6,17.2,5.81,5.81,0,0,0,54,16.09Z" style="fill: #52453e;"></path><path class="cls-3" d="M10,60.34c-3.55-1.18-3.52,3.19-3.08,5q.12.45.27.9a3.89,3.89,0,0,0,4.81-1,3.67,3.67,0,0,0,.72-2.29,25.8,25.8,0,0,0-2.29-2.51A1.3,1.3,0,0,1,10,60.34Z" style="fill: #52453e;"></path><path class="cls-3" d="M51.28,75a4,4,0,0,0-3.83,3.25,3.42,3.42,0,0,0,.08,1.35A6.9,6.9,0,0,0,51.28,75Z" style="fill: #52453e;"></path><path class="cls-4" d="M64.69,44.25a53.18,53.18,0,0,0-.54-8.82c0-.27.35-.27.44-.06a17.23,17.23,0,0,1,.71,2.21c.25-.4.55-.78.71-1.1.44-.92.55-2,1.24-2.82a.32.32,0,0,1,.52.14c.42,1-.15,2.24-.56,3.2-.29.64-.79,2-1.59,2.21a25,25,0,0,1,.18,5.73c-.19,2.46-.4,6.35-2.21,8.15a.23.23,0,0,1-.39-.17A12.57,12.57,0,0,1,64,49.18,29.27,29.27,0,0,0,64.69,44.25Zm-2.9,8.36c-.22.47-.54.94-.36,1.47a.3.3,0,0,0,.43.18c.51-.23.65-.79.85-1.26a3.72,3.72,0,0,0,.43-1.65.24.24,0,0,0-.4-.17A3.86,3.86,0,0,0,61.79,52.61ZM8,53.1a7,7,0,0,0,.15,1.29l0,0a5.06,5.06,0,0,1-1.18-2.45.26.26,0,0,0-.5,0,3.3,3.3,0,0,0,1.1,3,.42.42,0,0,0,.69-.25,1.61,1.61,0,0,0,1.18,1.25.3.3,0,0,0,.37-.27,2.08,2.08,0,0,0-.48-1.34c-.26-.47-.61-.87-.9-1.32A.22.22,0,0,0,8,53.1ZM3.25,3.74a.48.48,0,0,0-.61.46c0,.8.85,1.35,1.44,1.78a4,4,0,0,0,2.22,1,.43.43,0,0,0,.3-.73C6.07,5.74,5.42,5.44,4.86,5S3.9,3.89,3.25,3.74ZM1.78,6.16A4.73,4.73,0,0,0,3,7.48a1.8,1.8,0,0,0,1.59.43.29.29,0,0,0,.17-.43c-.2-.4-.65-.61-1-.88a4.83,4.83,0,0,1-1-1C2.37,4.94,1.37,5.49,1.78,6.16Zm-.26,6.92c.3-1.53,1.29-2.88,1.47-4.4a.27.27,0,0,0-.41-.23C.07,9.87-.8,16,.84,18.24c.14.19.54.22.58-.08C1.66,16.47,1.18,14.81,1.52,13.08ZM.08,19.35a.6.6,0,0,0,.42.73l.55.11a1.61,1.61,0,0,0,.65-.07.4.4,0,0,0,.17-.66,2.14,2.14,0,0,0-.52-.37l-.54-.16A.61.61,0,0,0,.08,19.35Zm0,2.33a.5.5,0,0,0,.49.61H.62a.67.67,0,0,0,.46-.07h0a1.53,1.53,0,0,0,.26-.08.57.57,0,0,0,.26-.65A1,1,0,0,0,1.19,21a.71.71,0,0,0-.82.1.52.52,0,0,0-.1.11A.72.72,0,0,0,.08,21.68Zm.58,2.43C-.11,26.23.19,28.84.52,31c.3,2,.63,5.07,2.16,6.48a.31.31,0,0,0,.24.07,21.14,21.14,0,0,0-.32,6.15c.2,2.62.7,6.54,2.79,8.39.16.13.47.06.44-.18a18.93,18.93,0,0,0-1.11-3.7,22.64,22.64,0,0,1-.92-4.83c-.24-3,.65-5.8.82-8.78,0-.25-.32-.29-.44-.11a8.09,8.09,0,0,0-1,2.22,17.19,17.19,0,0,0-.74-2.42,26.28,26.28,0,0,1-.77-3.52c-.32-2.23,0-4.48-.36-6.69C1.22,23.77.76,23.86.66,24.11ZM64,.34c0-.26-.32-.42-.52-.3-.76.47-1.25,1.19-2,1.68a17.27,17.27,0,0,1-2.81,1.43c-1.61.67-3.25,1.24-4.81,2-2.69,1.39-5.57,3.69-6.5,6.71A33.12,33.12,0,0,0,34.6,9.78,31.73,31.73,0,0,0,23.87,12c-1.66-2.69-5.44-4.13-8.24-5.13C13.78,6.17,11.9,5.64,10,5.12a46.4,46.4,0,0,1-6.1-2.64.46.46,0,0,0-.55.73C5.68,5.72,10,6.81,13.19,7.74a36.54,36.54,0,0,1,5.74,2,24.19,24.19,0,0,1,3.86,2.65,33.29,33.29,0,0,0-8.21,5.13c-.46.38.15,1.16.64.82A36.31,36.31,0,0,1,34.6,11.73,34.2,34.2,0,0,1,45,13.06a61.92,61.92,0,0,1,10.07,4.17.21.21,0,0,0,.25-.33,22.68,22.68,0,0,0-7.16-4.67C50.4,8.52,53.59,6.57,57.71,5,59.85,4.2,63.64,3,64,.34Zm1.65,1.22a.58.58,0,0,0-1.06-.44,6,6,0,0,1-1,1.45c-.4.37-1,.54-1.24,1.08a.39.39,0,0,0,.18.44c.64.36,1.43-.27,1.91-.67A3.44,3.44,0,0,0,65.63,1.56Zm.26,2.85A.56.56,0,0,0,65,3.73a8.84,8.84,0,0,1-.69.68,3.37,3.37,0,0,0-.77.63.36.36,0,0,0,.21.51A1.49,1.49,0,0,0,65,5.3,2.73,2.73,0,0,0,65.89,4.41Zm.39,2A.55.55,0,0,0,66,5.83c-.29-.2-.61,0-.89.09a1.29,1.29,0,0,0-.3.22.68.68,0,0,0-.14.23v.08a.33.33,0,0,0,.15.38s0,0,0,0a.21.21,0,0,0,.1.06l.17,0a1,1,0,0,0,.43,0A.78.78,0,0,0,66.28,6.42Zm.12,1.42A.57.57,0,0,0,66.4,9,.57.57,0,0,0,66.4,7.84Zm2.09,20.05a80.44,80.44,0,0,0,.45-10.3c-.08-2.38-.33-5.38-2.16-7.11-.16-.15-.46,0-.38.22a25.09,25.09,0,0,1,1.29,4,22.38,22.38,0,0,1,.2,4.17c-.06,3-.3,6-.39,9.06C67.48,28.54,68.43,28.52,68.49,27.89Zm-1.2,1.3c-.43,0-.33.68-.23.94a2.4,2.4,0,0,0,.73,1.15.54.54,0,0,0,.8-.46,2.06,2.06,0,0,0-.45-1C67.94,29.47,67.71,29.16,67.29,29.19Zm.34,3.58a.62.62,0,0,0,.85,0,.6.6,0,0,0,0-.85c-.15-.12-.29-.25-.45-.36l-.19-.1a1.36,1.36,0,0,0-.31-.1A.46.46,0,0,0,67,32a.82.82,0,0,0,.15.27,1.83,1.83,0,0,0,.13.16A3.28,3.28,0,0,0,67.63,32.77ZM11.79,60.25c1.43,1.22,1.92,3.2,2.74,4.83.72,1.44,1.77,2.74,2.59,4.13a19.94,19.94,0,0,1,3.25-8,22.53,22.53,0,0,1-3-.84c-2.48-.91-5.93-2.36-7.25-4.78-.08-.16.06-.4.25-.33a20.41,20.41,0,0,1,3.16,1.83,23,23,0,0,0,4.49,2,22.66,22.66,0,0,0,9,1c.93-.08.93,1.38,0,1.46a23.62,23.62,0,0,1-5.51-.19c-1.3,3.41-3.31,6.51-3.13,10.31s3.1,7.83,7.27,6.84c-.09-.65,0-1.32,0-2.17,0-.24.39-.31.43-.06a5.39,5.39,0,0,0,1.06,1.86,3.39,3.39,0,0,0,1.91,1.7,2.13,2.13,0,0,0,2.67-1.29,10.12,10.12,0,0,0,.15-3.06.27.27,0,0,1,.53-.07,5.94,5.94,0,0,1,.28,3.35,9.94,9.94,0,0,0,3.55.53c.64,0,1.29-.21,1.94-.26a6.26,6.26,0,0,1-.31-3.72c.09-.42.82-.45.88,0,.23,1.62.4,4.29,2.57,4.44s2.69-2.06,3.83-3.29a.21.21,0,0,1,.35.14,4.1,4.1,0,0,1-.85,2.78c4,.18,6.57-3.81,6.71-7.55s-1.7-7-2.82-10.56a12.15,12.15,0,0,1-4.3-.06.35.35,0,0,1,0-.66,19.8,19.8,0,0,1,4.22-.41A22,22,0,0,0,54,59.13a12.24,12.24,0,0,0,4.14-2.45c1-1,1.6-2.23,2.56-3.23a.29.29,0,0,1,.49.2c-.09,2.86-3.65,5.17-6,6.17A19.2,19.2,0,0,1,50,61.15l-.45.06c2.51,3.83,4.2,9.06,2.89,13.53-1.15,3.93-4.77,6.77-8.93,6a.85.85,0,0,1-.19-.06,3.77,3.77,0,0,1-2.47.55,3.23,3.23,0,0,1-2-1.05,5.56,5.56,0,0,1-2.4.66,10.27,10.27,0,0,1-4.29-.54l-.1,0a2.93,2.93,0,0,1-2.37,1.29,4.07,4.07,0,0,1-3.25-1.42l-.18-.22a7.06,7.06,0,0,1-7.51-2.72.86.86,0,0,1-.32,0,14.89,14.89,0,0,1-8.73-5C7.61,69.79,5.56,66,6.13,62.65,6.6,59.9,9.5,58.31,11.79,60.25ZM7.85,65.77c1.34,5,5.25,8.3,10,9.8a7.65,7.65,0,0,1-.39-1A11.49,11.49,0,0,1,17,70.44c-1.77-1.32-3-3.73-4-5.61-.77-1.5-1.16-3.16-2.91-3.72C7.21,60.17,7.36,64,7.85,65.77Z" style="fill: #3e342f;"></path><path class="cls-5" d="M11.57,36.52a4.12,4.12,0,0,0,3,1.77,25.55,25.55,0,0,0,3.61.06c3.14,0,6.19,1.07,9.29,1.63,1.22.23,2.86.16,3.25-1a2.58,2.58,0,0,0-.34-1.9,17.21,17.21,0,0,0-4.94-6.38,10.71,10.71,0,0,0-7.62-2.26A7.85,7.85,0,0,0,11.54,33,4.1,4.1,0,0,0,11.57,36.52Z" style="fill: #fff;"></path><path class="cls-5" d="M47.61,39.12c3-1.19,6.47-.39,9.73-.7a4.23,4.23,0,0,0,3.06-1.33,3.21,3.21,0,0,0,.6-1.81c.14-2.7-2.1-5-4.61-6.08a8.47,8.47,0,0,0-6.66-.12,13,13,0,0,0-2.4,1.56c-2.56,2-5.27,4.36-5.6,7.57a2.2,2.2,0,0,0,1,2.35,2,2,0,0,0,1,.1C45.06,40.52,46.28,39.64,47.61,39.12Z" style="fill: #fff;"></path><path class="cls-4" d="M12.93,38.92a10.62,10.62,0,0,0,4.94.57,21.85,21.85,0,0,1,7.62.91c1.82.61,4.54,2.5,5.56-.15.84-2.15-1.34-5.83-2.57-7.39l-.2-.24a11.83,11.83,0,0,0-12.81-4.55C11,29.42,7.41,36.33,12.93,38.92Zm-1.28-4.54A4.12,4.12,0,0,1,12.75,32a8.39,8.39,0,0,1,4.19-2.41c5.95-1.41,11.15,3.22,12.65,8.73.86,3.14-3.1.71-4.22.37-.59-.18-1.19-.33-1.79-.45a3.28,3.28,0,0,0,1-.71,2.84,2.84,0,0,0-.35-4.19,4.23,4.23,0,0,0-4.41-.71A3.18,3.18,0,0,0,18,36.12a2.57,2.57,0,0,0,1.29,1.68c-1.65.09-3.54.4-5.11,0a3.85,3.85,0,0,1-1.66-.92A3.13,3.13,0,0,1,11.65,34.38Z" style="fill: #3e342f;"></path><path class="cls-4" d="M24.65,22.87a.27.27,0,0,1,.53-.07,15.32,15.32,0,0,0,2.76,5.8c1.37,1.58,3.09,3.24,5.27,2.53a.4.4,0,0,1,.51.38c-.33,2.95-4.12,1-5.33-.15A11.4,11.4,0,0,1,24.65,22.87Z" style="fill: #3e342f;"></path><path class="cls-4" d="M56.47,28.07a11.81,11.81,0,0,0-12.8,4.55c-.07.09-.15.16-.21.24-1.23,1.56-3.4,5.24-2.57,7.39,1,2.65,3.74.76,5.56.15a21.85,21.85,0,0,1,7.62-.91A10.6,10.6,0,0,0,59,38.92C64.53,36.33,60.91,29.42,56.47,28.07Zm2.93,8.77a3.79,3.79,0,0,1-1.66.92c-1.57.44-3.46.13-5.11,0a2.54,2.54,0,0,0,1.29-1.68,3.16,3.16,0,0,0-1.83-3.53,4.24,4.24,0,0,0-4.41.71,2.84,2.84,0,0,0-.35,4.19,3.28,3.28,0,0,0,1,.71c-.6.12-1.2.27-1.79.45-1.12.34-5.07,2.77-4.22-.37,1.51-5.51,6.71-10.14,12.65-8.73A8.3,8.3,0,0,1,59.19,32a4.12,4.12,0,0,1,1.1,2.42A3.1,3.1,0,0,1,59.4,36.84Z" style="fill: #3e342f;"></path><path class="cls-4" d="M47.3,22.87a.28.28,0,0,0-.54-.07A15.32,15.32,0,0,1,44,28.6c-1.37,1.58-3.08,3.24-5.27,2.53a.4.4,0,0,0-.51.38c.34,2.95,4.12,1,5.34-.15A11.4,11.4,0,0,0,47.3,22.87Z" style="fill: #3e342f;"></path><path class="cls-5" d="M20.44,33a1.36,1.36,0,1,1-1.36,1.36A1.38,1.38,0,0,1,20.44,33Z" style="fill: #fff;"></path><path class="cls-5" d="M22,35.49A.78.78,0,0,1,22,37,.78.78,0,0,1,22,35.49Z" style="fill: #fff;"></path><path class="cls-5" d="M48.69,33.38a1.31,1.31,0,0,1,0,2.62A1.31,1.31,0,0,1,48.69,33.38Z" style="fill: #fff;"></path><path class="cls-5" d="M50.71,35.31a.73.73,0,0,1,0,1.45A.73.73,0,0,1,50.71,35.31Z" style="fill: #fff;"></path><path class="cls-4" d="M55.29,42.45c-6.52,3.11-13,2.4-19.08-1,0-.51-.73-.85-1.18-.49-2.46,1.89-4.63,3.56-7.74,4.25-2.64.59-9.3,1-10.35-2.61-.18-.6-1.22-.52-1.14.15.44,3.92,5.74,4.54,8.92,4.41a15.7,15.7,0,0,0,10.6-4.5c5.85,4.43,14.42,4.67,20.76,1.17C57,43.3,56.19,42,55.29,42.45Z" style="fill: #3e342f;"></path></g></g></svg>