<svg xmlns="http://www.w3.org/2000/svg" viewBox="0 0 71.17 77.68"><defs><style>.cls-1{fill:#f5f3f0;}.cls-2{fill:#f9ce97;}.cls-3{fill:#f7b056;}.cls-4{fill:#3e342f;}.cls-5{fill:#fff;}.cls-6{fill:#e54c3c;}</style></defs><g id="Layer_2" data-name="Layer 2"><g id="Ñëîé_1_êîïèÿ_" data-name="Ñëîé 1 (êîïèÿ)"><path class="cls-1" d="M70.46,41.58c-1.84-1.78-3.29-3.45-3.86-6.22-.37-1.76-.32-3.59-.68-5.34s-1.1-3.29-1.47-5a1.65,1.65,0,0,1,.11-1.09,1.68,1.68,0,0,1,.44-1c.63-.71.46-3.39.49-4.25a46.71,46.71,0,0,0-.07-5c-.2-3.22-1.08-6.39-1-9.62a1.63,1.63,0,0,1,.26-.88,1.61,1.61,0,0,1-1.17-1.42,1.69,1.69,0,0,1-.89,0,1.55,1.55,0,0,1-1.06-1A43.83,43.83,0,0,1,55,5.21c-3.82,2.12-7,2.13-11.2,2.29a1.49,1.49,0,0,1-1.19-.43h0A1.59,1.59,0,0,1,41,5.54H39.39A1.6,1.6,0,0,1,38.25,6a1.56,1.56,0,0,1-1.42-.8,2.72,2.72,0,0,0-1.3.62,1.83,1.83,0,0,1-.48.32,1.67,1.67,0,0,1-2.7.45A16.83,16.83,0,0,0,25.13,8a1.87,1.87,0,0,1-.41.15,1.59,1.59,0,0,1-2.54.23c-1.57-1.71-3.76-2.57-5.77-3.64C14.2,3.61,12.25,2,10.1.73a2.45,2.45,0,0,1,0,.27v.1a1.68,1.68,0,0,1-1.2,1.2h-.1a2.41,2.41,0,0,1-.38,0A1.93,1.93,0,0,1,8.52,4a1.55,1.55,0,0,1-.41,1.69c-1.19.93-1.06,3-1.41,4.38,0,.06,0,.11-.07.16-.28,4.88,1.09,10.13.26,14.87-.79,4.51-4,8.39-5.22,12.82a2.53,2.53,0,0,1-.12.33,1.74,1.74,0,0,1-.9,2.23c0,.11,0,.21,0,.31l.11,0H.89a1.16,1.16,0,0,1,1,1.8,1.19,1.19,0,0,1,.27,2.14A1.12,1.12,0,0,1,3.19,46.1a1.18,1.18,0,0,1,1.59,0,1.22,1.22,0,0,1,0,1.66.86.86,0,0,0-.1.44,1.35,1.35,0,0,1,.41.12c1.83,1,3.34,2.44,5.24,3.28a1,1,0,0,1,.59.68s.06.07.08.11a5.75,5.75,0,0,1,.8.18,1.26,1.26,0,0,1,.36.21l0,0A1.13,1.13,0,0,1,13,53c2.5,1.33,4.78,2.93,7.71,3a1.18,1.18,0,0,1,.31,2.3c-1.3.47-1.84,2.36-2.35,3.5a1.07,1.07,0,0,1-.32.41c.22,1.38-1.91,1.94-2.26.52a18.1,18.1,0,0,0-1-2.36,4.9,4.9,0,0,1-.35-2.44,1.13,1.13,0,0,1-1.44-1.09v-.11s0,0,0-.06a1.49,1.49,0,0,1-.47,0h-.08a1,1,0,0,1-.82-1.1,8,8,0,0,1-.93-.69.91.91,0,0,0-1.12.23,7.11,7.11,0,0,0-1,1.8,1.14,1.14,0,0,1-1.47.46c0,1,0,1.92.1,2.88a1.13,1.13,0,0,1-.77,1.09,1.23,1.23,0,0,1,0,.42c-.46,1.61.21,3.25.87,4.9a1.49,1.49,0,0,1,.61.63,11.07,11.07,0,0,0,10.28,5.53,1.26,1.26,0,0,1,1.35.64c2.23,1.82,5,3.35,7.83,2.15a1.28,1.28,0,0,1,1.78.7,2.33,2.33,0,0,1,.41.42h.33c.51-.08,1-.23,1.52-.35a1.54,1.54,0,0,1,1.59.52,1.58,1.58,0,0,1,.37,0,16.66,16.66,0,0,0,7.11-.66,1.54,1.54,0,0,1,1.3.22,2.2,2.2,0,0,1,.83.17c.27.11,1-.24,1.36-.39a1.32,1.32,0,0,1,1.13.11,2.61,2.61,0,0,1,.28,0,5.13,5.13,0,0,0,2.61,0,1.82,1.82,0,0,1,.4-.38,11.55,11.55,0,0,1,1.2-.76,1.74,1.74,0,0,1,.57-.19,11.57,11.57,0,0,0,2.18-3.86,1.67,1.67,0,0,1,.28-.55s0-.07,0-.11v-1.2a1.52,1.52,0,0,1,.4-1.07V67.07a1,1,0,0,1,1-1s0,0,0,0c.44-3-1.88-5.5-3.56-7.65a.91.91,0,0,1-.09-.17,1,1,0,0,1-.83-.71,1,1,0,0,1,.71-1.25A16.88,16.88,0,0,1,52.89,56a.71.71,0,0,1,.21,0c1-.48,2.19-.65,3.26-1.08a46.51,46.51,0,0,0,5.06-2.49,2,2,0,0,1,.57-.2,43.54,43.54,0,0,0,5.2-4.23,1.71,1.71,0,0,1,.47-.32,1.66,1.66,0,0,1,1.21-2,1.81,1.81,0,0,1,.57-2.18A1.78,1.78,0,0,1,70.46,41.58Z"/><path class="cls-2" d="M66.6,35.36c-.37-1.76-.32-3.59-.68-5.34s-1.1-3.29-1.47-5a1.65,1.65,0,0,1,.11-1.09,1.68,1.68,0,0,1,.44-1c.63-.71.46-3.39.49-4.25a46.71,46.71,0,0,0-.07-5c-.2-3.22-1.08-6.39-1-9.62a1.63,1.63,0,0,1,.26-.88,1.61,1.61,0,0,1-1.17-1.42,1.69,1.69,0,0,1-.89,0,1.55,1.55,0,0,1-1.06-1A44.43,44.43,0,0,1,55,5.21c-3.82,2.12-7,2.13-11.2,2.29a1.49,1.49,0,0,1-1.19-.43h0A1.59,1.59,0,0,1,41,5.54H39.39A1.6,1.6,0,0,1,38.25,6a1.56,1.56,0,0,1-1.42-.8,2.72,2.72,0,0,0-1.3.62,1.83,1.83,0,0,1-.48.32,1.67,1.67,0,0,1-2.7.45A16.83,16.83,0,0,0,25.13,8a1.87,1.87,0,0,1-.41.15,1.59,1.59,0,0,1-2.54.23c-1.57-1.71-3.76-2.57-5.77-3.64C14.2,3.61,12.25,2,10.1.73a2.45,2.45,0,0,1,0,.27v.1a1.68,1.68,0,0,1-1.2,1.2h-.1a2.41,2.41,0,0,1-.38,0A1.93,1.93,0,0,1,8.52,4a1.55,1.55,0,0,1-.41,1.69c-1.19.93-1.06,3-1.41,4.38,0,.06,0,.11-.07.16-.28,4.88,1.09,10.13.26,14.87C6.12,29.51,3,33.31,1.77,37.61l.34.45c2.31,2.65,6.13,3.44,9.64,3.31a25.43,25.43,0,0,0,23.33-20,7.82,7.82,0,0,1,.85-2.74,2.15,2.15,0,0,1,2.46-1c1,.4,1.23,1.56,1.46,2.56a28.6,28.6,0,0,0,25.6,21.65,10.85,10.85,0,0,0,4.68-.6A11,11,0,0,1,66.6,35.36Z"/><path class="cls-2" d="M8.2,67.23c.09.16.21.31.3.47,2.26.14,4.4-1.32,5.79-3.13a10.14,10.14,0,0,0,1.47-2.68c-.22-.53-.49-1-.71-1.56a4.9,4.9,0,0,1-.35-2.44,1.12,1.12,0,0,1-1.44-1.09v-.11s0,0,0-.06a1.49,1.49,0,0,1-.47,0h-.08a1,1,0,0,1-.82-1.1,8,8,0,0,1-.93-.69.91.91,0,0,0-1.12.23,7.11,7.11,0,0,0-1,1.8,1.14,1.14,0,0,1-1.47.46c0,1,0,1.92.1,2.88a1.13,1.13,0,0,1-.77,1.09,1.23,1.23,0,0,1,0,.42c-.46,1.61.21,3.25.88,4.9A1.53,1.53,0,0,1,8.2,67.23Z"/><path class="cls-2" d="M54.26,64.35a5,5,0,0,0-.56.1,8.19,8.19,0,0,0-6.21,7.34,3.46,3.46,0,0,0,1,3,2.37,2.37,0,0,0,1.25.47l.1-.06a1.67,1.67,0,0,1,.56-.18,11.64,11.64,0,0,0,2.19-3.87,1.67,1.67,0,0,1,.28-.55s0-.07,0-.11v-1.2a1.52,1.52,0,0,1,.4-1.07V67.07a1,1,0,0,1,1-1s0,0,0,0A5,5,0,0,0,54.26,64.35Z"/><path class="cls-3" d="M21.21,10.18A49.38,49.38,0,0,0,8,24.06c.8-2.7.53-5.58.89-8.38s1.6-5.79,4.2-6.86S18.66,9,21.21,10.18Z"/><path class="cls-3" d="M52,10.05a40.54,40.54,0,0,1,11.26,12.7,28,28,0,0,0-.62-7.15,9.5,9.5,0,0,0-3.93-5.81A5.83,5.83,0,0,0,52,10.05Z"/><path class="cls-3" d="M10.54,55.72a3.78,3.78,0,0,0-.78-.52,8.67,8.67,0,0,0-.87,1.65,1.14,1.14,0,0,1-1.47.46c0,1,0,1.92.1,2.88a1.13,1.13,0,0,1-.77,1.09,1.23,1.23,0,0,1,0,.42c0,.12,0,.23-.08.34a3.92,3.92,0,0,0,4.45-1.19A3.91,3.91,0,0,0,10.54,55.72Z"/><path class="cls-3" d="M50.56,74.85a11.73,11.73,0,0,0,2.07-3.73,1.67,1.67,0,0,1,.28-.55s0-.07,0-.11v-1.2a1.52,1.52,0,0,1,.4-1.07v0a1,1,0,0,0-.18,0,4,4,0,0,0-4,3.27A3.82,3.82,0,0,0,50.56,74.85Z"/><path class="cls-4" d="M41.22,5.92c-.84.23-1.73.31-2.55.61s-1.43.91-2.21.94A.35.35,0,0,1,36.12,7c.29-.84,1.32-1.22,2.12-1.47a4.36,4.36,0,0,1,3-.07A.23.23,0,0,1,41.22,5.92Zm-3.38-.39a.24.24,0,0,0,0-.42,2.45,2.45,0,0,0-2.39.26c-.66.41-1.52,1.11-1.27,2a.32.32,0,0,0,.39.22c.63-.21.94-.82,1.47-1.18S37.26,5.85,37.84,5.53Zm-4.67.59C31,5.24,28,6.27,26,7.07a17,17,0,0,0-2.93,1.51c-2-1.54-4.27-2.74-6.36-4.11S12.41,1.16,10,.2c-.34-.14-.53.34-.33.57C11.38,2.69,14,4,16.16,5.4a52.68,52.68,0,0,0,6.16,3.71,7.49,7.49,0,0,0-1.74,1.83c-.15.24.14.47.36.36,1.07-.52,1.91-1.36,3-1.87a25.27,25.27,0,0,1,3-1.22c2-.66,4.24-.33,6.23-1A.59.59,0,0,0,33.17,6.12Zm34.22,32c.52-1.29.18-2.75,0-4.1a38.8,38.8,0,0,0-.86-4.65A34.94,34.94,0,0,0,64.74,24a.45.45,0,0,0,.42-.24,4.47,4.47,0,0,0,.4-1.88c0-.53.06-1.25-.4-1.61a.27.27,0,0,0-.37,0,2.27,2.27,0,0,0-.28,1.39,13,13,0,0,1-.22,1.39A17.2,17.2,0,0,0,63,20.8c-.17-.25-.61-.1-.51.22a81.5,81.5,0,0,1,2.63,8.7,35.47,35.47,0,0,1,.68,4.81,10.67,10.67,0,0,0,.46,3.7C66.49,38.78,67.22,38.51,67.39,38.08ZM.32,41.44c1,.33,2.06-.71,2.69-1.33s1.46-1.56,1.27-2.53A.22.22,0,0,0,4,37.44c-.75.37-1.19,1.25-1.82,1.79S.42,40.06.05,40.79A.46.46,0,0,0,.32,41.44Zm1,.84a.58.58,0,0,0,.56,1,3.45,3.45,0,0,0,1.46-1A2.09,2.09,0,0,0,4,40.84c0-.17-.19-.36-.37-.28a4,4,0,0,0-1.16.81C2.11,41.71,1.64,41.93,1.28,42.28ZM1.42,45c.41.57,1.23.25,1.69-.09a1.57,1.57,0,0,0,.77-1.37.29.29,0,0,0-.37-.28c-.49.17-.9.49-1.38.66S1.05,44.45,1.42,45Zm69.39-2.58c.29,0,.44-.34.32-.56a8.54,8.54,0,0,0-1.56-1.62,11.72,11.72,0,0,1-.81-.93,6.54,6.54,0,0,0-.81-.77.23.23,0,0,0-.39.22A3,3,0,0,0,68,40.06a7.87,7.87,0,0,0,.74,1A3.49,3.49,0,0,0,70.81,42.39Zm-.89.56a7.12,7.12,0,0,1-1.72-1.31c-.46-.5-.81-1.09-1.27-1.59a.21.21,0,0,0-.36.15c-.12,1.6,1.34,3.19,2.7,3.86C70,44.42,70.64,43.36,69.92,43Zm-.52,3.77a.49.49,0,0,0,.41-.72,8.86,8.86,0,0,0-1.53-1.33c-.49-.48-1-1-1.47-1.46-.18-.18-.43,0-.4.23a3.71,3.71,0,0,0,1,2.09A3,3,0,0,0,69.4,46.72ZM67.67,48.1a.58.58,0,0,0,.57-1c-.19-.23-.46-.37-.67-.58A5.67,5.67,0,0,0,67,46a.35.35,0,0,0-.57.15A1.78,1.78,0,0,0,67.67,48.1ZM2.75,46.61a.28.28,0,0,0,.43.06c.31-.39.9-.76,1.21-.14a1.4,1.4,0,0,1-.63,1.66c-.48.39.16,1.2.66.85A3.12,3.12,0,0,0,5.77,47.3a2.06,2.06,0,0,0-.62-1.93,1.53,1.53,0,0,0-1.92-.16A1.11,1.11,0,0,0,2.75,46.61Zm2.83,2.46a27.36,27.36,0,0,0,9.59,6.16A31.55,31.55,0,0,0,21,56.79l.73.15a12.81,12.81,0,0,0-4.45,6.45,14.08,14.08,0,0,1-1.24-2,14.12,14.12,0,0,1-1-3.48c-.11-.5-.76-.31-.82.11A6.87,6.87,0,0,0,17,64.36c0,.18-.05.37-.07.55,0,.44.39.56.71.42A2.33,2.33,0,0,0,17,66.8a.32.32,0,0,0,.41.31c.64-.21.95-1,1.28-1.55a4.81,4.81,0,0,0,.9-1.93.22.22,0,0,0-.32-.19,3.92,3.92,0,0,0-1.21,1.35,18.88,18.88,0,0,1,4.79-7.51.27.27,0,0,0,.07-.08,6.64,6.64,0,0,0,3.28,0,.21.21,0,0,0,.05-.39c-1.41-.84-3.36-.79-4.94-1.25a50.5,50.5,0,0,1-5.08-1.85A80.09,80.09,0,0,1,6,48.52.35.35,0,0,0,5.58,49.07ZM62.08.91c.38-.43-.1-1.16-.64-.83C59.09,1.55,57,3.39,54.56,4.71c-2.23,1.2-4.88,1.78-7.08,3l-.92-.27a16.76,16.76,0,0,0-7.49-.74c-.26,0-.21.4,0,.47,2.27.8,4.77,1,7.11,1.62s4.6,1.61,7,2.12c.17,0,.34-.19.19-.32a13.73,13.73,0,0,0-4-2.24A28.27,28.27,0,0,0,54.9,5.93C57.35,4.64,60.24,3,62.08.91ZM64,1.24c-.41-.76-1.28.33-1.57.63a20.19,20.19,0,0,1-2.09,1.55.32.32,0,0,0,.14.53,2.81,2.81,0,0,0,2.35-.68C63.3,2.89,64.38,2,64,1.24Zm1.18,1.61c-.44-.59-1.05.21-1.32.54a5.86,5.86,0,0,1-.62.6c-.23.23-.39.52-.61.74a.3.3,0,0,0,.21.51,2.59,2.59,0,0,0,.91-.15,2.65,2.65,0,0,0,.81-.57C64.92,4.14,65.58,3.41,65.15,2.85Zm.31,16.54c.82-2.16.59-4.82.41-7.08a17.54,17.54,0,0,0-1.38-6.37.24.24,0,0,0-.44.12c0,2.31.51,4.64.65,7,.13,2.1-.14,4.32.27,6.38C65,19.66,65.38,19.6,65.46,19.39ZM8.31,1.38A.39.39,0,0,0,8,1.65c-.12.83.81,1.42,1.41,1.84a4.29,4.29,0,0,0,2.52,1c.24,0,.43-.34.21-.52-.61-.5-1.36-.78-2-1.25S9,1.39,8.31,1.38Zm-.53,2.8a2.49,2.49,0,0,0,2.5,1.11.23.23,0,0,0,.1-.38,5.11,5.11,0,0,0-.9-.71c-.34-.24-.62-.53-1-.77S7.49,3.74,7.78,4.18ZM8,5.57c-2.21,1.09-1.59,5.51-1.65,7.5a53.32,53.32,0,0,0,.54,10.79.49.49,0,0,0,.38.41l-.18.38c-.76,1.59-1.59,3.14-2.32,4.74-1.21,2.67-3.32,6.08-3.43,9.06a.3.3,0,0,0,.5.21c2.16-2.18,3.21-6,4.41-8.84C6.9,28.37,7.44,26.9,8,25.44a24.36,24.36,0,0,0,1.8-4.94c0-.16-.19-.35-.32-.18A12.32,12.32,0,0,0,8,22.87a50,50,0,0,1-.52-8.38C7.52,11.82,7.18,8.43,8.51,6A.35.35,0,0,0,8,5.57Zm44.53,57c.58,1.51.41,3.61,1.44,4.83a.3.3,0,0,0,.48-.07c1-1.5-.2-4.3-.85-5.78A12.29,12.29,0,0,0,50.37,57a23.14,23.14,0,0,0,6.44-1.61c3.46-1.48,7.67-3.84,9.91-7,.13-.18-.12-.4-.29-.3-1.69,1-3.2,2.32-4.89,3.35A28,28,0,0,1,56,54a47.07,47.07,0,0,1-5.65,1.94,37,37,0,0,1-6.13.7.25.25,0,0,0,0,.5,33.58,33.58,0,0,0,4.91,0C50.36,58.91,51.76,60.48,52.56,62.59Zm.85,8.27a2.43,2.43,0,0,0,0-.89.36.36,0,0,0,.48-.25,4.25,4.25,0,0,0-.1-2A3.17,3.17,0,0,0,53,65.91a.2.2,0,0,0-.34.09,4.57,4.57,0,0,0,.15,1.68c0,.28.06.58.08.88a.28.28,0,0,0-.49.08,3.26,3.26,0,0,0,0,2.34A.53.53,0,0,0,53.41,70.86Zm-6.61-6c-.26.77-.95,1.38-1,2.17,0,.27.27.42.49.37,1-.2,1.43-1.55,1.63-2.4A3.79,3.79,0,0,0,47.56,62a.27.27,0,0,0-.5.14A12.41,12.41,0,0,1,46.8,64.91Zm-2.52.45c-.51.71-.75,1.58-1.27,2.29s-1.26,1.1-1.3,1.85a.37.37,0,0,0,.26.34c.93.14,1.6-.91,2.06-1.6a4.18,4.18,0,0,0,.89-2.79C44.87,65.12,44.43,65.16,44.28,65.36Zm-8.55,6.51a.32.32,0,0,0,.14.52c1,.37,2.18-.43,2.92-1a5,5,0,0,0,2-2.72.36.36,0,0,0-.59-.34,27.26,27.26,0,0,1-2.16,2.14C37.36,71,36.29,71.2,35.73,71.87Zm-.91,0A2.84,2.84,0,0,0,36.72,70a.29.29,0,0,0-.42-.33l-.95.56c-.32.19-.69.34-1,.56A.6.6,0,0,0,34.82,71.83Zm-1-1.55a1.25,1.25,0,0,0,.78-1.07.38.38,0,0,0-.45-.46,1.25,1.25,0,0,0-1.08.78A.61.61,0,0,0,33.86,70.28ZM29.71,65.4a2.26,2.26,0,0,0,0,1.92,6.36,6.36,0,0,0,1,2c.43.58,1.41,0,1-.58a6.49,6.49,0,0,1-.95-1.85,3.66,3.66,0,0,0-.6-1.56A.28.28,0,0,0,29.71,65.4Zm-2.27-1a4.39,4.39,0,0,0,.25,1.93A.61.61,0,0,0,28.87,66a4.48,4.48,0,0,0-.76-1.78A.36.36,0,0,0,27.44,64.39Zm-.85,0a3.56,3.56,0,0,1-.33-1.82c.06-.49.31-1,.07-1.44a.35.35,0,0,0-.39-.16c-.69.12-.9,1.12-1,1.71a4.24,4.24,0,0,0,.44,2.4C25.82,65.92,27,65.22,26.59,64.44ZM13.48,59.28a4.88,4.88,0,0,0,.24-1.61c.06-.51.26-1.09-.11-1.5a.29.29,0,0,0-.29-.08c-.58.22-.63.93-.64,1.48a2.27,2.27,0,0,0,.48,1.75A.2.2,0,0,0,13.48,59.28Zm-5.24-.79a.37.37,0,0,0,.72,0,20,20,0,0,1,.38-2c.21-.52.76-1.17,1.4-1.06.94.16.86,1.66,1.16,2.35a.23.23,0,0,0,.39,0c.83-1.34.06-3.41-1.66-3.36C8.7,54.46,7.86,56.88,8.24,58.49Zm0,1.45a9.78,9.78,0,0,1-.4-1.86,4.23,4.23,0,0,0-.17-1.5.33.33,0,0,0-.53-.06c-.86.89-.45,2.88,0,3.87C7.51,61,8.42,60.56,8.27,59.94Zm-2,.51a5.4,5.4,0,0,0,1.5,3.22c.5.57,1.3-.26.83-.83A29.1,29.1,0,0,1,7,60.26.39.39,0,0,0,6.27,60.45Zm.21,3c-.16,2.6,2,5.38,3.92,6.95a12.88,12.88,0,0,0,8.22,2.91,1.06,1.06,0,0,0,.2,0c.16.21.32.41.48.59,2,2.2,6,3.6,8.91,2.68a.42.42,0,0,0,.17-.1s0,0,0,0a4,4,0,0,0,2.79.88,3,3,0,0,0,1.4-.46c2.62.44,5.7.68,8.22-.35a2.66,2.66,0,0,0,2.35,1.07,3.73,3.73,0,0,0,2.16-.8c1.49.59,3.65-.19,4.83-1s2.85-2.77,2.34-4.36a.31.31,0,0,0-.5-.13,10.71,10.71,0,0,0-.94,1.74,5.52,5.52,0,0,1-1.7,1.8,5.34,5.34,0,0,1-2.54.82h-.36A9.86,9.86,0,0,0,47.81,73c.14-.46-.49-.64-.74-.3-1,1.3-1.72,2.88-3.45,3.24-2,.44-3.08-1.47-3.4-3.14-.08-.43-.73-.25-.65.18a11,11,0,0,0,.83,2.92,48,48,0,0,1-6.89.06A5.84,5.84,0,0,0,34.13,73a.3.3,0,0,0-.59-.08c-.49,1.3-1.23,3.22-3,2.87A6.64,6.64,0,0,1,27,73a.35.35,0,0,0-.6.35c.38.72.65,1.45,1.05,2.09-2.23-.31-4.35-.2-6.34-1.66a6,6,0,0,1-2.39-3.45c-.31-1.29.09-2.39.12-3.65a.24.24,0,0,0-.41-.17c-1.56,1.34-1.26,3.67-.37,5.53a11.45,11.45,0,0,1-7.31-2.78c-1.94-1.71-2.5-3.79-3.83-5.88A.24.24,0,0,0,6.48,63.49Z"/><path class="cls-5" d="M42.93,31a11.17,11.17,0,0,1,4-4.44,8.69,8.69,0,0,1,2.55-1.22,8,8,0,0,1,3.84,0A10.12,10.12,0,0,1,61,33.49a9.91,9.91,0,0,1-5.13,10A9.49,9.49,0,0,1,42.93,31Z"/><path class="cls-5" d="M21.82,44a10.57,10.57,0,0,1-4.34,0,8,8,0,0,1-4.77-3.89A10.37,10.37,0,0,1,16.2,26.16a7.31,7.31,0,0,1,2.14-.94,7.85,7.85,0,0,1,2.94-.07,10.87,10.87,0,0,1,6.4,3.24,8.45,8.45,0,0,1,2.24,6.71,12.19,12.19,0,0,1-1.1,3.4,9.64,9.64,0,0,1-3,4.15A9.49,9.49,0,0,1,21.82,44Z"/><path class="cls-4" d="M43.68,42c5,5.78,14.68,4.06,17.54-2.93A10.21,10.21,0,0,0,62,35.24c.84-7.31-7.51-12.73-14.12-10.14A10.68,10.68,0,0,0,43.68,42Zm4.25-15a8.83,8.83,0,1,1-2.75,14.13A9,9,0,0,1,47.93,27Z"/><path class="cls-4" d="M50.69,32.52a2.57,2.57,0,0,1,2.94.95,2.36,2.36,0,0,1,.67,1.12,2.73,2.73,0,0,1-1.89,3.1,2.78,2.78,0,0,1-3.28-1.75A2.7,2.7,0,0,1,50.69,32.52Z"/><path class="cls-4" d="M15.52,44.11a10.46,10.46,0,0,0,15-7.07,10.23,10.23,0,0,0-1.54-7.68.53.53,0,0,0-.06-.27c-3.18-5.95-12.16-6.19-16.37-1.32A10.54,10.54,0,0,0,15.52,44.11ZM14.33,28.36A8,8,0,0,1,22,26.3c4.59,1.64,8.37,5.14,6.8,10.74A8.74,8.74,0,0,1,16,42.42,8.83,8.83,0,0,1,14.33,28.36Z"/><path class="cls-4" d="M18.65,33.4a2.18,2.18,0,0,1,2.85-.82l.05,0a2.42,2.42,0,0,1,1.2,1.09A2.24,2.24,0,0,1,22,36.55,2.37,2.37,0,0,1,18.65,33.4Z"/><path class="cls-4" d="M18,19.14a7,7,0,0,1,6.58,2.57c.15.2-.13.43-.32.32-2-1.19-4.21-2-6.57-1.31-1.66.47-2.57,2-4.13,2.39a.41.41,0,0,1-.52-.39C13.14,20.62,16.27,19.4,18,19.14Z"/><path class="cls-4" d="M47.54,21.21A7.28,7.28,0,0,1,54.66,19c1.88.47,4.85,2.06,4.85,4.25a.57.57,0,0,1-.85.49c-1.58-.69-2.37-2.32-4.17-2.9-2.36-.75-4.38-.08-6.51.93A.36.36,0,0,1,47.54,21.21Z"/><path class="cls-4" d="M34.6,56.09a1.58,1.58,0,0,0,2.28,0,1.81,1.81,0,0,0,.8-.65c.57-.81.52-2.39.6-3.3a42.33,42.33,0,0,0,.25-5.28c-.05-1.35-.25-3.64-2.16-3.46-2.08.2-2,3.68-2.16,5.18C34,50.4,33.07,54.63,34.6,56.09Z"/><path class="cls-6" d="M35.74,51.88c.13-.82,1.31-2,1.59-.5a8.22,8.22,0,0,1-.27,2.12,3.68,3.68,0,0,1-.29,1.14,1.07,1.07,0,0,1-2,.11,2.88,2.88,0,0,1-.36-1.22,12.89,12.89,0,0,1-.1-1.64,1.86,1.86,0,0,1,.14-.78.69.69,0,0,1,.62-.4C35.59,50.75,35.73,51.39,35.74,51.88Z"/><path class="cls-5" d="M35.47,46.19c-.34-.76.13-2.1,1.09-2.14,1.13,0,1.69,1.9,1,2.61A1.35,1.35,0,0,1,35.47,46.19Z"/><path class="cls-5" d="M50.92,33.34a.92.92,0,0,1,0,1.83A.92.92,0,0,1,50.92,33.34Z"/><path class="cls-5" d="M52,34.93a.57.57,0,0,1,0,1.13A.57.57,0,0,1,52,34.93Z"/><path class="cls-5" d="M20,33.17a1,1,0,0,1,1,1,.93.93,0,0,1-.05.29l.1,0a.64.64,0,0,1,0,1.27.6.6,0,0,1-.61-.66,1,1,0,0,1-.41.09,1,1,0,0,1,0-1.94Z"/></g></g></svg>