<svg xmlns="http://www.w3.org/2000/svg" viewBox="0 0 69.04 76.92"><defs><style>.cls-1{fill:#ede7e1;}.cls-2{fill:#7c6253;}.cls-3{fill:#52453e;}.cls-4{fill:#3e342f;}.cls-5{fill:#fff;}</style></defs><g id="Layer_2" data-name="Layer 2"><g id="Ñëîé_1_êîïèÿ_" data-name="Ñëîé 1 (êîïèÿ)"><path class="cls-1" d="M2.49,11.5a4.71,4.71,0,0,1-.81-.8A1.3,1.3,0,0,0,2.82,8.88l-.38-.8a1.2,1.2,0,0,0,.83-1.42c-.08-.32-.13-.63-.19-.94a1.16,1.16,0,0,0,1.1-1.15A4.71,4.71,0,0,1,5.25,1.93a1.28,1.28,0,0,0,.15-.25c5.37-2.19,9.9,1.81,13.84,4.93a1,1,0,0,0,1.31.55c7.79-3.23,19.74-4.23,27.65-1a1.08,1.08,0,0,0,.63.05,1.18,1.18,0,0,0,1.77-.55,1.2,1.2,0,0,0,1.59.37,1.17,1.17,0,0,0,.51-.64c1.91-.9,3.54-2.27,5.41-3.25a1.1,1.1,0,0,0,.58-.69c.12,0,.25-.11.38-.15,3.63-1.27,8,.73,7.76,5a1.12,1.12,0,0,0,1.4,1.17v0a1.12,1.12,0,0,0-.53,1v.11a1.12,1.12,0,0,0,.88,1.14,2.7,2.7,0,0,0,0,.28s0,.06,0,.09a1.24,1.24,0,0,0-1.33,1.55,26.94,26.94,0,0,1,.78,4.2,1.25,1.25,0,0,0-.39.82c-.16,2.22-.21,4.45-.45,6.67a1.13,1.13,0,0,0-.2.54,43.55,43.55,0,0,0,.35,9.2,20.7,20.7,0,0,1-1,8.28,1.27,1.27,0,0,0-.86,1.83c.21.4.55.85.82,1.3a1.24,1.24,0,0,0-1.18,2.17h-.09A1.13,1.13,0,0,0,64,47.6a1.31,1.31,0,0,0-1.91.66c-.06.17-.15.31-.22.47a1.43,1.43,0,0,0-.45.29,30.19,30.19,0,0,1-4.88,4.29s-.06.06-.09.09A40.71,40.71,0,0,1,49,55.56a.94.94,0,0,0-.22,1.71,5.61,5.61,0,0,1,2.84,5.82.89.89,0,0,0,.19.81,1,1,0,0,0,1.84.13,16.08,16.08,0,0,1,2.23-5.27c.52.59,1.71.42,1.63-.55,0,0,0-.08,0-.12a.93.93,0,0,0,1.22-.86v0l.08,0h0a.93.93,0,0,0,1.08.64c2-.38,2.69,2.43,2.74,3.9a8.36,8.36,0,0,1-2.24,5.89,1.27,1.27,0,0,0-.18.29,1.71,1.71,0,0,0-1.83,1.17,1.58,1.58,0,0,0-1,.83C56.22,72,52.54,73.16,50.27,73a1.48,1.48,0,0,0-1.54.93,14.85,14.85,0,0,1-3.81,1l-.21,0a1.62,1.62,0,0,0-1.77,0,4.73,4.73,0,0,1-2.83,1.17,1.4,1.4,0,0,0-1.67-.36,9.08,9.08,0,0,1-6.27-.11,1.52,1.52,0,0,0-.79-.12,1.78,1.78,0,0,0-2.33,0h-.27l-.45-.12-.1,0-.11-.06A2.11,2.11,0,0,0,27,75.18a1.79,1.79,0,0,0-.86-.28,31.35,31.35,0,0,0-3.69.44,13.07,13.07,0,0,1-3-1.28,8.88,8.88,0,0,1-2.6-4,1.63,1.63,0,0,0-1.16-1.17,1.9,1.9,0,0,0-.36-1.65,1.61,1.61,0,0,0,.53-.93c.57-2.73.59-5.58,2.34-7.88a1.76,1.76,0,0,0,.32-.74,1.72,1.72,0,0,0,.23-.52,2.48,2.48,0,0,1,.54-.12c1.21-.06,1.21-1.94,0-1.88a5.56,5.56,0,0,0-1.3.27,14.8,14.8,0,0,0-4.21-1.94c-2.14-.81-3.86-2.52-5.47-4.1a1.61,1.61,0,0,0-1.43-.48,1.66,1.66,0,0,0-1.12-1.48,1.86,1.86,0,0,0-.55-1.77,1.44,1.44,0,0,0,.1-1.92C2.4,39.76,3,33.48,3.91,29a2,2,0,0,0,0-.33,1.05,1.05,0,0,0,.3-1.12,31.54,31.54,0,0,1-1.36-6.58c-.15-2.21-.6-4.68-.28-6.87a1.36,1.36,0,0,0,0-.54A1.34,1.34,0,0,0,2.49,11.5Z"/><path class="cls-2" d="M44.42,52.28A20.19,20.19,0,0,0,59.75,38,20.17,20.17,0,0,0,53.6,18c-8.83-7.64-24.53-8-33.69-.85a23.68,23.68,0,0,0-9,17.43,16.69,16.69,0,0,0,2.37,9.91,18,18,0,0,0,6.9,5.84C28.09,54.42,36,53.9,44.42,52.28Z"/><path class="cls-2" d="M28.05,71.25c1.12-.34,2.52-.34,3.23.58s.25,2.51-.7,3.33l-.06,0a1.88,1.88,0,0,0-1.47.36h-.27l-.45-.12-.1,0-.11-.06A2.16,2.16,0,0,0,27,75.18a1.72,1.72,0,0,0-.85-.28,5.33,5.33,0,0,0-.8,0,6.69,6.69,0,0,1-1.5-1.11C25.15,73,26.58,71.68,28.05,71.25Z"/><path class="cls-2" d="M43.61,74.78a1.37,1.37,0,0,0-.67.25l-.26.18a4.42,4.42,0,0,1-3.57-.38c-.78-.47-1.44-1.42-1-2.23a1.9,1.9,0,0,1,1.09-.85c2-.76,4.29-.08,6.29.75A4.35,4.35,0,0,1,43.61,74.78Z"/><path class="cls-2" d="M53.69,64a16.08,16.08,0,0,1,2.23-5.27c.52.59,1.71.42,1.63-.55,0,0,0-.08,0-.12a.93.93,0,0,0,1.22-.86v0l.08,0h0a.93.93,0,0,0,1.08.64c2-.38,2.69,2.43,2.74,3.9a8.36,8.36,0,0,1-2.24,5.89,1.27,1.27,0,0,0-.18.29,1.71,1.71,0,0,0-1.83,1.17,1.58,1.58,0,0,0-1,.83,4.82,4.82,0,0,1-1.59,1.59A7.13,7.13,0,0,1,53.17,67a11.88,11.88,0,0,1-.2-2.31A.83.83,0,0,0,53.69,64Z"/><path class="cls-2" d="M50,6.34a1.07,1.07,0,0,0,.57-.68,1.21,1.21,0,0,0,1.61.39,1.17,1.17,0,0,0,.51-.64c1.91-.9,3.54-2.27,5.41-3.25a1.1,1.1,0,0,0,.58-.69c.12,0,.25-.11.38-.15,3.63-1.27,8,.73,7.76,5a1.12,1.12,0,0,0,1.4,1.17v0a1.12,1.12,0,0,0-.53,1v.11a1.12,1.12,0,0,0,.88,1.14,2.7,2.7,0,0,0,0,.28s0,.06,0,.09a1.24,1.24,0,0,0-1.33,1.55,26.94,26.94,0,0,1,.78,4.2,1.25,1.25,0,0,0-.39.82c-.16,2.22-.21,4.45-.45,6.67a1.13,1.13,0,0,0-.2.54,22.74,22.74,0,0,0-.14,2.32c-.25.15-.51.31-.78.45A33.9,33.9,0,0,0,49.81,6.57C49.88,6.49,50,6.42,50,6.34Z"/><path class="cls-2" d="M3.92,29c0-.11,0-.22,0-.32a1.05,1.05,0,0,0,.3-1.12,31.54,31.54,0,0,1-1.36-6.58c-.15-2.21-.6-4.68-.28-6.87a1.36,1.36,0,0,0,0-.54,1.34,1.34,0,0,0-.09-2,4.71,4.71,0,0,1-.81-.8A1.3,1.3,0,0,0,2.82,8.88l-.38-.8a1.2,1.2,0,0,0,.83-1.42c-.08-.32-.13-.63-.19-.94a1.16,1.16,0,0,0,1.1-1.15A4.71,4.71,0,0,1,5.25,1.93a1.28,1.28,0,0,0,.15-.25c5.37-2.19,9.91,1.81,13.85,4.93a1,1,0,0,0,.43.53A48.43,48.43,0,0,0,4.21,29Z"/><path class="cls-3" d="M65.68,25.84A64,64,0,0,0,55.27,9.53a5,5,0,0,1,5.84-1.36,7.67,7.67,0,0,1,4,4.79,18.19,18.19,0,0,1,.62,6.41A48.21,48.21,0,0,0,65.68,25.84Z"/><path class="cls-3" d="M10.6,7.73C9,8.3,8,10,7.36,11.6c-2.2,5.32-2.59,10.61-2.64,16.28A43.44,43.44,0,0,1,16.54,10.06S12,7.25,10.6,7.73Z"/><path class="cls-3" d="M57.55,58.21c0-.05,0-.08,0-.13a.92.92,0,0,0,1.22-.85v0l.08,0h0a.93.93,0,0,0,1.08.64c2-.38,2.69,2.43,2.74,3.9a8.05,8.05,0,0,1-.33,2.52,4.12,4.12,0,0,1-5.54-5.13A.77.77,0,0,0,57.55,58.21Z"/><path class="cls-4" d="M28.33,5.67a4.82,4.82,0,0,0,1.89-.06c.54-.07,1.1-.08,1.43-.55a.37.37,0,0,0-.12-.49c-.45-.32-1.07-.11-1.57,0a4.42,4.42,0,0,0-1.71.52A.32.32,0,0,0,28.33,5.67ZM33.4,4.4c2.54-1.06,5.92-.64,8.58-.28s5.4.91,7.54,2.57c.21.16,0,.54-.22.53-2.6-.16-5.08-1.07-7.65-1.45s-5.6-.06-8.25-.63C33,5.05,33.08,4.53,33.4,4.4Zm16.05.94a.39.39,0,0,1,.37-.48,3.49,3.49,0,0,1,2.5,2.22c0-.21.22-.44.43-.29s.42.19.61.34a2.75,2.75,0,0,1,.44.53,3,3,0,0,1,.47,1.4c0,.77-1.06.85-1.28.18-.12-.37-.19-.74-.33-1.1,0-.12-.09-.24-.14-.37a1.69,1.69,0,0,1,0,.59.61.61,0,0,1-1.12.31c-.39-.55-.54-1.23-.93-1.79A9.45,9.45,0,0,1,49.45,5.34Zm6.33,6a9.17,9.17,0,0,1-1.45-2,.31.31,0,0,1,.29-.38,3.56,3.56,0,0,1,2.14,1.49c.48.57,1.34,1.63,1,2.42a.45.45,0,0,1-.53.3C56.54,12.88,56.22,11.92,55.78,11.33ZM2.72,37.09A15.28,15.28,0,0,1,3,30.89a22.2,22.2,0,0,1,.82-3.36,23.23,23.23,0,0,1-1.67-7c-.26-2.3-.63-5.12.34-7.29.12-.27.51-.16.59.08.72,2.11.4,4.64.57,6.85.15,2.06.52,4.13.68,6.19a5.88,5.88,0,0,1,.76-1.15.24.24,0,0,1,.41.17c-.1,1.85-.91,3.67-1.24,5.5C3.88,32.94,4,35,3.69,37.09A.51.51,0,0,1,2.72,37.09Zm1.68,5.7a2.81,2.81,0,0,1-.84-1.89,4.39,4.39,0,0,1,0-2.22.23.23,0,0,1,.45,0c.26.68.38,1.36.58,2.06A4.09,4.09,0,0,1,5,42.54.42.42,0,0,1,4.4,42.79Zm.84,4.09a.54.54,0,0,1-.67-.51c0-.5.43-.87.65-1.29s.37-.89.61-1.32a.4.4,0,0,1,.73.1,3,3,0,0,1-.26,1.68C6.09,46,5.81,46.74,5.24,46.88Zm.23.5a10.55,10.55,0,0,1,.59-.89,2.24,2.24,0,0,1,.33-.36c.14-.12.32-.18.47-.3a.25.25,0,0,1,.41.24c0,.18,0,.36,0,.54a2.58,2.58,0,0,1-.18.46,8.34,8.34,0,0,1-.52.92C6.13,48.67,5,48,5.47,47.38Zm2.62.36a5.11,5.11,0,0,1-.73,1.65.6.6,0,1,1-1-.6,5.26,5.26,0,0,1,1.27-1.35C7.8,47.26,8.19,47.43,8.09,47.74Zm8.05,7.43c-2.58-.82-6.81-2.61-8-5.25-.14-.31.09-.79.49-.64,1.32.49,2.33,1.6,3.52,2.35a24,24,0,0,0,4.34,2.14A26.91,26.91,0,0,0,26,55.08a.38.38,0,0,1,.1.75,15.35,15.35,0,0,1-5.34.32c-.89,1.36-1.95,2.56-2.72,4s-1,3.43-1.88,4.75a.42.42,0,0,1-.76-.1c-.38-1.61.68-3.61,1.43-5A12.48,12.48,0,0,1,19.74,56,24.24,24.24,0,0,1,16.14,55.17Zm50.8-17.06A2.9,2.9,0,0,1,67,40.49c-.19.73-.41,1.68-1.19,1.95a.41.41,0,0,1-.5-.28c-.19-.71.35-1.45.55-2.12a5.16,5.16,0,0,1,.7-2A.24.24,0,0,1,66.94,38.11Zm-.59,5.81c.41.55-.39,1.29-.93.93a2.74,2.74,0,0,1-.89-1.13,2,2,0,0,1-.18-.72,1.68,1.68,0,0,1,.16-.65.32.32,0,0,1,.57-.07c.11.15.26.26.37.43s.17.25.25.39A7.31,7.31,0,0,0,66.35,43.92Zm-.83,2.45c.2.52-.56.93-.92.54a6.12,6.12,0,0,1-.67-1.06,2.23,2.23,0,0,1-.37-1.11.36.36,0,0,1,.53-.31,2.21,2.21,0,0,1,.81.85A6.23,6.23,0,0,1,65.52,46.37Zm-1,1.24a.63.63,0,0,1-.1.77.63.63,0,0,1-.91,0,6.87,6.87,0,0,1-.8-1.3,3,3,0,0,1-.3-.66c-.08-.25-.07-.48-.13-.74s.16-.37.33-.25a5.06,5.06,0,0,1,1,.88A7.61,7.61,0,0,1,64.55,47.61Zm-9.31,6.92a27.73,27.73,0,0,1-6.51,1.91c2.39,2,4.62,5.79,4.12,8.79-.1.57-.84.42-1,0-.6-1.48-.74-3.07-1.46-4.55a18.36,18.36,0,0,0-2.83-3.89.6.6,0,0,1-.09-.15c-1.48.21-3,.34-4.42.42-.82,0-1-1.32-.2-1.44,3.72-.55,7.47-.79,11-2.1a17.07,17.07,0,0,0,4.94-2.82c1.18-1,2-2.28,3.15-3.27a.29.29,0,0,1,.47.28C61.9,50.92,58,53.33,55.24,54.53ZM3.84,5.09c-.28-3.48,3.49-5.58,6.6-5A14.78,14.78,0,0,1,16.1,2.85a16.52,16.52,0,0,1,4.08,3.66A17.24,17.24,0,0,1,26.89,5.4a.28.28,0,0,1,.08.54c-2.11.71-4.28,1.46-6.32,2.35s-3.88,2.25-5.93,3.15c-.34.15-.87-.2-.59-.59A12.29,12.29,0,0,1,18.8,7.1C18.18,6.6,17.6,6,17,5.53a39.83,39.83,0,0,0-3.58-2.6C10.56,1.14,4.52,0,4.57,5.09A.37.37,0,0,1,3.84,5.09Zm-1.4,0a.43.43,0,0,1,.72-.19c.37.44.6,1,1,1.43a3.86,3.86,0,0,0,1.44,1c.75.35.2,1.66-.57,1.34C3.7,8.23,2.06,6.7,2.44,5.13Zm.25,4.35a3.6,3.6,0,0,1-.76-1.74c-.05-.3.35-.53.52-.22a4.41,4.41,0,0,0,1,1.2,4.51,4.51,0,0,0,.61.47,2.12,2.12,0,0,1,.62.44.5.5,0,0,1-.35.84A2.37,2.37,0,0,1,2.69,9.48ZM2.25,11.8a2.2,2.2,0,0,1-.62-1.46c0-.21.27-.42.47-.27s.68.58,1,.88.81.47,1.11.86-.11.83-.49.85A2.16,2.16,0,0,1,2.25,11.8ZM52.17,6c.6-1.59,2.55-2.69,3.95-3.57a12.89,12.89,0,0,1,5-2.15c3.76-.44,5.81,3.24,6,6.54,0,.62-.8.62-1,.13-.6-1.48-.81-3.27-2-4.41-1.64-1.48-3.73-.67-5.43.17a35.9,35.9,0,0,0-3.26,1.84,9.88,9.88,0,0,1-3,1.69C52.28,6.23,52.11,6.12,52.17,6ZM66.62,7.85c.61-.35,1.29-1.29,2-1.19.15,0,.34.1.37.28.14,1-1.06,1.57-1.8,2a4.52,4.52,0,0,1-3,.58.27.27,0,0,1-.06-.5C65,8.58,65.84,8.3,66.62,7.85Zm2,1.87a1.09,1.09,0,0,1,.08.31.57.57,0,0,1-.3.52,6.81,6.81,0,0,1-1.49.39,2.44,2.44,0,0,1-1.39,0,.31.31,0,0,1-.13-.51,2.4,2.4,0,0,1,1.2-.65,7.05,7.05,0,0,1,1.51-.35A.59.59,0,0,1,68.62,9.72Zm-1,2.18c1,2.4.79,5.38.6,7.91C68,21.88,68,24.63,66.9,26.52c.25.87.43,1.77.6,2.49a14.58,14.58,0,0,1,.31,6.88.28.28,0,0,1-.54,0c-.6-2.25-.71-4.58-1.25-6.84-.41-1.75-1.62-3.77-1.36-5.56a.25.25,0,0,1,.37-.15,3.61,3.61,0,0,1,1,1.11c.07-.32.14-.64.2-1a34.14,34.14,0,0,0,.51-4c.17-2.48-.24-5,0-7.45A.42.42,0,0,1,67.59,11.9ZM15,66.94A2.24,2.24,0,0,1,16.42,66h0a.28.28,0,0,1,.38.38v0a2.19,2.19,0,0,1-.94,1.4C15.36,68.16,14.64,67.44,15,66.94Zm1.66,1.55a2.5,2.5,0,0,1-.46.56.54.54,0,0,1-.78,0,.55.55,0,0,1,0-.78,2.75,2.75,0,0,1,.56-.46c.19-.1.4-.15.59-.26a.26.26,0,0,1,.36.35C16.81,68.09,16.77,68.3,16.66,68.49ZM53.37,67.1a1.66,1.66,0,0,1-1.31.13,1.33,1.33,0,0,1-.86-.84c-.13-.28.15-.69.47-.47a1.66,1.66,0,0,0,1.24.09A.6.6,0,0,1,53.37,67.1Zm-.89.75a.6.6,0,0,1,0,1.14,1.36,1.36,0,0,1-.95-.09,1.53,1.53,0,0,1-.75-.62c-.24-.35.16-.91.56-.75a5.27,5.27,0,0,0,.56.19C52.09,67.78,52.28,67.77,52.48,67.85Zm1.34-3.69a.3.3,0,0,1-.5-.13,4.31,4.31,0,0,1,.61-2.53,9.33,9.33,0,0,1,1.69-2.56c.47-.48,1.33.16.94.73A25.34,25.34,0,0,0,55,62,9.58,9.58,0,0,1,53.82,64.16Zm3.4-6.82a2.4,2.4,0,0,1,.87,2.42c-.15.65-1,.42-1.06-.14A9.45,9.45,0,0,0,57,58.56a6.61,6.61,0,0,1-.14-1A.27.27,0,0,1,57.22,57.34Zm2.09.21a4.76,4.76,0,0,1,.3,1.18.61.61,0,0,1-.54.61.61.61,0,0,1-.68-.45,5.23,5.23,0,0,1-.17-1.12,1.57,1.57,0,0,1,.14-1,.31.31,0,0,1,.41-.11A1.62,1.62,0,0,1,59.31,57.55Zm4,3.36c.3,2.24-1,4.75-2.44,6.36-.41.45-1-.12-.78-.6.64-1.39,1.6-2.52,1.88-4.08.38-2.09-.48-3.16-2-4.34a.33.33,0,0,1,.16-.61C61.89,57.48,63.13,59.32,63.33,60.91Zm-2.8,7.49c-.35.43-.85,0-1.14-.24a2,2,0,0,1-.72-1.06.3.3,0,0,1,.29-.37,1.33,1.33,0,0,1,.7.21c.17.12.32.27.48.4S60.86,68,60.53,68.4Zm-2,.5c0,1.54-1.94,2.77-3.13,3.41a8.14,8.14,0,0,1-5,1.09,7.77,7.77,0,0,1-.91.83,7.58,7.58,0,0,1-6,1.33h0a4.55,4.55,0,0,1-3.56,1.34,2.33,2.33,0,0,1-1.56-.83,10.89,10.89,0,0,1-7.79-.42,2.51,2.51,0,0,1-.63.54c-1.16.72-2.38.11-3.44-.5L26,75.42c-1.58.89-4.23.07-5.69-.68-1.71-.87-3.75-2.65-3.91-4.67a.39.39,0,0,1,.66-.27c1.3,1.24,2,2.75,3.67,3.65a7.7,7.7,0,0,0,3.61.91h.11A5.67,5.67,0,0,1,23.23,73a.27.27,0,0,1,.3-.38c1.51.4,3.9,2.63,5.36,2,1.82-.73,1.47-4.49,1.49-6.1a.47.47,0,0,1,.92-.13c.42,1.64.7,4.61-.25,6.49A16.69,16.69,0,0,0,37.8,75a4.29,4.29,0,0,1-.14-.62,24.27,24.27,0,0,1-.12-6.08.24.24,0,0,1,.47-.06,25.15,25.15,0,0,1,.64,3.67c.16,1,.13,2.29,1,3,1.88,1.57,4.31-2.38,5.1-3.77a.47.47,0,0,1,.86.23,5.78,5.78,0,0,1-1,2.92A6,6,0,0,0,49,72.78c1.09-1,1.47-2.32,2.36-3.43a.3.3,0,0,1,.5.13,3.42,3.42,0,0,1-.35,2.37,10.6,10.6,0,0,0,3.34-1c1.15-.61,2.1-2,3.36-2.23A.26.26,0,0,1,58.57,68.9Z"/><path class="cls-4" d="M66.79,23c-2.38-3.37-6.4-4.18-10.29-4.23a40.19,40.19,0,0,0-10.11,1.08c-3.4.61-6.52,1.83-7.83,4.27-2-2.56-6.78-2.72-8.5,0-1.32-2.42-4.43-3.64-7.82-4.25a40.19,40.19,0,0,0-10.11-1.08c-3.89.05-7.91.86-10.29,4.23-4.54,6.42-.08,14.62,6.79,16.84,7.63,2.46,19.36-2.34,21.72-10.5a7.55,7.55,0,0,0,.24-3.85,5.33,5.33,0,0,1,3.4-2,4.42,4.42,0,0,1,4.07,1.88,7.64,7.64,0,0,0,.21,4c2.37,8.16,14.1,13,21.73,10.5C66.87,37.64,71.33,29.44,66.79,23Z"/><path class="cls-5" d="M13.56,20a1.89,1.89,0,0,0-.7.62Q7.73,27,2.93,33.71a15.08,15.08,0,0,0,3.51,3Q12.7,28.32,19,20l-4.64-.14A1.76,1.76,0,0,0,13.56,20Z"/><path class="cls-5" d="M11.25,38.49l-3-.71q6.84-8.16,13-16.88a11.19,11.19,0,0,0,3.22.85,45.26,45.26,0,0,1-5.33,7.31Z"/><path class="cls-5" d="M53.48,20.35a10.33,10.33,0,0,1,3.76,0l-11.06,16A8.72,8.72,0,0,0,44,34.88Q48.63,27.53,53.48,20.35Z"/><path class="cls-5" d="M51.93,38.71a18.16,18.16,0,0,1-4-1.43A151.83,151.83,0,0,0,59.27,20.65a10.24,10.24,0,0,1,4.45,1.71Z"/><path class="cls-4" d="M31.52,35.75c.69-.51,1.61.67.92,1.2s-.95,1.83-.07,2.35,1.61-.11,2.14-.74c.09-.87,1.52-.84,1.58.13a1.64,1.64,0,0,0,2.37,1.38A2.05,2.05,0,0,0,39,37.51c-.22-.53.6-1,1-.56a3,3,0,1,1-5,3.24,3.18,3.18,0,0,1-3.52.32A3,3,0,0,1,31.52,35.75Z"/></g></g></svg>