<svg xmlns="http://www.w3.org/2000/svg" viewBox="0 0 69.45 77.21"><defs><style>.cls-1{fill:#7f8a8b;}.cls-2{fill:#5f6868;}.cls-3{fill:#3e342f;}</style></defs><g id="Layer_2" data-name="Layer 2"><g id="????_1_?????_" data-name="???? 1 (?????)"><path class="cls-1" d="M65.27,30.9A1.06,1.06,0,0,1,65,29.63c1.26-2.7,2.41-4.86,2.47-8,0-1.8,0-3.72-.12-5.52-.13-3.32-1.07-6.57-1.18-9.87a.92.92,0,0,1-1.1-1,26.44,26.44,0,0,0,.12-2.68l-.06,0s-.31.34-.3.33a.66.66,0,0,1-.66.22.76.76,0,0,1-1.13-.68,9.88,9.88,0,0,1,.15-1.32,1.94,1.94,0,0,1-.65-.24c-.3.27-.59.54-.92.79-3.1,2.34-7.46,5-11.33,5.65h0a1.49,1.49,0,0,1-1.5.33c-3-.9-6-1.71-9-2.72a16,16,0,0,1-5.22-2.51.76.76,0,0,0,0,.15A1.89,1.89,0,0,1,34.64,4a.65.65,0,0,1-.18,1.27.59.59,0,0,1-.58-.38,1.55,1.55,0,0,1-.73.18,1.84,1.84,0,0,1-.65-.12,1.73,1.73,0,0,1-2.66-.29,1.63,1.63,0,0,1-2.38.21,1.54,1.54,0,0,1-1,1.11,1.77,1.77,0,0,1-.61.24,23.87,23.87,0,0,1-15-2.12c-.12-.06-.22-.14-.34-.2a1.68,1.68,0,0,1-.69-.26C8,2.49,6.11,1.46,4.28.35a1,1,0,0,0,.45.82c1.14.74.08,2.57-1.07,1.83l-.17-.14a13.72,13.72,0,0,0,.63,3.31A1,1,0,0,1,3.07,7.46a10.39,10.39,0,0,0,.4,1.23.87.87,0,0,1-.78,1.23,7.83,7.83,0,0,0,.45,1,1.06,1.06,0,0,1-.87,1.56c0,.05,0,.08,0,.12A20.14,20.14,0,0,0,4.13,25.91a1,1,0,0,1,0,.94c-.42,3.87-.52,9-3.21,12.14a1,1,0,0,1,1,1.28,4.61,4.61,0,0,1-.69,1.34c1-.44,1.9,1.19.86,1.91-.08.06-.16.09-.24.14a9.23,9.23,0,0,0,1.56.19,1,1,0,0,1,.9.59,1.05,1.05,0,0,1,.23.4c1.48,4.69,6.13,7.65,9.89,10.41a1.14,1.14,0,0,1,.26.28,13.92,13.92,0,0,0,4.34.88,1.49,1.49,0,0,1,.25.07,4.93,4.93,0,0,1,.53-.36,1.06,1.06,0,0,1,1.07,1.82c-2,1.14-2.59,4.26-2.64,6.4a1,1,0,0,1,.87,1v.11a1.52,1.52,0,0,1-1.7,1.35,7.78,7.78,0,0,1-2.93-4.11c-.73-1.88-1.31-3.79-3.48-4.3a1.45,1.45,0,0,1-.22-.09A1.07,1.07,0,0,1,9,58.84,2.45,2.45,0,0,0,6.32,60a3.45,3.45,0,0,0,.32,3.19,1,1,0,0,1-.38,1.39,11.46,11.46,0,0,0,1.85,1.89.86.86,0,0,1,.1,1.31,1.34,1.34,0,0,0,.14.5,5.57,5.57,0,0,1,1.47.83,4.25,4.25,0,0,1,1.54,2.18c2.29,1.79,4.4,2.75,7.41,2.12A1.06,1.06,0,0,1,20,74c1.6,1.32,4.39,2.69,6.41,1.64a1.08,1.08,0,0,1,.65-.09,1,1,0,0,1,.84.26c.56.5,1.67,0,2.22-.27a1,1,0,0,1,1.17.12,11.27,11.27,0,0,0,7.38.31l.17,0a.85.85,0,0,1,.83-.08,7.57,7.57,0,0,0,3,.37.77.77,0,0,1,.53-.37.3.3,0,0,0,.3-.12,1,1,0,0,1,1.36.29l.36,0a39.29,39.29,0,0,0,5.1-.66c1.29-1,2.52-2.19,2.74-3.66a.9.9,0,0,1,1.45-.59v0a1.29,1.29,0,0,1-.07-.31,8.1,8.1,0,0,0-.29-2.13,1,1,0,0,1,1-1.28,14.89,14.89,0,0,0-4.31-8.3,1,1,0,0,1-.28-.48,1.05,1.05,0,0,1,.76-1.94c2.45.62,6.12-2.25,7.79-3.73a18.52,18.52,0,0,0,4.78-6.6c.35-.81,1.23-.63,1.67-.08a21.84,21.84,0,0,1-.17-2.55,1,1,0,0,1,1.26-1,4.61,4.61,0,0,1-.35-.92,1.07,1.07,0,0,1,1.5-1.21l1.11.08A21.73,21.73,0,0,1,65.27,30.9Z" style="fill: #7f8a8b;"></path><path class="cls-2" d="M11.7,8.25C9.24,7.9,6.89,9.93,6.23,12.33a10,10,0,0,0,1.21,7.18,17.44,17.44,0,0,1,5.07-7.15,3.34,3.34,0,0,0,1.39-1.77C14.12,9.41,12.89,8.42,11.7,8.25Z" style="fill: #5f6868;"></path><path class="cls-2" d="M57.43,8.23a5.48,5.48,0,0,1,4,3.2,10.68,10.68,0,0,1,.79,5.25c-.12,1.79-.47,3.56-.62,5.34a21.13,21.13,0,0,0-4.85-6.93,13.77,13.77,0,0,1-2.17-2.28,3.29,3.29,0,0,1-.46-3A3.1,3.1,0,0,1,57.43,8.23Z" style="fill: #5f6868;"></path><path class="cls-2" d="M43.48,75.58a2,2,0,0,0,.45-2.44c-.93-1.75-3.44-1.53-5.12-1.83C39.09,73.1,40.47,77.74,43.48,75.58Z" style="fill: #5f6868;"></path><path class="cls-2" d="M27.7,72.12a25.86,25.86,0,0,1,4.55.5c0,2.54-3.53,3.66-5.39,2.43-.77-.5-1.32-1.61-.75-2.33A2.09,2.09,0,0,1,27.7,72.12Z" style="fill: #5f6868;"></path><path class="cls-2" d="M11.11,63.66a5.76,5.76,0,0,0-4-3.8c-.21-.06-.43-.11-.65-.15a1.67,1.67,0,0,0-.17.26,3.45,3.45,0,0,0,.32,3.19,1,1,0,0,1-.38,1.39,11.46,11.46,0,0,0,1.85,1.89.86.86,0,0,1,.1,1.31,1.34,1.34,0,0,0,.14.5,3.19,3.19,0,0,1,.48.19l.09,0A4,4,0,0,0,11.11,63.66Z" style="fill: #5f6868;"></path><path class="cls-2" d="M58.19,53.65l.83-.71a18.78,18.78,0,0,0,2.91-3.27,23.55,23.55,0,0,0-4.31-5.47,2.6,2.6,0,0,0-2-.94,1.81,1.81,0,0,0-1.4,1.53A4.54,4.54,0,0,0,54.53,47,21,21,0,0,0,58.19,53.65Z" style="fill: #5f6868;"></path><path class="cls-2" d="M51.23,56.67a6,6,0,0,0,4.13-1.05l-.6-2.06a6.1,6.1,0,0,0-.9-2.11,2.17,2.17,0,0,0-2-1c-1.07.17-1.67,1.34-1.86,2.41a7.49,7.49,0,0,0,.39,3.89A1,1,0,0,1,51.23,56.67Z" style="fill: #5f6868;"></path><path class="cls-2" d="M8.5,50.62l3.15-3.11a9.47,9.47,0,0,0,1.73-2.06,3.25,3.25,0,0,0,.37-2.59A3.09,3.09,0,0,0,10.44,41,5.87,5.87,0,0,0,7,43,33.47,33.47,0,0,0,4.9,45.68,14.4,14.4,0,0,0,8.5,50.62Z" style="fill: #5f6868;"></path><path class="cls-2" d="M19.49,49.8a2.57,2.57,0,0,0-2.35-2.14,3,3,0,0,0-2.31,1.54c-.53.81-.85,1.74-1.39,2.54-.42.62-.95,1.16-1.42,1.74.82.6,1.65,1.19,2.43,1.77a.85.85,0,0,1,.26.28,10.87,10.87,0,0,0,2.11.61,9.62,9.62,0,0,0,2.09-3A5.51,5.51,0,0,0,19.49,49.8Z" style="fill: #5f6868;"></path><path class="cls-2" d="M34.53,2.39a.76.76,0,0,0,0,.15A1.89,1.89,0,0,1,34.64,4a.65.65,0,0,1-.18,1.27.59.59,0,0,1-.58-.38,1.55,1.55,0,0,1-.73.18,1.84,1.84,0,0,1-.65-.12,1.73,1.73,0,0,1-1.28.5,14.25,14.25,0,0,0,.85,2.86c.43,1.07,1.2,2.28,2.36,2.21S36.1,9.36,36.5,8.39a30.22,30.22,0,0,0,1.37-4.16A11.82,11.82,0,0,1,34.53,2.39Z" style="fill: #5f6868;"></path><path class="cls-2" d="M27,5.68a1.49,1.49,0,0,1-.56.29,1.8,1.8,0,0,1-.58.23,25.09,25.09,0,0,1-5.7.34,11.92,11.92,0,0,0,2.21,2.85A5.82,5.82,0,0,0,24.58,11a2.23,2.23,0,0,0,2.5-.69,3,3,0,0,0,.33-1.91A16.11,16.11,0,0,0,27,5.68Z" style="fill: #5f6868;"></path><path class="cls-2" d="M41,5.3A22.88,22.88,0,0,0,40.72,8c0,1.11.17,2.45,1.19,2.91s2.37-.47,3.12-1.47A14.21,14.21,0,0,0,46.53,7C44.67,6.43,42.82,5.89,41,5.3Z" style="fill: #5f6868;"></path><path class="cls-3" d="M30.47,6.87a2.13,2.13,0,0,1-.82-1.18,1.62,1.62,0,0,1,0-1.31c.06-.18.33-.31.48-.13s.22.24.32.38a4.11,4.11,0,0,1,.27.56,5.54,5.54,0,0,1,.63,1A.58.58,0,0,1,30.47,6.87Zm-1.83,0a.48.48,0,0,0,.13-.49,4,4,0,0,0-1.19-1.67.36.36,0,0,0-.59.35,4.12,4.12,0,0,0,.93,1.81.51.51,0,0,0,.5.13A.38.38,0,0,0,28.64,6.87Zm-2.78-.81a10.3,10.3,0,0,0-5.75.47c-2.47-.81-5-1.43-7.42-2.37A46.28,46.28,0,0,1,4.77.09c-.48-.3-1.25.21-1,.78L4.4,2.49l-1.07-.3A.69.69,0,0,0,2.49,3c.28,1.6.88,4,2.58,4.55a.29.29,0,0,0,.37-.29,15.24,15.24,0,0,0-1.3-3.45l1.23.36c.46.13,1-.35.84-.84l-.39-1A34.59,34.59,0,0,0,18.46,7.18a13.18,13.18,0,0,0-6,4.94.6.6,0,0,0,.94.73c1.92-1.49,3.44-3.17,5.65-4.3s4.49-1.27,6.78-2.05A.23.23,0,0,0,25.86,6.06Zm38.46,21c0,4.41,1.8,9.1,3.68,13.12A8.76,8.76,0,0,1,66.55,40a.53.53,0,0,0-.64.36,3.7,3.7,0,0,0,0,1.72L65.69,42a.57.57,0,0,0-.69.39,8.29,8.29,0,0,0,.08,4.31c.16.49,1,.44.94-.13a15.1,15.1,0,0,1,0-3.29l.88.31c.58.19.85-.54.54-.93-.12-.5-.24-1-.37-1.5a10.29,10.29,0,0,0,1.86.17.57.57,0,0,0,.49-.85,71.17,71.17,0,0,1-2.66-6.9c-.38-1.22-.7-2.46-1-3.69a.56.56,0,0,0,.14-.16c1.15-1.92,2.64-5.14,1.77-7.4-.08-.2-.42-.32-.53-.07a21,21,0,0,0-.69,3.17,14.1,14.1,0,0,1-1.15,2.95c-.15-.46-.31-.92-.49-1.36A.21.21,0,0,0,64.32,27.07ZM1.11,39.66a17.83,17.83,0,0,0,2.37-7c.23-1.3.44-2.61.75-3.9s.87-2.41,1.19-3.65a.22.22,0,0,0-.36-.21,4.16,4.16,0,0,0-.42.42,43.66,43.66,0,0,1-1.81-6.52c-.3-2.15.22-4.63-.4-6.68a.28.28,0,0,0-.5-.07C.8,14,1.24,16.93,1.52,19a18.52,18.52,0,0,0,2.17,7.29.49.49,0,0,0,.19.19,17.36,17.36,0,0,0-1.33,4.77C2.06,34,1.67,36.71.1,39.07-.32,39.7.7,40.29,1.11,39.66ZM.88,41.73a.63.63,0,0,0,.37.92,3.14,3.14,0,0,0,.71.09c-.17.33-.33.67-.49,1a.62.62,0,0,0,.69.9l1.53-.24c.84,2.29,2.48,5.61,4.85,6.24A.4.4,0,0,0,9,50.06a18.84,18.84,0,0,0-2.24-2.68,13.41,13.41,0,0,1-2-3.85.66.66,0,0,0-.78-.44l-.88.15.55-1.17c.24-.49-.27-1.16-.81-.81l-.29,0a7.87,7.87,0,0,0,.81-2.72c0-.33-.43-.4-.58-.16C2.05,39.49,1.54,40.65.88,41.73ZM25.56,55.59a40.13,40.13,0,0,1-9.09-.77,16.34,16.34,0,0,1-4-1.59,22,22,0,0,0-2.57-1.59c-.23-.09-.37.2-.29.38,1,2.18,4.11,3.36,6.27,4a26.41,26.41,0,0,0,5.25.87,16,16,0,0,0-2.46,3.66,9.32,9.32,0,0,0-1.33,4.42.53.53,0,0,0,1,.27c.68-1.24.88-2.73,1.49-4a21.19,21.19,0,0,1,2.5-4,.64.64,0,0,0,.12-.25c1.06.05,2.13.07,3.18.07A.71.71,0,0,0,25.56,55.59ZM66,2.32A.65.65,0,0,0,65,1.93a6.55,6.55,0,0,1-1.36.71,16.71,16.71,0,0,0,.26-1.9.67.67,0,0,0-1-.57,48.39,48.39,0,0,1-6.83,4.21c-2.24,1.11-4.75,1.72-7,2.85a27.28,27.28,0,0,0-2.91-1.14c-2-.66-4-1.11-6-1.76a34.87,34.87,0,0,1-6-2.92.35.35,0,0,0-.51.39,15.33,15.33,0,0,0,.55,2.55,6.67,6.67,0,0,1-1-1,.57.57,0,0,0-.95.25,3.33,3.33,0,0,0,.43,2.81c.46.72,1.62,0,1.13-.66a2,2,0,0,1-.34-.49,7.39,7.39,0,0,0,1.72,1.05c.51.22,1.15-.26.81-.82a16.56,16.56,0,0,1-1.23-2.41c2.27,2.05,5.77,2.84,8.56,3.59,4.11,1.11,7.52,2.39,10.46,5.56.24.26.57-.07.45-.35A8.71,8.71,0,0,0,50.61,8a29.73,29.73,0,0,0,5.57-2.19,41.39,41.39,0,0,0,6.28-3.67q-.1.63-.27,1.26a.64.64,0,0,0,.78.78,7.49,7.49,0,0,0,1.83-.64,6.66,6.66,0,0,1-1,2.52.48.48,0,0,0,.66.65C66,5.89,66.29,3.92,66,2.32Zm.37,3.84c-.09-.22-.45-.35-.57-.08a9,9,0,0,1-.38.9,4.61,4.61,0,0,1-.64.76.49.49,0,0,0-.12.46.55.55,0,0,0,.12.21.52.52,0,0,0,.58.08A2.07,2.07,0,0,0,66.36,6.16ZM67.79,20.3c.85-1.67.5-4,.33-5.77s-.31-4.11-1.38-5.67a.37.37,0,0,0-.68.18c-.2,1.89.5,3.94.65,5.84.14,1.7-.19,3.72.4,5.33A.38.38,0,0,0,67.79,20.3ZM4.49,8.62a2.62,2.62,0,0,1-.71-1.11c-.13-.37-.13-.81-.44-1.08a.29.29,0,0,0-.33,0c-.55.28-.48,1-.37,1.51a3.12,3.12,0,0,0,.95,1.62C4.19,10.09,5.09,9.18,4.49,8.62Zm-2.12.79a1.57,1.57,0,0,0,0,.86,2.3,2.3,0,0,0,1.2,1.51c.54.2.93-.48.7-.91a2.93,2.93,0,0,0-.45-.54,3.38,3.38,0,0,1-.3-.47c-.19-.32-.34-.71-.69-.86S2.42,9.22,2.37,9.41Zm53,58.21a14.58,14.58,0,0,0-2.11-5.86,14.58,14.58,0,0,0-3.3-4.4l.9-.14A17.78,17.78,0,0,0,57,55.05c3-1.75,6.75-5.16,7.26-8.79,0-.32-.37-.7-.63-.37-1.11,1.43-1.82,3.09-3,4.49A16.4,16.4,0,0,1,50.88,56c-1.82.31-4-.24-5.66.28a.36.36,0,0,0-.08.66,6,6,0,0,0,3.94.58c.9,1.71,2.27,3.17,3.19,4.9s1.37,3.71,2.24,5.49A.49.49,0,0,0,55.41,67.62ZM53,66.73a22.39,22.39,0,0,0,.51,2.54c.13.75,0,1.75.53,2.32a.4.4,0,0,0,.57,0c.57-.67.25-1.69,0-2.48a5.27,5.27,0,0,0-1.22-2.56A.26.26,0,0,0,53,66.73Zm-45.09-3c-.82-.89-1.66-2-1.32-3.35.59-2.26,3-1.13,4.15,0a.41.41,0,0,0,.68-.39l-.53-1.53c1.4,1,2.17,2.91,2.83,4.42a10.69,10.69,0,0,0,3,4.34c.42.34,1-.22.61-.61-1.73-1.64-2.18-4.07-3.32-6.08a6.38,6.38,0,0,0-3.53-3c-.22-.09-.42.16-.37.36s.18.7.26,1c-1.3-1-2.95-1.4-4.14.15-1.37,1.79-.3,3.95,1,5.4C7.66,64.91,8.39,64.18,7.94,63.7Zm-2.35.13c-.18.6.33,1.22.69,1.65a3.37,3.37,0,0,0,1.55,1.14c.51.13,1-.56.55-.94a12.92,12.92,0,0,1-1.27-.93c-.34-.35-.55-.91-1-1.14A.37.37,0,0,0,5.59,63.83Zm2.77,5.11a3,3,0,0,0,2.16,1c.81,0,1.09-1.36.21-1.49A3.19,3.19,0,0,1,9.35,68c-.35-.23-.67-.82-1.14-.77C7.22,67.31,8,68.58,8.36,68.94Zm2.36,1.74c1.1,2.51,5.74,4.74,8.37,3.7l.09,0c1.69,2.25,4.46,3.44,7.5,1.79l0,0a3.91,3.91,0,0,0,2.17.82,3,3,0,0,0,2-.74.73.73,0,0,0,.27.17c2.35.88,6.18,1.48,8.34-.25a3.25,3.25,0,0,0,.92.67,3.49,3.49,0,0,0,3.39-.37.94.94,0,0,0,.31.08c2.46.11,5.18.08,7.24-1.48,1.34-1,2.92-3.22,1.78-4.88a.28.28,0,0,0-.5.06c-.73,1.83-1,3.28-2.94,4.23a9.15,9.15,0,0,1-4.27.73,12,12,0,0,0,1.34-1.54c.33-.47-.39-1-.77-.59-1.15,1.13-3.56,3.4-5.18,2-1.3-1.1-1.51-3.49-1.59-5a.39.39,0,0,0-.77-.1,6.51,6.51,0,0,0,.48,5.48c-1.08,0-2.15.36-3.25.37a11.79,11.79,0,0,1-3.9-.7A6.46,6.46,0,0,0,32.54,71c-.06-.36-.53-.27-.64,0-.39,1-.38,2.16-1,3.1a2,2,0,0,1-3.1.53c-1.19-1-1.78-2.54-3-3.38a.29.29,0,0,0-.42.17A4.2,4.2,0,0,0,25.56,75c-2.7,1.19-5.44-.69-6.28-3.4-.73-2.35.26-4.39.53-6.68,0-.31-.4-.45-.6-.25C17,67,17.06,70.41,18.39,73.06A17.11,17.11,0,0,1,15,72.44a22.34,22.34,0,0,1-3.69-2.38C10.92,69.79,10.56,70.3,10.72,70.68Z" style="fill: #3e342f;"></path><path class="cls-3" d="M11.69,31.65a10.31,10.31,0,0,1,3.13-2.08,26.92,26.92,0,0,0,3.09-2.08l-.16-.14C15.88,25.68,13,22.72,13,20a.41.41,0,0,1,.7-.29,13.09,13.09,0,0,1,2.23,3.05,21.5,21.5,0,0,0,3,3.41l.29.24c2.18-1.92,3.71-4.22,5.57-6.42a.43.43,0,0,1,.72.42,18.65,18.65,0,0,1-4.9,7.06,41.22,41.22,0,0,1,5.12,3.38.3.3,0,0,1-.21.51c-2.12.07-4.36-1.3-6.18-2.73-2,1.74-4.74,4-7.29,3.76A.46.46,0,0,1,11.69,31.65Z" style="fill: #3e342f;"></path><path class="cls-3" d="M42,30.42a16.49,16.49,0,0,1,3.15-2,22.28,22.28,0,0,0,2.24-1.61C45.35,24.79,43.17,22,43.27,19a.3.3,0,0,1,.5-.21c1.89,2.16,2.93,4.83,4.93,6.94,2-1.89,3.24-4.3,5.08-6.29.33-.37.83,0,.76.44C54.09,22.58,52,25.09,50,27a19.68,19.68,0,0,0,2.45,1.82,10,10,0,0,1,2.91,2,.23.23,0,0,1-.14.34c-2.16.38-4.66-1.44-6.46-3.05-1.78,1.57-4.08,3.26-6.3,3.35A.61.61,0,0,1,42,30.42Z" style="fill: #3e342f;"></path><path class="cls-3" d="M22,35.43c.34.54-.21.91-.67.9s-.95-.91-1.47-1c-2.13-.51-3.39,3.59-1.48,4.6L20.47,41c2.21.64,4-.61,5.05-2.46.61-1,.9-2.17,2.11-2.73,4.16-2,3.63,5.55,7.84,5,1.94-.27,2.2-1.66,3-3.1a6.71,6.71,0,0,1,1.2-1.7,3.39,3.39,0,0,1,2.47-1A3.91,3.91,0,0,1,45,36.71a17.44,17.44,0,0,1,1.19,2.21,4.06,4.06,0,0,0,2.92,2.45c.81.22,2.3-1.06,2.48-1.8a3.13,3.13,0,0,0-1.21-2.91c-.33-.16-.71-.2-1.06-.33a1.08,1.08,0,0,1-.75-.76c-.11-.62.66-1.07,1.3-1a2.69,2.69,0,0,1,1.75,1c2.61,3,.76,8.42-3.63,7.48a4.68,4.68,0,0,1-3-2.32c-.91-1.45-1.61-5.25-4.94-2.07-.58.56-.75,1.78-1.25,2.45a4.48,4.48,0,0,1-6.59.65c-1-.84-1.16-2.78-2.09-3.42-2.21-1.53-3.62,2.88-4.91,3.79-2.32,1.65-6.15,1-8.12-.92C13,37.14,18.85,30.6,22,35.43Z" style="fill: #3e342f;"></path></g></g></svg>