<svg xmlns="http://www.w3.org/2000/svg" viewBox="0 0 73.39 74.58"><defs><style>.cls-1{fill:#f5f3f0;}.cls-2{fill:#f9ce97;}.cls-3{fill:#f7b056;}.cls-4{fill:#3e342f;}.cls-5{fill:#fff;}</style></defs><g id="Layer_2" data-name="Layer 2"><g id="????_1_?????_" data-name="???? 1 (?????)"><path class="cls-1" d="M72.4,32.36a1.68,1.68,0,0,1,.16-2.63,5.11,5.11,0,0,1-3.29-1c-2.58-1.94-2.83-5.51-4.46-8.1a1.78,1.78,0,0,1-.18-.44,1.36,1.36,0,0,1,.06-1.71c1.32-1.54,1.22-4.17.45-5.94a1.27,1.27,0,0,1-.07-.83,1.25,1.25,0,0,1-.15-1.48,1.43,1.43,0,0,1,1.27-.66l-.3-.25A1.23,1.23,0,0,1,66,7.45l-.2-.21-.54-.55a1.26,1.26,0,0,1,.14-1.92C61.11,2.65,57,3.18,52.9,3.93a1.32,1.32,0,0,1-.69.59c-2.63,1-5.19,2.28-7.9.74a1.73,1.73,0,0,1-.25-.21l0,0a1.34,1.34,0,0,1-1.63-.93,1.2,1.2,0,0,1,0-.53,1.38,1.38,0,0,1-.91-1.56c-.05.07-.08.15-.14.23a1.35,1.35,0,0,1-1.8.47A1.38,1.38,0,0,1,39,2.07c-.16.23-.29.47-.47.69a1.32,1.32,0,0,1-1.87,0,1.16,1.16,0,0,1-.31-.56,5.67,5.67,0,0,1-1.8,2,1.23,1.23,0,0,1-1.82-.6c-1.87-.12-4.59-.39-6.16.6a1.22,1.22,0,0,1-1.84-.66,6.1,6.1,0,0,0-.63.73,1.36,1.36,0,0,1-1.81.48,1.34,1.34,0,0,1-.33-.3c-4.25-.74-9.68-2.24-13.25.74h0A1.64,1.64,0,0,1,8.1,7.36l-.49.34a1.59,1.59,0,0,1,.3.9,1.48,1.48,0,0,1-.39,1,1.59,1.59,0,0,1,.14,2.32s-.06.09-.1.13a1.62,1.62,0,0,1,.07.8,17.22,17.22,0,0,0,.11,7.56A1.42,1.42,0,0,1,7,22.16c-1.45,2.5-2.6,5.3-5.12,6.91a10.27,10.27,0,0,1-1.43.76,1.59,1.59,0,0,1,.45,2.08,1.5,1.5,0,0,1-.46.48,1.69,1.69,0,0,1,.45,2,1.46,1.46,0,0,1,.42,1.66,1.93,1.93,0,0,1,.19.38c3,8.91,10.34,12.94,18.26,16.72a.87.87,0,0,1,.9-.16,10.5,10.5,0,0,0,1.86.33,1.05,1.05,0,0,1,.73,1.29.93.93,0,0,1-.59.64A.94.94,0,0,1,22,56l0,0s0,.07,0,.12c-.32,1.15-1.25,1.79-1.85,2.76a1.09,1.09,0,0,1-.41.37,1.79,1.79,0,0,1-.55,1.16s0,.08,0,.13a1.05,1.05,0,0,1-2.1,0c0-.06,0-.1,0-.15a1.41,1.41,0,0,1-.52-1.16c0-.47,0-.94,0-1.41A1.37,1.37,0,0,1,14.58,57a5.62,5.62,0,0,1-.18-.89A1.37,1.37,0,0,1,13,54.81a5.89,5.89,0,0,0-.16-1,1.39,1.39,0,0,1-2.2-.7,1,1,0,0,0-.05-.16c-1.68-.49-3.32-1.9-4.93-.64-1.45,1.14-1.61,3.1-1.78,4.8a1.36,1.36,0,0,1-.46.92,1.53,1.53,0,0,1,.26,2A8,8,0,0,1,5.33,61a1.34,1.34,0,0,1,.25,1.59s.06.06.08.11c1.18,2.69,4,4.19,6.38,5.62a1.2,1.2,0,0,1,.36.3A1.26,1.26,0,0,1,13.46,70a1.45,1.45,0,0,0,.56-.23,1.41,1.41,0,0,1,1.91.5,1.56,1.56,0,0,1,.13.38,12.81,12.81,0,0,1,3.9.95,1.39,1.39,0,0,1,2.47.56,24.69,24.69,0,0,0,2.83.94c.78.2,2.42.72,3.11.05a1.41,1.41,0,0,1,2.27.49,1.58,1.58,0,0,1,.52.17,2.93,2.93,0,0,0,1.08.39,1.48,1.48,0,0,1,.2,0h.06a1.38,1.38,0,0,1,1.6-.77l.08,0a1.29,1.29,0,0,1,.91.22A3.92,3.92,0,0,0,39,73.48a1.24,1.24,0,0,1,1.66.24,1.71,1.71,0,0,1,.3.09,2.13,2.13,0,0,0,1.43,0,1.39,1.39,0,0,1,.35,0,1.51,1.51,0,0,1,1.43-.41,8.56,8.56,0,0,0,5.35-1c1-.47,2.9-1.29,3.17-2.49a1.4,1.4,0,0,1,.83-1,1.27,1.27,0,0,1,.24-.33l.21-.18s0-.09,0-.22a1.2,1.2,0,0,1,.08-.56,1.46,1.46,0,0,1,.24-1c1.79-2.76,0-6.83-1.93-9.09a1.54,1.54,0,0,1-.26-.44,1.2,1.2,0,0,1-.84-.67,1.62,1.62,0,0,1,1.14-2.72,1.67,1.67,0,0,1,.69.15c3.65-.62,7.69-4,10.49-6.22,3.31-2.6,6.09-5.71,6.12-10.13a1.6,1.6,0,0,1,.18-.75,1.28,1.28,0,0,1-.07-.34,1.6,1.6,0,0,1,1.59-1.6,2.63,2.63,0,0,0,1.1-.2A1.73,1.73,0,0,1,72.4,32.36Z" style="fill: #f5f3f0;"></path><path class="cls-2" d="M72.4,32.36a1.68,1.68,0,0,1,.16-2.63,5.11,5.11,0,0,1-3.29-1c-2.58-1.94-2.83-5.51-4.46-8.1a1.78,1.78,0,0,1-.18-.44,1.36,1.36,0,0,1,.06-1.71c1.32-1.54,1.22-4.17.45-5.94a1.27,1.27,0,0,1-.07-.83,1.25,1.25,0,0,1-.15-1.48,1.43,1.43,0,0,1,1.27-.66l-.3-.25A1.23,1.23,0,0,1,66,7.45l-.2-.21-.54-.55a1.26,1.26,0,0,1,.14-1.92C61.11,2.65,57,3.18,52.9,3.93a1.32,1.32,0,0,1-.69.59c-2.63,1-5.19,2.28-7.9.74a1.73,1.73,0,0,1-.25-.21l0,0a1.34,1.34,0,0,1-1.63-.93,1.2,1.2,0,0,1,0-.53,1.38,1.38,0,0,1-.91-1.56c-.05.07-.08.15-.14.23a1.35,1.35,0,0,1-1.8.47A1.38,1.38,0,0,1,39,2.07c-.16.23-.29.47-.47.69a1.32,1.32,0,0,1-1.87,0,1.16,1.16,0,0,1-.31-.56,5.67,5.67,0,0,1-1.8,2,1.23,1.23,0,0,1-1.82-.6c-1.87-.12-4.59-.39-6.16.6a1.22,1.22,0,0,1-1.84-.66,6.1,6.1,0,0,0-.63.73,1.36,1.36,0,0,1-1.81.48,1.34,1.34,0,0,1-.33-.3c-4.25-.74-9.68-2.24-13.25.74h0A1.64,1.64,0,0,1,8.1,7.36l-.49.34a1.59,1.59,0,0,1,.3.9,1.48,1.48,0,0,1-.39,1,1.59,1.59,0,0,1,.14,2.32s-.06.09-.1.13a1.62,1.62,0,0,1,.07.8,17.22,17.22,0,0,0,.11,7.56A1.42,1.42,0,0,1,7,22.16c-1.45,2.5-2.6,5.3-5.12,6.91a10.33,10.33,0,0,1-1.44.75A1.6,1.6,0,0,1,1,31.73a9,9,0,0,0,1.5,2.49c2.3,2.65,6.12,3.44,9.63,3.31a25.45,25.45,0,0,0,23.34-20,7.55,7.55,0,0,1,.84-2.74,2.16,2.16,0,0,1,2.47-1c.94.4,1.23,1.56,1.45,2.56A28.62,28.62,0,0,0,65.83,38a12.2,12.2,0,0,0,3.86-.34c0-.08,0-.16,0-.24a1.55,1.55,0,0,1,.16-.71,1.58,1.58,0,0,1-.05-.38,1.6,1.6,0,0,1,1.59-1.6,2.54,2.54,0,0,0,1.08-.2A1.76,1.76,0,0,1,72.4,32.36Z" style="fill: #f9ce97;"></path><path class="cls-2" d="M3.68,60A8,8,0,0,1,5.33,61a1.34,1.34,0,0,1,.25,1.59s.06.06.08.11A7.07,7.07,0,0,0,6.43,64h.06c2.36.29,4.63-1.23,6.08-3.12a8.74,8.74,0,0,0,1.86-4.51c0-.08,0-.17,0-.26A1.37,1.37,0,0,1,13,54.81a5.89,5.89,0,0,0-.16-1,1.39,1.39,0,0,1-2.2-.7,1,1,0,0,0-.05-.16c-1.3-.38-2.57-1.28-3.82-1.11a9.73,9.73,0,0,0-2.39,2.4,12.89,12.89,0,0,0-.5,2.87,1.36,1.36,0,0,1-.46.92A1.53,1.53,0,0,1,3.68,60Z" style="fill: #f9ce97;"></path><path class="cls-2" d="M48.1,73c.5-.18,1-.38,1.45-.6,1-.47,2.9-1.29,3.17-2.49a1.4,1.4,0,0,1,.83-1,1.27,1.27,0,0,1,.24-.33l.21-.18s0-.09,0-.22a1.1,1.1,0,0,1,.08-.57,1.49,1.49,0,0,1,.24-1,5.34,5.34,0,0,0,.56-4.12,4.58,4.58,0,0,0-1.88,0,8.2,8.2,0,0,0-6.21,7.35,3.44,3.44,0,0,0,1,3A2.82,2.82,0,0,0,48.1,73Z" style="fill: #f9ce97;"></path><path class="cls-3" d="M17.66,8.18a1.74,1.74,0,0,1,.1.93c-.22,1.31-1.9,2.26-2.78,3.09-.43.41-3.2,2.77-3.15,3.15a9.49,9.49,0,0,1,1.51-6.56c.73-1.08,2-2.09,3.22-1.68A1.87,1.87,0,0,1,17.66,8.18Z" style="fill: #f7b056;"></path><path class="cls-3" d="M53.32,6.89c.49-.38,7.25,7.19,7.94,8.21a19.41,19.41,0,0,0-.77-4.62A6.64,6.64,0,0,0,57.74,6.8,4,4,0,0,0,53.32,6.89Z" style="fill: #f7b056;"></path><path class="cls-3" d="M5.66,52.3c-1.45,1.14-1.61,3.1-1.78,4.8a.73.73,0,0,1-.06.21,3.92,3.92,0,0,0,4.74-1,3.93,3.93,0,0,0,.31-4C7.78,51.8,6.71,51.47,5.66,52.3Z" style="fill: #f7b056;"></path><path class="cls-3" d="M50.51,71.92c1-.48,2-1.15,2.21-2a1.4,1.4,0,0,1,.83-1,1.27,1.27,0,0,1,.24-.33l.21-.18s0-.09,0-.22a1.08,1.08,0,0,1,.09-.59,1.41,1.41,0,0,1,.23-1,4,4,0,0,0,.45-.94,4,4,0,0,0-5.67,2.87A3.78,3.78,0,0,0,50.51,71.92Z" style="fill: #f7b056;"></path><path class="cls-4" d="M42.18,4.88a2.21,2.21,0,0,1-1.66.58.33.33,0,0,1-.08-.65,2.31,2.31,0,0,0,1.38-1c.14-.25.21-.58.54-.67a.43.43,0,0,1,.51.25C43.13,3.86,42.55,4.55,42.18,4.88Zm-.79-1.07c.68-.71,1.7-2.35,1.21-3.38a.68.68,0,0,0-1-.33c-.51.31-.48,1.18-.68,1.69-.55,1.37-1.7,2-2.85,2.79a.27.27,0,0,0,.06.49A3.56,3.56,0,0,0,41.39,3.81ZM39.54,1.68a.34.34,0,0,0-.37-.15c-.68.1-1,1-1.5,1.43a12,12,0,0,0-1.59,1.42.28.28,0,0,0,.17.42,3,3,0,0,0,2.26-1C39.07,3.3,39.91,2.49,39.54,1.68ZM36.08,3.52c.3-.45.78-1,.7-1.53a.32.32,0,0,0-.39-.3c-.57.17-.82.76-1.11,1.24a3.74,3.74,0,0,0-.67,1.61.22.22,0,0,0,.32.19A3.8,3.8,0,0,0,36.08,3.52ZM49.83,5.69c2.68-.69,5.1-2,8-2.16A12,12,0,0,1,62,4c1.23.37,2.21,1.11,3.38,1.55a.5.5,0,0,0,.56-.73c-1.54-2.16-5-2.71-7.52-2.67a18,18,0,0,0-9.74,2.93.5.5,0,0,0-.19.3,11.31,11.31,0,0,0-5.07-.16.25.25,0,0,0,0,.48c1.85.44,3.76.45,5.61.95s3.5,1.62,5.34,2a.41.41,0,0,0,.4-.69A10.48,10.48,0,0,0,49.83,5.69ZM73.05,29.55c-1.7-.48-3.24-.81-4.46-2.23a13.67,13.67,0,0,1-2.24-4.5A33.2,33.2,0,0,0,65,19.35c1.58-2.11,1.48-6.57-.06-8.55-.17-.23-.54,0-.54.23,0,1.4.44,2.75.38,4.18a16.59,16.59,0,0,1-.55,2.84,5.34,5.34,0,0,0-1.81-1.63.22.22,0,0,0-.3.3,35.26,35.26,0,0,1,2.57,5.62A21.15,21.15,0,0,0,66.61,27c1.25,2,4,4.51,6.51,3.08A.29.29,0,0,0,73.05,29.55Zm0,3.5A.6.6,0,0,0,73,32a13.24,13.24,0,0,1-1.78-.17c-.56-.16-1.09-.39-1.65-.56a.26.26,0,0,0-.32.33A3.17,3.17,0,0,0,73.1,33.05Zm-2.13,2a2,2,0,0,0,1.83-.25c.42-.34,0-1-.42-1a6.38,6.38,0,0,1-1.07,0,4.69,4.69,0,0,1-1-.37.37.37,0,0,0-.54.4A1.77,1.77,0,0,0,71,35.08ZM33,3.85c-2.15-1.22-6.55-.93-8.39.81a.41.41,0,0,0,.28.69c1.27-.12,2.45-.73,3.73-.91s2.85,0,4.27-.17A.23.23,0,0,0,33,3.85Zm-7.32-.42a.22.22,0,0,0-.21-.37,4.48,4.48,0,0,0-3,2.92.52.52,0,0,0,.14.53.51.51,0,0,0,.53.14.56.56,0,0,0,.37-.38A8.32,8.32,0,0,1,25.67,3.43ZM17.22,8.77c-.45.36-1.86,1.29-1.3,2s1.48-.42,1.86-.76A28,28,0,0,0,20.29,8a.38.38,0,0,0-.36-.63A6.24,6.24,0,0,0,17.22,8.77ZM.27,32.89c.79.58,2.07-.35,2.64-.87a2.55,2.55,0,0,0,1-2.36.24.24,0,0,0-.35-.15c-.78.6-1.27,1.46-2.17,1.92C1,31.63-.63,32.22.27,32.89ZM.53,34.3a.39.39,0,0,0-.05.46c.73,1.27,3.29-.22,2.87-1.52A.27.27,0,0,0,3,33.06c-.43.16-.78.51-1.21.69S.9,33.91.53,34.3ZM64.16,46a.53.53,0,0,0,.64.83c3-1.74,6.3-7,5.4-10.55a.28.28,0,0,0-.51-.07c-.78,1.65-1,3.49-1.81,5.15A21.13,21.13,0,0,1,64.16,46Zm-3.09,2.77c-.33.49.29.94.74.74a4.22,4.22,0,0,0,.9-.74,4.3,4.3,0,0,0,.75-.84c.26-.4-.24-.77-.6-.6a4.33,4.33,0,0,0-1,.65A3.7,3.7,0,0,0,61.07,48.77Zm-2.59,1.68a.6.6,0,0,0,.51.9,1.94,1.94,0,0,0,1-.42,1.35,1.35,0,0,0,.67-.76.4.4,0,0,0-.28-.49,1.39,1.39,0,0,0-1,.15A1.75,1.75,0,0,0,58.48,50.45ZM1.16,36.36c-.12,2,1.06,4.21,2.19,5.83,1,1.42,2.53,3.54,4.35,3.86a.42.42,0,0,0,.47-.62c-.88-1.58-2.72-2.63-3.77-4.18s-1.56-3.44-2.5-5.09A.4.4,0,0,0,1.16,36.36Zm7.5,10.81a2,2,0,0,0,.9,1.42c.46.35,1.13.83,1.71.49a.58.58,0,0,0,.26-.65c-.18-.53-.68-.61-1.11-.89a7.42,7.42,0,0,0-1.12-.73C9,46.7,8.62,46.81,8.66,47.17ZM66.24,8.11c.47-.73-.45-1.54-1-1.95a2.23,2.23,0,0,0-2.05-.62.3.3,0,0,0-.17.43c.37.64,1.14,1,1.64,1.54.27.3.45.66.85.79A.56.56,0,0,0,66.24,8.11Zm.14,1.12a9.67,9.67,0,0,0-1-.83,6.37,6.37,0,0,0-.55-.35,4.56,4.56,0,0,0-.52-.18c-.28-.12-.5.26-.37.49a3.43,3.43,0,0,0,.31.56l.33.4a9.61,9.61,0,0,0,.86.83C66.08,10.72,67,9.78,66.38,9.23Zm-43.84-5c-3.8-2.45-10.26-1.91-14,.32-.57.34-.19,1.33.46,1.1a21.26,21.26,0,0,1,6.56-1.57,29.27,29.27,0,0,1,6.27.9,1.74,1.74,0,0,0-1,.9,1.54,1.54,0,0,0-.12,1.44.54.54,0,0,0,1-.12c.11-.27.06-.57.16-.84a2.58,2.58,0,0,1,.43-.66.51.51,0,0,0,0-.64A.45.45,0,0,0,22.54,4.27ZM7.44,7.33c-.64.61.29,1.49,1,.95A6.26,6.26,0,0,1,9.72,7.4a3.16,3.16,0,0,0,1.22-.73.3.3,0,0,0-.06-.46C9.81,5.58,8.22,6.59,7.44,7.33ZM7.28,9.51a.59.59,0,0,0,.65.85,2.65,2.65,0,0,0,1-.61,2.74,2.74,0,0,0,.77-.82.41.41,0,0,0-.46-.59,3,3,0,0,0-1,.43A2.63,2.63,0,0,0,7.28,9.51Zm.45,10.94h0C6.86,21.69,6.08,23,5.28,24.19s-1.5,2.28-2.35,3.34A10,10,0,0,1,.18,29.66a.29.29,0,0,0,.07.53c2.09.71,3.61-1.71,4.62-3.17S7,23.89,8.06,22.32a15.51,15.51,0,0,0,2.27-4,.24.24,0,0,0-.39-.23,9.05,9.05,0,0,0-1.31,1.25,35.63,35.63,0,0,1-.37-3.88,24.13,24.13,0,0,0,.19-4.15c0-.28-.41-.25-.54-.07C6.35,13.42,6.62,18.12,7.73,20.45Zm47.75,45.3c.56-1.76-.43-4.19-1.11-5.82a16.17,16.17,0,0,0-3.26-5.13l.91-.23c1.8-.49,4.18-1.17,5.3-2.75a.23.23,0,0,0-.2-.35c-1.85.11-3.68,1.24-5.48,1.72-2.06.56-4.26.41-6.28,1a.51.51,0,0,0,0,1,9.83,9.83,0,0,0,4.6-.07,27.51,27.51,0,0,1,3.15,5.4c.68,1.71.7,3.84,1.59,5.4A.43.43,0,0,0,55.48,65.75ZM52.71,69c0,.38-.13.74-.1,1.11s.55.73.87.36A1.86,1.86,0,0,0,53.8,69a2,2,0,0,1,0-.26c.3.31.94.3,1-.22a3.69,3.69,0,0,0-1-3.37.32.32,0,0,0-.54.31c.06.48.21.94.3,1.41a7.78,7.78,0,0,1,.1,1.36c-.12-.21-.29-.27-.48-.4a.27.27,0,0,0-.4.23,2.45,2.45,0,0,0-.08.39C52.64,68.64,52.71,68.83,52.71,69Zm-33.2-3.47a5.49,5.49,0,0,0,.41-1.42.26.26,0,0,0-.33-.25c-1.33.35-1.71,2.38-1.55,3.53.11.77,1.29.54,1.3-.18A6.35,6.35,0,0,1,19.51,65.54Zm1.43,3.82a4.8,4.8,0,0,1-.3-1.11,2.14,2.14,0,0,0-.27-1,.41.41,0,0,0-.63-.08c-.68.56-.36,1.87-.12,2.58S21.26,70.16,20.94,69.36Zm.41,1.46c1.16,2.9,4.81,3.89,7.61,3a.82.82,0,0,0,.28-.15,4,4,0,0,0,3.45.71,2.32,2.32,0,0,0,.74-.36l.19.08c1.64.53,4.3.8,5.69-.51a3.18,3.18,0,0,0,1.82.7,4,4,0,0,0,2.37-.55c2.83,1.37,7.17-.28,8.68-2.89.25-.44-.3-.78-.65-.5a10.41,10.41,0,0,1-3.85,2.22,8.33,8.33,0,0,1-2.93.13,4.87,4.87,0,0,0,1.16-2.91.34.34,0,0,0-.62-.17C44.38,71,43.68,72.75,41.84,73c-2.8.38-2.54-2.77-2.36-4.57.08-.73-1.11-.87-1.27-.17a6.55,6.55,0,0,0,.49,4.64c-.62.06-1.23.22-1.86.26a7.55,7.55,0,0,1-2.5-.29,3.84,3.84,0,0,0-.7-4.15.35.35,0,0,0-.59.25c-.15,1.37,1.17,3.66-1,4.09-1.56.3-2.86-1.17-3.39-2.44-.34-.84-1.68-.53-1.4.39a5.23,5.23,0,0,0,.81,1.55c-2.31.49-4.26-.61-5.95-2.21C21.82,70.07,21.16,70.36,21.35,70.82ZM16,57c-.69.75-.25,2.06,0,2.93a8.1,8.1,0,0,0,1.49,2.68,5.63,5.63,0,0,0-.24,1.79.43.43,0,0,0,.8.22c1-1.63,1.32-3.59,2.3-5.25a33.76,33.76,0,0,1,3.88-4.86.25.25,0,0,0,.07-.12q1.35.13,2.7.18a.73.73,0,0,0,0-1.46,31.88,31.88,0,0,1-7.52-1.13c-2.26-.63-4.39-2-6.67-2.42a.43.43,0,0,0-.41.71c1.58,1.7,4.51,2.51,6.69,3.13a28.44,28.44,0,0,0,4.1.86,15.35,15.35,0,0,0-3.7,4.25A21.27,21.27,0,0,0,18,61.25a11.7,11.7,0,0,1-.7-1.9c-.2-.77-.12-1.84-.75-2.39A.41.41,0,0,0,16,57Zm-.47,1.9a3.23,3.23,0,0,0-.1-1.35,8.54,8.54,0,0,1-.2-1.59.68.68,0,0,0-1.35,0c0,1,.17,2.56,1.15,3.14A.35.35,0,0,0,15.52,58.86Zm-3.3-5.62a.64.64,0,0,0-.25.15.55.55,0,0,0-.15.56c.15.46.43.85.55,1.33a2.46,2.46,0,0,0,.42,1.16.32.32,0,0,0,.44,0c.78-.64.16-2.48-.44-3A.56.56,0,0,0,12.22,53.24ZM4.51,56.71a3.3,3.3,0,0,1,2.24-4c1.56-.38,2.83.46,3.94,1.44a.3.3,0,0,0,.49-.29c-.49-2.14-3.21-3-5.12-2.35A4.52,4.52,0,0,0,3.44,57,.56.56,0,0,0,4.51,56.71Zm-1.89,1A2,2,0,0,0,5,59.13a.4.4,0,0,0,.18-.66,8.35,8.35,0,0,0-.93-.62c-.32-.21-.55-.55-.93-.66A.54.54,0,0,0,2.62,57.71Zm.62,2.13c-.61,1,1.77,1.83,2.25.92.32-.58-.53-.81-.89-1A2.63,2.63,0,0,0,4,59.53.73.73,0,0,0,3.24,59.84Zm2.17,2.74c0,1.28,1,2.41,1.86,3.3s2.11,2.18,3.31,2.36a.59.59,0,0,0,.57-1,7.16,7.16,0,0,0-1.39-1,12.71,12.71,0,0,1-1.5-1.34A18,18,0,0,0,6,62.28.36.36,0,0,0,5.41,62.58Zm5.73,5.78a.62.62,0,0,0,.13,1,1.65,1.65,0,0,0,2.06-1.08c.08-.32-.23-.72-.58-.58s-.46.23-.71.32A2.43,2.43,0,0,0,11.14,68.36Zm1.74,1.26a.71.71,0,0,0,0,.95c.51.53,1.44.1,1.87-.34s.75-1.23.17-1.67c-.42-.31-.86.37-1.05.56a.89.89,0,0,1-.32.21s-.23,0-.11,0A.84.84,0,0,0,12.88,69.62Zm2.81.7c.56,1.31,2.57,1.75,3.85,1.81.95.05.95-1.45,0-1.49a5.61,5.61,0,0,1-1.76-.34,11.27,11.27,0,0,0-1.56-.67A.48.48,0,0,0,15.69,70.32Zm29.65-8.69c-.24.41-.71,1.23,0,1.47s1.26-1,1.48-1.45a3,3,0,0,0,.24-2.21.32.32,0,0,0-.58-.07A23.81,23.81,0,0,0,45.34,61.63Zm-2,1a16.28,16.28,0,0,0-1.18,1.17.52.52,0,0,0,.58.75,3.22,3.22,0,0,0,1.43-1.28,2.71,2.71,0,0,0,.66-1.74.28.28,0,0,0-.48-.2A16.11,16.11,0,0,0,43.34,62.65Zm-5.28,2.9c-.49.2-2,.56-1.17,1.37a.61.61,0,0,0,.62.16c1.31-.4,3.43-1.28,3.82-2.75A.3.3,0,0,0,41,64a5.14,5.14,0,0,0-1.38.79A8.47,8.47,0,0,1,38.06,65.55Zm-3.5-.62a2.4,2.4,0,0,0-1.51.64.62.62,0,0,0,.6,1,1.84,1.84,0,0,0,.57-.34.63.63,0,0,0,.9.51,8.91,8.91,0,0,0,1-.57,1.93,1.93,0,0,0,.77-.73A.34.34,0,0,0,36.6,65a1.91,1.91,0,0,0-1,.25c-.26.11-.52.22-.77.35l.07-.12C35,65.25,34.83,64.9,34.56,64.93Zm-6.22-2.67c-.38.86.66,1.66,1.26,2.14a3,3,0,0,0,2.48.89.3.3,0,0,0,.13-.5c-.52-.61-1.32-.86-1.91-1.38s-.9-1.34-1.62-1.34A.38.38,0,0,0,28.34,62.26Zm-.75.38c-.16-.67-.7-1.2-.92-1.88a12.81,12.81,0,0,1-.2-2.14.58.58,0,0,0-1-.14c-.66,1.29.15,4.3,1.75,4.58A.34.34,0,0,0,27.59,62.64Z" style="fill: #3e342f;"></path><path class="cls-5" d="M42.36,40a10.58,10.58,0,0,1-1-11.66,10.52,10.52,0,0,1,19.68,4.26A10.52,10.52,0,0,1,42.36,40Z" style="fill: #fff;"></path><path class="cls-5" d="M21.32,22.92a9.3,9.3,0,0,1,9.87,4.74,11.39,11.39,0,0,1-.62,11.22,9,9,0,0,1-5.7,4.25,9.49,9.49,0,0,1-3.19,0,12.68,12.68,0,0,1-7.34-3.61,9.16,9.16,0,0,1-2.51-7.63c.59-3.56,3.55-6.3,6.77-7.92A11.66,11.66,0,0,1,21.32,22.92Z" style="fill: #fff;"></path><path class="cls-4" d="M43.56,42.58a11.53,11.53,0,0,0,17.83-5.5,10.88,10.88,0,0,0-.44-8A10.31,10.31,0,0,0,53.6,22.6a11.67,11.67,0,0,0-9.87,1.81A11.53,11.53,0,0,0,43.56,42.58Zm.71-16.27c5.32-4.69,11.6-2,15,3a9.41,9.41,0,0,1,.65,6.41,9.6,9.6,0,1,1-15.65-9.37Z" style="fill: #3e342f;"></path><path class="cls-4" d="M18.66,43.59a11.16,11.16,0,0,0,14.75-9.5,10.71,10.71,0,0,0-2-7.39c-3.64-6.49-13.27-6.1-17.72-.7A11.26,11.26,0,0,0,18.66,43.59ZM14.59,27.68c4-5.61,10.29-4.66,14.84-1a8.65,8.65,0,0,1,2.46,6.51,9.47,9.47,0,1,1-17.3-5.53Z" style="fill: #3e342f;"></path><path class="cls-4" d="M17.82,36.46a4.93,4.93,0,1,0,4-7.09.52.52,0,0,0-.45.27A4.91,4.91,0,0,0,17.82,36.46Z" style="fill: #3e342f;"></path><path class="cls-4" d="M46.51,29.81a5.35,5.35,0,0,1,6-1.06l.07,0h0a5.07,5.07,0,0,1,1.08.56A5.32,5.32,0,0,1,55.93,34a5.51,5.51,0,0,1-7.58,4.74A5.63,5.63,0,0,1,46.51,29.81Z" style="fill: #3e342f;"></path><path class="cls-4" d="M47.69,14.94a.51.51,0,0,1,.64-.48c1.72.56,2.81,2.51,4.35,3.47,2.39,1.5,4.88,1.66,7.62,1.84.19,0,.31.3.1.4a9.67,9.67,0,0,1-8-.12C50.52,19.23,47.47,17.3,47.69,14.94Z" style="fill: #3e342f;"></path><path class="cls-4" d="M21.65,14.61c3.17-.25,6.7,2.09,7,5.39,0,.27-.33.3-.46.12-1.6-2.23-3.7-4.22-6.72-3.62-2.53.52-3.61,2.46-5,4.39a.46.46,0,0,1-.85-.23C15.19,17.4,18.72,14.85,21.65,14.61Z" style="fill: #3e342f;"></path><path class="cls-5" d="M48.26,29.81a1.68,1.68,0,1,1-1.68,1.68A1.7,1.7,0,0,1,48.26,29.81Z" style="fill: #fff;"></path><path class="cls-5" d="M50.74,33.14a.71.71,0,0,1,0,1.42A.71.71,0,0,1,50.74,33.14Z" style="fill: #fff;"></path><path class="cls-5" d="M20.47,30.41a1.76,1.76,0,0,1,0,3.51A1.76,1.76,0,0,1,20.47,30.41Z" style="fill: #fff;"></path><path class="cls-5" d="M22.72,33.59a.72.72,0,0,1,0,1.43A.72.72,0,0,1,22.72,33.59Z" style="fill: #fff;"></path><path class="cls-4" d="M41.1,42.73c-.37-.92-1.8-.59-1.53.42.39,1.45-1.37,1.79-2.37,1.28-.74-.38-1.18-1.1-1.85-1.53A.78.78,0,0,0,33.9,43c-.39,1.63-1.95,1.87-3.26,1.15a.6.6,0,0,0-.73.94,3.17,3.17,0,0,0,4.93-.53,4.7,4.7,0,0,0,3.77,1.76A2.76,2.76,0,0,0,41.1,42.73Z" style="fill: #3e342f;"></path></g></g></svg>