<?xml version="1.0" encoding="UTF-8"?><svg xmlns="http://www.w3.org/2000/svg" xmlns:xlink="http://www.w3.org/1999/xlink" viewBox="0 0 43.14 75.13"><defs><style>.x{fill:url(#t);}.y{fill:#fff;}.a`{fill:#491c44;}.aa{fill:url(#r);}.ab{fill:url(#l);}.ac{fill:url(#u);}.ad{fill:#dbdddd;}.ae{fill:url(#v);}.af{fill:url(#m);}.ag{fill:url(#f);}.ah{fill:url(#p);}.ai{fill:url(#g);}.aj{fill:#e16962;}.ak{fill:url(#i);}.al{fill:url(#h);}.am{fill:url(#d);}.an{fill:url(#e);}.ao{fill:#f1b2cc;}.ap{fill:url(#s);}.aq{fill:url(#n);}.ar{fill:#d5b29a;}.as{fill:url(#w);}.at{fill:url(#j);}.au{fill:url(#o);}.av{fill:url(#q);}.aw{fill:#814e54;}.ax{fill:url(#k);}</style><linearGradient id="d" x1="9.56" y1="11.27" x2="9.56" y2="53.94" gradientTransform="matrix(1, 0, 0, 1, 0, 0)" gradientUnits="userSpaceOnUse"><stop offset="0" stop-color="#e16962"/><stop offset=".16" stop-color="#dc6160"/><stop offset=".41" stop-color="#cf4b5b"/><stop offset=".71" stop-color="#b92853"/><stop offset="1" stop-color="#a1004a"/></linearGradient><linearGradient id="e" x1="38.21" y1="32.68" x2="38.31" y2="32.68" xlink:href="#d"/><linearGradient id="f" x1="22.42" y1="27.22" x2="42.89" y2="27.22" xlink:href="#d"/><linearGradient id="g" x1="15.17" y1="62.25" x2="15.17" y2="74.71" gradientTransform="matrix(1, 0, 0, 1, 0, 0)" gradientUnits="userSpaceOnUse"><stop offset="0" stop-color="#814e54"/><stop offset="1" stop-color="#4b253b"/></linearGradient><linearGradient id="h" x1="27.87" y1="62.58" x2="27.87" y2="75.04" xlink:href="#g"/><linearGradient id="i" x1="28.12" y1="10.46" x2="28.12" y2="66.72" gradientTransform="matrix(1, 0, 0, 1, 0, 0)" gradientUnits="userSpaceOnUse"><stop offset=".06" stop-color="#d5b29a"/><stop offset=".07" stop-color="#d3b099"/><stop offset=".33" stop-color="#b39292"/><stop offset=".57" stop-color="#9c7c8d"/><stop offset=".8" stop-color="#8e6f8a"/><stop offset="1" stop-color="#8a6b89"/></linearGradient><linearGradient id="j" x1="15.79" y1="49.21" x2="27.35" y2="49.21" xlink:href="#g"/><linearGradient id="k" x1="19.81" y1="51.48" x2="25.87" y2="51.48" gradientTransform="matrix(1, 0, 0, 1, 0, 0)" gradientUnits="userSpaceOnUse"><stop offset="0" stop-color="#f1b2cc"/><stop offset=".22" stop-color="#efafc9"/><stop offset=".38" stop-color="#eaa5c0"/><stop offset=".52" stop-color="#e295b1"/><stop offset=".65" stop-color="#d67f9c"/><stop offset=".78" stop-color="#c76280"/><stop offset=".89" stop-color="#b43f5f"/><stop offset="1" stop-color="#9f1739"/></linearGradient><linearGradient id="l" x1="19.64" y1="15.3" x2="32.91" y2="15.3" xlink:href="#d"/><linearGradient id="m" x1="16.23" y1="11.32" x2="16.23" y2="17.82" gradientTransform="matrix(1, 0, 0, 1, 0, 0)" gradientUnits="userSpaceOnUse"><stop offset="0" stop-color="#fff"/><stop offset=".09" stop-color="#fbeded"/><stop offset=".4" stop-color="#f0b5b1"/><stop offset=".67" stop-color="#e78b86"/><stop offset=".88" stop-color="#e2726b"/><stop offset="1" stop-color="#e16962"/></linearGradient><linearGradient id="n" x1="14.67" y1="7.38" x2="20.8" y2="7.38" xlink:href="#m"/><linearGradient id="o" x1="5.73" y1="17.82" x2="5.73" y2="33.19" xlink:href="#m"/><linearGradient id="p" x1="4.17" y1="28.32" x2="4.17" y2="37.19" xlink:href="#m"/><linearGradient id="q" x1="36.54" y1="23.31" x2="36.54" y2="41.57" xlink:href="#m"/><linearGradient id="r" x1="12.32" y1="18.94" x2="12.32" y2="44.07" gradientTransform="matrix(1, 0, 0, 1, 0, 0)" gradientUnits="userSpaceOnUse"><stop offset=".06" stop-color="#fff"/><stop offset="1" stop-color="#d5b29a"/></linearGradient><linearGradient id="s" x1="16.4" y1="65.07" x2="16.4" y2="61.94" xlink:href="#r"/><linearGradient id="t" x1="18.57" y1="66.22" x2="18.57" y2="63.09" gradientTransform="translate(-39.09 32.22) rotate(-44.81)" xlink:href="#r"/><linearGradient id="u" x1="22.25" y1="68.23" x2="22.25" y2="65.1" gradientTransform="translate(-46.52 13.29) rotate(-44.81) scale(.55 1.28) skewX(-.02)" xlink:href="#r"/><linearGradient id="v" x1="14.3" y1="44.21" x2="29.3" y2="44.21" xlink:href="#r"/><linearGradient id="w" x1="9.05" y1="53.19" x2="18.3" y2="53.19" gradientTransform="matrix(1, 0, 0, 1, 0, 0)" gradientUnits="userSpaceOnUse"><stop offset=".06" stop-color="#fff"/><stop offset=".13" stop-color="#f8f2ef"/><stop offset=".28" stop-color="#ebdbd0"/><stop offset=".44" stop-color="#e1c9b8"/><stop offset=".6" stop-color="#dabca7"/><stop offset=".78" stop-color="#d6b49d"/><stop offset="1" stop-color="#d5b29a"/></linearGradient></defs><g id="a"/><g id="b"><g id="c"><g><path class="aj" d="M14.25,11.17c.31-.23-1.93-5.91,1.28-9.5,0,0,.64,2.05,2.18,2.95l1.54-3.72,1.8,3.21,1.67-3.47,1.03,3.47s2.95-1.54,2.44-3.85c0,0,3.08,4.37,1.67,9.76,0,0,14,9.25,15.03,29.41,0,0-1.41-2.06-1.41-1.03,0,.26,1.16,6.17-.51,11.05l-1.54-3.72s-.39,5.65-2.95,8.48c0,0-.51-3.21-2.44-5.52H10.4s-3.21-.64-2.18,5.27c0,0-3.34-4.37-3.21-10.53,0,0-1.67,1.03-1.8,4.5,0,0-1.8-3.85-1.28-7.45l-1.67,1.8S.25,21.44,14.25,11.17Z"/><path class="am" d="M18.88,25.94l-1.33-14.67s-11.5,5-12.33,26.83l-1.17-1.67-1,5-.83-5.83-1.94,5.82c-.02,.52-.02,.82-.02,.82l1.67-1.8c-.51,3.6,1.28,7.45,1.28,7.45,.13-3.47,1.8-4.5,1.8-4.5-.13,6.17,3.21,10.53,3.21,10.53-1.03-5.91,2.18-5.27,2.18-5.27h4.4c.59-4.16,4.08-22.73,4.08-22.73Z"/><g><path class="an" d="M38.31,32.75c-.06-.1-.1-.15-.1-.15l.1,.15Z"/><path class="ag" d="M37.88,44.94l-2.67-1.67s-3.16,4.02-3.34,5.4h2.16c1.93,2.31,2.44,5.52,2.44,5.52,2.57-2.83,2.95-8.48,2.95-8.48l1.54,3.72c1.67-4.88,.51-10.79,.51-11.05,0-1.04,1.41,1.03,1.41,1.03-1.03-20.17-15.03-29.41-15.03-29.41C29.28,4.62,26.2,.25,26.2,.25c.51,2.31-2.44,3.85-2.44,3.85l-1.03-3.47-.3,.63,.12,5.51s2.67-.17,3.33-2.33l-.67,4.17s10.33,6.17,14.33,26l-1.24-1.85c.32,.57,1.27,3.13-.43,12.19Z"/></g><path class="a`" d="M36.47,54.45s-.05,0-.07-.01c-.09-.03-.16-.1-.18-.2,0-.03-.51-3.09-2.31-5.31H10.4c-.06,0-.14-.02-.26-.02-.28,0-.82,.07-1.24,.57-.65,.77-.8,2.3-.43,4.42,.02,.11-.04,.23-.15,.27-.11,.04-.23,.01-.3-.08-.03-.04-3.19-4.24-3.26-10.12-.47,.53-1.21,1.71-1.3,3.94,0,.12-.09,.21-.2,.24-.12,.02-.23-.04-.28-.14-.07-.15-1.59-3.45-1.38-6.84l-1.16,1.25c-.07,.07-.18,.1-.27,.06-.1-.04-.16-.13-.16-.23,0-.21,.16-20.98,14.03-31.23,0-.14-.06-.45-.12-.75-.33-1.77-1.11-5.92,1.44-8.77,.06-.07,.15-.1,.24-.08,.09,.02,.16,.08,.19,.17,0,.02,.56,1.75,1.83,2.66l1.43-3.45c.04-.09,.12-.15,.22-.15,.1,0,.19,.04,.23,.13l1.56,2.79,1.46-3.04c.04-.09,.14-.16,.25-.14,.1,0,.19,.08,.22,.18l.94,3.16c.68-.43,2.43-1.72,2.05-3.42-.03-.12,.03-.24,.14-.28,.11-.05,.24-.01,.31,.08,.03,.04,3.07,4.43,1.75,9.8,1.51,1.07,14.03,10.56,14.99,29.51,0,.11-.06,.21-.17,.25-.1,.04-.22,0-.29-.1-.34-.49-.73-.96-.95-1.14,0,.04,.02,.12,.03,.22,.78,5.36,.12,8.87-.56,10.88-.03,.1-.12,.17-.23,.17-.1,0-.2-.06-.24-.15l-1.17-2.82c-.23,1.77-.94,5.48-2.91,7.64-.05,.05-.12,.08-.19,.08Zm-2.44-6.02c.07,0,.14,.03,.19,.09,1.5,1.8,2.16,4.11,2.39,5.12,2.19-2.83,2.56-7.88,2.56-7.93,0-.12,.09-.21,.21-.23,.12-.02,.23,.04,.27,.15l1.28,3.09c.58-2.03,1.02-5.27,.34-9.99-.03-.18-.04-.29-.04-.32,0-.5,.3-.54,.4-.54,.27,0,.63,.33,.97,.75-1.35-19.24-14.73-28.29-14.87-28.38-.09-.06-.13-.17-.1-.27,1.01-3.87-.36-7.24-1.15-8.73-.29,1.88-2.49,3.05-2.6,3.11-.07,.03-.14,.04-.21,0-.07-.03-.12-.09-.14-.16l-.84-2.85-1.39,2.88c-.04,.08-.12,.14-.22,.14-.09,0-.18-.05-.23-.13l-1.55-2.76-1.34,3.25c-.03,.07-.08,.12-.15,.14-.07,.02-.14,.01-.21-.02-1.19-.69-1.86-2.01-2.14-2.68-2.06,2.65-1.38,6.26-1.05,8.03,.15,.8,.2,1.05,0,1.19C2.05,20.43,.67,37.98,.52,41.59l1.22-1.31c.08-.08,.19-.1,.29-.06,.1,.05,.16,.15,.14,.26-.35,2.42,.39,4.99,.88,6.35,.39-2.72,1.76-3.6,1.82-3.64,.08-.05,.18-.05,.25,0,.08,.05,.13,.13,.13,.22-.09,4.39,1.62,7.88,2.56,9.46-.17-1.72,.06-2.97,.7-3.72,.55-.65,1.25-.75,1.62-.75,.19,0,.31,.03,.31,.03h23.58Z"/><path class="aw" d="M16.95,63.57l-.64,7.96s-3.85-1.41-4.62,.26c0,0-.77,3.21,4.24,3.08,0,0,3.08-.26,2.95-3.47l-.13-8.99-1.8,1.16Z"/><path class="ai" d="M18.58,62.25l-.97,.63,.1,7.2c.13,3.21-2.95,3.47-2.95,3.47-1.51,.04-2.49-.23-3.13-.62,.33,.88,1.32,1.86,4.13,1.79,0,0,3.08-.26,2.95-3.47l-.13-8.99Z"/><path class="a`" d="M15.63,75.13c-1.78,0-3.03-.44-3.71-1.29-.75-.95-.5-2.05-.49-2.1,.31-.68,.99-1.01,2.02-1.01s2.1,.3,2.62,.47l.62-7.65c0-.08,.05-.15,.11-.19l1.8-1.16c.08-.05,.17-.05,.25-.01,.08,.04,.13,.13,.13,.22l.13,8.99c.14,3.4-3.15,3.72-3.18,3.72-.12,0-.21,0-.31,0Zm-3.72-3.23s-.18,.89,.41,1.63c.61,.77,1.8,1.14,3.59,1.09,.1,0,2.83-.28,2.71-3.21l-.12-8.55-1.32,.85-.63,7.84c0,.08-.05,.15-.11,.19-.06,.04-.15,.05-.22,.02-.02,0-1.5-.54-2.76-.54-.82,0-1.35,.23-1.55,.67h0Z"/><path class="aw" d="M26.28,63.57l.64,7.96s3.85-1.41,4.62,.26c0,0,.77,3.21-4.24,3.08,0,0-3.08-.26-2.95-3.47l.13-8.99,1.8,1.16Z"/><path class="al" d="M28.48,73.87s-3.08-.26-2.95-3.47l.1-7.09-1.14-.73-.13,8.99c-.13,3.21,2.95,3.47,2.95,3.47,2.69,.07,3.71-.82,4.08-1.67-.64,.32-1.56,.54-2.91,.5Z"/><path class="a`" d="M27.6,75.13c-.1,0-.19,0-.3,0-.05,0-3.33-.32-3.2-3.73l.13-8.98c0-.09,.05-.17,.13-.22,.08-.04,.18-.04,.25,.01l1.8,1.16c.07,.04,.11,.11,.11,.19l.62,7.65c.52-.17,1.62-.47,2.62-.47s1.71,.32,2.01,.96c.03,.09,.28,1.2-.47,2.15-.68,.86-1.92,1.29-3.71,1.29Zm-2.87-12.26l-.12,8.54c-.12,2.94,2.61,3.2,2.73,3.21,.08,0,.18,0,.27,0,1.62,0,2.73-.37,3.31-1.1,.6-.76,.4-1.67,.4-1.68-.19-.4-.71-.62-1.54-.62-1.26,0-2.74,.54-2.76,.54-.07,.03-.16,.02-.22-.02-.07-.04-.11-.11-.11-.19l-.63-7.84-1.32-.85Z"/><path class="ar" d="M21.31,10.14s-11.56-.13-14.26,22.86c0,0-2.57,18.88,10.66,28.13,0,0-4.88,2.06-3.85,4.5,0,0,1.67,1.28,4.11-1.41,0,0-.51,3.72,1.54,3.72,0,0,1.54,.26,1.8-3.6,0,0,1.03,3.98,2.44,3.6,0,0,1.28-.64,.51-3.85,0,0,2.7,3.72,4.5,2.31,0,0,2.18-1.16-1.54-5.78,0,0,13.23-10.66,7.84-34.17,0,0-3.21-16.44-13.74-16.31Z"/><path class="ak" d="M35.06,26.45s-2.63-13.47-10.94-15.93c-.76-.09-1.39-.09-1.74,.09-1.33,.67-2.5,5.83-2.5,5.83,0,0,11.17,1.67,13,13.67,0,0,3.33,16.33-7.83,29.17,0,0,3.29,6.18,1.38,6.93,.77,.5,1.62,.75,2.33,.19,0,0,2.18-1.16-1.54-5.78,0,0,13.23-10.66,7.84-34.17Z"/><path class="a`" d="M23.56,68.21c-.98,0-1.72-1.54-2.13-2.67-.42,2.44-1.5,2.65-1.85,2.65h-.11c-.44,0-.83-.18-1.13-.53-.62-.71-.68-1.99-.66-2.78-1.13,1.06-2.09,1.3-2.72,1.3-.77,0-1.22-.34-1.24-.36l-.05-.04-.03-.06c-.94-2.23,2.4-4.07,3.59-4.64-12.8-9.32-10.44-27.93-10.41-28.12,2.68-22.82,14.02-23.08,14.5-23.08h.13c10.52,0,13.83,16.35,13.87,16.51,5.01,21.83-6.13,32.8-7.74,34.24,1.6,2.03,2.28,3.67,2.03,4.87-.16,.8-.7,1.09-.72,1.1-.28,.22-.64,.35-1.03,.35h0c-1.18,0-2.43-1.16-3.15-1.97,.34,2.54-.78,3.13-.83,3.16-.13,.04-.22,.05-.31,.05Zm-2.39-5.44l.39,1.5c.36,1.4,1.26,3.65,2.13,3.42h0s1.03-.65,.34-3.55l-.29-1.23,.74,1.02s1.85,2.53,3.38,2.53c.28,0,.53-.09,.76-.27,.05-.03,.4-.23,.51-.81,.14-.75-.1-2.15-2.09-4.62l-.16-.2,.19-.16c.13-.11,13.04-10.85,7.75-33.92-.03-.17-3.27-16.12-13.38-16.12h-.12c-.47,0-11.39,.26-14.01,22.64-.03,.19-2.39,18.84,10.56,27.89l.37,.26-.42,.18s-4.54,1.95-3.75,4.1c.12,.07,.43,.22,.88,.22,.62,0,1.61-.28,2.84-1.64l.54-.6-.11,.8s-.29,2.2,.48,3.09c.21,.24,.47,.35,.81,.35,.2,.03,1.33-.09,1.55-3.36l.1-1.55Z"/><path class="y" d="M30.49,32.61c-.55,4.93-5,8.49-9.94,7.93-4.93-.55-8.49-5-7.93-9.94,.55-4.93,5-8.49,9.94-7.93,4.93,.55,8.49,5,7.93,9.94Z"/><path class="ad" d="M24.86,23.32c2.41,1.86,3.83,4.88,3.46,8.13-.55,4.93-5,8.49-9.94,7.93-.87-.1-1.7-.32-2.47-.65,1.26,.97,2.78,1.62,4.47,1.81,4.93,.55,9.38-3,9.94-7.93,.46-4.06-1.87-7.79-5.46-9.29Z"/><path class="a`" d="M21.57,40.85c-.35,0-.7-.02-1.04-.06-5.06-.57-8.72-5.15-8.15-10.21,.53-4.68,4.47-8.21,9.17-8.21,.35,0,.7,.02,1.04,.06,2.45,.27,4.65,1.49,6.19,3.42,1.54,1.93,2.24,4.34,1.96,6.8-.53,4.68-4.47,8.21-9.17,8.21Zm-.02-17.98c-4.45,0-8.18,3.34-8.68,7.77-.54,4.79,2.92,9.12,7.71,9.66,.33,.04,.66,.05,.99,.05,4.45,0,8.18-3.34,8.68-7.77,.26-2.32-.4-4.6-1.85-6.43-1.46-1.83-3.54-2.97-5.86-3.23-.33-.04-.66-.05-.99-.05Z"/><path class="a`" d="M27.02,30.31c-.04-.15-.17-.26-.33-.27-.16,0-.3,.1-.34,.25-.38,1.23-1.58,2.03-2.86,1.88-1.47-.16-2.53-1.49-2.36-2.96,.13-1.12,.96-2.05,2.07-2.3,.15-.04,.26-.17,.27-.32,0-.16-.09-.3-.24-.34-3.49-1.08-6.86,1.32-7.25,4.74-.35,3.08,1.88,5.87,4.96,6.21,3.08,.35,5.87-1.88,6.21-4.96,.07-.64,.03-1.28-.12-1.92Z"/><path class="y" d="M16.65,30.06s-.13,.47-.08,1.19c.01,.36,.08,.77,.22,1.18,.07,.21,.15,.42,.26,.61,.09,.21,.24,.39,.36,.58,.14,.18,.3,.34,.45,.5,.18,.14,.34,.29,.51,.41,.18,.11,.35,.22,.52,.32,.17,.09,.35,.16,.5,.23,.3,.15,.59,.21,.78,.28l.3,.09h.05c.25,.09,.39,.36,.31,.62-.08,.25-.35,.39-.6,.31-.02,0-.04-.01-.05-.02l-.32-.15c-.2-.1-.5-.2-.82-.41-.16-.1-.34-.2-.52-.32-.17-.14-.35-.28-.54-.43-.18-.16-.34-.35-.51-.53-.15-.2-.31-.41-.44-.62-.11-.23-.25-.44-.32-.68-.09-.23-.15-.47-.2-.7-.08-.46-.11-.89-.07-1.26,.05-.73,.23-1.19,.23-1.19Z"/><path class="aw" d="M14.76,45.08s1.67,8.22,6.81,8.35c0,0,5.91,.39,5.78-8.09,0,0-7.32,2.7-12.59-.26Z"/><path class="at" d="M25.54,45.69c-1.19,5.16-5.47,4.9-5.47,4.9-1.85-.05-3.25-1.15-4.29-2.54,1,2.34,2.81,5.13,5.79,5.2,0,0,5.91,.39,5.78-8.09,0,0-.7,.26-1.81,.52Z"/><path class="a`" d="M21.69,53.68c-.09,0-.13,0-.13,0-5.27-.13-6.97-8.2-7.04-8.55l-.11-.54,.48,.27c1.6,.9,3.56,1.35,5.82,1.35,3.49,0,6.52-1.1,6.55-1.11l.33-.12v.35c.05,3.01-.65,5.27-2.07,6.71-1.5,1.52-3.32,1.64-3.84,1.64Zm-6.55-8.12c.47,1.79,2.3,7.52,6.44,7.62h.11c.47,0,2.13-.1,3.48-1.48,1.27-1.29,1.92-3.31,1.93-6.01-.89,.29-3.45,1.03-6.39,1.03-2.13,0-4-.39-5.57-1.16Z"/><path class="a`" d="M21.64,46.75c-7.1,0-9.79-3.68-9.91-3.84-.08-.11-.05-.27,.06-.35,.11-.08,.27-.05,.35,.06,.03,.04,2.85,3.87,10.19,3.62,.06,0,6.8-.43,8.77-4.99,.06-.13,.2-.18,.33-.13,.13,.05,.19,.2,.13,.33-2.09,4.84-8.92,5.27-9.21,5.29-.24,0-.48,.01-.72,.01Z"/><path class="a`" d="M11.42,44.56c-.1,0-.19-.06-.23-.16-.02-.04-.39-.96,.11-1.67,.37-.53,1.12-.78,2.18-.73,.14,0,.25,.12,.24,.26,0,.14-.13,.24-.26,.24-.88-.04-1.49,.14-1.75,.52-.34,.48-.06,1.19-.06,1.19,.05,.13,0,.27-.14,.33-.03,.01-.06,.02-.1,.02Z"/><path class="a`" d="M32.49,42.5c-.09,0-.18-.05-.23-.14-.37-.8-.81-1.26-1.26-1.32-.6-.08-1.08,.49-1.09,.5-.09,.1-.25,.12-.35,.03-.1-.09-.12-.25-.03-.35,.03-.03,.68-.8,1.53-.67,.64,.08,1.2,.62,1.65,1.6,.06,.12,0,.27-.12,.33-.03,.02-.07,.02-.11,.02Z"/><path class="ao" d="M26.25,50.64c-1.59-2.52-4.68,.09-4.68,.09-2.03-1.71-3.55-.84-4.39,.03,1.04,1.45,2.48,2.62,4.39,2.67,0,0,3,.18,4.68-2.79Z"/><path class="ax" d="M23.66,49.56c.3,.17,.59,.43,.84,.82-1.68,2.96-4.68,2.79-4.68,2.79h-.02c.43,.15,.89,.24,1.39,.25,0,0,3,.18,4.68-2.79-.61-.96-1.43-1.18-2.22-1.07Z"/><path class="a`" d="M21.67,53.68h0c-.07,0-.11,0-.11,0-1.74-.04-3.28-.98-4.58-2.78l-.12-.17,.15-.15c1.31-1.36,2.96-1.44,4.57-.17,.42-.32,1.6-1.12,2.8-1.12,.87,0,1.58,.41,2.08,1.22l.08,.13-.07,.13c-1.57,2.77-4.27,2.92-4.8,2.92Zm-4.16-2.9c1.17,1.55,2.54,2.36,4.07,2.4h.09c.47,0,2.84-.12,4.28-2.53-.41-.58-.92-.86-1.58-.86-1.29,0-2.63,1.12-2.64,1.13l-.16,.14-.16-.14c-1.41-1.18-2.75-1.22-3.9-.14Z"/><path class="aj" d="M21.31,10.14s-6.44-.07-10.82,9.45l.04,.05s1.33-.5,3.39-1.03c.4-1.01,.95-2.07,1.62-2.44l-.13,2.08c2.54-.56,5.78-1.03,8.96-.81-.08-.84-.26-1.7-.61-2.3l1.54,1.54,.39-1.03,.94,2.06c2.38,.45,4.62,1.38,6.38,3.07,0,0,.09-.05,.24-.14-1.94-4.72-5.62-10.59-11.93-10.52Z"/><path class="ab" d="M20.98,9.97s-.52,0-1.34,.21c4.99,.36,8.24,4.5,10.23,8.53,1.02,.49,1.97,1.12,2.81,1.93,0,0,.09-.05,.24-.14-1.94-4.72-5.62-10.59-11.93-10.52Z"/><path class="a`" d="M33,21.05c-.06,0-.13-.02-.17-.07-1.57-1.51-3.67-2.52-6.26-3.01-.08-.02-.15-.07-.18-.14l-.69-1.51-.17,.46c-.03,.08-.1,.14-.18,.16-.08,.02-.17,0-.23-.07l-.72-.72c.09,.35,.15,.75,.2,1.2,.01,.03,.02,.07,.02,.1,0,.14-.14,.24-.26,.25,0,0-.02,0-.02,0-2.64-.18-5.66,.1-8.88,.81-.07,.02-.16,0-.22-.05-.06-.05-.09-.13-.09-.21l.09-1.51c-.37,.4-.75,1.07-1.1,1.98-.03,.07-.09,.13-.17,.15-2.02,.52-3.35,1.02-3.36,1.02-.11,.04-.23,0-.29-.09-.05-.07-.09-.22-.06-.3,4.37-9.49,10.78-9.6,11.05-9.6h.13c6.33,0,10.04,5.8,12.04,10.67,.05,.11,0,.25-.1,.31l-.24,.15s-.08,.03-.13,.03Zm-6.21-3.54c2.44,.48,4.46,1.41,6.03,2.79-1.98-4.62-5.53-9.91-11.39-9.91h-.12c-.26,0-6.15,.1-10.38,8.85,.55-.19,1.54-.5,2.79-.83,.52-1.3,1.09-2.12,1.69-2.45,.08-.04,.18-.04,.25,0,.08,.05,.12,.14,.12,.23l-.11,1.75c3.03-.64,5.87-.91,8.4-.76-.1-.83-.29-1.47-.54-1.9-.06-.11-.04-.25,.06-.32,.1-.08,.24-.07,.33,.02l1.27,1.27,.25-.66c.04-.09,.12-.16,.23-.16,.09,0,.19,.05,.24,.15l.88,1.95Z"/><path class="af" d="M20.05,11.32s-4.12,.38-7.62,6.38l.75,.12s3.25-5.75,3.12-.88l3.58-.5s-1.83-1.88,.17-5.12Z"/><path class="aq" d="M20.8,5.19l-1.5-1.88-.88,2s-2.62,.12-3-1.75c0,0-1.5,2.88-.25,7.88,0,0,2.12-2.62,5.38-2.25,0,0-.38-3,.25-4Z"/><path class="au" d="M8.8,17.82s-4.5,4.75-6.12,15.38l6.12-15.38Z"/><path class="ah" d="M5.3,28.32s-1.88,2.5-2.25,8.88l2.25-8.88Z"/><path class="av" d="M35.05,23.32c-.23-.32,3.25,9.38,1.88,18.25,0,0,3.5-10.88-1.88-18.25Z"/><path class="aa" d="M16.92,18.94l-5.75,1.62s-5.5,12-2.62,23.5c0,0,1.75-4.62,5.75-4.38,0,0-7.75-9.75,2-17.12l.62-3.62Z"/><path class="ap" d="M18.17,61.94s-4,1.5-3.5,3.12c0,0,1.88,.25,3.5-3.12Z"/><path class="x" d="M19.8,62.65s-1.78,3.88-.28,4.68c0,0,1.51-1.14,.28-4.68Z"/><path class="ac" d="M21.8,63.27s-.21,2.92,1.46,4.21c0,0,.96-.5-1.46-4.21Z"/><path class="ae" d="M14.3,43.44s5.88,5.25,15-.62c0,0-7.62,4.5-15,.62Z"/><path class="y" d="M18.42,50.82s1.38-1.12,2.62,.75l-2.62-.75Z"/><path class="as" d="M9.05,46.32s2,8.75,9.25,14.12c0,0-5.5-8-6.12-14.5,0,0-1.12,1.38-3.12,.38Z"/><path class="y" d="M12.55,72.57s-.38-2.12,3.5-.38c0,0-3.38-.75-3.5,.38Z"/><path class="y" d="M27.42,72.19s4.38-2,3.62,.62c0,0-.62-1.62-3.62-.62Z"/></g></g></g></svg>