<svg xmlns="http://www.w3.org/2000/svg" xmlns:xlink="http://www.w3.org/1999/xlink" viewBox="0 0 55.53 72.33"><defs><style>.s{fill:#ddd;}.t{fill:#fff;}.u{fill:#491c44;}.v{fill:url(#r);}.w{fill:url(#l);}.x{fill:url(#m);}.y{fill:url(#f);}.a`{fill:url(#p);}.aa{fill:url(#g);}.ab{fill:#e16962;}.ac{fill:url(#i);}.ad{fill:url(#h);}.ae{fill:url(#d);}.af{fill:url(#e);}.ag{fill:#f1b2cc;}.ah{fill:url(#n);}.ai{fill:#d5b29a;}.aj{fill:#75b6c5;}.ak{fill:url(#j);}.al{fill:url(#o);}.am{fill:url(#q);}.an{fill:url(#k);}.ao{fill:#a27cbb;}</style><linearGradient id="d" x1="30.6" y1=".25" x2="30.6" y2="22.23" gradientTransform="matrix(1, 0, 0, 1, 0, 0)" gradientUnits="userSpaceOnUse"><stop offset="0" stop-color="#a27cbb"></stop><stop offset="1" stop-color="#71376d"></stop></linearGradient><linearGradient id="e" x1="38.34" y1="57.42" x2="38.34" y2="72.08" gradientTransform="matrix(1, 0, 0, 1, 0, 0)" gradientUnits="userSpaceOnUse"><stop offset=".06" stop-color="#d5b29a"></stop><stop offset=".26" stop-color="#d0ad98"></stop><stop offset=".49" stop-color="#c19f95"></stop><stop offset=".75" stop-color="#a98990"></stop><stop offset="1" stop-color="#8a6b89"></stop></linearGradient><linearGradient id="f" x1="20.6" y1="58.29" x2="20.6" y2="58.79" xlink:href="#e"></linearGradient><linearGradient id="g" x1="17.92" y1="58.49" x2="17.92" xlink:href="#e"></linearGradient><linearGradient id="h" x1="5.74" y1="44.43" x2="5.74" y2="62.59" gradientTransform="matrix(1, 0, 0, 1, 0, 0)" gradientUnits="userSpaceOnUse"><stop offset="0" stop-color="#f1b2cc"></stop><stop offset=".14" stop-color="#eeadc7"></stop><stop offset=".3" stop-color="#e69eb9"></stop><stop offset=".48" stop-color="#da86a3"></stop><stop offset=".67" stop-color="#c86583"></stop><stop offset=".86" stop-color="#b23b5b"></stop><stop offset="1" stop-color="#9f1739"></stop></linearGradient><linearGradient id="i" x1="46.82" y1="53.64" x2="55.29" y2="53.64" xlink:href="#h"></linearGradient><linearGradient id="j" x1="36.86" y1="21.16" x2="36.86" y2="35.06" gradientTransform="matrix(1, 0, 0, 1, 0, 0)" gradientUnits="userSpaceOnUse"><stop offset=".06" stop-color="#d5b29a"></stop><stop offset=".1" stop-color="#c8a697"></stop><stop offset=".2" stop-color="#b19092"></stop><stop offset=".31" stop-color="#9f7f8d"></stop><stop offset=".44" stop-color="#93738b"></stop><stop offset=".61" stop-color="#8c6c89"></stop><stop offset="1" stop-color="#8a6b89"></stop></linearGradient><linearGradient id="k" x1="40.1" y1="13.66" x2="40.1" y2="32.03" gradientTransform="matrix(1, 0, 0, 1, 0, 0)" gradientUnits="userSpaceOnUse"><stop offset="0" stop-color="#f1b2cc"></stop><stop offset=".19" stop-color="#e399b4"></stop><stop offset=".6" stop-color="#c25a78"></stop><stop offset="1" stop-color="#9f1739"></stop></linearGradient><linearGradient id="l" x1="28.4" y1="14.15" x2="28.4" y2="59.63" gradientTransform="matrix(1, 0, 0, 1, 0, 0)" gradientUnits="userSpaceOnUse"><stop offset=".2" stop-color="#75b6c5"></stop><stop offset=".99" stop-color="#006578"></stop></linearGradient><linearGradient id="m" x1="21.68" y1="52.36" x2="39.87" y2="52.36" gradientTransform="matrix(1, 0, 0, 1, 0, 0)" gradientUnits="userSpaceOnUse"><stop offset="0" stop-color="#e16962"></stop><stop offset=".22" stop-color="#de6561"></stop><stop offset=".41" stop-color="#d85a5e"></stop><stop offset=".59" stop-color="#cd485a"></stop><stop offset=".76" stop-color="#bd2f54"></stop><stop offset=".94" stop-color="#a90e4d"></stop><stop offset="1" stop-color="#a1004a"></stop></linearGradient><linearGradient id="n" x1="22.51" y1="15.08" x2="22.51" y2="34.54" gradientTransform="matrix(1, 0, 0, 1, 0, 0)" gradientUnits="userSpaceOnUse"><stop offset="0" stop-color="#fff"></stop><stop offset=".1" stop-color="#ebf4f6"></stop><stop offset=".4" stop-color="#b8d9e1"></stop><stop offset=".66" stop-color="#93c6d2"></stop><stop offset=".87" stop-color="#7dbac8"></stop><stop offset="1" stop-color="#75b6c5"></stop></linearGradient><linearGradient id="o" x1="18.95" y1="51.02" x2="31.57" y2="51.02" gradientTransform="matrix(1, 0, 0, 1, 0, 0)" gradientUnits="userSpaceOnUse"><stop offset="0" stop-color="#fff"></stop><stop offset=".18" stop-color="#f7dad8"></stop><stop offset=".45" stop-color="#eeaaa6"></stop><stop offset=".69" stop-color="#e68680"></stop><stop offset=".88" stop-color="#e2706a"></stop><stop offset="1" stop-color="#e16962"></stop></linearGradient><linearGradient id="p" x1="30.42" y1="2.54" x2="30.42" y2="12.02" gradientTransform="matrix(1, 0, 0, 1, 0, 0)" gradientUnits="userSpaceOnUse"><stop offset="0" stop-color="#fff"></stop><stop offset="1" stop-color="#a27cbb"></stop></linearGradient><linearGradient id="q" x1="14.2" y1="61.11" x2="19.7" y2="61.11" gradientTransform="matrix(1, 0, 0, 1, 0, 0)" gradientUnits="userSpaceOnUse"><stop offset="0" stop-color="#fff"></stop><stop offset="1" stop-color="#d5b29a"></stop></linearGradient><linearGradient id="r" x1="34.45" y1="61.29" x2="40.97" y2="61.29" xlink:href="#q"></linearGradient></defs><g id="a"></g><g id="b"><g id="c"><g><path class="ao" d="M19.1,24.19l-1.48-4.15S21.62,6.68,33.49,2.38c2.08-.76,4.34-1.43,6.51-1.84,2.39-.45,5.03-.71,2.46,1.79-2.22,2.15-4.73,4.09-5.99,7-.6,1.39-1.06,2.9-1.38,4.38-.11,.5-.51,5.42-.55,5.43,0,0-15.43,5.04-15.43,5.04Z" style="fill: #a27cbb;"></path><path class="ae" d="M39.99,.54c-.61,.12-1.23,.26-1.86,.41,.35,.34,.63,.69,.69,.87,.4,1.17-.47,2.02-1.23,2.79-1.8,1.82-2.88,3.63-3.66,6.06,0,0-.12,3-3.12,2,0,0-7.14-.98-11.09,2.48-1.21,2.26-1.85,4.05-2.05,4.66,.7,1.98,4.29,2.43,7.39,2.43,4.34-1.42,9.44-3.09,9.45-3.09,.04-.01,.44-4.93,.55-5.43,.32-1.48,.78-2.99,1.38-4.38,1.26-2.91,3.77-4.84,5.99-7,2.58-2.5-.07-2.24-2.46-1.79Z" style="fill: url(#d);"></path><path class="ai" d="M13.46,57.42s-1.19,20.73,2.37,11.1c0,0,.74,6.66,1.93,.12,0,0,1.48,6.54,2.67,.12,0,0,1.93,7.53,1.78-.12l.3-10.49-9.05-.74Z" style="fill: #d5b29a;"></path><path class="ai" d="M42.64,57.42s1.19,20.73-2.37,11.1c0,0-.74,6.66-1.93,.12,0,0-1.48,6.54-2.67,.12,0,0-1.93,7.53-1.78-.12l-.3-10.49,9.05-.74Z" style="fill: #d5b29a;"></path><path class="af" d="M42.64,57.42l-.79,.06c-.24,.41-.4,.68-.4,.68,0,0,1.95,12.06-7.6,9.08l.04,1.4c-.15,7.65,1.78,.12,1.78,.12,1.19,6.42,2.67-.12,2.67-.12,1.19,6.54,1.93-.12,1.93-.12,3.56,9.62,2.37-11.1,2.37-11.1Z" style="fill: url(#e);"></path><g><path class="y" d="M20.45,58.79l.31-.05c-.03-.28-.06-.45-.06-.45l-.25,.5Z" style="fill: url(#f);"></path><path class="aa" d="M20.76,58.74c.23,2.11,.73,10.81-7.41,8.53,.19,3.59,.82,5.77,2.49,1.25,0,0,.74,6.66,1.93,.12,0,0,1.48,6.54,2.67,.12,0,0,1.93,7.53,1.78-.12l.29-10.16-1.74,.26Z" style="fill: url(#g);"></path></g><path class="u" d="M21.81,72.33h0c-.4,0-.86-.84-1.34-2.5-.34,1.38-.73,2.01-1.24,2.01-.64,0-1.13-1.15-1.43-2.1-.37,1.66-.7,2.03-1.05,2.03-.52,0-.84-1.09-1.03-2.27-.67,1.58-1.1,1.82-1.43,1.82-.11,0-.27-.03-.43-.2-1.31-1.39-.72-12.46-.65-13.72,0-.07,.03-.13,.09-.17,.05-.04,.12-.07,.18-.06l9.05,.74c.13,.01,.23,.12,.23,.26l-.3,10.49c.05,2.74-.16,3.33-.37,3.55-.1,.1-.21,.12-.28,.12Zm-1.38-3.81c.11,0,.21,.08,.24,.19,.33,1.28,.82,2.72,1.1,3.06,.08-.21,.23-.89,.18-3.12l.29-10.26-8.56-.7c-.27,4.86-.34,12.17,.53,13.09,.01,.01,.04,.04,.06,.04,.04,0,.45-.07,1.31-2.39,.04-.11,.15-.17,.26-.16,.12,.01,.21,.11,.22,.22,.15,1.35,.48,2.66,.69,2.78-.02-.02,.3-.26,.74-2.68,.02-.12,.12-.2,.24-.21,.11-.01,.22,.08,.25,.19,.33,1.46,.9,2.75,1.22,2.75,.02,0,.48-.03,.96-2.62,.02-.12,.12-.2,.24-.2h0Z" style="fill: #491c44;"></path><path class="u" d="M34.3,72.33c-.07,0-.18-.02-.28-.12-.21-.22-.42-.81-.37-3.56l-.3-10.48c0-.13,.1-.25,.23-.26l9.05-.74c.07-.01,.13,.02,.18,.06,.05,.04,.08,.11,.09,.17,.07,1.26,.67,12.33-.65,13.72-.16,.17-.32,.2-.43,.2-.33,0-.75-.24-1.43-1.82-.19,1.18-.51,2.27-1.03,2.27-.36,0-.68-.37-1.05-2.03-.3,.95-.79,2.1-1.43,2.1h0c-.51,0-.9-.63-1.24-2.01-.49,1.66-.94,2.5-1.34,2.5Zm-.44-13.94l.29,10.25c-.04,2.24,.1,2.92,.18,3.13,.28-.34,.78-1.79,1.1-3.06,.03-.11,.15-.2,.25-.19,.12,0,.22,.09,.24,.2,.48,2.59,.94,2.62,.96,2.62,.32,0,.89-1.29,1.22-2.75,.03-.11,.12-.2,.25-.19,.12,0,.22,.09,.24,.21,.44,2.42,.76,2.66,.8,2.67,.16-.12,.48-1.43,.64-2.78,.01-.12,.1-.21,.22-.22,.12,0,.22,.05,.26,.16,.86,2.32,1.27,2.39,1.31,2.39,.02,0,.05-.03,.06-.04,.87-.92,.79-8.23,.53-13.09l-8.56,.7Z" style="fill: #491c44;"></path><path class="ag" d="M8.7,44.3c-.45,.12-9.77,5.55-6.61,15.44,0,0-3.69,5.83-.66,2.93l1.81-2.4s3.29,10.05,1.32,.24c0,0,8.4,5.21,.99-1.42,0,0-3.94-5.19,1.97-8.78l1.18-6.01Z" style="fill: #f1b2cc;"></path><path class="ad" d="M5.68,59.22s-3.94-5.19,1.97-8.78l1.18-6.01c-.13,.03-.97,.49-2.04,1.36l-.88,4.52C0,53.91,3.93,59.1,3.93,59.1c1.48,1.33,2.32,2.17,2.73,2.69,1.92,1.03,3.89,1.8-.98-2.56Z" style="fill: url(#h);"></path><path class="u" d="M5.11,65.06c-.19,0-.53,0-1.95-4.26l-1.52,2.02c-.84,.8-1.11,.91-1.3,.91-.13,0-.24-.07-.3-.17-.2-.36,.4-1.66,1.78-3.85-1.08-3.47-.77-6.76,.9-9.79,2.13-3.85,5.66-5.79,5.92-5.86,.08-.02,.17,0,.23,.06,.06,.06,.09,.15,.07,.23l-1.18,6.01c-.01,.07-.06,.13-.12,.17-1.74,1.06-2.77,2.36-3.05,3.86-.46,2.4,1.14,4.53,1.15,4.56,3.3,2.95,3.17,3.3,3.08,3.53-.03,.07-.12,.23-.38,.23h0c-.64,0-2.56-1.1-3.53-1.69,.7,3.58,.53,3.79,.42,3.93-.05,.06-.16,.11-.23,.11Zm-1.86-5.04s.03,0,.04,0c.09,.02,.17,.08,.2,.17,.49,1.49,1.07,3.09,1.44,3.89-.05-.55-.21-1.58-.6-3.52-.02-.1,.02-.2,.1-.25,.08-.06,.19-.06,.27,0,1.08,.67,2.9,1.7,3.59,1.88-.19-.3-.83-1.05-2.89-2.9-.1-.13-1.78-2.37-1.28-4.99,.31-1.62,1.38-3.01,3.19-4.14l1.05-5.38c-1.8,1.12-8.81,6.16-6.03,14.88,.02,.07,.01,.15-.03,.21-.76,1.21-1.56,2.64-1.77,3.24,.14-.1,.37-.28,.73-.63l1.78-2.37c.05-.06,.12-.1,.2-.1Z" style="fill: #491c44;"></path><path class="ag" d="M46.82,44.3c.45,.12,9.77,5.55,6.61,15.44,0,0,3.69,5.83,.66,2.93l-1.81-2.4s-3.29,10.05-1.32,.24c0,0-8.4,5.21-.99-1.42,0,0,3.94-5.19-1.97-8.78l-1.18-6.01Z" style="fill: #f1b2cc;"></path><path class="ac" d="M53.43,59.49c3.16-9.89-6.16-15.32-6.61-15.44l.24,1.22c2.59,1.88,7.71,6.88,5.25,14.6,0,0,.27,.42,.6,.98l1.18,1.57c3.03,2.91-.66-2.93-.66-2.93Z" style="fill: url(#i);"></path><path class="u" d="M50.42,65.06c-.08,0-.18-.05-.23-.11-.11-.14-.28-.34,.42-3.93-.97,.59-2.89,1.69-3.53,1.69-.27,0-.36-.16-.38-.23-.09-.23-.22-.58,3.11-3.57h0s1.58-2.14,1.12-4.53c-.29-1.5-1.31-2.8-3.05-3.86-.06-.04-.1-.1-.12-.17l-1.18-6.01c-.02-.08,.01-.17,.07-.23,.06-.06,.15-.08,.23-.06,.26,.07,3.79,2.01,5.92,5.86,1.68,3.03,1.98,6.32,.9,9.79,1.38,2.19,1.98,3.49,1.78,3.85-.06,.11-.17,.17-.3,.17-.18,0-.46-.11-1.27-.88l-1.55-2.05c-1.42,4.26-1.76,4.26-1.95,4.26h0Zm.54-4.8s.1,.01,.14,.04c.08,.06,.12,.16,.1,.25-.39,1.94-.55,2.97-.6,3.52,.37-.81,.95-2.4,1.44-3.89,.03-.09,.1-.15,.2-.17,.09-.01,.18,.02,.24,.1l1.81,2.4c.34,.32,.56,.5,.7,.6-.2-.6-1-2.03-1.77-3.24-.04-.06-.05-.14-.03-.21,2.78-8.72-4.21-13.76-6.03-14.88l1.05,5.38c1.81,1.12,2.88,2.52,3.19,4.14,.5,2.62-1.17,4.86-1.25,4.95-2.08,1.87-2.72,2.63-2.92,2.93,.71-.19,2.51-1.21,3.58-1.88,.04-.03,.09-.04,.13-.04Z" style="fill: #491c44;"></path><path class="ai" d="M28.47,35.19l-.44-2.92s3.76-8.56,11.22-10.34c1.31-.31,2.71-.55,4.03-.63,1.46-.08,3.04,0,1.26,1.42-1.54,1.24-3.22,2.3-4.27,4.13-.5,.88-.93,1.84-1.27,2.8-.12,.33-.87,3.58-.9,3.58l-9.64,1.95Z" style="fill: #d5b29a;"></path><path class="ak" d="M43.29,21.18s-.09,0-.14,.01c.17,.21,.01,.57-.72,1.16-1.54,1.24-3.22,2.3-4.27,4.13-.5,.88-.93,1.84-1.27,2.8-.12,.33-.87,3.58-.9,3.58,0,0-4.79,.97-7.61,1.54l.1,.66,9.64-1.95s.78-3.26,.9-3.58c.35-.96,.77-1.93,1.27-2.8,1.05-1.83,2.73-2.89,4.27-4.13,1.78-1.43,.19-1.5-1.26-1.42Z" style="fill: url(#j);"></path><path class="u" d="M28.47,35.44c-.05,0-.1-.02-.14-.04-.06-.04-.09-.1-.1-.17l-.44-2.92s0-.09,.02-.14c.04-.09,3.9-8.7,11.39-10.48,1.47-.35,2.84-.56,4.08-.63,.24-.01,.48-.02,.71-.02,.64,0,1.41,.06,1.57,.53,.13,.36-.14,.78-.85,1.36-.29,.23-.58,.45-.87,.68-1.29,.99-2.51,1.93-3.34,3.38-.46,.8-.88,1.73-1.25,2.76-.06,.17-.34,1.32-.54,2.16q-.37,1.55-.54,1.58s0,0-9.64,1.95c-.02,0-.03,0-.05,0Zm-.18-3.13l.39,2.58c1.41-.28,8.14-1.65,9.23-1.87,.06-.24,.19-.77,.3-1.24,.28-1.18,.49-2.03,.56-2.21,.38-1.06,.82-2.01,1.29-2.84,.88-1.54,2.2-2.55,3.47-3.53,.29-.22,.58-.44,.86-.67,.74-.6,.7-.8,.7-.8,0,0-.08-.2-1.1-.2-.22,0-.46,0-.69,.02-1.21,.07-2.55,.27-3.99,.62-6.91,1.65-10.65,9.35-11.02,10.13Z" style="fill: #491c44;"></path><path class="u" d="M19.1,24.44c-.1,0-.2-.06-.24-.17l-1.48-4.15s-.02-.1,0-.16c.04-.13,4.18-13.52,16.03-17.82,2.33-.84,4.53-1.46,6.55-1.85,1.07-.2,1.84-.3,2.42-.3,.76,0,1.2,.17,1.35,.53,.19,.46-.15,1.07-1.09,1.98-.41,.4-.84,.79-1.26,1.19-1.8,1.68-3.67,3.41-4.68,5.73-.56,1.28-1.02,2.74-1.36,4.33-.06,.26-.21,1.93-.33,3.27q-.21,2.29-.39,2.35c-.06,.02-15.43,5.04-15.43,5.04-.03,0-.05,.01-.08,.01Zm-1.22-4.41l1.37,3.84c11.96-3.91,14.51-4.74,15.05-4.92,.04-.33,.12-1.19,.19-1.96,.16-1.78,.28-3.06,.34-3.33,.36-1.62,.82-3.11,1.39-4.42,1.05-2.42,2.95-4.19,4.8-5.9,.42-.39,.84-.78,1.25-1.18,1.06-1.03,.99-1.37,.97-1.43-.02-.05-.15-.22-.88-.22-.55,0-1.28,.09-2.32,.29-1.99,.38-4.17,.99-6.47,1.83-11.15,4.04-15.34,16.32-15.69,17.41Z" style="fill: #491c44;"></path><path class="ag" d="M28.1,32.15l-1.09-3.06s2.31-10.04,10.05-13.52c1.36-.61,2.83-1.16,4.26-1.51,1.57-.39,3.31-.64,1.67,1.28-1.42,1.66-3.02,3.15-3.79,5.35-.36,1.05-.62,2.18-.8,3.3-.06,.38-.2,4.05-.23,4.06,0,0-10.08,4.11-10.08,4.11Z" style="fill: #f1b2cc;"></path><path class="an" d="M41.24,13.89c.12,.22-.03,.63-.62,1.32-1.42,1.66-3.02,3.15-3.79,5.35-.01,.04-.02,.09-.04,.13,.61,.77,1.09,1.66,1.5,2.44,.17-.87,.37-1.75,.66-2.57,.76-2.2,2.37-3.7,3.79-5.35,1.58-1.85,.02-1.68-1.51-1.32Z" style="fill: url(#k);"></path><path class="u" d="M28.1,32.4s-.07,0-.1-.02c-.06-.03-.11-.08-.13-.14l-1.09-3.06s-.02-.09,0-.14c.02-.1,2.43-10.2,10.19-13.69,1.53-.68,2.98-1.2,4.3-1.53,.77-.19,1.31-.28,1.71-.28,.17,0,.7,0,.88,.39,.16,.36-.04,.84-.67,1.57-.26,.31-.53,.61-.8,.91-1.2,1.34-2.33,2.61-2.94,4.36-.33,.97-.6,2.06-.79,3.25-.03,.2-.09,1.49-.14,2.44q-.08,1.75-.24,1.81c-.11,.04-10.08,4.11-10.08,4.11-.03,.01-.06,.02-.09,.02Zm-.83-3.33l.97,2.75c7.33-2.99,9.21-3.75,9.7-3.95,.02-.26,.05-.88,.07-1.43,.06-1.33,.11-2.29,.14-2.5,.19-1.22,.47-2.34,.81-3.34,.64-1.84,1.86-3.2,3.04-4.53,.27-.3,.54-.6,.8-.91,.69-.81,.6-1.03,.59-1.04-.02-.04-.12-.1-.42-.1-.47,0-1.13,.15-1.59,.27-1.3,.32-2.72,.83-4.22,1.5-7.21,3.24-9.67,12.39-9.9,13.28Z" style="fill: #491c44;"></path><path class="aj" d="M13.31,31.01l3.71-9.79s2.82-8.01,10.53-6.97c0,0,6.97-1.04,11.72,10.24l8.31,19.29s7.42,12.91-2.08,14.54c0,0-23.14,3.26-34.42-.44,0,0-6.68-.3-4.01-9.05l6.23-17.8Z" style="fill: #75b6c5;"></path><path class="w" d="M47.58,43.77l-8.31-19.29c-4.75-11.27-11.72-10.24-11.72-10.24-2.32-.31-4.19,.2-5.68,1.06,2.87-.58,9.83-.88,13.83,8.48l1.25,6,6.12,12.75s6,10.38-.25,12.75c0,0-19.62,4.88-30.25-.25,0,0-4.91-.75-5.27-4.88-.05-.59-.14-.97-.27-1.19-2.53,8.59,4.05,8.89,4.05,8.89,11.28,3.71,34.42,.44,34.42,.44,9.49-1.63,2.08-14.54,2.08-14.54Z" style="fill: url(#l);"></path><path class="u" d="M26.35,59.88c-6.56,0-11.71-.6-15.31-1.77-.32-.02-2.53-.24-3.86-2.12-1.18-1.67-1.29-4.11-.33-7.25l6.23-17.81,3.71-9.8c.02-.07,2.62-7.23,9.41-7.23,.44,0,.9,.03,1.36,.09,.07,0,.23-.02,.47-.02,1.66,0,7.41,.75,11.48,10.41l8.31,19.28c.16,.28,4.26,7.5,2.21,11.88-.76,1.62-2.26,2.63-4.47,3-.1,.01-9.55,1.33-19.2,1.33Zm-.15-45.48c-6.43,0-8.92,6.83-8.94,6.9l-3.71,9.8-6.23,17.8c-.91,2.97-.82,5.27,.27,6.8,1.27,1.8,3.49,1.91,3.51,1.91,.02,0,.05,0,.07,.01,3.55,1.17,8.66,1.76,15.19,1.76,9.61,0,19.02-1.31,19.12-1.32,2.03-.35,3.41-1.27,4.09-2.72,1.95-4.14-2.16-11.37-2.2-11.44l-8.32-19.31c-4.62-10.98-11.39-10.1-11.45-10.09-.02,0-.05,0-.07,0-.45-.06-.89-.09-1.32-.09Z" style="fill: #491c44;"></path><path class="ab" d="M17.02,48.52s9.49,2.82,22.85,0c0,0-11.72,16.76-22.85,0Z" style="fill: #e16962;"></path><path class="x" d="M36.32,49.27c-2.63,2.86-8.32,7.66-14.64,4.55,9.51,7.22,18.19-5.18,18.19-5.18-1.22,.26-2.4,.45-3.55,.62Z" style="fill: url(#m);"></path><path class="u" d="M27.89,56.22c-4.02,0-7.75-2.54-11.08-7.56-.06-.09-.06-.2,0-.29,.06-.08,.17-.12,.27-.09,.04,.01,4.27,1.24,10.92,1.24,3.91,0,7.89-.42,11.81-1.25,.1-.02,.2,.02,.26,.11,.06,.08,.06,.2,0,.28-.22,.31-5.36,7.56-12.18,7.56Zm-10.29-7.29c3.14,4.51,6.59,6.79,10.29,6.79,5.52,0,10.05-5.14,11.38-6.82-3.74,.75-7.53,1.12-11.26,1.12-5.22,0-8.97-.75-10.41-1.1Z" style="fill: #491c44;"></path><path class="t" d="M47.94,37.74c-.49,4.4-4.46,7.56-8.86,7.07-4.4-.49-7.56-4.46-7.07-8.86,.49-4.4,4.46-7.56,8.86-7.07,4.4,.49,7.56,4.46,7.07,8.86Z" style="fill: #fff;"></path><path class="s" d="M42.79,29.23c2.49,1.59,4,4.5,3.65,7.64-.49,4.4-4.46,7.56-8.86,7.07-.67-.08-1.31-.24-1.92-.47,1,.64,2.16,1.08,3.42,1.22,4.4,.49,8.36-2.67,8.86-7.07,.42-3.72-1.79-7.13-5.15-8.39Z" style="fill: #ddd;"></path><path class="u" d="M39.99,45.11c-.31,0-.62-.02-.93-.05-2.19-.25-4.16-1.33-5.54-3.06s-2-3.88-1.75-6.08c.47-4.18,4-7.34,8.2-7.34,.31,0,.62,.02,.93,.05,2.19,.25,4.16,1.33,5.54,3.06,1.38,1.72,2,3.88,1.75,6.08-.47,4.18-3.99,7.34-8.2,7.34Zm-.02-16.02c-3.95,0-7.26,2.96-7.7,6.9-.23,2.06,.35,4.09,1.65,5.71,1.29,1.62,3.14,2.64,5.2,2.87,.29,.03,.59,.05,.88,.05,3.95,0,7.26-2.96,7.7-6.9,.23-2.06-.35-4.09-1.65-5.71-1.29-1.62-3.14-2.64-5.2-2.87-.29-.03-.59-.05-.88-.05Z" style="fill: #491c44;"></path><path class="u" d="M44.85,35.69c-.03-.14-.15-.23-.29-.24-.14,0-.26,.09-.3,.22-.33,1.1-1.41,1.81-2.55,1.68-1.31-.15-2.25-1.33-2.11-2.64,.11-1,.85-1.82,1.84-2.05,.14-.03,.23-.15,.24-.29,0-.14-.08-.26-.22-.31-3.11-.96-6.12,1.18-6.46,4.22-.31,2.74,1.67,5.23,4.42,5.53,2.74,.31,5.23-1.67,5.53-4.42,.06-.57,.03-1.14-.11-1.71Z" style="fill: #491c44;"></path><path class="t" d="M35.6,35.47s-.11,.42-.07,1.06c0,.32,.08,.68,.19,1.05,.06,.18,.13,.37,.23,.55,.08,.19,.21,.34,.32,.51,.12,.16,.27,.3,.4,.45,.16,.12,.3,.25,.45,.36l.46,.28c.16,.08,.31,.14,.45,.2,.27,.14,.53,.18,.69,.25l.27,.08h.04c.22,.08,.35,.32,.28,.55-.07,.22-.31,.35-.54,.28-.02,0-.03-.01-.05-.02l-.28-.13c-.18-.09-.44-.18-.73-.37-.15-.09-.31-.18-.47-.29-.15-.12-.31-.25-.48-.39-.16-.14-.3-.31-.46-.47-.13-.18-.27-.36-.39-.56-.1-.2-.22-.4-.29-.61-.08-.2-.13-.42-.18-.62-.08-.41-.09-.8-.06-1.12,.04-.65,.21-1.06,.21-1.06Z" style="fill: #fff;"></path><path class="t" d="M34.63,27.44c-.02,.66,1.71,.9,3.87,.54,2.15-.36,3.91-1.19,3.93-1.84,.02-.66-1.71-.9-3.87-.54-2.15,.36-3.91,1.19-3.93,1.84Z" style="fill: #fff;"></path><path class="u" d="M36.63,28.39h0c-.72,0-1.66-.09-2.06-.5-.13-.13-.19-.29-.19-.46,.03-.92,2.1-1.74,4.14-2.08,.67-.11,1.33-.17,1.91-.17,.72,0,1.66,.09,2.06,.5,.13,.13,.19,.29,.19,.46-.03,.92-2.1,1.74-4.14,2.08-.67,.11-1.33,.17-1.91,.17Z" style="fill: #491c44;"></path><path class="ao" d="M40.43,25.67c-.55,0-1.19,.06-1.83,.16-2.26,.38-3.71,1.2-3.72,1.6,0,.01,0,.05,.05,.1,.16,.17,.7,.35,1.7,.35h0c.55,0,1.19-.06,1.83-.16,2.26-.38,3.71-1.2,3.72-1.6,0-.01,0-.05-.05-.1-.16-.17-.7-.35-1.7-.35Z" style="fill: #a27cbb;"></path><path class="ao" d="M19.44,27.58c.02,.66-1.71,.9-3.87,.54-2.15-.36-3.91-1.19-3.93-1.84-.02-.66,1.71-.9,3.87-.54,2.15,.36,3.91,1.19,3.93,1.84Z" style="fill: #a27cbb;"></path><path class="u" d="M17.44,28.54c-.58,0-1.24-.06-1.91-.17-2.04-.34-4.12-1.17-4.14-2.08,0-.17,.06-.33,.19-.46,.4-.41,1.34-.5,2.06-.5,.58,0,1.24,.06,1.91,.17,2.04,.34,4.12,1.17,4.14,2.08,0,.17-.06,.33-.19,.46-.4,.41-1.34,.5-2.06,.5Zm-3.8-2.72c-1,0-1.54,.18-1.7,.35-.05,.05-.05,.09-.05,.1,.01,.4,1.47,1.23,3.72,1.6,.64,.11,1.27,.16,1.83,.16,1,0,1.54-.18,1.7-.35,.05-.05,.05-.09,.05-.1-.01-.4-1.47-1.23-3.72-1.61-.64-.11-1.27-.16-1.83-.16Z" style="fill: #491c44;"></path><path class="t" d="M21.38,37.74c-.49,4.4-4.46,7.56-8.86,7.07-4.4-.49-7.56-4.46-7.07-8.86,.49-4.4,4.46-7.56,8.86-7.07s7.56,4.46,7.07,8.86Z" style="fill: #fff;"></path><path class="u" d="M18.29,35.69c-.03-.14-.15-.23-.29-.24-.14,0-.26,.09-.3,.22-.33,1.1-1.41,1.81-2.55,1.68-1.31-.15-2.25-1.33-2.11-2.64,.11-1,.85-1.82,1.84-2.05,.14-.03,.23-.15,.24-.29,0-.14-.08-.26-.22-.31-3.11-.96-6.12,1.18-6.46,4.22-.31,2.74,1.67,5.23,4.42,5.53,2.74,.31,5.23-1.67,5.53-4.42,.06-.57,.03-1.14-.11-1.71Z" style="fill: #491c44;"></path><path class="t" d="M9.05,35.47s-.11,.42-.07,1.06c.01,.32,.08,.68,.19,1.05,.06,.18,.13,.37,.23,.55,.08,.19,.21,.34,.32,.51,.12,.16,.27,.3,.4,.45,.16,.12,.3,.25,.45,.36l.46,.28c.16,.08,.31,.14,.45,.2,.27,.14,.53,.18,.69,.25l.27,.08h.04c.22,.08,.35,.32,.28,.55-.07,.22-.31,.35-.54,.28-.02,0-.03-.01-.05-.02l-.28-.13c-.18-.09-.44-.18-.73-.37-.15-.09-.31-.18-.47-.29-.15-.12-.31-.25-.48-.39-.16-.14-.3-.31-.46-.47-.13-.18-.27-.36-.39-.56-.1-.2-.22-.4-.29-.61-.08-.2-.13-.42-.18-.62-.08-.41-.09-.8-.06-1.12,.04-.65,.21-1.06,.21-1.06Z" style="fill: #fff;"></path><path class="s" d="M16.17,29.36c2.49,1.59,4,4.5,3.65,7.64-.49,4.4-4.46,7.56-8.86,7.07-.67-.08-1.31-.24-1.92-.47,1,.64,2.16,1.08,3.42,1.22,4.4,.49,8.36-2.67,8.86-7.07,.42-3.72-1.79-7.13-5.15-8.39Z" style="fill: #ddd;"></path><path class="u" d="M13.43,45.11c-.31,0-.62-.02-.93-.05-2.19-.25-4.16-1.33-5.54-3.06-1.38-1.72-2-3.88-1.75-6.08,.47-4.18,4-7.34,8.2-7.34,.31,0,.62,.02,.93,.05,4.53,.51,7.8,4.6,7.29,9.13-.47,4.18-3.99,7.34-8.2,7.34Zm-.02-16.02c-3.95,0-7.26,2.96-7.7,6.9-.23,2.06,.35,4.09,1.65,5.71,1.29,1.62,3.14,2.64,5.2,2.87,.29,.03,.59,.05,.88,.05,3.95,0,7.26-2.96,7.7-6.9,.48-4.25-2.59-8.1-6.85-8.58-.29-.03-.59-.05-.88-.05Z" style="fill: #491c44;"></path><path class="ah" d="M17.07,24.29s2.25-10.25,10.88-9.12c0,0-4.12,5.38-5.5,19.38,0,0-.88-3.38-3.75-5,0,0,7-2.75-1.62-5.25Z" style="fill: url(#n);"></path><path class="al" d="M20.7,51.66l-1.75-1.88s7.88,1.88,12.62,.5c0,0-4.25,3.25-10.88,1.38Z" style="fill: url(#o);"></path><path class="a`" d="M36.82,2.54c-.94,.37-2.49,.35-3.57,.73-1.46,.52-11.41,6.88-8.8,8.52,1.99,1.24,4.16-2.89,5.31-4.12,1.99-2.13,4.33-4.06,7.07-5.13Z"></path><path class="t" d="M40.52,15.48c-.32,.06-.82-.03-1.19,.03-.5,.08-4.07,1.56-3.32,2.24,.57,.51,1.5-.69,1.94-1.02,.76-.57,1.63-1.06,2.57-1.25Z" style="fill: #fff;"></path><path class="t" d="M42.57,22.21c-.21,0-.51-.12-.75-.12-.32,0-2.74,.55-2.37,1.07,.29,.4,1.03-.28,1.35-.44,.55-.28,1.16-.5,1.77-.51Z" style="fill: #fff;"></path><ellipse class="t" cx="13.63" cy="26.41" rx="1.19" ry=".38" style="fill: #fff;"></ellipse><path class="t" d="M37.77,26.56c.06,.2-.4,.52-1.02,.71-.63,.19-1.18,.19-1.25,0-.06-.2,.4-.52,1.02-.71,.63-.19,1.18-.19,1.25,0Z" style="fill: #fff;"></path><path class="t" d="M4.95,48.54s-3.88,3.25-2.62,9.5c0,0-.38-5.88,2.62-9.5Z" style="fill: #fff;"></path><path class="t" d="M51.07,51.66s2.56,4.55-.91,7.59c0,0,4.53-1.84,.91-7.59Z" style="fill: #fff;"></path><path class="am" d="M14.2,62.54v-3s3.5,.88,5.5,.75c0,0-1.25,3.12-5.5,2.25Z" style="fill: url(#q);"></path><path class="v" d="M34.57,62.91l-.12-2.5,6.5-.75s.75,2.25-6.38,3.25Z" style="fill: url(#r);"></path></g></g></g></svg>