<svg xmlns="http://www.w3.org/2000/svg" xmlns:xlink="http://www.w3.org/1999/xlink" viewBox="0 0 53.71 73.56"><defs><style>.as{fill:url(#t);}.at{fill:#fff;}.au{fill:url(#ap);}.av{fill:#491c44;}.aw{fill:url(#r);}.ax{fill:url(#ai);}.ay{fill:url(#y);}.b`{fill:url(#l);}.ba{fill:url(#af);}.bb{fill:url(#aq);}.bc{fill:url(#u);}.bd{fill:url(#ah);}.be{fill:url(#v);}.bf{fill:url(#a`);}.bg{fill:url(#m);}.bh{fill:url(#ao);}.bi{fill:url(#f);}.bj{fill:url(#ae);}.bk{fill:url(#p);}.bl{fill:#f9f0dd;}.bm{fill:url(#g);}.bn{fill:url(#ad);}.bo{fill:url(#ab);}.bp{fill:url(#ak);}.bq{fill:#e16962;}.br{fill:url(#i);}.bs{fill:url(#aj);}.bt{fill:#c9c7c7;}.bu{fill:url(#ar);}.bv{fill:url(#h);}.bw{fill:url(#d);}.bx{fill:url(#e);}.by{fill:url(#am);}.c`{fill:url(#x);}.ca{fill:url(#aa);}.cb{fill:url(#s);}.cc{fill:url(#n);}.cd{fill:#d5b29a;}.ce{fill:url(#ac);}.cf{fill:url(#w);}.cg{fill:url(#al);}.ch{fill:url(#j);}.ci{fill:url(#o);}.cj{fill:url(#an);}.ck{fill:url(#q);}.cl{fill:#814e54;}.cm{fill:url(#ag);}.cn{fill:url(#k);}</style><linearGradient id="d" x1="18.33" y1="61.23" x2="18.33" y2="73.31" gradientTransform="matrix(1, 0, 0, 1, 0, 0)" gradientUnits="userSpaceOnUse"><stop offset="0" stop-color="#814e54"></stop><stop offset="1" stop-color="#4b253b"></stop></linearGradient><linearGradient id="e" x1="19.55" y1="59.37" x2="19.55" y2="64.2" gradientTransform="matrix(1, 0, 0, 1, 0, 0)" gradientUnits="userSpaceOnUse"><stop offset="0" stop-color="#f9f0dd"></stop><stop offset=".15" stop-color="#f9e8d4"></stop><stop offset=".39" stop-color="#fad3bc"></stop><stop offset=".7" stop-color="#fcb295"></stop><stop offset="1" stop-color="#ff8b69"></stop></linearGradient><linearGradient id="f" x1="29.34" y1="59.87" x2="29.34" y2="64.71" xlink:href="#e"></linearGradient><linearGradient id="g" x1="14.29" y1="2.76" x2="14.29" y2="9.16" gradientTransform="matrix(1, 0, 0, 1, 0, 0)" gradientUnits="userSpaceOnUse"><stop offset="0" stop-color="#814e54"></stop><stop offset="1" stop-color="#4b253b"></stop></linearGradient><linearGradient id="h" x1="21.83" y1=".25" x2="21.83" y2="8.23" xlink:href="#g"></linearGradient><linearGradient id="i" x1="29.02" y1="1.76" x2="29.02" y2="9.85" xlink:href="#g"></linearGradient><linearGradient id="j" x1="34.73" y1="7.33" x2="34.73" y2="13.64" xlink:href="#g"></linearGradient><linearGradient id="k" x1="39.04" y1="12.77" x2="39.04" y2="18.65" xlink:href="#g"></linearGradient><linearGradient id="l" x1="34.53" y1="60.76" x2="34.53" y2="73.48" xlink:href="#d"></linearGradient><linearGradient id="m" x1="42.12" y1="19.17" x2="42.12" y2="23.91" xlink:href="#g"></linearGradient><linearGradient id="n" x1="38.49" y1="59.87" x2="38.49" y2="64.71" xlink:href="#e"></linearGradient><linearGradient id="o" x1="42.81" y1="26.13" x2="42.81" y2="29.85" xlink:href="#g"></linearGradient><linearGradient id="p" x1="43.93" y1="32.6" x2="43.93" y2="36.32" gradientTransform="translate(3.16 -4.05) rotate(5.54)" xlink:href="#g"></linearGradient><linearGradient id="q" x1="43.52" y1="38.91" x2="43.52" y2="41.62" xlink:href="#g"></linearGradient><linearGradient id="r" x1="17.59" y1="50.97" x2="17.59" y2="60.92" gradientTransform="matrix(1, 0, 0, 1, 0, 0)" gradientUnits="userSpaceOnUse"><stop offset="0" stop-color="#e16962"></stop><stop offset=".17" stop-color="#da5d5f"></stop><stop offset=".48" stop-color="#c73f58"></stop><stop offset=".88" stop-color="#aa0f4d"></stop><stop offset="1" stop-color="#a1004a"></stop></linearGradient><linearGradient id="s" x1="33.9" y1="51.61" x2="33.9" y2="64.07" xlink:href="#r"></linearGradient><linearGradient id="t" x1="42.73" y1="48.51" x2="42.73" y2="62.4" xlink:href="#r"></linearGradient><linearGradient id="u" x1="24.83" y1="51.97" x2="24.83" y2="64.35" xlink:href="#r"></linearGradient><linearGradient id="v" x1="6.49" y1="48.15" x2="17.1" y2="48.15" xlink:href="#g"></linearGradient><linearGradient id="w" x1="46.04" y1="43.24" x2="46.04" y2="50.65" xlink:href="#g"></linearGradient><linearGradient id="x" x1="29.65" y1="8.25" x2="29.65" y2="53.4" gradientTransform="matrix(1, 0, 0, 1, 0, 0)" gradientUnits="userSpaceOnUse"><stop offset=".06" stop-color="#d5b29a"></stop><stop offset=".3" stop-color="#d1ae99"></stop><stop offset=".51" stop-color="#c6a496"></stop><stop offset=".71" stop-color="#b49392"></stop><stop offset=".9" stop-color="#9a7b8c"></stop><stop offset="1" stop-color="#8a6b89"></stop></linearGradient><linearGradient id="y" x1="12.97" y1="16.72" x2="12.97" y2="29.43" xlink:href="#x"></linearGradient><linearGradient id="a`" x1="28.54" y1="17.23" x2="28.54" y2="31.83" gradientTransform="translate(25.71 -13) rotate(45)" xlink:href="#x"></linearGradient><linearGradient id="aa" x1="8.79" y1="8.27" x2="8.79" y2="32.29" gradientTransform="matrix(1, 0, 0, 1, 0, 0)" gradientUnits="userSpaceOnUse"><stop offset="0" stop-color="#fff"></stop><stop offset="1" stop-color="#d5b29a"></stop></linearGradient><linearGradient id="ab" x1="20.37" y1="34.29" x2="20.37" y2="35.71" xlink:href="#aa"></linearGradient><linearGradient id="ac" x1="12.91" y1="4.5" x2="12.91" y2="6.82" gradientTransform="matrix(1, 0, 0, 1, 0, 0)" gradientUnits="userSpaceOnUse"><stop offset="0" stop-color="#fff"></stop><stop offset=".12" stop-color="#e3d8d9"></stop><stop offset=".26" stop-color="#c5aeb1"></stop><stop offset=".4" stop-color="#ac8b8f"></stop><stop offset=".55" stop-color="#997075"></stop><stop offset=".69" stop-color="#8b5d62"></stop><stop offset=".84" stop-color="#835157"></stop><stop offset="1" stop-color="#814e54"></stop></linearGradient><linearGradient id="ad" x1="19.73" y1="2.15" x2="19.73" y2="4.47" gradientTransform="translate(3.51 -7.82) rotate(22.38)" xlink:href="#ac"></linearGradient><linearGradient id="ae" x1="27.49" y1=".06" x2="27.49" y2="2.38" gradientTransform="translate(10.97 -16.66) rotate(47.51) scale(.96 1) skewX(1.39)" xlink:href="#ac"></linearGradient><linearGradient id="af" x1="35.05" y1="-1.61" x2="35.05" y2=".35" gradientTransform="translate(19.72 -21.52) rotate(65.71) scale(.96 1) skewX(1.4)" xlink:href="#ac"></linearGradient><linearGradient id="ag" x1="42.22" y1="-3" x2="42.22" y2="-1.04" gradientTransform="translate(26.86 -24.64) rotate(75.71) scale(.96 1) skewX(1.4)" xlink:href="#ac"></linearGradient><linearGradient id="ah" x1="49.07" y1="-5.37" x2="49.07" y2="-3.4" gradientTransform="translate(40.22 -27.16) rotate(92.64) scale(.96 1) skewX(1.4)" xlink:href="#ac"></linearGradient><linearGradient id="ai" x1="55.78" y1="-6.29" x2="55.78" y2="-4.32" gradientTransform="translate(55.06 -25.76) rotate(108.13) scale(.96 1) skewX(1.4)" xlink:href="#ac"></linearGradient><linearGradient id="aj" x1="62.1" y1="-9.06" x2="62.1" y2="-7.09" gradientTransform="translate(55.06 -25.76) rotate(108.13) scale(.96 1) skewX(1.4)" xlink:href="#ac"></linearGradient><linearGradient id="ak" x1="68.42" y1="-10.69" x2="68.42" y2="-8.73" gradientTransform="translate(55.06 -25.76) rotate(108.13) scale(.96 1) skewX(1.4)" xlink:href="#ac"></linearGradient><linearGradient id="al" x1="107.92" y1="4.78" x2="107.92" y2="6.75" gradientTransform="translate(-33.21 233.93) rotate(-75.42) scale(1.59 1.35) skewX(-5.29)" xlink:href="#ac"></linearGradient><linearGradient id="am" x1="111.55" y1="15.89" x2="111.55" y2="17.86" gradientTransform="translate(30.05 247.15) rotate(-96.54) scale(1.59 1.35) skewX(-5.29)" xlink:href="#ac"></linearGradient><linearGradient id="an" x1="15.75" y1="50.37" x2="15.75" y2="56.87" gradientTransform="matrix(1, 0, 0, 1, 0, 0)" gradientUnits="userSpaceOnUse"><stop offset="0" stop-color="#fff"></stop><stop offset=".06" stop-color="#fbedec"></stop><stop offset=".21" stop-color="#f3c5c2"></stop><stop offset=".37" stop-color="#eca39f"></stop><stop offset=".52" stop-color="#e78984"></stop><stop offset=".67" stop-color="#e37771"></stop><stop offset=".83" stop-color="#e16c65"></stop><stop offset="1" stop-color="#e16962"></stop></linearGradient><linearGradient id="ao" x1="22.58" y1="53.7" x2="22.58" y2="63.11" xlink:href="#an"></linearGradient><linearGradient id="ap" x1="30.65" y1="54.37" x2="30.65" y2="63" xlink:href="#an"></linearGradient><linearGradient id="aq" x1="39.04" y1="53.7" x2="39.04" y2="61.39" xlink:href="#an"></linearGradient><linearGradient id="ar" x1="19.71" y1="37.29" x2="19.71" y2="49.71" gradientTransform="matrix(1, 0, 0, 1, 0, 0)" gradientUnits="userSpaceOnUse"><stop offset="0" stop-color="#fff"></stop><stop offset=".02" stop-color="#fdfcfc"></stop><stop offset=".21" stop-color="#efe1d8"></stop><stop offset=".41" stop-color="#e3ccbd"></stop><stop offset=".6" stop-color="#dbbda9"></stop><stop offset=".8" stop-color="#d6b49d"></stop><stop offset="1" stop-color="#d5b29a"></stop></linearGradient></defs><g id="a"></g><g id="b"><g id="c"><g><path class="at" d="M5.61,33.1s-1.35,2.7,.27,3.38c0,0,1.35,.68,2.3-2.16,.95-2.84-2.57-1.22-2.57-1.22Z" style="fill: #fff;"></path><path class="bt" d="M7.87,33.73c.09-.99-.19-1.38-.6-1.47,.06,.22,.08,.51,.05,.89-.27,2.98-1.74,2.63-1.74,2.63-.14-.02-.27-.07-.38-.13,.18,.35,.46,.63,.93,.71,0,0,1.47,.35,1.74-2.63Z" style="fill: #c9c7c7;"></path><path class="cl" d="M40.89,33.23s5.14-1.62,5.14,.41c0,0,.68,2.57-5.27,2.3l.14-2.7Z" style="fill: #814e54;"></path><path class="cl" d="M20.07,61.23l-.41,9.06s-1.76-1.35-3.65-.68c0,0-2.16,1.35-.41,2.97,0,0,2.84,2.03,5.95-.68l.27-10.68h-1.76Z" style="fill: #814e54;"></path><path class="bw" d="M20.64,61.23l-.25,9.84c-2.28,1.99-4.42,1.42-5.39,.98,.11,.17,.25,.35,.44,.53,0,0,2.84,2.03,5.95-.68l.27-10.68h-1.02Z" style="fill: url(#d);"></path><path class="av" d="M18.13,73.56h0c-1.55,0-2.61-.74-2.66-.78-.58-.54-.84-1.09-.79-1.66,.1-1.02,1.16-1.7,1.2-1.73,1.46-.54,2.89,.06,3.55,.44l.39-8.62c0-.13,.12-.24,.25-.24h1.76c.07,0,.13,.03,.18,.08,.05,.05,.07,.11,.07,.18l-.27,10.68c0,.07-.03,.14-.09,.18-1.12,.97-2.33,1.47-3.6,1.47Zm-2.34-1.16s.97,.66,2.34,.66c1.11,0,2.19-.43,3.19-1.27l.26-10.31h-1.26l-.4,8.82c0,.09-.06,.18-.14,.22-.09,.04-.18,.03-.26-.03-.01,0-1.08-.81-2.39-.81-.35,0-.7,.06-1.02,.17h0s-.85,.56-.92,1.33c-.04,.41,.17,.82,.6,1.23h0Z" style="fill: #491c44;"></path><path class="bl" d="M16.97,57.29s-1.76,13.25,5.81,3.24l-1.35-5.27-4.46,2.03Z" style="fill: #f9f0dd;"></path><path class="bx" d="M21.04,59.37c-.63,2.7-2.64,3.09-2.64,3.09-.53,.09-.99,.1-1.4,.05,.17,.8,.48,1.44,1,1.67,.27,.03,.57,.04,.89,.01,.72-.22,1.69-.98,2.96-2.49,.1-.28,.19-.6,.26-.95l-1.07-1.38Z" style="fill: url(#e);"></path><path class="bl" d="M25.62,57.29c.14,.54,.41,7.84,3.24,7.7,0,0,3.24,.81,3.24-5.27l-2.57-4.6-3.92,2.16Z" style="fill: #f9f0dd;"></path><path class="bi" d="M31.87,59.87c-.63,2.7-2.64,3.09-2.64,3.09-1.14,.2-2,.02-2.65-.32,.21,.6,.47,1.14,.79,1.56,.68,.42,1.6,.65,2.86,.43,0,0,.19-.04,.47-.16,.69-.61,1.31-1.85,1.38-4.31l-.22-.28Z" style="fill: url(#f);"></path><path class="av" d="M6.25,36.8c-.27,0-.45-.09-.47-.1-.39-.16-.67-.45-.82-.85-.42-1.13,.4-2.8,.43-2.87,.03-.05,.07-.09,.12-.12,.04-.02,1.06-.48,1.89-.48,.46,0,.8,.14,1,.42,.25,.35,.26,.87,.02,1.59-.66,1.99-1.55,2.4-2.17,2.4Zm-.45-3.51c-.15,.33-.67,1.58-.37,2.39,.1,.27,.28,.45,.55,.57,.05,.02,1.12,.52,1.96-2.01,.18-.54,.2-.93,.05-1.14-.1-.14-.3-.21-.59-.21-.6,0-1.36,.3-1.6,.4Z" style="fill: #491c44;"></path><path class="at" d="M12.45,35.34s-.3,3.01,1.45,3.06c0,0,1.5,.15,1.38-2.84-.13-2.99-2.83-.22-2.83-.22Z" style="fill: #fff;"></path><path class="bt" d="M15.41,35.44c-.04-.99-.37-1.34-.79-1.38,.09,.21,.15,.5,.16,.88,.13,2.99-1.38,2.84-1.38,2.84-.15,0-.27-.04-.39-.08,.22,.33,.54,.56,1.02,.58,0,0,1.5,.15,1.38-2.84Z" style="fill: #c9c7c7;"></path><path class="av" d="M13.94,38.66h0s-.05,0-.06,0c-.42-.01-.78-.18-1.06-.5-.8-.91-.62-2.75-.61-2.83,0-.06,.03-.11,.07-.15,.12-.13,1.24-1.24,2.15-1.24,.47,0,1.05,.28,1.11,1.63,.05,1.26-.17,2.16-.66,2.67-.37,.39-.78,.43-.93,.43Zm-1.25-3.2c-.02,.36-.07,1.72,.5,2.37,.19,.21,.42,.32,.72,.33l.03,.25v-.25c.07,0,.33-.02,.57-.27,.27-.28,.58-.91,.52-2.31-.05-1.15-.47-1.15-.61-1.15-.56,0-1.39,.69-1.73,1.03Z" style="fill: #491c44;"></path><path class="cl" d="M13.32,8.77s-3.11-5-.41-6.08c0,0,3.11-1.08,3.78,6.35l-3.38-.27Z" style="fill: #814e54;"></path><path class="bm" d="M12.04,3.94s2.76-.95,3.64,5.15l1.02,.08c-.68-7.43-3.78-6.35-3.78-6.35-.6,.24-.9,.68-1.03,1.21,.05-.03,.09-.06,.15-.09Z" style="fill: url(#g);"></path><path class="av" d="M16.71,9.29h-.03l-3.38-.27c-.08,0-.15-.05-.19-.12-.08-.14-2.05-3.34-1.42-5.26,.18-.56,.57-.96,1.14-1.19,.03-.01,.22-.07,.5-.07,.9,0,3.06,.64,3.62,6.56,.01,.03,.02,.06,.02,.1,0,.14-.11,.25-.25,.25Zm-3.24-.76l2.95,.24c-.69-6.71-3.42-5.85-3.43-5.84-.42,.17-.7,.46-.83,.88-.5,1.52,.98,4.17,1.31,4.73Z" style="fill: #491c44;"></path><path class="cl" d="M19.67,7.96S18.45,.39,21.16,.25c0,0,3.24-.41,2.16,7.97l-3.65-.27Z" style="fill: #814e54;"></path><path class="bv" d="M21.16,.25c-.45,.02-.78,.26-1.03,.62,.48,0,2.87,.4,2.15,7.27l1.05,.08C24.4-.15,21.16,.25,21.16,.25Z" style="fill: url(#h);"></path><path class="av" d="M23.32,8.48h-.02l-3.65-.27c-.12,0-.21-.1-.23-.21-.04-.23-.88-5.6,.57-7.39,.31-.38,.69-.58,1.15-.6,0,0,.04,0,.09,0,.24,0,.86,.07,1.44,.73,1.08,1.23,1.39,3.77,.9,7.53-.02,.12-.12,.22-.25,.22Zm-3.43-.75l3.21,.24c.53-4.34-.14-6.15-.81-6.9-.45-.52-.93-.56-1.06-.56-.37,.02-.63,.16-.85,.42-1.17,1.44-.63,5.82-.49,6.8Z" style="fill: #491c44;"></path><path class="cl" d="M24.94,8.23S26.97,.25,29.94,2.01c0,0,2.7,1.22-1.22,7.84l-3.78-1.62Z" style="fill: #814e54;"></path><path class="br" d="M29.82,2.01c-.4-.24-.79-.29-1.15-.22,.55,.49,1.71,2.27-1.34,7.51l1.28,.55c3.92-6.62,1.22-7.84,1.22-7.84Z" style="fill: url(#i);"></path><path class="av" d="M28.72,10.1s-.07,0-.1-.02l-3.78-1.62c-.11-.05-.17-.17-.14-.29,.07-.27,1.72-6.66,4.39-6.66,.33,0,.66,.1,.98,.29h0s.59,.28,.88,1.18c.34,1.07,.27,3.16-2.01,7.01-.05,.08-.13,.12-.22,.12Zm-3.49-2.02l3.38,1.45c2.07-3.56,2.15-5.45,1.85-6.41-.22-.68-.63-.88-.63-.88-.27-.16-.52-.23-.75-.23-1.82,0-3.34,4.2-3.85,6.08Z" style="fill: #491c44;"></path><path class="cl" d="M31.02,11.61s2.97-5.68,5-3.78c0,0,2.43,1.49-2.43,5.95l-2.57-2.16Z" style="fill: #814e54;"></path><path class="ch" d="M36.15,7.7c-.31-.29-.64-.39-.98-.37,.45,.57,1.01,2.18-2.46,5.46l1.01,.85c4.87-4.46,2.43-5.95,2.43-5.95Z" style="fill: url(#j);"></path><path class="av" d="M33.59,14.02c-.06,0-.11-.02-.16-.06l-2.57-2.16c-.09-.08-.11-.2-.06-.31,.09-.18,2.28-4.3,4.31-4.3,.4,0,.76,.15,1.09,.45h0s.59,.38,.68,1.26c.13,1.34-.92,3.04-3.11,5.05-.05,.04-.11,.07-.17,.07Zm-2.25-2.47l2.24,1.89c2.43-2.27,2.86-3.68,2.79-4.47-.06-.65-.47-.92-.48-.94-.27-.24-.51-.35-.78-.35-1.37,0-3.1,2.64-3.77,3.86Z" style="fill: #491c44;"></path><path class="cl" d="M35.35,15.93s4.6-4.87,5.95-2.3c0,0,1.89,2.16-4.19,5.14l-1.76-2.84Z" style="fill: #814e54;"></path><path class="cn" d="M41.3,13.51c-.31-.58-.78-.77-1.33-.73,.02,.04,.05,.06,.08,.11,0,0,1.73,2-3.54,4.8l.6,.97c6.08-2.97,4.19-5.14,4.19-5.14Z" style="fill: url(#k);"></path><path class="av" d="M37.11,19.02c-.08,0-.17-.04-.21-.12l-1.76-2.84c-.06-.1-.05-.22,.03-.3,.12-.13,2.97-3.12,4.93-3.12,.63,0,1.12,.3,1.42,.88h0s.44,.53,.27,1.4c-.27,1.36-1.81,2.73-4.57,4.07-.04,.02-.07,.03-.11,.03Zm-1.44-3.05l1.53,2.48c3.07-1.54,3.92-2.81,4.09-3.61,.14-.65-.17-1.03-.18-1.04-.25-.46-.57-.66-1.01-.66-1.52,0-3.85,2.25-4.43,2.83Z" style="fill: #491c44;"></path><path class="cl" d="M33.6,60.98l1.58,8.93s-2.01-.94-3.71,.14c0,0-1.82,1.79,.25,2.99,0,0,3.21,1.36,5.66-1.96l-2.06-10.48-1.71,.38Z" style="fill: #814e54;"></path><path class="b`" d="M35.48,60.76l-1.34,.3,1.9,9.68c-1.53,2.07-3.36,2.32-4.52,2.21,.1,.08,.22,.17,.36,.24,0,0,3.21,1.36,5.66-1.96l-2.06-10.48Z"></path><path class="av" d="M33.31,73.56c-.98,0-1.66-.28-1.69-.3-.69-.4-1.06-.88-1.13-1.45-.13-1.02,.76-1.91,.8-1.95,.62-.4,1.3-.59,2.04-.59,.62,0,1.16,.13,1.52,.24l-1.5-8.5c-.02-.13,.06-.26,.19-.29l1.71-.38c.07-.01,.14,0,.19,.03,.06,.04,.1,.1,.11,.16l2.06,10.48c.01,.07,0,.14-.04,.2-1.42,1.93-3.1,2.33-4.26,2.33Zm-1.47-.74s.61,.24,1.47,.24c1.03,0,2.51-.36,3.8-2.04l-1.99-10.12-1.23,.27,1.54,8.69c.02,.09-.02,.18-.09,.24-.07,.06-.17,.07-.26,.03,0,0-.78-.36-1.74-.36-.65,0-1.23,.16-1.73,.48h0s-.71,.74-.61,1.5c.05,.41,.34,.77,.86,1.07h0Z" style="fill: #491c44;"></path><path class="cl" d="M38.46,20.93s4.87-3.24,5.81-.95c0,0,1.49,3.11-4.73,3.92l-1.08-2.97Z" style="fill: #814e54;"></path><path class="bg" d="M44.64,19.99c-.23-.56-.7-.79-1.28-.82,.18,.75,.18,2.68-3.92,3.46l.46,1.28c6.22-.81,4.73-3.92,4.73-3.92Z" style="fill: url(#m);"></path><path class="av" d="M39.54,24.16c-.1,0-.2-.06-.23-.16l-1.08-2.97c-.04-.11,0-.23,.1-.29,.11-.07,2.74-1.81,4.56-1.81,1.01,0,1.44,.53,1.62,.98,.01,.03,.45,.97-.11,2-.64,1.17-2.26,1.93-4.82,2.27-.01,0-.02,0-.03,0Zm-.78-3.12l.94,2.6c2.83-.4,3.87-1.29,4.24-1.98,.44-.8,.11-1.53,.09-1.56-.19-.46-.57-.68-1.16-.68-1.43,0-3.52,1.25-4.12,1.62Z" style="fill: #491c44;"></path><path class="av" d="M18.43,64.52h0c-.4,0-.75-.16-1.03-.48-1.36-1.55-.71-6.57-.68-6.78,.01-.09,.07-.16,.14-.19l4.46-2.03c.07-.03,.14-.03,.21,0,.07,.03,.12,.09,.13,.16l1.35,5.27c.02,.07,0,.15-.04,.21-1.95,2.58-3.44,3.84-4.55,3.84Zm-1.23-7.06c-.18,1.49-.39,5.14,.58,6.25,.18,.21,.4,.31,.65,.31h0c.63,0,1.85-.62,4.08-3.54l-1.25-4.87-4.06,1.85Z" style="fill: #491c44;"></path><path class="av" d="M29.23,65.28c-.19,0-.33-.02-.39-.04h-.05c-2.59,0-3.14-5.32-3.34-7.32-.03-.26-.05-.51-.07-.57-.03-.11,.02-.22,.12-.28l3.92-2.16c.12-.07,.27-.02,.34,.1l2.57,4.6s.03,.08,.03,.12c0,5.02-2.18,5.56-3.12,5.56Zm-.37-.54s.04,0,.06,0c0,0,.12,.03,.31,.03,.78,0,2.61-.49,2.62-4.99l-2.42-4.32-3.55,1.96c.01,.11,.03,.25,.05,.45,.17,1.7,.7,6.87,2.84,6.87h.08Z" style="fill: #491c44;"></path><path class="bl" d="M35.62,56.75l-.81,4.87s.81,3.51,4.6,2.84c0,0,2.16-.41,2.7-3.38l-4.19-5.41-2.3,1.08Z" style="fill: #f9f0dd;"></path><path class="cc" d="M41.04,59.87c-.63,2.7-2.64,3.09-2.64,3.09-1.74,.31-2.84-.27-3.54-.98,.23,.72,1.29,3.22,4.54,2.64,0,0,2.16-.41,2.7-3.38l-1.07-1.38Z" style="fill: url(#n);"></path><path class="av" d="M38.47,64.79h0c-3.15,0-3.9-3.09-3.91-3.12,0-.03,0-.07,0-.1l.81-4.87c.01-.08,.07-.15,.14-.19l2.3-1.08c.1-.05,.23-.02,.3,.07l4.19,5.41c.04,.06,.06,.13,.05,.2-.56,3.11-2.81,3.56-2.9,3.58-.34,.06-.66,.09-.97,.09Zm-3.41-3.19c.1,.37,.83,2.68,3.41,2.69h0c.28,0,.58-.03,.88-.08,.08-.02,1.95-.41,2.48-3.07l-4-5.16-2,.94-.78,4.68Z" style="fill: #491c44;"></path><path class="cl" d="M40.35,26.61s4.33-1.62,4.87,.27c0,0,1.08,2.43-5.14,2.97l.27-3.24Z" style="fill: #814e54;"></path><path class="ci" d="M45.34,26.88c-.11-.38-.37-.61-.71-.75,.11,.47,.17,2.17-4.34,2.75l-.08,.97c6.22-.54,5.14-2.97,5.14-2.97Z" style="fill: url(#o);"></path><path class="bk" d="M46.19,33.63c-.07-.38-.31-.64-.64-.81,.07,.48-.04,2.18-4.59,2.32l-.17,.96c6.24,.06,5.4-2.46,5.4-2.46Z" style="fill: url(#p);"></path><path class="av" d="M40.08,30.1c-.07,0-.13-.03-.18-.07-.05-.05-.08-.12-.07-.2l.27-3.24c0-.1,.07-.18,.16-.21,.07-.03,1.78-.66,3.22-.66s1.83,.6,1.97,1.1h0s.26,.61-.16,1.32c-.63,1.06-2.38,1.73-5.2,1.97h-.02Zm.51-3.31l-.23,2.79c3.08-.31,4.16-1.09,4.52-1.7,.29-.48,.12-.89,.12-.9-.15-.52-.65-.77-1.5-.77-1.11,0-2.46,.43-2.9,.58Z" style="fill: #491c44;"></path><path class="av" d="M41.6,36.21c-.27,0-.55,0-.85-.02-.07,0-.13-.03-.17-.08-.04-.05-.07-.11-.06-.18l.14-2.7c0-.1,.07-.19,.17-.23,.08-.03,2-.63,3.52-.63s1.93,.67,1.94,1.24c.03,.15,.1,.72-.34,1.3-.66,.86-2.12,1.3-4.34,1.3Zm-.58-.51c2.95,.09,4.09-.55,4.51-1.08,.36-.46,.26-.89,.26-.91,0-.25,0-.83-1.45-.83-1.19,0-2.7,.41-3.2,.55l-.11,2.27Z" style="fill: #491c44;"></path><path class="cl" d="M41.3,39.04s4.46-1.08,4.46,1.08c0,0,0,2.16-4.73,1.49l.27-2.57Z" style="fill: #814e54;"></path><path class="ck" d="M45.16,38.91c.06,.14,.1,.29,.1,.47,0,0,0,1.94-4.05,1.56l-.06,.55c4.73,.68,4.73-1.49,4.73-1.49,0-.55-.29-.89-.72-1.09Z" style="fill: url(#q);"></path><path class="av" d="M42.7,41.99c-.51,0-1.09-.04-1.71-.13-.13-.02-.23-.14-.21-.27l.27-2.57c.01-.11,.09-.19,.19-.22,.05-.01,1.16-.28,2.29-.28,2.05,0,2.48,.87,2.48,1.6,0,.08-.04,1.87-3.31,1.87Zm-1.4-.6c.5,.06,.97,.1,1.4,.1,2.74,0,2.81-1.31,2.81-1.37,0-.73-.67-1.1-1.98-1.1-.82,0-1.65,.15-2,.23l-.23,2.15Z" style="fill: #491c44;"></path><path class="bq" d="M16.97,48.1s-6.35,9.73-2.84,12.57c0,0,4.33,2.57,7.97-8.65l-5.14-3.92Z" style="fill: #e16962;"></path><path class="aw" d="M20.72,50.97c-3.56,9.93-7.59,7.54-7.59,7.54-.02-.01-.03-.03-.04-.04,.07,.9,.38,1.68,1.04,2.21,0,0,4.33,2.57,7.97-8.65l-1.38-1.05Z" style="fill: url(#r);"></path><path class="av" d="M15.25,61.17h0c-.76,0-1.23-.28-1.25-.29-3.68-2.97,2.49-12.52,2.76-12.92,.04-.06,.1-.1,.17-.11,.07-.01,.14,0,.19,.05l5.14,3.92c.08,.06,.12,.18,.09,.28-2.57,7.9-5.54,9.08-7.09,9.08Zm-.97-.7s4.04,2.21,7.53-8.36l-4.78-3.65c-.91,1.47-5.76,9.58-2.75,12.01h0Z" style="fill: #491c44;"></path><path class="bq" d="M28.86,52.02s-.14,12.57,5.14,12.03c0,0,4.73-.41,2.7-12.43l-7.84,.41Z" style="fill: #e16962;"></path><path class="cb" d="M36.53,51.61l-1.91,.1c1.29,10.3-2.96,10.67-2.96,10.67-.32,.03-.61,.02-.89-.04,.73,1.13,1.72,1.85,3.06,1.71,0,0,4.73-.41,2.7-12.43Z" style="fill: url(#s);"></path><path class="av" d="M33.67,64.32c-.86,0-1.63-.34-2.28-1-2.83-2.86-2.78-10.95-2.78-11.3,0-.13,.11-.24,.24-.25l7.84-.41c.11-.02,.24,.08,.26,.21,1.16,6.9,.1,10.04-1,11.46-.91,1.17-1.89,1.27-1.93,1.27-.12,.01-.23,.02-.35,.02Zm-4.56-12.06c.01,1.36,.2,8.25,2.63,10.71,.64,.65,1.36,.93,2.23,.84,.04,0,.83-.1,1.6-1.1,1.01-1.33,1.99-4.28,.92-10.82l-7.38,.38Z" style="fill: #491c44;"></path><path class="bq" d="M41.57,48.51s5.95,11.62,1.89,13.79c0,0-4.05,1.89-7.57-10.14l5.68-3.65Z" style="fill: #e16962;"></path><path class="as" d="M41.73,48.51l-1.31,.84c1.48,3.37,4.08,10.32,1.03,11.95,0,0-.27,.12-.72,.11,1.67,1.46,2.89,.89,2.89,.89,4.05-2.16-1.89-13.79-1.89-13.79Z" style="fill: url(#t);"></path><path class="av" d="M42.82,62.65c-1.54,0-4.53-1.35-7.18-10.42-.03-.11,.01-.22,.1-.28l5.68-3.65c.06-.04,.13-.05,.2-.03,.07,.02,.13,.06,.16,.13,.25,.48,6.01,11.87,1.79,14.12-.04,.02-.31,.14-.75,.14Zm-6.64-10.39c2.64,8.92,5.52,9.89,6.64,9.89,.33,0,.53-.08,.53-.09,3.47-1.85-1.07-11.52-1.89-13.2l-5.28,3.4Z" style="fill: #491c44;"></path><path class="bq" d="M22.91,51.21c-1.2-.16-2.52,5.85-2.57,6.58-.4,5.86,2.77,7.84,5.55,5.35,2.29-2.05,2.86-7.91,2.97-11.11,0,0-5.94-.81-5.95-.81Z" style="fill: #e16962;"></path><path class="bc" d="M27.26,51.97c-.25,3.26-.95,7.61-2.87,9.33-1.24,1.11-2.56,1.33-3.6,.71,.94,2.56,3.12,3.06,5.1,1.29,2.29-2.05,2.86-7.91,2.97-11.11,0,0-.69-.09-1.6-.22Z" style="fill: url(#u);"></path><path class="av" d="M23.52,64.44h0c-.77,0-1.48-.32-2.04-.93-1.07-1.14-1.56-3.18-1.38-5.74,.02-.37,1.24-6.81,2.78-6.81,.01,0,.07,0,.08,0,0,0,5.95,.81,5.95,.81,.13,.02,.22,.13,.22,.26-.12,3.3-.67,9.15-3.05,11.29-.82,.73-1.7,1.12-2.54,1.12Zm-.64-12.98c-.85,0-2.21,5.23-2.29,6.34-.17,2.42,.28,4.33,1.25,5.36,.47,.5,1.05,.77,1.68,.77h0c.72,0,1.48-.34,2.21-.99,2.26-2.03,2.77-7.99,2.88-10.71l-5.72-.78h0Z" style="fill: #491c44;"></path><path class="cl" d="M16.7,43.77l-6.62,1.76s-3.51-3.65-4.05-2.43c0,0-.81,1.08,2.16,3.24-.78-.56-4.31-.38-3.74,1.21,.38,1.06,3.24,.29,3.88,.15,0,0-3.11,2.43-1.22,3.38,0,0,.81,.95,2.3-2.84l3.51-1.22s1.35,1.76,1.49-.27l2.7-.68-.41-2.3Z" style="fill: #814e54;"></path><path class="be" d="M9.4,47.11c-1.49,3.78-2.3,2.84-2.3,2.84-.18-.09-.31-.2-.4-.31-.31,.59-.34,1.19,.4,1.56,0,0,.81,.95,2.3-2.84l3.51-1.22s1.35,1.76,1.49-.27l2.7-.68-.21-1.2-7.49,2.11Z" style="fill: url(#v);"></path><path class="av" d="M7.37,51.43c-.18,0-.33-.07-.41-.15-.53-.28-.68-.67-.71-.94-.08-.75,.61-1.61,1.19-2.19-.51,.1-1.13,.2-1.69,.2-.86,0-1.37-.24-1.54-.72-.13-.36-.09-.71,.11-.99,.5-.7,1.85-.89,2.8-.83-.86-.76-1.34-1.46-1.43-2.1-.07-.48,.11-.74,.13-.77,.09-.21,.31-.35,.59-.35,1.06,0,3.19,2.1,3.74,2.65l6.48-1.72c.07-.02,.14,0,.2,.03,.06,.04,.1,.1,.11,.17l.41,2.3c.02,.13-.06,.25-.19,.29l-2.53,.63c-.08,.68-.33,1.03-.74,1.03h0c-.42,0-.85-.42-1.06-.66l-3.24,1.12c-.8,2.02-1.53,2.99-2.22,2.99Zm-.08-.52s.03,.02,.08,.02c.12,0,.76-.13,1.8-2.78,.03-.07,.08-.12,.15-.15l3.51-1.22c.1-.04,.21,0,.28,.08,.19,.25,.57,.61,.78,.61,.13,0,.23-.29,.26-.74,0-.11,.08-.2,.19-.23l2.48-.62-.32-1.8-6.36,1.69c-.09,.02-.18,0-.24-.07-.97-1.01-2.77-2.6-3.48-2.6-.1,0-.14,.03-.17,.1-.03,.05-.59,.99,2.08,2.94,.11,.08,.14,.24,.06,.35-.08,.11-.24,.14-.35,.06h0c-.17-.12-.62-.24-1.27-.24-.96,0-1.78,.25-2.04,.63-.11,.15-.12,.32-.05,.54,.11,.32,.65,.38,1.07,.38,.81,0,1.82-.24,2.31-.35l.21-.05c.12-.02,.23,.03,.28,.14s.02,.23-.07,.3c-.51,.4-1.81,1.6-1.73,2.4,.02,.23,.18,.42,.47,.56,.03,.02,.06,.04,.08,.06h0Z" style="fill: #491c44;"></path><path class="cl" d="M41.14,43.37l6.62,1.76s3.51-3.65,4.05-2.43c0,0,.81,1.08-2.16,3.24,.78-.56,4.31-.38,3.74,1.21-.38,1.06-3.24,.29-3.88,.15,0,0,3.11,2.43,1.22,3.38,0,0-.81,.95-2.3-2.84l-3.51-1.22s-1.35,1.76-1.49-.27l-2.7-.68,.41-2.3Z" style="fill: #814e54;"></path><path class="cf" d="M51.11,49.42s-.81,.95-2.3-2.84l-7.7-2.16,.2-1.13-.17-.04-.41,2.3,2.7,.68c.14,2.03,1.49,.27,1.49,.27l3.51,1.22c1.49,3.78,2.3,2.84,2.3,2.84,.6-.3,.7-.76,.54-1.23-.05,.04-.1,.08-.17,.11Z" style="fill: url(#w);"></path><path class="av" d="M50.47,51.02c-.69,0-1.42-.98-2.22-2.99l-3.24-1.12c-.21,.24-.64,.66-1.06,.66s-.67-.35-.74-1.03l-2.53-.63c-.13-.03-.21-.16-.19-.29l.41-2.3c.01-.07,.05-.13,.11-.17,.06-.04,.13-.05,.2-.03l6.48,1.72c.54-.55,2.68-2.65,3.74-2.65,.29,0,.51,.14,.62,.4h0s.18,.26,.11,.72c-.1,.63-.58,1.34-1.43,2.1,.96-.06,2.31,.12,2.8,.83,.2,.29,.24,.63,.11,.99-.17,.48-.69,.72-1.54,.72-.56,0-1.17-.1-1.69-.2,.58,.58,1.27,1.43,1.19,2.19-.03,.28-.17,.66-.71,.94-.09,.08-.23,.15-.41,.15Zm-5.55-4.66s.06,0,.08,.01l3.51,1.22c.07,.02,.12,.08,.15,.14,1.04,2.65,1.68,2.78,1.8,2.78,.05,0,.08-.02,.08-.03,.02-.03,.04-.04,.07-.05,.29-.15,.45-.33,.47-.56,.08-.79-1.22-2-1.73-2.4-.09-.07-.12-.2-.07-.3,.05-.11,.17-.16,.28-.14l.21,.05c.49,.11,1.5,.35,2.3,.35,.43,0,.96-.07,1.07-.38,.08-.21,.06-.38-.05-.54-.27-.38-1.09-.63-2.04-.63-.65,0-1.1,.12-1.27,.24-.11,.08-.27,.06-.35-.06-.08-.11-.06-.27,.06-.35,2.67-1.95,2.11-2.89,2.1-2.9-.05-.11-.09-.14-.19-.14-.71,0-2.51,1.6-3.48,2.6-.06,.07-.16,.09-.24,.07l-6.36-1.69-.32,1.8,2.48,.62c.11,.03,.18,.12,.19,.23,.03,.45,.13,.74,.26,.74,.21,0,.59-.36,.78-.61,.05-.06,.12-.1,.2-.1Z" style="fill: #491c44;"></path><path class="cd" d="M17.1,36.48s-22.98,.27-15.27-17.03c0,0,7.16-14.19,21.22-12.84,0,0,16.76,.41,18.52,25.95,0,0,.68,10.41,.68,14.73,0,0,1.08,6.22-6.08,6.08,0,0-14.33,1.08-17.84-1.89,0,0-2.3-.81-1.76-5.81l.54-9.19Z" style="fill: #d5b29a;"></path><path class="c`" d="M42.24,47.12c0-4.33-.68-14.73-.68-14.73-1.05-15.26-7.45-21.55-12.44-24.14,3.98,3.57,7.81,9.96,8.61,21.47,0,0,.68,10.41,.68,14.73,0,0,1.08,6.22-6.08,6.08,0,0-9.99,.75-15.33-.73,.54,1.22,1.32,1.51,1.32,1.51,3.51,2.97,17.84,1.89,17.84,1.89,7.16,.14,6.08-6.08,6.08-6.08Z"></path><path class="av" d="M30.42,53.81c-4.42,0-10.11-.37-12.23-2.12-.35-.15-2.39-1.25-1.87-6.06l.52-8.91c-1.89-.02-11.81-.42-15.48-6.08-1.88-2.9-1.8-6.7,.25-11.3,.07-.14,6.75-13.08,19.57-13.08,.62,0,1.26,.03,1.9,.09,.15,0,16.99,.7,18.74,26.18,0,.11,.68,10.47,.68,14.75,.01,.06,.43,2.59-1.13,4.46-1.05,1.25-2.72,1.88-4.97,1.88h-.23s-2.56,.19-5.74,.19ZM21.17,6.76C8.65,6.76,2.12,19.43,2.05,19.56,.08,23.98-.01,27.62,1.77,30.37c3.7,5.69,14.09,5.86,15.27,5.86,.07,0,.17,.03,.21,.08,.05,.05,.1,.12,.1,.19l-.54,9.19c-.51,4.72,1.57,5.55,1.59,5.56,.03,0,.05,.03,.08,.04,3.41,2.89,17.6,1.84,17.66,1.83h.25c2.09,0,3.64-.57,4.58-1.69,1.42-1.68,1.03-4.07,1.02-4.1,0-4.31-.67-14.66-.68-14.76C39.6,7.57,23.21,6.86,23.04,6.86c-.64-.06-1.26-.09-1.87-.09Z" style="fill: #491c44;"></path><path class="ay" d="M19.32,23.08c0,3.51-2.84,6.35-6.35,6.35s-6.35-2.84-6.35-6.35,2.84-6.35,6.35-6.35,6.35,2.84,6.35,6.35Z" style="fill: url(#y);"></path><path class="at" d="M18.32,21.74c0,3.51-2.84,6.35-6.35,6.35s-6.35-2.84-6.35-6.35,2.84-6.35,6.35-6.35,6.35,2.84,6.35,6.35Z" style="fill: #fff;"></path><path class="av" d="M15.7,20.4c-.04-.1-.14-.17-.25-.16-.11,0-.2,.09-.22,.2-.17,.9-.95,1.55-1.86,1.55-1.04,0-1.89-.85-1.89-1.89,0-.8,.51-1.51,1.27-1.78,.1-.04,.17-.14,.16-.25,0-.11-.09-.2-.2-.22-2.54-.48-4.71,1.47-4.71,3.9,0,2.19,1.78,3.97,3.97,3.97s3.97-1.78,3.97-3.97c0-.45-.08-.9-.24-1.34Z" style="fill: #491c44;"></path><path class="at" d="M8.4,21.04s-.05,.34,.03,.84c.04,.25,.12,.53,.24,.81,.07,.14,.14,.28,.23,.41,.08,.14,.2,.25,.3,.38,.11,.11,.24,.22,.36,.32,.13,.08,.26,.17,.39,.25l.39,.18c.13,.05,.26,.08,.37,.12,.22,.09,.43,.1,.57,.13l.22,.04h.03c.18,.04,.3,.22,.27,.4-.04,.18-.21,.3-.4,.27-.01,0-.03,0-.04-.01l-.24-.08c-.15-.06-.37-.1-.61-.23-.12-.06-.26-.12-.39-.19l-.41-.26c-.14-.1-.27-.22-.4-.33-.12-.13-.25-.26-.35-.4-.1-.15-.21-.29-.28-.45-.08-.15-.14-.32-.19-.47-.1-.32-.14-.62-.15-.88-.02-.52,.07-.85,.07-.85Z" style="fill: #fff;"></path><circle class="bf" cx="28.54" cy="24.53" r="7.3" transform="translate(-8.99 27.37) rotate(-45)" style="fill: url(#a`);"></circle><circle class="at" cx="27.37" cy="23.37" r="7.3" transform="translate(-.08 46.63) rotate(-80.76)" style="fill: #fff;"></circle><path class="bt" d="M31.01,17.04c1.14,1.29,1.83,2.97,1.83,4.82,0,4.03-3.27,7.3-7.3,7.3-1.32,0-2.56-.36-3.63-.98,1.34,1.51,3.29,2.48,5.47,2.48,4.03,0,7.3-3.27,7.3-7.3,0-2.71-1.48-5.06-3.66-6.32Z" style="fill: #c9c7c7;"></path><path class="bt" d="M14.68,16.11c1.11,.99,1.88,2.36,2.05,3.93,.37,3.43-2.21,6.52-5.75,6.9-1.16,.12-2.28-.06-3.28-.49,1.31,1.16,3.11,1.8,5.03,1.59,3.54-.38,6.11-3.47,5.75-6.9-.25-2.3-1.76-4.17-3.79-5.04Z" style="fill: #c9c7c7;"></path><path class="av" d="M31.66,21.82c-.04-.12-.16-.19-.29-.18-.13,.01-.23,.1-.25,.23-.19,1.03-1.09,1.78-2.13,1.78-1.2,0-2.18-.98-2.18-2.18,0-.92,.59-1.74,1.46-2.04,.12-.04,.2-.16,.19-.29,0-.13-.1-.23-.23-.25-2.92-.55-5.42,1.69-5.42,4.48,0,2.52,2.05,4.56,4.56,4.56s4.56-2.05,4.56-4.56c0-.52-.09-1.04-.27-1.54Z" style="fill: #491c44;"></path><path class="at" d="M23.27,22.56s-.06,.39,.04,.97c.04,.29,.14,.61,.28,.93,.08,.16,.16,.32,.27,.47,.09,.16,.23,.29,.34,.43,.13,.13,.27,.25,.41,.36,.15,.1,.3,.2,.45,.28l.45,.21c.15,.05,.29,.1,.42,.14,.26,.1,.5,.11,.65,.15l.25,.05h.04c.21,.05,.35,.25,.31,.46-.04,.21-.25,.35-.46,.31-.01,0-.03,0-.05-.01l-.27-.09c-.17-.07-.42-.11-.7-.26-.14-.07-.29-.13-.45-.21l-.47-.3c-.16-.12-.31-.25-.46-.38-.14-.15-.28-.3-.41-.46-.11-.17-.24-.34-.32-.52-.1-.18-.16-.36-.22-.54-.11-.36-.17-.71-.17-1.01-.03-.6,.08-.98,.08-.98Z" style="fill: #fff;"></path><path class="av" d="M18.14,36.81c-1.02,0-2.03-.06-2.97-.22-.14-.02-.23-.15-.21-.29,.02-.14,.15-.23,.29-.21,4.76,.79,11.72-.93,11.79-.94,.13-.03,.27,.05,.3,.18,.03,.13-.05,.27-.18,.3-.23,.06-4.74,1.17-9.02,1.17Z" style="fill: #491c44;"></path><path class="av" d="M26.56,37.81c-.05,0-.1-.02-.15-.05-.11-.08-.13-.24-.05-.35,.61-.82,.84-1.52,.66-2.07-.16-.52-.66-.92-1.47-1.19l.14-.48-.08,.24,.1-.23c.98,.32,1.58,.83,1.79,1.51,.22,.72-.02,1.56-.74,2.52-.05,.07-.12,.1-.2,.1Z" style="fill: #491c44;"></path><path class="av" d="M11.97,28.35c-3.64,0-6.6-2.96-6.6-6.6s2.96-6.6,6.6-6.6,6.6,2.96,6.6,6.6-2.96,6.6-6.6,6.6Zm0-12.71c-3.36,0-6.1,2.74-6.1,6.1s2.74,6.1,6.1,6.1,6.1-2.74,6.1-6.1-2.74-6.1-6.1-6.1Z" style="fill: #491c44;"></path><path class="av" d="M27.37,30.91c-4.16,0-7.55-3.39-7.55-7.55s3.39-7.55,7.55-7.55,7.55,3.39,7.55,7.55-3.39,7.55-7.55,7.55Zm0-14.6c-3.89,0-7.05,3.16-7.05,7.05s3.16,7.05,7.05,7.05,7.05-3.16,7.05-7.05-3.16-7.05-7.05-7.05Z" style="fill: #491c44;"></path><path class="ca" d="M16.25,8.27S1.83,12.62,1.33,26.12c0,0,.5,4.5,4.67,6.17,0,0-9.15-13.38,10.26-24.02Z" style="fill: url(#aa);"></path><path class="bo" d="M24.83,34.29s-5.55,1.25-9.58,1.25v.02c2.66,.24,6.67,.32,10.25-.78l-.67-.5Z" style="fill: url(#ab);"></path><path class="ce" d="M13.31,5.54c.2,.64,.18,1.21-.04,1.28-.22,.07-.56-.39-.75-1.03-.2-.64-.18-1.21,.04-1.28,.22-.07,.56,.39,.75,1.03Z" style="fill: url(#ac);"></path><path class="bn" d="M20.91,2.79c-.06,.66-.3,1.19-.53,1.16-.23-.02-.36-.58-.3-1.24,.06-.66,.3-1.19,.53-1.16,.23,.02,.36,.58,.3,1.24Z" style="fill: url(#ad);"></path><path class="bj" d="M28.32,3.89c-.33,.58-.75,.96-.95,.85-.19-.11-.08-.67,.25-1.25,.33-.58,.75-.96,.95-.85,.19,.11,.08,.67-.25,1.25Z" style="fill: url(#ae);"></path><path class="ba" d="M34.39,9.21c-.42,.38-.86,.57-.99,.43s.11-.56,.53-.94c.42-.38,.86-.57,.99-.43,.13,.14-.11,.56-.53,.94Z" style="fill: url(#af);"></path><path class="cm" d="M39.01,14.49c-.48,.3-.95,.41-1.05,.26-.1-.16,.21-.53,.69-.83,.48-.3,.95-.41,1.05-.26,.1,.16-.21,.53-.69,.83Z" style="fill: url(#ag);"></path><path class="bd" d="M42.5,20.45c-.54,.15-1.03,.12-1.07-.06-.05-.18,.35-.45,.9-.59,.55-.15,1.03-.12,1.08,.06s-.35,.45-.9,.59Z" style="fill: url(#ah);"></path><path class="ax" d="M43.41,27.13c-.56,0-1.02-.16-1.02-.34,0-.19,.46-.34,1.02-.33,.56,0,1.02,.16,1.02,.34,0,.19-.46,.34-1.02,.33Z" style="fill: url(#ai);"></path><path class="bs" d="M44.16,33.71c-.56,0-1.02-.16-1.02-.34,0-.19,.46-.34,1.02-.33,.56,0,1.02,.16,1.02,.34,0,.19-.46,.34-1.02,.33Z" style="fill: url(#aj);"></path><path class="bp" d="M43.83,39.96c-.56,0-1.02-.16-1.02-.34,0-.19,.46-.34,1.02-.33s1.02,.16,1.02,.34c0,.19-.46,.34-1.02,.33Z" style="fill: url(#ak);"></path><path class="cg" d="M17.33,69.97c.75,0,1.36,.26,1.36,.58,0,.31-.61,.56-1.36,.56-.75,0-1.36-.26-1.36-.58,0-.31,.61-.56,1.36-.56Z" style="fill: url(#al);"></path><path class="by" d="M32.54,70.17c.7-.27,1.36-.24,1.47,.05,.11,.29-.37,.75-1.07,1.01s-1.36,.24-1.47-.05c-.11-.29,.37-.75,1.07-1.01Z" style="fill: url(#am);"></path><path class="at" d="M5.25,47.45s-.03-.04-.06-.12c-.02-.08-.05-.23,.05-.36,.03-.08,.11-.12,.18-.18,.07-.06,.15-.12,.24-.13,.18-.05,.37-.12,.56-.12,.19,0,.39-.02,.57-.01,.18,.02,.34,.05,.48,.07,.28,.05,.47,.1,.47,.1,0,0-.19,.02-.47,.04-.28,0-.65,0-1.02,.05-.19-.01-.35,.05-.52,.08-.09,.01-.15,.04-.22,.08-.06,.03-.14,.05-.17,.11-.03,.05-.09,.08-.09,.14-.01,.05-.04,.1-.03,.13,0,.08,.01,.13,.01,.13Z" style="fill: #fff;"></path><path class="at" d="M6.58,43.62s.01-.06,.1-.08c.09-.03,.22,0,.35,.04,.28,.1,.59,.33,.88,.57,.28,.25,.54,.52,.72,.75,.18,.22,.28,.38,.28,.38,0,0-.16-.11-.38-.28-.21-.18-.5-.42-.78-.66-.27-.25-.56-.48-.78-.63-.11-.07-.21-.14-.29-.13-.08-.02-.11,.04-.11,.04Z" style="fill: #fff;"></path><path class="at" d="M48.5,45.29s.12-.2,.33-.47c.21-.27,.53-.61,.87-.92,.35-.29,.74-.57,1.09-.67,.17-.06,.34-.03,.43,.02,.08,.08,.11,.12,.11,.12l-.13-.08c-.1-.02-.22,0-.37,.08-.29,.15-.64,.43-.97,.73-.34,.29-.67,.6-.93,.82-.26,.22-.44,.37-.44,.37Z" style="fill: #fff;"></path><path class="at" d="M50,46.54s.18-.08,.46-.15c.28-.08,.66-.13,1.05-.12,.39,.02,.8,.12,1.03,.34,.12,.1,.17,.23,.19,.31l.03,.13s-.07-.2-.3-.33c-.22-.13-.58-.2-.95-.2-.37-.02-.74,0-1.02,.01-.29,0-.48,.02-.48,.02Z" style="fill: #fff;"></path><path class="cj" d="M17.66,52.12s-.92-.75-1.17-1.75c0,0-1.58,2.25-2.67,6.5,0,0,2.25-3.75,3.83-4.75Z" style="fill: url(#an);"></path><path class="bh" d="M22.33,53.7s-2,2.83-.92,7.33l.03,.11s.04-.03,.05-.04c.03-.02,.06-.03,.09-.04,.06-1.1,.45-5.64,2.49-7.03l-1.75-.33Z" style="fill: url(#ao);"></path><path class="au" d="M31.5,54.45l-1.67-.08s-.25,2.75,1.33,6.83c0,0-.58-4.33,.33-6.75Z" style="fill: url(#ap);"></path><path class="bb" d="M39.08,53.7l-1.58,.33s.17,2.42,3.08,5.75c0,0-1.42-3.08-1.5-6.08Z" style="fill: url(#aq);"></path><path class="bu" d="M22,37.29s-2.5,.5-3.83,.17c0,0-1,7.67-.67,9.67,0,0,1.58-8.92,4.5-9.83Z" style="fill: url(#ar);"></path></g></g></g></svg>