<svg xmlns="http://www.w3.org/2000/svg" xmlns:xlink="http://www.w3.org/1999/xlink" viewBox="0 0 111.29 73.97"><defs><style>.u{fill:url(#t);}.v{fill:#fff;}.w{fill:#491c44;}.x{fill:url(#r);}.y{fill:#d1d1d1;}.a`{fill:url(#l);}.aa{fill:#c7e4f8;}.ab{fill:url(#m);}.ac{fill:url(#f);}.ad{fill:url(#p);}.ae{fill:#f9f0dd;}.af{fill:url(#g);}.ag{fill:url(#i);}.ah{fill:url(#h);}.ai{fill:url(#d);}.aj{fill:url(#e);}.ak{fill:#f1b2cc;}.al{fill:url(#s);}.am{fill:url(#n);}.an{fill:#d5b29a;}.ao{fill:url(#j);}.ap{fill:url(#o);}.aq{fill:url(#q);}.ar{fill:#814e54;}.as{fill:url(#k);}</style><linearGradient id="d" x1="57.16" y1=".25" x2="57.16" y2="14.77" gradientTransform="matrix(1, 0, 0, 1, 0, 0)" gradientUnits="userSpaceOnUse"><stop offset="0" stop-color="#f9f0dd"></stop><stop offset=".17" stop-color="#f9ebd8"></stop><stop offset=".36" stop-color="#f9dfca"></stop><stop offset=".56" stop-color="#fbcbb3"></stop><stop offset=".78" stop-color="#fcaf92"></stop><stop offset="1" stop-color="#fe8b69"></stop><stop offset="1" stop-color="#ff8b69"></stop></linearGradient><linearGradient id="e" x1="16.02" y1="14.62" x2="16.02" y2="51.45" gradientTransform="matrix(1, 0, 0, 1, 0, 0)" gradientUnits="userSpaceOnUse"><stop offset="0" stop-color="#c7e4f8"></stop><stop offset=".19" stop-color="#c3e2f7"></stop><stop offset=".34" stop-color="#badef4"></stop><stop offset=".47" stop-color="#aad7ee"></stop><stop offset=".59" stop-color="#93cce7"></stop><stop offset=".7" stop-color="#75bfde"></stop><stop offset=".81" stop-color="#51afd2"></stop><stop offset=".92" stop-color="#279cc5"></stop><stop offset="1" stop-color="#008bb9"></stop></linearGradient><linearGradient id="f" x1="96.91" y1="14.68" x2="96.91" y2="51.45" xlink:href="#e"></linearGradient><linearGradient id="g" x1="45.34" y1="57.8" x2="45.34" y2="73.47" gradientTransform="matrix(1, 0, 0, 1, 0, 0)" gradientUnits="userSpaceOnUse"><stop offset="0" stop-color="#d5b29a"></stop><stop offset=".19" stop-color="#d5ad92"></stop><stop offset=".48" stop-color="#d5a17d"></stop><stop offset=".84" stop-color="#d58d5c"></stop><stop offset="1" stop-color="#d5834a"></stop></linearGradient><linearGradient id="h" x1="73.53" y1="61.33" x2="73.53" y2="73.23" xlink:href="#g"></linearGradient><linearGradient id="i" x1="67.45" y1="67.34" x2="67.45" y2="73.45" xlink:href="#g"></linearGradient><linearGradient id="j" x1="37.35" y1="1.08" x2="37.35" y2="13.24" gradientTransform="matrix(1, 0, 0, 1, 0, 0)" gradientUnits="userSpaceOnUse"><stop offset="0" stop-color="#f1b2cc"></stop><stop offset=".39" stop-color="#d27794"></stop><stop offset="1" stop-color="#9f1739"></stop></linearGradient><linearGradient id="k" x1="60.67" y1="6.56" x2="60.67" y2="63.6" gradientTransform="matrix(1, 0, 0, 1, 0, 0)" gradientUnits="userSpaceOnUse"><stop offset="0" stop-color="#f1b2cc"></stop><stop offset=".14" stop-color="#eeadc7"></stop><stop offset=".3" stop-color="#e69eb9"></stop><stop offset=".48" stop-color="#da86a3"></stop><stop offset=".67" stop-color="#c86583"></stop><stop offset=".86" stop-color="#b23b5b"></stop><stop offset="1" stop-color="#9f1739"></stop></linearGradient><linearGradient id="l" x1="43.77" y1="21.28" x2="43.77" y2="44.52" gradientTransform="matrix(1, 0, 0, 1, 0, 0)" gradientUnits="userSpaceOnUse"><stop offset="0" stop-color="#f1b2cc"></stop><stop offset=".19" stop-color="#eeaec9"></stop><stop offset=".37" stop-color="#e8a2c2"></stop><stop offset=".54" stop-color="#de8fb6"></stop><stop offset=".71" stop-color="#cf75a4"></stop><stop offset=".88" stop-color="#bc538e"></stop><stop offset="1" stop-color="#ac367c"></stop></linearGradient><linearGradient id="m" x1="57.78" y1="44.54" x2="57.78" y2="59.3" gradientTransform="matrix(1, 0, 0, 1, 0, 0)" gradientUnits="userSpaceOnUse"><stop offset="0" stop-color="#814e54"></stop><stop offset="1" stop-color="#4b253b"></stop></linearGradient><linearGradient id="n" x1="35.59" y1="17.36" x2="35.59" y2="28.49" gradientTransform="matrix(1, 0, 0, 1, 0, 0)" gradientUnits="userSpaceOnUse"><stop offset="0" stop-color="#fff"></stop><stop offset=".02" stop-color="#fefbfd"></stop><stop offset=".29" stop-color="#f8dbe7"></stop><stop offset=".55" stop-color="#f4c4d8"></stop><stop offset=".79" stop-color="#f1b6cf"></stop><stop offset="1" stop-color="#f1b2cc"></stop></linearGradient><linearGradient id="o" x1="55.4" y1="17.11" x2="55.4" y2="27.11" xlink:href="#n"></linearGradient><linearGradient id="p" x1="35.27" y1="37.86" x2="35.27" y2="57.85" xlink:href="#n"></linearGradient><linearGradient id="q" x1="74.54" y1="2.11" x2="74.54" y2="12.86" xlink:href="#n"></linearGradient><linearGradient id="r" x1="82.34" y1="2.37" x2="82.34" y2="10.49" xlink:href="#n"></linearGradient><linearGradient id="s" x1="87.15" y1="7.52" x2="87.15" y2="11.61" xlink:href="#n"></linearGradient><linearGradient id="t" x1="39.77" y1="51.84" x2="57.77" y2="51.84" gradientTransform="matrix(1, 0, 0, 1, 0, 0)" gradientUnits="userSpaceOnUse"><stop offset="0" stop-color="#fff"></stop><stop offset=".12" stop-color="#e3d8d9"></stop><stop offset=".26" stop-color="#c5aeb1"></stop><stop offset=".4" stop-color="#ac8b8f"></stop><stop offset=".55" stop-color="#997075"></stop><stop offset=".69" stop-color="#8b5d62"></stop><stop offset=".84" stop-color="#835157"></stop><stop offset="1" stop-color="#814e54"></stop></linearGradient></defs><g id="a"></g><g id="b"><g id="c"><g><path class="ae" d="M50.53,13.32s.18-3.27-3.09-6.72c0,0,4.18,.73,5.81,2.54,0,0-.18-5.26-3.81-8.89,0,0,5.45,1.45,7.08,7.08,0,0,3.27-6.35,8.35-6.17,0,0-5.26,5.99-3.63,13.61l-10.71-1.45Z" style="fill: #f9f0dd;"></path><path class="ai" d="M56.52,7.33C54.89,1.7,49.45,.25,49.45,.25c.04,.04,.07,.08,.1,.11,1.21,.93,5.58,4.59,6.23,9.75,0,0,1.38-2.5,3.88-4.12,0,0-.5,1.12-.5,3.12,0,0,.38,3.5-2.12,3.5l-6.5-.12-.02,.21c.04,.39,.03,.62,.03,.62l10.71,1.45c-1.63-7.62,3.63-13.61,3.63-13.61-5.08-.18-8.35,6.17-8.35,6.17Z" style="fill: url(#d);"></path><path class="aa" d="M31.17,23.12S5.03,7.33,.67,18.76c0,0-4.72,7.44,17.42,16.7-1.07-.45-4.36,1.27-5.22,1.81-2.35,1.46-3.26,4.68-.58,6.32,2.34,1.43,6.01,.28,8.35-.5,0,0-5.81,4.54-2.36,7.62,0,0,3.63,3.45,11.8-4.54l1.09-23.05Z" style="fill: #c7e4f8;"></path><path class="aj" d="M31.17,23.12S5.74,7.77,.87,18.34c.02,.31,.03,.51,.03,.51,0,0,7.62-4.11,21.87,5.26,0,0,2.62,2.25,2.75,9.88v10.75s-3.64,7.15-7.88,5.22c.16,.26,.36,.51,.63,.76,0,0,3.63,3.45,11.8-4.54l1.09-23.05Z" style="fill: url(#e);"></path><path class="aa" d="M80.12,23.12s26.14-15.79,30.5-4.36c0,0,4.72,7.44-17.42,16.7,1.07-.45,4.36,1.27,5.22,1.81,2.35,1.46,3.26,4.68,.58,6.32-2.34,1.43-6.01,.28-8.35-.5,0,0,5.81,4.54,2.36,7.62,0,0-3.63,3.45-11.8-4.54l-1.09-23.05Z" style="fill: #c7e4f8;"></path><path class="ac" d="M110.62,18.76c-1.01-2.66-3.21-3.83-5.97-4.09,2.12,1.62,5.57,5.58-1.01,11.31,0,0-6.62,6.25-13.62,8.88l-2.25,1.38s10.5,1,9.12,5.25c0,0-1.25,1.75-9.25-1.5l-1.62-.62,4.12,6.12s2.75,4.25-1.88,3.62l-5.5-3,.08,1.56c7.02,6.02,10.16,3.04,10.16,3.04,3.45-3.09-2.36-7.62-2.36-7.62,2.34,.78,6.01,1.93,8.35,.5,2.68-1.64,1.77-4.86-.58-6.32-.86-.54-4.15-2.25-5.22-1.81,22.14-9.26,17.42-16.7,17.42-16.7Z" style="fill: url(#f);"></path><path class="an" d="M38.75,61.71c-.34,.62-.53,1.03-.53,1.03-.17,.89-1.87,15.48,2.96,7.04,0,0,.69,8.55,3.54-.32,0,0,5.88,13.09,4.49-6.66-.14-1.95-.36-3.51-.64-4.75l-9.82,3.66Z" style="fill: #d5b29a;"></path><path class="af" d="M49.08,62.55c-.14-1.95-.36-3.51-.64-4.75l-.7,.26c.08,.68,.16,1.42,.22,2.23,1.38,19.75-4.49,6.66-4.49,6.66-.88,2.75-1.55,3.81-2.06,3.99v.73c.44,1.77,1.38,3.16,3.19-2.47,0,0,5.88,13.09,4.49-6.66Z" style="fill: url(#g);"></path><path class="w" d="M48.01,73.97c-1.22,0-2.66-2.61-3.25-3.83-1.08,3.18-1.77,3.6-2.26,3.6-.93,0-1.33-1.94-1.49-3.18-.88,1.42-1.58,2.09-2.17,2.09h0c-.17,0-.41-.05-.63-.32-1.31-1.58-.24-9.56-.23-9.64l.02-.06s.2-.41,.54-1.04l.04-.08,10.17-3.79,.06,.28c.29,1.31,.51,2.92,.64,4.78,.44,6.3,.2,9.85-.74,10.85-.2,.22-.44,.33-.7,.33Zm-3.34-5.2l.27,.59c.71,1.59,2.18,4.11,3.07,4.11,.12,0,.23-.05,.34-.17,.57-.61,1.14-2.92,.61-10.48-.12-1.71-.31-3.2-.57-4.43l-9.46,3.53c-.25,.48-.42,.81-.47,.91-.18,1.03-.9,7.96,.13,9.19,.1,.12,.19,.14,.25,.14h0c.21,0,.84-.24,2.13-2.49l.4-.7,.07,.8c.14,1.68,.6,3.48,1.07,3.48,.17,0,.83-.28,1.98-3.85l.2-.62Z" style="fill: #491c44;"></path><path class="an" d="M75.59,61.71c.34,.62,.53,1.03,.53,1.03,.17,.89,1.87,15.48-2.96,7.04,0,0-.69,8.55-3.54-.32,0,0-5.88,13.09-4.49-6.66,.14-1.95,.36-3.51,.64-4.75l9.82,3.66Z" style="fill: #d5b29a;"></path><g><path class="ah" d="M76.25,62.49s-.2-.41-.53-1.03l-.37-.14c.36,3.02,1.26,13.88-3.05,6.33,0,0-.41,5.06-1.9,3.34,2.31,5.76,2.9-1.47,2.9-1.47,4.83,8.45,3.12-6.15,2.96-7.04Z" style="fill: url(#h);"></path><path class="ag" d="M68.75,67.34s-2.05,4.56-3.44,4.23c.85,4.62,3.56-.53,4.27-1.99-.25-.58-.53-1.31-.83-2.24Z" style="fill: url(#i);"></path></g><path class="w" d="M66.33,73.97c-.27,0-.5-.11-.71-.33-.94-1.01-1.18-4.56-.74-10.85,.13-1.87,.35-3.48,.64-4.78l.06-.28,10.17,3.79,.04,.08c.34,.63,.54,1.04,.54,1.04l.02,.06c.01,.08,1.09,8.06-.23,9.64-.22,.26-.46,.32-.63,.32-.59,0-1.29-.67-2.17-2.09-.16,1.24-.56,3.18-1.49,3.18h0c-.49,0-1.18-.43-2.26-3.6-.6,1.22-2.03,3.83-3.25,3.83Zm-.38-15.58c-.26,1.23-.45,2.72-.57,4.43-.53,7.55,.04,9.87,.61,10.48,.11,.12,.22,.17,.34,.17,.89,0,2.36-2.52,3.07-4.11l.27-.59,.2,.62c1.15,3.58,1.8,3.85,1.98,3.85,.47,0,.93-1.8,1.07-3.48l.07-.8,.4,.7c1.29,2.25,1.92,2.49,2.13,2.49,.06,0,.14-.01,.25-.14,1.02-1.23,.3-8.17,.13-9.19-.05-.1-.22-.43-.47-.91l-9.46-3.53Z" style="fill: #491c44;"></path><path class="w" d="M90.58,51.7c-1.86,0-5.02-.93-9.54-5.35l-.07-.07v-.1l-1.1-23.2,.13-.08c.14-.09,14.26-8.55,23.43-8.55,3.84,0,6.33,1.45,7.42,4.32,.01,.01,.88,1.41,.15,3.74-.94,3-4.61,7.62-16.62,12.82,1.45,.32,3.48,1.39,4.17,1.82,1.42,.88,2.34,2.39,2.33,3.83,0,1.19-.63,2.22-1.76,2.92-.78,.48-1.76,.72-2.92,.72-1.5,0-3.06-.38-4.5-.82,1.03,1,2.58,2.8,2.64,4.63,.03,.98-.36,1.85-1.17,2.57-.03,.03-.87,.8-2.6,.8Zm-9.12-5.64c4.36,4.25,7.37,5.14,9.12,5.14,1.52,0,2.25-.67,2.26-.67,.7-.63,1.04-1.36,1.01-2.19-.08-2.47-3.32-5.03-3.36-5.06l-1.14-.89,1.37,.46c1.69,.56,3.65,1.16,5.48,1.16,1.07,0,1.96-.22,2.66-.64,.99-.61,1.51-1.47,1.52-2.49,0-1.27-.82-2.61-2.1-3.4-.76-.47-3.38-1.84-4.65-1.84-.14,0-.26,.02-.35,.05l-.19-.46c12.67-5.3,16.46-9.96,17.41-12.94,.67-2.11-.1-3.38-.11-3.4-1.03-2.69-3.37-4.04-6.98-4.04-8.58,0-21.62,7.56-23.05,8.4l1.08,22.81Z" style="fill: #491c44;"></path><g><path class="v" d="M77.58,32.56l27.23-11.8-27.23,11.8Z" style="fill: #fff;"></path><path class="w" d="M77.58,32.81c-.1,0-.19-.06-.23-.15-.05-.13,0-.27,.13-.33l27.23-11.8c.13-.05,.27,0,.33,.13,.05,.13,0,.27-.13,.33l-27.23,11.8s-.07,.02-.1,.02Z" style="fill: #491c44;"></path></g><path class="w" d="M98.28,29.18s-.09-.01-.13-.04l-5.08-3.27c-.09-.06-.13-.17-.11-.27l1.09-4.54c.03-.13,.17-.22,.3-.19,.13,.03,.22,.17,.18,.3l-1.05,4.37,4.93,3.17c.12,.07,.15,.23,.08,.35-.05,.07-.13,.11-.21,.11Z" style="fill: #491c44;"></path><path class="w" d="M88.84,30.45s-.09-.01-.13-.04l-2.54-1.63c-.09-.06-.14-.18-.1-.29l.91-2.9c.04-.13,.18-.21,.31-.16,.13,.04,.21,.18,.16,.31l-.85,2.72,2.38,1.53c.12,.07,.15,.23,.08,.35-.05,.07-.13,.11-.21,.11Z" style="fill: #491c44;"></path><path class="w" d="M90.29,48.79s-.1-.01-.14-.04l-9.08-6.35c-.11-.08-.14-.24-.06-.35,.08-.11,.24-.14,.35-.06l9.08,6.35c.11,.08,.14,.24,.06,.35-.05,.07-.13,.11-.21,.11Z" style="fill: #491c44;"></path><path class="w" d="M95.73,40.98s-.05,0-.07,0l-14.88-4.36c-.13-.04-.21-.18-.17-.31,.04-.13,.18-.21,.31-.17l14.88,4.36c.13,.04,.21,.18,.17,.31-.03,.11-.13,.18-.24,.18Z" style="fill: #491c44;"></path><path class="w" d="M86.48,40.8c-.1,0-.2-.07-.24-.17l-.91-2.72c-.04-.11,0-.23,.11-.29l3.27-2c.12-.07,.27-.03,.34,.08,.07,.12,.04,.27-.08,.34l-3.1,1.89,.84,2.53c.04,.13-.03,.27-.16,.32-.03,0-.05,.01-.08,.01Z" style="fill: #491c44;"></path><path class="w" d="M88.11,49.87c-.11,0-.21-.07-.24-.17l-1.09-3.45c-.02-.07-.01-.15,.03-.21,.04-.06,.11-.1,.19-.11l2.18-.18c.14-.01,.26,.09,.27,.23,.01,.14-.09,.26-.23,.27l-1.87,.16,.99,3.15c.04,.13-.03,.27-.16,.31-.03,0-.05,.01-.08,.01Z" style="fill: #491c44;"></path><path class="w" d="M20.71,51.7h0c-1.73,0-2.57-.78-2.6-.81-.81-.72-1.2-1.59-1.17-2.57,.06-1.83,1.61-3.63,2.64-4.63-1.44,.44-3,.82-4.5,.82-1.16,0-2.14-.24-2.92-.72-1.13-.69-1.75-1.73-1.76-2.92,0-1.44,.91-2.94,2.33-3.83,.69-.43,2.72-1.5,4.17-1.82C4.91,30.04,1.24,25.41,.29,22.42c-.73-2.33,.13-3.73,.17-3.78,1.07-2.82,3.57-4.27,7.4-4.27,9.18,0,23.29,8.46,23.43,8.55l.13,.08v.15l-1.1,23.15-.07,.07c-4.52,4.42-7.69,5.35-9.54,5.35Zm1.22-9.31l-1.14,.89s-3.27,2.59-3.36,5.06c-.03,.83,.31,1.56,1.01,2.18,.01,.01,.75,.68,2.26,.68,1.76,0,4.76-.89,9.12-5.14l1.08-22.81c-1.43-.84-14.47-8.4-23.05-8.4-3.61,0-5.95,1.34-6.96,3.99-.03,.06-.8,1.33-.13,3.44,.95,2.98,4.75,7.64,17.41,12.94l-.19,.46c-.09-.04-.2-.05-.35-.05-1.27,0-3.89,1.37-4.65,1.84-1.28,.79-2.1,2.13-2.1,3.4,0,1.02,.53,1.88,1.52,2.49,.7,.43,1.59,.64,2.66,.64,1.83,0,3.78-.6,5.48-1.16l1.37-.46Z" style="fill: #491c44;"></path><g><path class="v" d="M33.71,32.56L6.48,20.76l27.23,11.8Z" style="fill: #fff;"></path><path class="w" d="M33.71,32.81s-.07,0-.1-.02L6.38,20.99c-.13-.06-.18-.2-.13-.33,.05-.13,.2-.19,.33-.13l27.23,11.8c.13,.06,.18,.2,.13,.33-.04,.09-.13,.15-.23,.15Z" style="fill: #491c44;"></path></g><path class="w" d="M13.02,29.18c-.08,0-.16-.04-.21-.11-.08-.12-.04-.27,.08-.35l4.93-3.17-1.05-4.37c-.03-.13,.05-.27,.18-.3,.13-.03,.27,.05,.3,.19l1.09,4.54c.02,.1-.02,.21-.11,.27l-5.08,3.27s-.09,.04-.13,.04Z" style="fill: #491c44;"></path><path class="w" d="M22.46,30.45c-.08,0-.16-.04-.21-.11-.08-.12-.04-.27,.08-.35l2.38-1.53-.85-2.72c-.04-.13,.03-.27,.16-.31,.13-.04,.27,.03,.31,.16l.91,2.9c.03,.11,0,.22-.1,.29l-2.54,1.63s-.09,.04-.13,.04Z" style="fill: #491c44;"></path><path class="w" d="M21,48.79c-.08,0-.16-.04-.21-.11-.08-.11-.05-.27,.06-.35l9.08-6.35c.11-.08,.27-.05,.35,.06,.08,.11,.05,.27-.06,.35l-9.08,6.35s-.09,.04-.14,.04Z" style="fill: #491c44;"></path><path class="w" d="M15.56,40.98c-.11,0-.21-.07-.24-.18-.04-.13,.04-.27,.17-.31l14.89-4.36c.13-.04,.27,.04,.31,.17,.04,.13-.04,.27-.17,.31l-14.89,4.36s-.05,0-.07,0Z" style="fill: #491c44;"></path><path class="w" d="M24.82,40.8s-.05,0-.08-.01c-.13-.04-.2-.19-.16-.32l.84-2.53-3.1-1.89c-.12-.07-.16-.23-.08-.34,.07-.12,.23-.16,.34-.08l3.27,2c.1,.06,.14,.18,.11,.29l-.91,2.72c-.04,.1-.13,.17-.24,.17Z" style="fill: #491c44;"></path><path class="w" d="M23.18,49.87s-.05,0-.08-.01c-.13-.04-.21-.18-.16-.31l.99-3.15-1.87-.16c-.14-.01-.24-.13-.23-.27,.01-.14,.14-.24,.27-.23l2.18,.18c.08,0,.14,.05,.19,.11,.04,.06,.05,.14,.03,.21l-1.09,3.45c-.03,.11-.13,.17-.24,.17Z" style="fill: #491c44;"></path><path class="w" d="M61.26,15.02h-.01s-.02,0-.03,0l-10.71-1.45c-.13-.02-.22-.13-.22-.26,0-.03,.13-3.21-3.02-6.53-.07-.08-.09-.2-.04-.29,.05-.09,.15-.15,.26-.13,.16,.03,3.59,.64,5.46,2.16-.18-1.5-.9-5.31-3.68-8.09-.08-.08-.1-.2-.04-.3,.06-.1,.17-.14,.28-.12,.05,.01,5.24,1.45,7.08,6.7,.89-1.51,3.82-5.8,8.07-5.8,.07,0,.15,0,.22,0,.1,0,.18,.06,.22,.15,.04,.09,.02,.19-.04,.26-.05,.06-5.13,5.95-3.59,13.32,.02,.04,.03,.08,.03,.12,0,.14-.11,.25-.25,.25Zm-10.47-1.92l10.14,1.38c-1.2-6.36,2.3-11.58,3.42-13.06-4.58,.25-7.58,5.97-7.61,6.03-.05,.09-.13,.14-.25,.13-.1-.01-.19-.08-.22-.18-1.17-4.02-4.36-5.87-5.96-6.56,2.99,3.57,3.18,8.09,3.18,8.3,0,.11-.06,.2-.16,.24-.1,.04-.21,.01-.28-.06-1.15-1.28-3.67-2.01-4.92-2.3,2.36,2.78,2.62,5.32,2.64,6.09Z" style="fill: #491c44;"></path><path class="ak" d="M92.1,7.15c-1.45-2.36-8.89,3.09-8.89,3.09,4.9-6.53,2.54-8.35,2.54-8.35-3.99-2.36-7.08,7.62-7.08,7.62-.73-9.8-4.36-8.35-4.36-8.35-2.95,1.12-.79,8.77,.34,12.16H37.62c1.13-3.4,3.29-11.04,.34-12.16,0,0-3.63-1.45-4.36,8.35,0,0-3.09-9.98-7.08-7.62,0,0-2.36,1.82,2.54,8.35,0,0-7.44-5.45-8.89-3.09,0,0-4.27,2.15,8.22,9.44V54.89c0,4.81,3.9,8.71,8.71,8.71h37.39c4.81,0,8.71-3.9,8.71-8.71V16.69l.36,.08c12.89-7.44,8.53-9.62,8.53-9.62Z" style="fill: #f1b2cc;"></path><path class="ao" d="M37.69,13.09c1.14-3.49,3.15-10.83,.26-11.94,0,0-1.45-.58-2.7,1.48,1.47-.14,3.7,1.03,2.13,10.61l.31-.15Z" style="fill: url(#j);"></path><path class="as" d="M92.1,7.15c-.35-.57-1.06-.68-1.93-.52,.32,1.45,.02,3.73-3.65,5.86l-6,3.5v11.71c-1.7-3.39-5.03-5.88-9.08-6.34-6.38-.72-12.13,3.87-12.84,10.25-.72,6.38,3.87,12.13,10.25,12.84,4.98,.56,9.56-2.12,11.68-6.35v13.39s.38,8.5-5.88,8.75H35.15s-3.86-.11-6.62-3.81c.73,4.08,4.28,7.17,8.57,7.17h37.39c4.81,0,8.71-3.9,8.71-8.71V16.69l.36,.08c12.89-7.44,8.53-9.62,8.53-9.62Z" style="fill: url(#k);"></path><path class="a`" d="M55.31,34.2c-.72,6.38-6.47,10.96-12.84,10.25-6.38-.72-10.96-6.47-10.25-12.84,.72-6.38,6.47-10.96,12.84-10.25,6.38,.72,10.96,6.47,10.25,12.84Z"></path><path class="v" d="M53.81,32.2c-.72,6.38-6.47,10.96-12.84,10.25-6.38-.72-10.96-6.47-10.25-12.84,.72-6.38,6.47-10.96,12.84-10.25,6.38,.72,10.96,6.47,10.25,12.84Z" style="fill: #fff;"></path><path class="w" d="M49.33,29.22c-.05-.2-.22-.33-.42-.34-.2,0-.38,.12-.44,.32-.48,1.6-2.04,2.62-3.69,2.43-1.9-.21-3.27-1.93-3.05-3.83,.16-1.45,1.24-2.64,2.67-2.97,.2-.05,.34-.22,.35-.42,0-.2-.12-.38-.31-.44-4.52-1.39-8.87,1.71-9.36,6.12-.45,3.98,2.43,7.58,6.41,8.03,3.98,.45,7.58-2.43,8.03-6.41,.09-.82,.04-1.66-.16-2.49Z" style="fill: #491c44;"></path><path class="v" d="M35.93,28.9s-.16,.61-.11,1.54c.01,.46,.11,.99,.28,1.53,.09,.27,.19,.54,.34,.79,.12,.27,.31,.5,.47,.74,.18,.23,.39,.44,.58,.65,.23,.18,.44,.37,.66,.53,.23,.14,.46,.28,.67,.41,.23,.11,.45,.2,.65,.3,.39,.2,.77,.27,1,.36l.38,.12,.06,.02c.33,.1,.51,.45,.4,.78-.1,.33-.45,.51-.78,.4-.02,0-.05-.02-.07-.03l-.41-.19c-.26-.13-.65-.26-1.06-.53-.21-.13-.44-.26-.68-.42-.22-.18-.46-.36-.7-.56-.23-.21-.44-.45-.66-.69-.19-.26-.4-.52-.56-.81-.15-.3-.32-.57-.41-.88-.12-.3-.19-.6-.26-.9-.11-.59-.14-1.15-.09-1.63,.06-.95,.3-1.53,.3-1.53Z" style="fill: #fff;"></path><path class="v" d="M80.14,32.2c-.72,6.38-6.47,10.96-12.84,10.25-6.38-.72-10.96-6.47-10.25-12.84,.72-6.38,6.47-10.96,12.84-10.25,6.38,.72,10.96,6.47,10.25,12.84Z" style="fill: #fff;"></path><path class="y" d="M76.74,22.64c1.56,2.23,2.35,5.02,2.02,7.93-.72,6.38-6.47,10.96-12.84,10.25-2.63-.3-4.95-1.46-6.72-3.16,1.85,2.64,4.77,4.52,8.22,4.91,6.38,.72,12.13-3.87,12.84-10.25,.42-3.75-1-7.26-3.52-9.68Z" style="fill: #d1d1d1;"></path><path class="y" d="M50.24,22.64c1.56,2.23,2.35,5.02,2.02,7.93-.72,6.38-6.47,10.96-12.84,10.25-2.63-.3-4.95-1.46-6.72-3.16,1.85,2.64,4.77,4.52,8.22,4.91,6.38,.72,12.13-3.87,12.84-10.25,.42-3.75-1-7.26-3.52-9.68Z" style="fill: #d1d1d1;"></path><path class="w" d="M68.6,42.77c-.44,0-.89-.03-1.34-.08-3.15-.35-5.97-1.91-7.95-4.39-1.98-2.48-2.87-5.58-2.52-8.73,.67-6.01,5.74-10.54,11.78-10.54,.44,0,.89,.03,1.34,.08,6.5,.73,11.2,6.62,10.47,13.12-.67,6.01-5.74,10.54-11.78,10.54Zm-.03-23.24c-5.79,0-10.64,4.34-11.28,10.1-.34,3.02,.52,5.99,2.41,8.36,1.89,2.37,4.6,3.87,7.62,4.21,.42,.05,.86,.07,1.28,.07,5.79,0,10.64-4.34,11.28-10.1,.7-6.23-3.8-11.87-10.03-12.57-.42-.05-.86-.07-1.28-.07Z" style="fill: #491c44;"></path><path class="w" d="M75.65,29.22c-.05-.2-.22-.33-.42-.34-.2,0-.38,.12-.44,.32-.48,1.6-2.04,2.62-3.69,2.43-1.9-.21-3.27-1.93-3.05-3.83,.16-1.45,1.24-2.64,2.67-2.97,.2-.05,.34-.22,.35-.42,0-.2-.12-.38-.31-.44-4.52-1.39-8.87,1.71-9.36,6.12-.45,3.98,2.43,7.58,6.41,8.03,3.98,.45,7.58-2.43,8.03-6.41,.09-.82,.04-1.66-.16-2.49Z" style="fill: #491c44;"></path><path class="v" d="M62.25,28.9s-.16,.61-.11,1.54c.01,.46,.11,.99,.28,1.53,.09,.27,.19,.54,.34,.79,.12,.27,.31,.5,.47,.74,.18,.23,.39,.44,.58,.65,.23,.18,.44,.37,.66,.53,.23,.14,.46,.28,.67,.41,.23,.11,.45,.2,.65,.3,.39,.2,.77,.27,1,.36l.38,.12,.06,.02c.33,.1,.51,.45,.4,.78-.1,.33-.45,.51-.78,.4-.02,0-.05-.02-.07-.03l-.41-.19c-.26-.13-.65-.26-1.06-.53-.21-.13-.44-.26-.68-.42-.22-.18-.46-.36-.7-.56-.23-.21-.44-.45-.66-.69-.19-.26-.4-.52-.56-.81-.15-.3-.32-.57-.41-.88-.12-.3-.19-.6-.26-.9-.11-.59-.14-1.15-.09-1.63,.06-.95,.3-1.53,.3-1.53Z" style="fill: #fff;"></path><path class="w" d="M42.28,42.77c-.44,0-.89-.03-1.34-.08-6.5-.73-11.2-6.61-10.47-13.12,.68-6.01,5.74-10.54,11.78-10.54,.44,0,.89,.03,1.34,.08,6.5,.73,11.2,6.62,10.47,13.12-.67,6.01-5.74,10.54-11.78,10.54Zm-.03-23.24c-5.79,0-10.64,4.34-11.28,10.1-.7,6.23,3.8,11.87,10.03,12.57,.42,.05,.86,.07,1.28,.07,5.79,0,10.64-4.34,11.28-10.1,.7-6.23-3.8-11.87-10.03-12.57-.42-.05-.86-.07-1.28-.07Z" style="fill: #491c44;"></path><path class="w" d="M74.5,63.85H37.1c-4.94,0-8.96-4.02-8.96-8.96V16.73c-5.99-3.51-8.99-6.33-8.92-8.38,.03-.85,.58-1.27,.78-1.39,.29-.44,.78-.66,1.45-.66,1.89,0,4.93,1.82,6.59,2.91-3.88-5.72-1.76-7.46-1.66-7.53,.47-.28,.93-.41,1.39-.41,2.76,0,4.87,4.81,5.7,7.05,.69-6.49,2.78-7.49,4.01-7.49,.34,0,.56,.08,.58,.09,2.97,1.13,1.28,7.95-.08,12.14h36.34c-1.37-4.2-3.05-11.01-.08-12.15,.02,0,.24-.09,.58-.09,1.23,0,3.32,1.01,4.01,7.49,.83-2.24,2.94-7.05,5.7-7.05,.46,0,.92,.13,1.36,.4,.12,.09,2.24,1.83-1.64,7.55,1.67-1.1,4.71-2.91,6.59-2.91,.67,0,1.15,.22,1.45,.66,.2,.12,.75,.54,.78,1.39,.06,2.07-3.18,5.06-9.37,8.63l-.08,.05-.15-.03V54.89c0,4.94-4.02,8.96-8.96,8.96ZM21.44,6.8c-.51,0-.86,.15-1.06,.47l-.04,.06-.06,.03s-.55,.29-.57,1c-.03,1.05,1.08,3.49,8.8,7.99l.12,.07V54.89c0,4.67,3.8,8.46,8.46,8.46h37.39c4.67,0,8.46-3.8,8.46-8.46V16.38l.57,.12c7.91-4.58,9.06-7.06,9.03-8.12-.02-.71-.55-1-.57-1.01l-.06-.03-.04-.06c-.2-.32-.54-.47-1.06-.47-2.49,0-7.43,3.59-7.48,3.63l-1.35,.99,1.01-1.34c4.65-6.2,2.61-7.99,2.59-8-.34-.2-.71-.31-1.08-.31-3.16,0-5.58,7.73-5.61,7.81l-.39,1.26-.1-1.32c-.69-9.38-4.01-8.14-4.02-8.14-2.84,1.08-.35,9.34,.48,11.85l.11,.33H37.27l.11-.33c2.22-6.69,2.4-11.12,.48-11.85-.02,0-3.32-1.25-4.02,8.14l-.1,1.32-.39-1.26c-.02-.08-2.45-7.81-5.61-7.81-.37,0-.74,.11-1.11,.33h0s-2.04,1.78,2.61,7.98l1.01,1.34-1.35-.99s-4.99-3.63-7.48-3.63Z" style="fill: #491c44;"></path><path class="ar" d="M38.43,44.91h35.1s.24,13.8-11.86,14.76h-11.13s-13.07,.48-12.1-14.76Z" style="fill: #814e54;"></path><path class="ab" d="M73.77,44.54h-2.63c-.46,3.86-2.51,12.03-11.73,12.76h-11.13s-3.33,.12-6.5-1.72c3.6,3.91,9,3.72,9,3.72h11.13c12.1-.97,11.86-14.76,11.86-14.76Z" style="fill: url(#m);"></path><path class="w" d="M50.52,59.55c-.92,0-5.66-.18-8.99-3.72-2.46-2.62-3.54-6.42-3.23-11.31v-.23h35.59v.25c0,.14,.11,14.04-12.09,15.02h-11.29Zm-11.73-14.76c-.25,4.63,.79,8.24,3.11,10.71,3.18,3.39,7.74,3.56,8.62,3.56h11.27c10.82-.87,11.56-12.42,11.61-14.27H38.79Z" style="fill: #491c44;"></path><path class="v" d="M67.23,50.35c3.34,0,6.04-2.55,6.35-5.81H38.55c-.04,.59-.05,1.14-.04,1.68,.92,2.41,3.24,4.12,5.97,4.12h22.75Z" style="fill: #fff;"></path><path class="y" d="M72.16,44.41c-.71,2.76-3.19,4.81-6.17,4.81h-22.75c-1.22,0-2.35-.36-3.32-.95,1.16,1.2,2.77,1.95,4.57,1.95h22.75c3.34,0,6.04-2.55,6.35-5.81h-1.43Z" style="fill: #d1d1d1;"></path><path class="w" d="M38.32,44.29v.23c-.05,.53-.06,1.08-.06,1.7l.02,.09c1,2.6,3.44,4.29,6.21,4.29h22.75c3.44,0,6.27-2.59,6.6-6.04l.03-.27H38.32Zm32.17,.5v4.35h.02c-.79,.5-1.69,.81-2.67,.9v-5.25h2.65Zm-20.44,0h3.49v5.31h-3.49v-5.31Zm-.5,5.31h-3.49v-5.31h3.49v5.31Zm4.49-5.31h4.1v5.31h-4.1v-5.31Zm4.6,0h4.1v5.31h-4.1v-5.31Zm-19.89,1.39c0-.5,0-.95,.03-1.39h3.27v4.8c-1.48-.64-2.68-1.83-3.3-3.41Zm3.8,3.61v-5h3.01v5.31h-1.08c-.67,0-1.32-.11-1.93-.31Zm20.69,.31v-5.31h4.1v5.3s-.07,.01-.11,.01h-3.99Zm7.75-1.31v-4h2.31c-.23,1.64-1.09,3.04-2.31,4Z" style="fill: #491c44;"></path><path class="v" d="M28.65,2.74s-4.25-.62,1.62,7.5c0,0-4.38-7.5-1.62-7.5Z" style="fill: #fff;"></path><path class="v" d="M22.15,7.74s-2.88,0-.5,2.88c0,0,4.88,4.12,7.5,5.38,0,0-10-7.12-7-8.25Z" style="fill: #fff;"></path><path class="v" d="M11.9,16.11s-6.88-1.12-9.12,1.62c0,0-4.38,5,5.38,11.62,0,0-13.5-11.5,3.75-13.25Z" style="fill: #fff;"></path><path class="v" d="M18.15,36.24s-6.88,2.12-6.5,4.88c0,0,.62,3.38,8.38,1,0,0-14.12,.88-1.88-5.88Z" style="fill: #fff;"></path><path class="v" d="M16.15,21.24l.88,3-7.88-3s8,3.12,7,0Z" style="fill: #fff;"></path><polygon class="v" points="18.15 22.86 19.02 25.11 23.77 27.49 18.15 22.86" style="fill: #fff;"></polygon><polygon class="v" points="22.4 36.74 23.9 37.61 18.02 39.36 22.4 36.74" style="fill: #fff;"></polygon><path class="v" d="M9.65,22.99l6.25,3-3.25,2.25s3.88-2.62-3-5.25Z" style="fill: #fff;"></path><path class="v" d="M84.15,24.49v-2.12s16.12-9.12,22.88-6.25c0,0-4.75-1.5-22.88,8.38Z" style="fill: #fff;"></path><polygon class="v" points="94.77 22.74 94.52 24.24 103.9 20.49 94.77 22.74" style="fill: #fff;"></polygon><polygon class="v" points="87.9 26.36 87.4 27.61 92.4 25.49 87.9 26.36" style="fill: #fff;"></polygon><path class="v" d="M85.65,30.11l-1.62,.88v4.88l1.12,.62s-1.25-3.62,.5-6.38Z" style="fill: #fff;"></path><path class="am" d="M29.9,17.36v11.12s.25-10.12,11.38-11.12h-11.38Z" style="fill: url(#n);"></path><path class="ap" d="M44.52,17.11h21.75s-8.38,1.62-9.75,10h-1.25s-.62-8.25-10.75-10Z" style="fill: url(#o);"></path><path class="ad" d="M36.52,44.24c-4.75-2.5-6.62-6.38-6.62-6.38l-.38,11.72v4.41c1.69,5.74,11.5,3.38,11.5,3.38-5.75-4.25-4.5-13.12-4.5-13.12Z" style="fill: url(#p);"></path><path class="aq" d="M75.52,12.86s-3.88-10.62-.75-10.75c0,0-.75,2.38,.75,10.75Z" style="fill: url(#q);"></path><path class="x" d="M79.27,10.49s3.12-9.75,6.12-7.88c0,0-4.5,3.25-6.12,7.88Z" style="fill: url(#r);"></path><path class="al" d="M82.9,11.61s7.25-5.75,8.5-3.62l-8.5,3.62Z" style="fill: url(#s);"></path><path class="u" d="M41.52,53.74s-1-1.38-1.75-4.5c0,0,1.88,2.12,4.38,2h13.62s-3.5,5-16.25,2.5Z" style="fill: url(#t);"></path><path class="v" d="M51.27,11.49l-1.5-3.12s2.12,.25,3.12,1.75c0,0,.75,2.12-1.62,1.38Z" style="fill: #fff;"></path><path class="v" d="M41.02,64.74h-2.12s-1.75,14,2.12,0Z" style="fill: #fff;"></path><path class="v" d="M67.65,64.36h-1.88s-.88,12.75,1.88,0Z" style="fill: #fff;"></path></g></g></g></svg>