<?xml version="1.0" encoding="UTF-8"?><svg xmlns="http://www.w3.org/2000/svg" xmlns:xlink="http://www.w3.org/1999/xlink" viewBox="0 0 63.07 72.82"><defs><style>.r{fill:#fff;}.s{fill:#491c44;}.t{fill:#d1d1d1;}.u{fill:url(#l);}.v{fill:#c7e4f8;}.w{fill:url(#m);}.x{fill:url(#f);}.y{fill:url(#p);}.a`{fill:url(#g);}.aa{fill:url(#i);}.ab{fill:url(#h);}.ac{fill:url(#d);}.ad{fill:url(#e);}.ae{fill:#f1b2cc;}.af{fill:url(#n);}.ag{fill:#75b6c5;}.ah{fill:url(#j);}.ai{fill:url(#o);}.aj{fill:url(#q);}.ak{fill:url(#k);}</style><linearGradient id="d" x1="53.03" y1="35.09" x2="53.03" y2="28.47" gradientTransform="matrix(1, 0, 0, 1, 0, 0)" gradientUnits="userSpaceOnUse"><stop offset="0" stop-color="#c7e4f8"/><stop offset=".14" stop-color="#bfe1f8"/><stop offset=".34" stop-color="#abdbf9"/><stop offset=".59" stop-color="#89d0fb"/><stop offset=".86" stop-color="#5bc1fd"/><stop offset=".98" stop-color="#45bbff"/></linearGradient><linearGradient id="e" x1="58.35" y1="35.21" x2="58.35" y2="35.04" xlink:href="#d"/><linearGradient id="f" x1="3.98" y1="39.3" x2="14.59" y2="39.3" xlink:href="#d"/><linearGradient id="g" x1="16.61" y1="9.34" x2="16.61" y2="22.8" gradientTransform="matrix(1, 0, 0, 1, 0, 0)" gradientUnits="userSpaceOnUse"><stop offset="0" stop-color="#c7e4f8"/><stop offset=".19" stop-color="#c3e2f8"/><stop offset=".36" stop-color="#b8dff8"/><stop offset=".52" stop-color="#a6d9f9"/><stop offset=".68" stop-color="#8cd1fb"/><stop offset=".83" stop-color="#6bc7fc"/><stop offset=".98" stop-color="#45bbff"/></linearGradient><linearGradient id="h" x1="43.68" y1=".4" x2="43.68" y2="19.21" xlink:href="#g"/><linearGradient id="i" x1="18.79" y1="53.67" x2="18.79" y2="72.69" xlink:href="#g"/><linearGradient id="j" x1="40.91" y1="70.28" x2="50.31" y2="70.28" xlink:href="#g"/><linearGradient id="k" x1="34.29" y1="22.96" x2="34.29" y2="43.96" gradientTransform="matrix(1, 0, 0, 1, 0, 0)" gradientUnits="userSpaceOnUse"><stop offset=".2" stop-color="#75b6c5"/><stop offset=".99" stop-color="#006578"/></linearGradient><linearGradient id="l" x1="16.51" y1="45.72" x2="23.5" y2="45.72" gradientTransform="matrix(1, 0, 0, 1, 0, 0)" gradientUnits="userSpaceOnUse"><stop offset="0" stop-color="#f1b2cc"/><stop offset=".14" stop-color="#eeadc7"/><stop offset=".3" stop-color="#e69eb9"/><stop offset=".48" stop-color="#da86a3"/><stop offset=".67" stop-color="#c86583"/><stop offset=".86" stop-color="#b23b5b"/><stop offset="1" stop-color="#9f1739"/></linearGradient><linearGradient id="m" x1="40.53" y1="12.09" x2="40.53" y2="59.96" xlink:href="#k"/><linearGradient id="n" x1="21.13" y1="13.58" x2="21.13" y2="33.19" gradientTransform="matrix(1, 0, 0, 1, 0, 0)" gradientUnits="userSpaceOnUse"><stop offset="0" stop-color="#fff"/><stop offset="1" stop-color="#75b6c5"/></linearGradient><linearGradient id="o" x1="11.56" y1="48.5" x2="11.56" y2="57.5" xlink:href="#n"/><linearGradient id="p" x1="25.55" y1="37.25" x2="25.55" y2="46.75" xlink:href="#n"/><linearGradient id="q" x1="14.5" y1="68.99" x2="20.09" y2="68.99" gradientTransform="matrix(1, 0, 0, 1, 0, 0)" gradientUnits="userSpaceOnUse"><stop offset="0" stop-color="#fff"/><stop offset="1" stop-color="#c7e4f8"/></linearGradient></defs><g id="a"/><g id="b"><g id="c"><g><path class="v" d="M44.01,28.41s6.53-.11,11.49,.72c0,0,1.67-3.23,3.18-2.48,0,0,1.44,.79-.38,2.94,0,0,3.6-.3,3.5,1.8,0,0-.66,1.66-4.02-.23,0,0,2.48,3.18,.87,4.23,0,0-1.5,.9-2.92-3.6,0,0-7.38-1.81-10.6-.86l-1.12-2.53Z"/><g><path class="ac" d="M55.84,30.58c-4.25-.22-5.59-1.22-5.96-2.03-.65-.04-1.28-.07-1.88-.09l.51,2.23c3.36,.16,7.22,1.11,7.22,1.11,.6,1.91,1.22,2.84,1.73,3.29,.22-.02,.42-.03,.6-.04-.96-.81-2.21-4.47-2.21-4.47Z"/><path class="ad" d="M58.06,35.05c.17,.14,.33,.21,.47,.14,.29-.14,.03-.16-.47-.14Z"/></g><path class="v" d="M14.25,32.55s-5.67,3.25-9.5,6.5c0,0-3.08-1.92-4-.5,0,0-.83,1.42,1.83,2.33,0,0-3.25,1.58-2.08,3.33,0,0,1.42,1.08,3.33-2.25,0,0-.5,4,1.42,4.08,0,0,1.75,0,.67-4.58,0,0,5.42-5.33,8.67-6.17l-.33-2.75Z"/><path class="x" d="M14.25,32.55s-1.03,.59-2.49,1.51c-.14,1.01-.64,2.24-2.17,2.9,0,0-3.12,2.25-4.25,3.88,0,0,.47,4.97-1.36,3.95,.2,.68,.57,1.23,1.27,1.26,0,0,1.75,0,.67-4.58,0,0,5.42-5.33,8.67-6.17l-.33-2.75Z"/><path class="v" d="M17.17,22.8c.22,.21,4.42-6,4.42-6,0,0-6.25-10.5-10.25-6.58,0,0-4.5,2.92,5.83,12.58Z"/><path class="a`" d="M11.64,9.95c.43,.08,.77,.17,.84,.19,1.85,.61,4.62,2.25,5.37,4.14,.99,2.52-1.87,4.7-4.26,4.3-.16-.03-.29-.04-.41-.04,.98,1.25,2.28,2.66,3.99,4.25,.22,.21,4.42-6,4.42-6,0,0-5.94-9.97-9.94-6.85Z"/><path class="v" d="M36.09,15.05S44.17-2.2,49.5,.55c0,0,6.25,3.42-8.08,18.67l-5.33-4.17Z"/><path class="ab" d="M38.36,10.72c-.83,1.46-1.48,2.72-1.86,3.49,.04,.23,.14,.76,.29,1.38l4.64,3.62C55.75,3.96,49.5,.55,49.5,.55c-.12-.06-.24-.1-.36-.14,.52,2.07,.44,5.1-2.04,8.93,0,0-4,6-6.25,5,0,0-3,1-2.5-3.5,0-.04,0-.07,.01-.11Z"/><path class="s" d="M5.25,46.3h-.01c-.42-.02-.77-.19-1.04-.51-.59-.7-.69-1.97-.68-2.87-1.77,2.5-3.11,1.55-3.18,1.5-.02-.02-.04-.04-.06-.06-.28-.43-.36-.88-.24-1.35,.26-.94,1.31-1.7,1.94-2.09-.82-.36-1.33-.81-1.53-1.35-.23-.63,.05-1.12,.07-1.15,.28-.43,.72-.64,1.33-.64,1.08,0,2.41,.71,2.86,.97,3.8-3.19,9.34-6.38,9.4-6.41,.07-.04,.16-.04,.24,0,.08,.04,.13,.11,.14,.19l.33,2.75c.02,.12-.06,.24-.19,.27-2.91,.75-7.7,5.28-8.45,6.01,.48,2.12,.44,3.57-.15,4.3-.35,.44-.75,.45-.79,.45Zm-1.42-4.58s.05,0,.08,.01c.11,.04,.18,.15,.17,.27,0,.03-.3,2.51,.5,3.47,.18,.21,.4,.32,.67,.34,.04,0,.23-.03,.42-.28,.27-.36,.63-1.36,0-4-.02-.08,0-.17,.07-.24,.22-.21,5.28-5.17,8.57-6.17l-.26-2.16c-1.26,.74-5.89,3.53-9.14,6.28-.08,.07-.2,.08-.29,.02-.02,0-1.6-.98-2.76-.98-.43,0-.73,.13-.9,.41,0,0-.17,.32-.02,.72,.19,.49,.78,.92,1.73,1.24,.1,.03,.16,.12,.17,.22,0,.1-.05,.2-.14,.24-.02,0-1.85,.92-2.16,2.03-.08,.31-.04,.6,.14,.89,.06,.03,.2,.1,.42,.1,.45,0,1.37-.3,2.51-2.29,.05-.08,.13-.13,.22-.13Z"/><path class="s" d="M41.42,19.46c-.05,0-.11-.02-.15-.05l-5.33-4.17c-.09-.07-.12-.2-.07-.3,.29-.61,7.06-14.94,12.42-14.94,.47,0,.92,.11,1.34,.32,.05,.03,1.14,.64,1.43,2.42,.41,2.57-.9,7.54-9.44,16.64-.05,.05-.12,.08-.18,.08Zm-5.02-4.49l5,3.9c8.24-8.81,9.53-13.57,9.16-16.02-.24-1.55-1.13-2.07-1.17-2.09-.34-.18-.71-.27-1.1-.27-4.74,0-11.07,12.8-11.88,14.47Z"/><path class="s" d="M17.19,23.05c-.05-.02-.14-.03-.19-.07-5.98-5.59-7.04-8.99-6.87-10.85,.13-1.5,1.03-2.1,1.07-2.12,.6-.6,1.34-.91,2.16-.91,3.89,0,8.26,7.27,8.44,7.58,.05,.08,.05,.19,0,.27-4.11,6.07-4.45,6.11-4.61,6.11Zm-3.83-13.46c-.69,0-1.29,.26-1.85,.8-.07,.05-.78,.54-.89,1.8-.14,1.74,.89,4.93,6.57,10.29,.54-.56,2.42-3.22,4.09-5.69-.62-1-4.6-7.2-7.93-7.2Z"/><path class="v" d="M21.17,55.38l-.75,13s-6-2.75-6.83,.83c0,0-.58,3.67,4.58,3.33h3.58c1.37,0,1.24-1.4,1.23-2.35-.04-4.09,.52-8.25,.81-12.33,.03-.43,.31-1.41,.13-1.82l-1.08-2.5-1.67,1.83Z"/><path class="aa" d="M23.79,56.17l-1.08-2.5-.48,.53,.31,.72c.18,.41-.1,1.39-.13,1.82-.29,4.08-.85,8.24-.81,12.33,0,.95,.14,2.35-1.23,2.35h-3.58c-1.41,.09-2.38-.12-3.07-.47,.44,.94,1.56,1.9,4.32,1.72h3.58c1.37,0,1.24-1.4,1.23-2.35-.04-4.09,.52-8.25,.81-12.33,.03-.43,.31-1.41,.13-1.82Z"/><path class="s" d="M17.53,72.82c-1.61,0-2.79-.42-3.5-1.25-.89-1.04-.7-2.34-.69-2.39,.31-1.35,1.34-2.05,2.96-2.05,1.53,0,3.19,.61,3.89,.89l.73-12.64c0-.06,.03-.11,.06-.15l1.67-1.83c.06-.06,.14-.09,.23-.08,.08,.01,.15,.07,.19,.15,0,0,1.06,2.45,1.08,2.5,.15,.36,.05,.94-.04,1.46-.03,.19-.06,.36-.07,.48-.09,1.27-.21,2.56-.32,3.84-.25,2.79-.51,5.67-.49,8.47v.21c.02,.68,.03,1.52-.45,2.01-.25,.25-.59,.38-1.03,.38h-3.58c-.21,.01-.43,.02-.64,.02Zm-3.7-3.55s-.16,1.11,.58,1.97c.7,.81,1.92,1.17,3.74,1.05h3.6c.3,0,.52-.08,.67-.23,.34-.34,.32-1.07,.31-1.66v-.21c-.03-2.83,.23-5.72,.49-8.52,.12-1.28,.23-2.56,.32-3.83,0-.13,.04-.32,.08-.53,.07-.38,.17-.96,.07-1.18h0c-.07-.15-.27-.61-.94-2.14l-1.35,1.48-.75,12.91c0,.08-.05,.16-.12,.2-.07,.04-.16,.05-.23,.01-.02,0-2.17-.99-4.02-.99-1.4,0-2.21,.54-2.47,1.65h0Z"/><path class="v" d="M42.71,55.38l.75,13s6-2.75,6.83,.83c0,0,.58,3.67-4.58,3.33h-3.58c-1.37,0-1.24-1.4-1.23-2.35,.04-4.09-.52-8.25-.81-12.33-.03-.43-.31-1.41-.13-1.82l1.08-2.5,1.67,1.83Z"/><path class="ah" d="M50.29,69.34c-.17-.74-.57-1.2-1.08-1.48,.03,.08,.06,.14,.08,.23,0,0,.58,3.67-4.58,3.33h-3.58c-.08,0-.14-.02-.21-.03,.07,.68,.32,1.28,1.21,1.28h3.58c5.17,.33,4.58-3.33,4.58-3.33Z"/><path class="s" d="M46.35,72.82c-.21,0-.43,0-.66-.02h-3.57c-.43,0-.78-.13-1.03-.38-.48-.49-.47-1.34-.45-2.02v-.21c.03-2.8-.23-5.68-.48-8.46-.12-1.29-.23-2.57-.32-3.85,0-.12-.04-.29-.07-.47-.09-.52-.19-1.11-.04-1.46h0c.07-.17,.29-.69,1.08-2.5,.03-.08,.1-.13,.19-.15,.08-.02,.17,.02,.23,.08l1.67,1.83s.06,.1,.06,.15l.73,12.64c.7-.28,2.36-.89,3.89-.89,1.62,0,2.65,.7,2.96,2.03,.01,.07,.21,1.36-.69,2.41-.71,.83-1.89,1.25-3.5,1.25Zm-5.23-18.82c-.3,.68-.92,2.11-.93,2.14-.1,.22,0,.8,.07,1.18,.04,.21,.07,.39,.08,.52,.09,1.27,.21,2.55,.32,3.84,.25,2.8,.52,5.69,.49,8.51v.21c-.01,.59-.03,1.31,.31,1.66,.15,.15,.37,.23,.67,.23h3.58c.24,.01,.44,.02,.64,.02,1.45,0,2.5-.36,3.11-1.07,.74-.87,.58-1.98,.58-1.99-.25-1.09-1.06-1.63-2.47-1.63-1.84,0-4,.98-4.02,.99-.08,.03-.16,.03-.23-.01-.07-.04-.12-.12-.12-.2l-.75-12.91-1.35-1.48Z"/><path class="s" d="M38.67,17.13c-.05,0-.11-.02-.15-.05-.11-.08-.13-.24-.05-.35l5.5-7.25c.08-.11,.24-.13,.35-.05,.11,.08,.13,.24,.05,.35l-5.5,7.25c-.05,.06-.12,.1-.2,.1Z"/><path class="s" d="M19.5,19.96c-.07,0-.14-.03-.19-.08l-4.17-4.67c-.09-.1-.08-.26,.02-.35s.26-.08,.35,.02l4.17,4.67c.09,.1,.08,.26-.02,.35-.05,.04-.11,.06-.17,.06Z"/><path class="s" d="M58.32,35.73c-.73,0-1.8-.65-2.78-3.71-.79-.18-4.85-1.1-7.97-1.1-.98,0-1.77,.09-2.37,.26-.12,.03-.25-.02-.3-.14l-1.12-2.53c-.03-.08-.03-.17,.02-.24,.04-.07,.12-.11,.21-.12,0,0,.29,0,.78,0,1.89,0,6.68,.07,10.57,.7,.33-.59,1.54-2.56,2.84-2.56,.2,0,.4,.05,.59,.14,.03,.02,.53,.3,.65,.95,.11,.57-.1,1.22-.62,1.95,.77,0,2.1,.13,2.79,.85,.31,.33,.46,.74,.43,1.23,0,.03,0,.05-.02,.08-.01,.03-.35,.83-1.57,.83-.55,0-1.2-.16-1.93-.49,.47,.76,1.04,1.91,.89,2.81-.07,.42-.28,.74-.63,.97-.04,.02-.2,.11-.47,.11Zm-10.75-5.3c3.52,0,8.17,1.13,8.22,1.14,.08,.02,.15,.08,.18,.17,.99,3.15,1.98,3.49,2.35,3.49,.13,0,.2-.04,.21-.04,.22-.14,.35-.35,.4-.63,.2-1.23-1.33-3.21-1.34-3.23-.07-.09-.07-.23,0-.32,.08-.09,.21-.11,.31-.05,1.03,.58,1.89,.87,2.56,.87,.75,0,1.02-.37,1.09-.49,0-.32-.09-.59-.3-.81-.6-.63-1.94-.69-2.49-.69-.26,0-.44,.01-.44,.01-.1,0-.2-.04-.24-.13-.05-.09-.03-.2,.03-.28,.65-.77,.94-1.44,.84-1.96-.08-.42-.39-.6-.39-.6-.11-.05-.23-.08-.35-.08-1,0-2.13,1.77-2.48,2.45-.05,.1-.16,.15-.26,.13-4.2-.7-9.58-.73-11.06-.72l.88,1.99c.61-.15,1.38-.23,2.3-.23Z"/><path class="ag" d="M12.25,52.71S9.5,14.05,28.17,12.13c0,0,13.75-1.92,21.5,19.92l6.33,15.83s8,1.17,6.67,4.58c0,0-1.08,2.08-6.08,.08,0,0,3,10.83-5.5,.75,0,0-1,11.83-5.17,0,0,0-1.92,10.25-4.67,.5,0,0-.75,9.58-5.75,.25,0,0-4.92,10-6.67,.58,0,0-4,8.17-6.17-.33,0,0-5.42,12.42-6.58,.5,.06,.59-2.32,2.16-2.73,2.45-.76,.54-1.51,.95-2.44,1.14-1.42,.28-2.67-.57-2.23-2.05,.53-1.77,1.95-2.85,3.57-3.62Z"/><circle class="ak" cx="34.29" cy="33.46" r="10.5"/><circle class="r" cx="32.63" cy="32.3" r="10.5"/><path class="t" d="M36.59,22.65c2.46,1.92,4.04,4.91,4.04,8.27,0,5.8-4.7,10.5-10.5,10.5-1.35,0-2.64-.27-3.83-.73,1.78,1.39,4.02,2.23,6.46,2.23,5.8,0,10.5-4.7,10.5-10.5,0-4.45-2.77-8.24-6.67-9.77Z"/><path class="s" d="M32.63,43.05c-5.93,0-10.75-4.82-10.75-10.75s4.82-10.75,10.75-10.75,10.75,4.82,10.75,10.75-4.82,10.75-10.75,10.75Zm0-21c-5.65,0-10.25,4.6-10.25,10.25s4.6,10.25,10.25,10.25,10.25-4.6,10.25-10.25-4.6-10.25-10.25-10.25Z"/><path class="s" d="M38.8,30.08c-.06-.17-.23-.28-.41-.27-.18,.01-.33,.15-.36,.33-.27,1.48-1.57,2.56-3.07,2.56-1.73,0-3.13-1.4-3.13-3.13,0-1.32,.84-2.5,2.1-2.94,.17-.06,.28-.23,.27-.41-.01-.18-.15-.33-.33-.37-4.2-.79-7.79,2.43-7.79,6.44,0,3.62,2.94,6.56,6.56,6.56s6.56-2.94,6.56-6.56c0-.75-.13-1.49-.39-2.22Z"/><path class="r" d="M26.73,31.14s-.08,.57,.06,1.39c.06,.41,.2,.88,.4,1.34,.11,.23,.23,.46,.38,.68,.13,.23,.33,.42,.5,.62,.18,.19,.39,.36,.59,.52,.22,.14,.43,.29,.64,.41,.22,.11,.44,.21,.65,.3,.21,.08,.42,.14,.61,.2,.37,.14,.71,.16,.94,.22l.36,.07h.05c.3,.07,.5,.36,.44,.67-.06,.3-.35,.5-.66,.44-.02,0-.05-.01-.07-.02l-.39-.13c-.24-.09-.61-.16-1.01-.37-.2-.1-.42-.19-.65-.31-.22-.14-.45-.28-.68-.43-.23-.17-.44-.36-.67-.55-.2-.22-.41-.43-.59-.67-.16-.25-.35-.48-.46-.75-.14-.25-.24-.52-.32-.78-.16-.52-.24-1.02-.25-1.45-.04-.86,.12-1.41,.12-1.41Z"/><path class="s" d="M29.63,50.17h-.01c-.14,0-.24-.13-.24-.26l.11-2.16c-8.53-1.77-9.19-8.73-9.24-10.19l-2.74,.11c-.14,0-.25-.1-.26-.24,0-.14,.1-.25,.24-.26l3-.12c.06,0,.14,.02,.19,.07,.05,.05,.08,.12,.07,.19-.01,.33-.25,8.18,9.05,9.99,.12,.02,.21,.13,.2,.26l-.12,2.38c0,.13-.12,.24-.25,.24Z"/><path class="ae" d="M21.83,42.26c-.29-.44-.5-.91-.66-1.41l-3.85,3.17c-.96,.79-1.09,2.2-.31,3.15,.79,.96,2.2,1.09,3.15,.31l3.33-2.74c-.67-.71-1.22-1.6-1.66-2.48Z"/><path class="u" d="M22.67,43.57l-2.63,2.16c-.96,.79-2.37,.65-3.15-.31-.12-.14-.21-.3-.28-.46-.21,.69-.09,1.48,.41,2.08,.79,.96,2.2,1.09,3.15,.31l3.33-2.74c-.3-.32-.57-.67-.83-1.05Z"/><path class="s" d="M18.75,48.24h0c-.75,0-1.45-.33-1.92-.91-.87-1.06-.72-2.63,.34-3.5l4.13-3.4,.11,.35c.17,.52,.38,.96,.63,1.35,.52,1.03,1.07,1.85,1.64,2.45l.18,.19-3.53,2.91c-.44,.37-1.01,.57-1.58,.57Zm2.31-6.97l-3.57,2.94c-.85,.7-.97,1.95-.27,2.8,.38,.46,.94,.73,1.54,.73h0c.46,0,.91-.16,1.26-.45l3.12-2.57c-.54-.61-1.05-1.4-1.52-2.35-.21-.31-.4-.68-.56-1.1Z"/><polygon class="s" points="22.08 43.16 19.67 44.8 21.76 42.77 22.08 43.16"/><path class="w" d="M56,47.88l-6.33-15.83C41.92,10.21,28.17,12.13,28.17,12.13c-.3,.03-.59,.1-.88,.15,1.52,.34,2.99,.84,4.39,1.53,5.81,2.85,9.75,8.25,12.62,13.89,1.18,2.32,2.2,4.71,3.15,7.12,.99,2.53,1.63,5.49,2.91,7.87,1.09,2.03,2.69,4.03,3.07,6.36,.58,3.52-2.07,2-3.59,.41,0,0,0,11.12-3.38,1,0,0-3.88,7.25-4.38-.5,0,0-3.75,7.75-6.5-.25,0,0-3.5,9.12-6.5,2,0,0-3.68,7.56-6.22,1.59,0,0-2.55,6.37-4.63,6.66,1.96-.02,4.42-5.66,4.42-5.66,2.17,8.5,6.17,.33,6.17,.33,1.75,9.42,6.67-.58,6.67-.58,5,9.33,5.75-.25,5.75-.25,2.75,9.75,4.67-.5,4.67-.5,4.17,11.83,5.17,0,5.17,0,8.5,10.08,5.5-.75,5.5-.75,5,2,6.08-.08,6.08-.08,1.33-3.42-6.67-4.58-6.67-4.58Z"/><path class="s" d="M18.23,60.22c-1.17,0-1.93-1.52-2.31-4.65-.4,.43-1.12,.99-2.22,1.75l-.2,.14c-.91,.65-1.67,1-2.54,1.18-.94,.19-1.84-.09-2.29-.7-.23-.32-.46-.86-.22-1.66,.46-1.55,1.59-2.73,3.55-3.7-.16-2.8-1.91-38.83,16.15-40.68,0,0,.32-.04,.88-.04,3.22,0,14.25,1.45,20.88,20.13l6.28,15.69c.88,.14,5.41,.97,6.6,3.01,.34,.59,.38,1.22,.12,1.89-.03,.07-.6,1.11-2.59,1.11-.95,0-2.08-.24-3.36-.71,.26,1.07,.74,3.55,.03,4.49-.2,.26-.48,.4-.81,.4h0c-1.01,0-2.61-1.29-4.89-3.94-.18,1.53-.73,4.9-2.16,4.9h0c-.61,0-1.59-.5-3.13-4.6-.35,1.47-1.13,4.05-2.37,4.05-.81,0-1.54-1.05-2.27-3.27-.24,1.37-.83,3.4-2.18,3.4-1.04,0-2.24-1.24-3.66-3.8-.63,1.17-2.5,4.34-4.28,4.34-1.14,0-1.96-1.17-2.5-3.57-.61,1.05-1.96,3.06-3.42,3.06h0c-1.12,0-2.02-1.14-2.69-3.39-.74,1.55-2.65,5.19-4.38,5.19Zm-1.9-5.44c.31,3.19,.99,4.94,1.9,4.94,1.48,0,3.54-3.98,4.21-5.52,.04-.1,.14-.16,.25-.15,.11,0,.2,.08,.22,.19,.61,2.41,1.44,3.68,2.39,3.68h0c1.35,0,2.84-2.45,3.31-3.39,.05-.1,.15-.15,.26-.14,.11,.01,.19,.1,.21,.2,.47,2.51,1.21,3.84,2.14,3.84,1.52,0,3.44-3.24,4.05-4.48,.04-.08,.13-.14,.22-.14,.1,0,.18,.05,.22,.13,1.75,3.27,2.84,3.95,3.45,3.95,1.24,0,1.74-2.96,1.83-4.1,0-.12,.1-.22,.22-.23,.13,0,.23,.06,.27,.18,1.02,3.63,1.83,4.03,2.12,4.03,.84,0,1.71-2.63,2.06-4.5,.02-.11,.11-.19,.23-.2,.11-.01,.22,.06,.25,.17,1.56,4.43,2.52,5.09,2.96,5.09,.9,0,1.55-2.94,1.73-5.03,0-.1,.08-.19,.17-.22,.1-.03,.2,0,.27,.08,2.93,3.48,4.28,4.21,4.89,4.21h0c.18,0,.31-.06,.41-.2,.61-.81,.04-3.54-.23-4.53-.03-.09,0-.19,.07-.25,.07-.06,.17-.08,.26-.05,1.41,.56,2.63,.85,3.63,.85,1.67,0,2.12-.79,2.14-.82,.19-.5,.16-.97-.1-1.43-1.17-2.01-6.33-2.78-6.38-2.79-.09-.01-.16-.07-.2-.15l-6.33-15.83c-6.52-18.37-17.27-19.8-20.41-19.8-.52,0-.82,.04-.82,.04-18.22,1.87-15.73,39.93-15.7,40.32,0,.1-.05,.2-.14,.24-1.91,.92-3,2.02-3.44,3.47-.14,.48-.09,.9,.15,1.22,.34,.46,1.05,.66,1.79,.51,.79-.16,1.49-.49,2.34-1.1l.21-.14c2.17-1.5,2.42-1.95,2.42-2.08-.01-.14,.09-.26,.22-.27,.14,0,.26,.09,.27,.22h0Z"/><path class="af" d="M27.22,13.58s-8.5-.62-12,17c0,0-.75,2.38,.75,2.5,0,0,1.62,1.12,1.75-3.88,0,0,.75-12.5,9.5-15.62Z"/><polygon class="r" points="21.18 42.58 20.93 41.92 17.84 44.42 21.18 42.58"/><path class="r" d="M12.34,10.42s-2.83,1.42,.33,6.17c0,0-1.67-4.08-.33-6.17Z"/><path class="r" d="M42.26,6.25s3.25-5.33,6.25-5.25l-6.25,5.25Z"/><path class="r" d="M1.43,39.25s-.17-1.42,2.92,.33l-2.92-.33Z"/><path class="r" d="M56.18,29.17s1.33-2.75,2.42-1.92l-2.42,1.92Z"/><path class="ai" d="M13.26,48.5l-.17,4.58s-5.83,3-3.08,4.42c0,0-.58-2.25,3.83-3.83l-.58-5.17Z"/><path class="y" d="M21.18,37.25s-.33,7.92,8.75,9.5c0,0-6.67-1.33-8.75-9.5Z"/><path class="aj" d="M14.51,69.83s-.5-3.25,5.58-.75c0,0-5.33-.67-5.58,.75Z"/><path class="r" d="M41.43,57.08l-.58,1,.67,11.83s.25-8.5-.08-12.83Z"/></g></g></g></svg>