<?xml version="1.0" encoding="UTF-8"?><svg xmlns="http://www.w3.org/2000/svg" xmlns:xlink="http://www.w3.org/1999/xlink" viewBox="0 0 80.47 72.24"><defs><style>.w{fill:url(#t);}.x{fill:#fff;}.y{fill:#491c44;}.a`{fill:url(#r);}.aa{fill:#d1d1d1;}.ab{fill:url(#l);}.ac{fill:#c7e4f8;}.ad{fill:url(#u);}.ae{fill:url(#v);}.af{fill:url(#m);}.ag{fill:url(#f);}.ah{fill:url(#p);}.ai{fill:url(#g);}.aj{fill:url(#i);}.ak{fill:url(#h);}.al{fill:url(#d);}.am{fill:url(#e);}.an{fill:#f1b2cc;}.ao{fill:url(#s);}.ap{fill:url(#n);}.aq{fill:#75b6c5;}.ar{fill:#3d8e9b;}.as{fill:url(#j);}.at{fill:url(#o);}.au{fill:url(#q);}.av{fill:#25777f;}.aw{fill:url(#k);}</style><linearGradient id="d" x1="64.52" y1="1.64" x2="64.52" y2="14.85" gradientTransform="matrix(1, 0, 0, 1, 0, 0)" gradientUnits="userSpaceOnUse"><stop offset="0" stop-color="#f1b2cc"/><stop offset=".14" stop-color="#eeadc7"/><stop offset=".3" stop-color="#e69eb9"/><stop offset=".48" stop-color="#da86a3"/><stop offset=".67" stop-color="#c86583"/><stop offset=".86" stop-color="#b23b5b"/><stop offset="1" stop-color="#9f1739"/></linearGradient><linearGradient id="e" x1="62.59" y1="4.62" x2="62.59" y2="11.29" gradientTransform="matrix(1, 0, 0, 1, 0, 0)" gradientUnits="userSpaceOnUse"><stop offset=".2" stop-color="#fff"/><stop offset=".38" stop-color="#fcf2f7"/><stop offset=".71" stop-color="#f7d3e1"/><stop offset="1" stop-color="#f1b2cc"/></linearGradient><linearGradient id="f" x1="14.77" y1="7.92" x2="23.98" y2="7.92" xlink:href="#d"/><linearGradient id="g" x1="16.76" y1="3.29" x2="16.76" y2="14.62" xlink:href="#e"/><linearGradient id="h" x1="40.75" y1="64.73" x2="48.57" y2="64.73" gradientTransform="translate(17.89 -8.85) rotate(14.12)" gradientUnits="userSpaceOnUse"><stop offset="0" stop-color="#c7e4f8"/><stop offset=".19" stop-color="#c3e2f7"/><stop offset=".34" stop-color="#badef4"/><stop offset=".47" stop-color="#aad7ee"/><stop offset=".59" stop-color="#93cce7"/><stop offset=".7" stop-color="#75bfde"/><stop offset=".81" stop-color="#51afd2"/><stop offset=".92" stop-color="#279cc5"/><stop offset="1" stop-color="#008bb9"/></linearGradient><linearGradient id="i" x1="26.49" y1="56.16" x2="26.49" y2="70.29" gradientTransform="matrix(1, 0, 0, 1, 0, 0)" xlink:href="#h"/><linearGradient id="j" x1="61.37" y1="61.95" x2="69.19" y2="61.95" gradientTransform="matrix(1, 0, 0, 1, 0, 0)" xlink:href="#h"/><linearGradient id="k" x1=".16" y1="18.67" x2="13.7" y2="18.67" xlink:href="#d"/><linearGradient id="l" x1="5.68" y1="22.2" x2="12.47" y2="22.2" gradientTransform="matrix(1, 0, 0, 1, 0, 0)" gradientUnits="userSpaceOnUse"><stop offset="0" stop-color="#c7e4f8"/><stop offset=".12" stop-color="#c2e1f6"/><stop offset=".26" stop-color="#b4dbf2"/><stop offset=".42" stop-color="#9cd1ea"/><stop offset=".58" stop-color="#7cc2e0"/><stop offset=".74" stop-color="#52afd3"/><stop offset=".91" stop-color="#1f99c3"/><stop offset="1" stop-color="#008bb9"/></linearGradient><linearGradient id="m" x1="75.97" y1="12.78" x2="75.97" y2="26.55" xlink:href="#d"/><linearGradient id="n" x1="72.81" y1="16.79" x2="72.81" y2="24.27" xlink:href="#l"/><linearGradient id="o" x1="45.58" y1="15.76" x2="45.58" y2="64.96" gradientTransform="matrix(1, 0, 0, 1, 0, 0)" gradientUnits="userSpaceOnUse"><stop offset=".2" stop-color="#75b6c5"/><stop offset=".33" stop-color="#68adbd"/><stop offset=".57" stop-color="#4897a7"/><stop offset=".87" stop-color="#157386"/><stop offset=".99" stop-color="#006578"/></linearGradient><linearGradient id="p" x1="32.8" y1="23.41" x2="32.8" y2="45.63" xlink:href="#o"/><linearGradient id="q" x1="72.11" y1="13.25" x2="72.11" y2="17.49" xlink:href="#e"/><linearGradient id="r" x1=".96" y1="25.12" x2="6.67" y2="25.12" xlink:href="#e"/><linearGradient id="s" x1="13.56" y1="15.29" x2="13.56" y2="41.12" gradientTransform="matrix(1, 0, 0, 1, 0, 0)" gradientUnits="userSpaceOnUse"><stop offset="0" stop-color="#fff"/><stop offset=".28" stop-color="#dcecf0"/><stop offset=".9" stop-color="#84becb"/><stop offset="1" stop-color="#75b6c5"/></linearGradient><linearGradient id="t" x1="12.76" y1="24.91" x2="21.31" y2="25.16" gradientTransform="translate(-.16 .41) rotate(-1.68)" xlink:href="#s"/><linearGradient id="u" x1="53.86" y1="24.24" x2="62.48" y2="24.5" xlink:href="#s"/><linearGradient id="v" x1="24.11" y1="11.13" x2="57.69" y2="12.11" xlink:href="#s"/></defs><g id="a"/><g id="b"><g id="c"><g><path class="an" d="M58.31,12.35s6.81-11.25,9.44-10.69c0,0,2.92-.14-5.28,13.2l-4.17-2.5Z"/><path class="al" d="M67.59,1.66c-.33-.07-.73,.05-1.18,.31,.14,1.09-.6,4.06-5.47,12.06l1.37,.82c8.19-13.33,5.28-13.2,5.28-13.2Z"/><path class="am" d="M60.17,11.29s2.83-5,4.83-6.67c0,0-2.33,6-4.83,6.67Z"/><path class="y" d="M68.35,1.79c-.15-.26-.37-.37-.55-.38-.08-.01-.15-.02-.23-.02-2.82,0-8.79,9.73-9.46,10.84-.03,.06-.04,.12-.03,.19,.02,.06,.06,.12,.11,.15l4.17,2.5s.08,.04,.13,.04c.08,0,.17-.04,.21-.12,4.46-7.26,6.42-11.83,5.66-13.19Zm-6.13,5.2c.78-1.06,1.6-2.08,2.37-2.93l2.47,1.82c-.41,.97-.98,2.16-1.78,3.65l-3.06-2.55Zm2.81,2.99c-.33,.6-.7,1.26-1.11,1.96l-3.56-2.33c.48-.72,1.01-1.47,1.55-2.22l3.11,2.59Zm-2.63,4.52l-3.74-2.24c.37-.61,.87-1.38,1.43-2.23l3.58,2.35c-.39,.67-.81,1.37-1.27,2.13Zm4.85-9.1l-2.33-1.71c1.04-1.09,1.97-1.81,2.64-1.81,.05,0,.1,0,.2,.02,.02,0,.09,.01,.16,.14,.13,.24,.26,1.03-.67,3.36Z"/><path class="an" d="M15.39,18.74S13.17,1.52,15.95,.27c0,0,3.47-1.11,8.19,14.58l-8.75,3.89Z"/><path class="ag" d="M22.31,15.59l1.67-.74C19.25-.84,15.78,.27,15.78,.27c-.47,.21-.79,.88-1.01,1.83,.94,.14,3.82,1.63,7.53,13.5Z"/><path class="ai" d="M15.84,3.29s-1,4,.5,11.33l1.67-1.17s-2.5-6.17-2.17-10.17Z"/><path class="y" d="M16.1,0c-.13,0-.21,.02-.26,.04-2.87,1.29-.93,16.95-.7,18.73,0,.08,.06,.15,.13,.19,.04,.02,.08,.03,.12,.03,.03,0,.07,0,.1-.02l8.75-3.89c.12-.05,.17-.18,.14-.3C20.26,1.07,17,0,16.1,0Zm-1.3,5.77l4.84-1.66-.02-.05c.51,.9,1.07,2.02,1.66,3.43l-6.43,2.39c-.07-1.46-.09-2.86-.06-4.12Zm6.67,2.18c.37,.91,.76,1.92,1.16,3.06l-7.52,2.77c-.09-1.12-.17-2.26-.23-3.38l6.59-2.45ZM16.02,.51s.03,0,.09,0c.34,0,1.53,.24,3.29,3.17l-4.57,1.57c.1-2.53,.45-4.39,1.19-4.73Zm-.42,17.87c-.16-1.27-.31-2.65-.43-4.07l7.64-2.81c.34,.99,.68,2.05,1.04,3.22l-8.24,3.66Z"/><path class="ac" d="M28.06,60.99s.45,9.16-2.29,9.22c0,0-1.43,0-1.27-3.42,0,0-.52,3.21-1.99,2.71,0,0-1.16-.49-.47-3.44,0,0-1.38,3.05-3.27,2.15,0,0-3.41-.16,2.41-9.16,5.82-9,6.88,1.93,6.88,1.93Z"/><path class="ac" d="M40.27,63.22s-2.34,8.02,.08,8.68c0,0,1.27,.31,1.86-2.75,0,0-.22,2.96,1.2,2.84,0,0,1.13-.18,1.14-2.95,0,0,.59,3.01,2.45,2.63,0,0,3.07,.62-.2-8.65-3.27-9.26-6.52,.19-6.52,.19Z"/><path class="ak" d="M46.6,62.15c-1.17-3.44-2.36-4.52-3.43-4.45,.57,.69,1.16,1.81,1.74,3.51,3.45,10.15,.1,9.47,.1,9.47-.06,.01-.12,.01-.18,.02,.41,.61,1.01,1.1,1.87,.93,0,0,3.35,.68-.1-9.47Z"/><path class="aj" d="M28.18,61.12s-.35-3.59-1.74-4.96c.33,.81,.56,1.97,.65,3.65,.51,9.51-1.82,9.31-2.31,9.17,.13,.5,.31,.82,.5,1.02,.21,.14,.45,.25,.76,.27,0,0,.03,.01,.07,.03,2.49-.54,2.07-9.17,2.07-9.17Z"/><path class="y" d="M25.77,70.46s-.41-.01-.79-.4c-.35-.36-.57-.92-.68-1.67-.3,.72-.77,1.41-1.49,1.41-.13,0-.26-.02-.39-.07-.13-.05-1-.49-.84-2.45-.49,.65-1.22,1.34-2.12,1.34-.26,0-.51-.06-.77-.17-.17-.02-.67-.14-.96-.71-.73-1.42,.36-4.38,3.22-8.82,1.6-2.47,2.96-3.67,4.18-3.67,2.58,0,3.13,5.48,3.16,5.71,.01,.3,.33,7.07-1.44,8.97-.32,.34-.68,.52-1.09,.52h0Zm-1.27-3.92h.03c.13,.02,.23,.13,.22,.26-.14,2.98,.96,3.15,1.03,3.15,.27,0,.51-.13,.73-.36,1.62-1.74,1.31-8.53,1.3-8.6-.14-1.45-.89-5.25-2.66-5.25-.7,0-1.92,.6-3.76,3.44-3.63,5.61-3.56,7.62-3.2,8.32,.22,.42,.59,.45,.59,.45,.03,0,.07,0,.1,.02,.2,.09,.39,.14,.59,.14,1.34,0,2.33-2.15,2.34-2.17,.05-.12,.18-.17,.31-.13,.12,.04,.19,.17,.16,.29-.62,2.66,.32,3.15,.32,3.16,.06,.02,.13,.03,.2,.03,.84,0,1.33-1.89,1.44-2.55,.02-.12,.13-.21,.25-.21Z"/><path class="ac" d="M58.78,60.99s-.45,9.16,2.29,9.22c0,0,1.43,0,1.27-3.42,0,0,.52,3.21,1.99,2.71,0,0,1.16-.49,.47-3.44,0,0,1.38,3.05,3.27,2.15,0,0,3.41-.16-2.41-9.16-5.82-9-6.88,1.93-6.88,1.93Z"/><path class="as" d="M65.78,59.06c-1.97-3.05-3.39-3.81-4.41-3.48,.73,.53,1.56,1.47,2.54,2.98,5.82,9,2.41,9.16,2.41,9.16-.06,.03-.11,.04-.17,.06,.55,.5,1.25,.82,2.04,.44,0,0,3.41-.16-2.41-9.16Z"/><path class="y" d="M61.07,70.46h0c-.41,0-.78-.19-1.09-.52-1.77-1.9-1.45-8.67-1.44-8.96,.02-.25,.58-5.72,3.16-5.72,1.22,0,2.58,1.2,4.18,3.67,2.87,4.44,3.95,7.41,3.22,8.82-.29,.57-.79,.69-.96,.71-.25,.11-.51,.17-.77,.17h0c-.9,0-1.63-.69-2.12-1.34,.16,1.96-.71,2.39-.82,2.44-.97,.34-1.54-.49-1.89-1.34-.11,.74-.33,1.3-.68,1.66-.37,.39-.74,.4-.79,.4Zm.62-14.71c-1.76,0-2.52,3.8-2.66,5.26,0,.06-.32,6.84,1.31,8.58,.22,.24,.46,.36,.73,.37,.07,0,1.16-.17,1.03-3.15,0-.13,.09-.25,.22-.26,.12-.02,.25,.08,.27,.21,.12,.72,.68,2.86,1.66,2.51h0s.93-.5,.3-3.15c-.03-.12,.04-.25,.16-.29,.12-.04,.25,.02,.31,.13,0,.02,1,2.17,2.34,2.17,.2,0,.39-.05,.59-.14,.03-.01,.06-.02,.1-.02,.01,0,.39-.03,.6-.46,.35-.71,.4-2.73-3.21-8.31-1.84-2.84-3.06-3.44-3.76-3.44Z"/><path class="y" d="M43.32,72.24c-.3,0-.57-.12-.78-.34-.28-.3-.43-.76-.51-1.22-.68,1.64-1.66,1.48-1.74,1.46-.37-.1-.67-.34-.88-.72-1.17-2.08,.54-8.02,.62-8.27,.07-.19,1.55-4.44,3.66-4.44,1.24,0,2.34,1.38,3.34,4.23,1.56,4.41,1.93,7.25,1.09,8.44-.34,.48-.78,.55-1.01,.55h0s-.08,0-.1,0c-1.2,.21-1.92-.76-2.31-1.62-.29,1.72-1.14,1.91-1.26,1.93-.05,0-.09,0-.12,0Zm-1.11-3.34s.02,0,.03,0c.13,.02,.23,.13,.22,.27-.04,.49-.02,1.88,.45,2.39,.12,.13,.25,.18,.41,.18h.06s.91-.24,.91-2.7c0-.13,.1-.24,.23-.25,.12-.02,.24,.07,.27,.2,0,.03,.57,2.75,2.16,2.43,.03,0,.07,0,.1,0,0,0,.03,0,.06,0h0c.13,0,.39-.04,.6-.34,.42-.59,.82-2.41-1.15-7.98-.9-2.55-1.89-3.9-2.87-3.9-1.46,0-2.79,2.95-3.18,4.09-.01,.05-1.72,5.97-.66,7.88,.15,.26,.33,.42,.57,.48h0c.21,0,1.08-.13,1.55-2.55,.02-.12,.13-.2,.25-.2Z"/><path class="an" d="M13.86,19.57s-6.67-7.5-12.08-1.39c0,0-5.97,6.81,5.69,12.08l6.39-10.7Z"/><path class="aw" d="M.78,20.52c4.69-5.29,10.31-.39,11.74,1.03l1.18-1.97s-6.67-7.5-12.08-1.39c0,0-1.16,1.32-1.46,3.25,.33-.58,.62-.91,.62-.91Z"/><path class="y" d="M7.58,30.59l-.2-.09C3.15,28.59,.71,26.26,.13,23.57c-.67-3.08,1.37-5.45,1.46-5.55,1.46-1.65,3.15-2.48,5.01-2.48,3.96,0,7.3,3.71,7.44,3.87l.12,.14-6.6,11.04Zm-.97-14.55c-1.72,0-3.28,.78-4.64,2.31-.02,.02-1.96,2.28-1.34,5.12,.54,2.48,2.81,4.66,6.75,6.48l6.18-10.34c-.64-.66-3.62-3.57-6.95-3.57Z"/><path class="ac" d="M12.47,22.01s-3.33-3.26-6.04-.6c0,0-2.99,2.95,2.85,5.25l3.19-4.64Z"/><path class="ab" d="M6.27,23.08c2.04-2,4.43-.64,5.49,.15l.72-1.04s-3.33-3.26-6.04-.6c0,0-1,1-.7,2.29,.22-.49,.53-.79,.53-.79Z"/><path class="y" d="M9.37,26.96l-.19-.07c-2.21-.87-3.46-1.95-3.72-3.2-.28-1.38,.75-2.41,.79-2.46,.75-.74,1.62-1.11,2.59-1.11,2.02,0,3.73,1.64,3.8,1.71l.15,.15-3.43,4.98Zm-.53-6.34c-.83,0-1.58,.33-2.24,.97,0,0-.88,.9-.65,2,.21,1.03,1.33,1.98,3.23,2.76l2.96-4.3c-.45-.39-1.81-1.43-3.3-1.43Z"/><path class="an" d="M65.95,18.05c.42-.42,7.64-9.72,13.2-3.61,0,0,4.86,6.39-6.11,11.94l-7.08-8.33Z"/><path class="af" d="M79.14,14.6c-.86-.95-1.77-1.53-2.68-1.82,.23,.2,.46,.41,.68,.66,0,0,4.64,6.11-5.42,11.58l1.31,1.54c10.97-5.56,6.11-11.94,6.11-11.94Z"/><path class="y" d="M72.97,26.69l-7.36-8.66,.16-.16s.08-.09,.16-.19c3.96-4.6,7.05-5.57,8.93-5.57,1.66,0,3.16,.73,4.46,2.16,.08,.1,1.64,2.19,.98,5.06-.63,2.74-3.04,5.19-7.16,7.28l-.18,.09Zm-6.69-8.64l6.82,8.02c3.87-1.99,6.13-4.3,6.72-6.85,.61-2.64-.86-4.62-.87-4.64-1.19-1.3-2.56-1.97-4.07-1.97-1.78,0-4.71,.94-8.55,5.4l-.04,.04Z"/><path class="ac" d="M68.31,19.98c.2-.22,3.62-5.19,6.26-1.93,0,0,2.31,3.41-2.9,6.38l-3.36-4.45Z"/><path class="ap" d="M74.4,17.89c-.72-.9-1.51-1.16-2.26-1.08,.2,.16,.4,.34,.6,.58,0,0,2.03,3.01-2.02,5.83l.79,1.05c5.2-2.97,2.9-6.38,2.9-6.38Z"/><path class="y" d="M71.6,24.76l-3.61-4.79,.13-.15s.04-.05,.07-.09c1.91-2.5,3.42-3.03,4.35-3.03,.83,0,1.58,.4,2.22,1.2,.05,.07,.84,1.27,.46,2.9-.34,1.46-1.49,2.75-3.43,3.86l-.19,.11Zm-2.98-4.78l3.11,4.12c1.7-1.01,2.71-2.16,3-3.43,.33-1.42-.37-2.48-.38-2.49-.53-.66-1.15-1-1.82-1-.81,0-2.14,.49-3.92,2.79Z"/><ellipse class="aq" cx="41.57" cy="36.66" rx="36.04" ry="28.47"/><path class="at" d="M66.26,15.76c5.01,4.89,8.02,11.12,8.02,17.9,0,15.73-16.14,28.47-36.04,28.47-9.56,0-18.24-2.94-24.69-7.74,6.61,6.45,16.7,10.57,28.02,10.57,19.91,0,36.04-12.75,36.04-28.47,0-8.18-4.37-15.54-11.35-20.73Z"/><path class="y" d="M41.57,65.38c-20.01,0-36.29-12.89-36.29-28.72S21.56,7.93,41.57,7.93s36.29,12.89,36.29,28.72-16.28,28.72-36.29,28.72Zm0-56.95C21.84,8.43,5.78,21.1,5.78,36.66s16.06,28.22,35.79,28.22,35.79-12.66,35.79-28.22S61.31,8.43,41.57,8.43Z"/><circle class="x" cx="53.12" cy="34.02" r="7.22" transform="translate(-9.89 36.91) rotate(-35.26)"/><path class="aa" d="M54.59,26.78c2.39,1.4,3.87,4.11,3.54,7.04-.45,3.96-4.02,6.82-7.98,6.37-.23-.03-.45-.06-.67-.11,.84,.49,1.8,.83,2.83,.94,3.96,.45,7.54-2.41,7.98-6.37,.42-3.74-2.09-7.13-5.7-7.87Z"/><path class="y" d="M53.13,41.49c-.28,0-.56-.02-.84-.05-4.09-.46-7.05-4.17-6.59-8.26,.42-3.79,3.61-6.64,7.42-6.64,.28,0,.56,.02,.84,.05,4.09,.46,7.05,4.17,6.59,8.26-.42,3.79-3.61,6.64-7.42,6.64Zm-.02-14.45c-3.55,0-6.52,2.66-6.92,6.2-.43,3.82,2.33,7.28,6.15,7.71,.26,.03,.53,.04,.79,.04,3.55,0,6.52-2.66,6.92-6.2,.43-3.82-2.33-7.28-6.15-7.71-.26-.03-.53-.04-.79-.04Z"/><path class="y" d="M57.51,32.98c-.03-.12-.14-.21-.26-.21-.13,0-.24,.08-.27,.2-.3,.99-1.27,1.63-2.3,1.51-1.18-.13-2.03-1.2-1.9-2.38,.1-.9,.77-1.64,1.66-1.85,.12-.03,.21-.14,.22-.26,0-.13-.08-.24-.2-.28-2.81-.86-5.51,1.06-5.82,3.81-.28,2.47,1.51,4.71,3.98,4.99s4.71-1.51,4.99-3.98c.06-.51,.02-1.03-.1-1.55Z"/><path class="x" d="M49.18,32.77s-.1,.38-.07,.96c0,.29,.07,.62,.17,.95,.06,.17,.12,.33,.21,.49,.07,.17,.19,.31,.29,.46,.11,.14,.24,.27,.36,.4,.14,.11,.27,.23,.41,.33,.14,.09,.29,.18,.42,.26,.14,.07,.28,.13,.4,.18,.24,.12,.48,.17,.62,.22l.24,.08h.04c.2,.08,.31,.29,.25,.49-.06,.2-.28,.31-.48,.25-.01,0-.03-.01-.04-.02l-.26-.12c-.16-.08-.4-.16-.66-.33-.13-.08-.28-.16-.42-.26-.14-.11-.28-.23-.43-.35-.14-.13-.27-.28-.41-.43-.12-.16-.25-.33-.35-.5-.09-.18-.2-.36-.26-.55-.08-.18-.12-.37-.16-.56-.07-.37-.09-.72-.06-1.01,.04-.59,.19-.95,.19-.95Z"/><path class="ar" d="M32.03,18.97c-.82,.83-2.84,1.25-3.54,1.45-2.9,.84-5.67,2.57-7.91,4.78-1.61,1.6-4.59,6.9-7.35,5.1-2.93-1.92,1.73-6.11,3.24-7.32,3.33-2.68,9.93-6.61,14.4-6.01,.57,.08,.99,.1,1.32,.62,.35,.56,.22,1.01-.16,1.39Z"/><path class="av" d="M32.18,17.59c-.33-.52-.75-.54-1.32-.62-.16-.02-.34-.03-.51-.04,.13,.39,.02,.74-.26,1.04-.78,.87-2.77,1.39-3.46,1.63-2.85,.99-5.52,2.86-7.65,5.19-1.22,1.34-3.2,5.09-5.39,5.69,2.65,1.15,5.44-3.75,6.98-5.28,2.24-2.22,5.01-3.94,7.91-4.78,.7-.2,2.72-.63,3.54-1.45,.37-.37,.5-.83,.16-1.39Z"/><path class="y" d="M14.41,30.92c-.46,0-.91-.14-1.32-.41-.67-.44-1.02-1.02-1.06-1.72-.11-2.29,3.24-5.17,4.27-6,2.64-2.12,8.87-6.13,13.6-6.13,.34,0,.67,.02,.99,.06l.12,.02c.52,.07,1.02,.13,1.38,.72,.38,.61,.31,1.19-.19,1.69-.75,.75-2.32,1.16-3.26,1.41-.15,.04-.29,.08-.39,.11-2.76,.8-5.53,2.48-7.8,4.72-.35,.35-.77,.88-1.26,1.49-1.42,1.8-3.2,4.04-5.08,4.04Zm15.49-13.77c-4.59,0-10.7,3.94-13.29,6.02-1.94,1.56-4.17,3.96-4.09,5.59,.03,.54,.3,.98,.83,1.33,.34,.22,.68,.33,1.05,.33,1.64,0,3.4-2.23,4.69-3.85,.5-.63,.92-1.17,1.3-1.54,2.33-2.3,5.17-4.02,8.01-4.85,.11-.03,.25-.07,.4-.11,.83-.22,2.38-.62,3.03-1.28,.34-.34,.37-.67,.12-1.08-.24-.39-.54-.42-1.02-.49l-.12-.02c-.29-.04-.6-.06-.92-.06Z"/><path class="ar" d="M50.6,22.87c.6,.5,1.96,.67,2.44,.76,1.98,.39,3.92,1.38,5.54,2.73,1.17,.97,3.46,4.33,5.19,2.97,1.84-1.45-1.51-3.97-2.58-4.69-2.37-1.59-6.99-3.83-9.94-3.17-.37,.08-.66,.12-.84,.49-.2,.39-.09,.69,.18,.91Z"/><path class="av" d="M63.77,28.33c-1.73,1.36-4.02-2-5.19-2.97-1.62-1.35-3.56-2.34-5.54-2.73-.48-.1-1.85-.26-2.44-.76-.06-.05-.11-.1-.15-.16-.07,.06-.14,.14-.2,.25-.2,.39-.09,.69,.18,.91,.6,.5,1.96,.67,2.44,.76,1.98,.39,3.92,1.38,5.54,2.73,1.17,.97,3.46,4.33,5.19,2.97,.5-.39,.61-.86,.49-1.35-.08,.12-.19,.24-.33,.35Z"/><path class="y" d="M62.88,29.9h0c-1.25,0-2.52-1.35-3.54-2.43-.36-.38-.67-.71-.92-.91-1.63-1.35-3.56-2.3-5.43-2.68-.07-.01-.16-.03-.27-.05-.65-.11-1.73-.3-2.29-.77-.39-.33-.48-.76-.25-1.22,.23-.45,.59-.53,.94-.6l.08-.02c.37-.08,.77-.12,1.21-.12,3.12,0,7.08,2.09,8.92,3.33,.74,.5,3.17,2.25,3.23,3.82,.02,.5-.19,.93-.64,1.27-.32,.25-.67,.37-1.05,.37Zm-10.47-8.3c-.4,0-.77,.04-1.1,.11l-.08,.02c-.34,.07-.48,.11-.6,.34-.13,.25-.09,.43,.12,.61,.45,.38,1.49,.56,2.05,.66,.11,.02,.21,.04,.28,.05,1.95,.39,3.96,1.38,5.65,2.78,.27,.23,.59,.57,.96,.96,.9,.96,2.14,2.27,3.17,2.27h0c.27,0,.51-.09,.74-.27,.31-.25,.46-.53,.45-.86-.04-1.06-1.65-2.51-3.01-3.42-1.8-1.21-5.64-3.25-8.64-3.25Z"/><path class="x" d="M33.45,49.71l20.56-6.25-20.56,6.25Z"/><path class="y" d="M33.45,49.96c-.11,0-.21-.07-.24-.18-.04-.13,.03-.27,.17-.31l20.56-6.25c.13-.04,.27,.03,.31,.17,.04,.13-.03,.27-.17,.31l-20.56,6.25s-.05,.01-.07,.01Z"/><path class="x" d="M36.88,48.73c1.08,1.92,4.17,6.86,3.23-.94l-3.23,.94Z"/><path class="x" d="M47.43,45.68c1.08,1.92,4.17,6.86,3.23-.94l-3.23,.94Z"/><path class="x" d="M42.15,47.2c.92,1.35,3.58,4.82,3.23-.94l-3.23,.94Z"/><path class="x" d="M64.14,48.85l-20.56,6.25,20.56-6.25Z"/><path class="y" d="M43.59,55.35c-.11,0-.21-.07-.24-.18-.04-.13,.03-.27,.17-.31l20.56-6.25c.13-.04,.27,.03,.31,.17,.04,.13-.03,.27-.17,.31l-20.56,6.25s-.05,.01-.07,.01Z"/><path class="x" d="M60.72,49.83c-1.08-1.92-4.17-6.86-3.23,.94l3.23-.94Z"/><path class="aa" d="M59.96,50.3l.76-.22c-.86-1.52-2.99-4.96-3.35-2.38,.63-.4,1.82,1.31,2.59,2.6Z"/><path class="y" d="M57.49,51.02s-.1-.01-.14-.04c-.06-.04-.1-.11-.11-.18-.39-3.2-.07-3.99,.21-4.3,.13-.15,.3-.23,.49-.23,.69,0,1.7,1.16,2.99,3.44,.04,.07,.04,.15,.01,.22-.03,.07-.09,.12-.16,.15l-3.23,.94s-.05,0-.07,0Zm.45-4.25s-.07,0-.12,.06c-.18,.2-.43,.94-.12,3.62l2.64-.77c-1.24-2.14-2.06-2.91-2.4-2.91Z"/><path class="x" d="M50.16,52.89c-1.08-1.92-4.17-6.86-3.23,.94l3.23-.94Z"/><path class="x" d="M55.44,51.36c-.92-1.35-3.58-4.82-3.23,.94l3.23-.94Z"/><path class="ar" d="M50.95,14.78c0,1.04-.87,1.88-1.94,1.88s-1.94-.84-1.94-1.88,.87-1.88,1.94-1.88,1.94,.84,1.94,1.88Z"/><ellipse class="ar" cx="40.05" cy="18.95" rx=".9" ry="1.32"/><ellipse class="ar" cx="65.74" cy="41.95" rx=".9" ry="1.32"/><circle class="ar" cx="63.66" cy="39.5" r="1.32"/><path class="ar" d="M46.59,23.92c0,.5-.56,.9-1.25,.9s-1.25-.4-1.25-.9,.56-.9,1.25-.9,1.25,.4,1.25,.9Z"/><path class="ar" d="M26.37,46.79c0,.84-.31,1.53-.69,1.53s-.69-.68-.69-1.53,.31-1.53,.69-1.53,.69,.68,.69,1.53Z"/><path class="ar" d="M33.59,56.87c0,.73-.47,1.32-1.04,1.32s-1.04-.59-1.04-1.32,.47-1.32,1.04-1.32,1.04,.59,1.04,1.32Z"/><path class="ar" d="M29.71,46.32c-.87,.66-2,.64-2.52-.05s-.24-1.78,.63-2.44c.87-.66,2-.64,2.52,.05,.52,.69,.24,1.78-.63,2.44Z"/><path class="ar" d="M28.75,49.31c-.43,.33-.99,.32-1.25-.02-.26-.34-.12-.88,.31-1.21,.43-.33,.99-.32,1.25,.02s.12,.88-.31,1.21Z"/><path class="ar" d="M19.84,49.71c0,.54-.9,.97-2.01,.97s-2.01-.44-2.01-.97,.9-.97,2.01-.97,2.01,.44,2.01,.97Z"/><path class="ar" d="M12.61,37.21c0,.84-.75,1.53-1.67,1.53s-1.67-.68-1.67-1.53,.75-1.53,1.67-1.53,1.67,.68,1.67,1.53Z"/><path class="ah" d="M43.84,35.76c-.68,6.1-6.18,10.49-12.28,9.8-6.1-.68-10.49-6.18-9.8-12.28,.68-6.1,6.18-10.49,12.28-9.8,6.1,.68,10.49,6.18,9.8,12.28Z"/><path class="x" d="M42.22,35.26c-.68,6.1-6.18,10.49-12.28,9.8-6.1-.68-10.49-6.18-9.8-12.28,.68-6.1,6.18-10.49,12.28-9.8,6.1,.68,10.49,6.18,9.8,12.28Z"/><path class="y" d="M37.93,32.42c-.04-.19-.21-.32-.4-.33-.19,0-.37,.12-.42,.3-.46,1.53-1.95,2.5-3.53,2.33-1.81-.2-3.13-1.85-2.92-3.66,.16-1.38,1.18-2.53,2.55-2.84,.19-.04,.32-.21,.33-.4,0-.19-.12-.37-.3-.42-4.32-1.33-8.48,1.63-8.96,5.86-.43,3.81,2.32,7.25,6.13,7.68,3.81,.43,7.25-2.32,7.68-6.13,.09-.79,.04-1.59-.15-2.38Z"/><path class="x" d="M25.11,32.1s-.16,.59-.1,1.47c.01,.44,.1,.95,.27,1.46,.09,.26,.18,.51,.32,.76,.11,.26,.29,.48,.45,.71,.17,.22,.37,.42,.56,.62,.22,.17,.42,.35,.63,.5,.22,.14,.44,.27,.64,.4,.22,.11,.43,.19,.62,.28,.37,.19,.73,.25,.96,.34l.37,.12,.06,.02c.31,.1,.48,.43,.39,.74s-.43,.48-.74,.39c-.02,0-.05-.02-.07-.03l-.39-.18c-.25-.13-.62-.24-1.02-.51-.2-.12-.42-.25-.65-.4l-.67-.53c-.22-.2-.42-.43-.64-.66-.18-.25-.38-.5-.54-.77-.14-.28-.31-.55-.4-.85-.12-.28-.19-.58-.25-.86-.1-.57-.13-1.1-.09-1.55,.06-.91,.29-1.47,.29-1.47Z"/><path class="aa" d="M33.59,23.33c3.64,2.13,5.88,6.26,5.38,10.71-.68,6.03-6.12,10.37-12.15,9.7-.34-.04-.68-.1-1.01-.17,1.28,.75,2.74,1.26,4.31,1.43,6.03,.68,11.47-3.66,12.15-9.7,.64-5.69-3.19-10.84-8.68-11.98Z"/><path class="y" d="M31.19,45.38c-.42,0-.86-.02-1.28-.07-3.02-.34-5.72-1.83-7.61-4.2-1.89-2.37-2.75-5.34-2.41-8.35,.65-5.75,5.49-10.09,11.28-10.09,.42,0,.86,.02,1.28,.07,6.23,.7,10.72,6.33,10.02,12.56-.65,5.75-5.5,10.09-11.28,10.09Zm-.03-22.22c-5.53,0-10.16,4.15-10.78,9.65-.32,2.88,.5,5.72,2.3,7.99,1.81,2.27,4.39,3.69,7.28,4.02,.41,.05,.82,.07,1.22,.07,5.53,0,10.16-4.15,10.78-9.65,.67-5.95-3.63-11.34-9.58-12.01-.41-.05-.82-.07-1.23-.07Z"/><path class="aa" d="M52.37,50.08c.47-.3,1.26,.59,1.96,1.6l.8-.23c-1-1.59-2.46-3.47-2.75-1.37Z"/><path class="y" d="M52.21,52.55c-.05,0-.1-.02-.14-.05-.06-.04-.1-.11-.11-.19-.11-1.72,.05-2.77,.46-3.22,.16-.17,.36-.26,.58-.26,.84,0,1.89,1.3,2.63,2.38,.04,.07,.06,.15,.03,.23-.03,.08-.09,.13-.17,.16l-3.23,.94s-.05,0-.07,0Zm.8-3.21c-.09,0-.15,.03-.22,.1-.17,.18-.43,.74-.35,2.53l2.59-.75c-.83-1.17-1.59-1.88-2.02-1.88Z"/><path class="aa" d="M49.33,53.18l.76-.22c-.86-1.52-2.99-4.96-3.35-2.38,.63-.4,1.82,1.31,2.59,2.6Z"/><path class="aa" d="M37.79,48.33l-.77,.16c.75,1.58,2.63,5.16,3.17,2.61-.66,.35-1.72-1.44-2.4-2.77Z"/><path class="aa" d="M44.97,48.72c-.49,.26-1.22-.68-1.84-1.74l-.81,.17c.88,1.66,2.21,3.64,2.65,1.56Z"/><path class="aa" d="M48.22,45.47l-.77,.16c.75,1.58,2.63,5.16,3.17,2.61-.66,.35-1.72-1.44-2.4-2.77Z"/><path class="y" d="M46.93,54.07s-.1-.01-.14-.04c-.06-.04-.1-.11-.11-.18-.39-3.2-.07-3.99,.21-4.3,.13-.15,.3-.23,.49-.23,.69,0,1.7,1.16,2.99,3.44,.04,.07,.04,.15,.01,.22-.03,.07-.09,.12-.16,.15l-3.23,.94s-.05,0-.07,0Zm.45-4.25s-.07,0-.12,.06c-.18,.2-.43,.94-.12,3.62l2.64-.76c-1.24-2.14-2.06-2.91-2.4-2.91Z"/><path class="y" d="M39.65,52.3h0c-.69,0-1.7-1.16-2.99-3.44-.04-.07-.04-.15-.01-.22,.03-.07,.09-.12,.16-.15l3.23-.94c.07-.02,.15,0,.21,.03,.06,.04,.1,.11,.11,.18,.39,3.2,.07,3.99-.21,4.3-.13,.15-.3,.23-.49,.23Zm-2.4-3.41c1.24,2.14,2.06,2.91,2.4,2.91h0s.07,0,.12-.06c.18-.2,.43-.94,.12-3.62l-2.64,.76Z"/><path class="y" d="M50.2,49.24h0c-.69,0-1.7-1.16-2.99-3.44-.04-.07-.04-.15-.01-.22,.03-.07,.09-.12,.16-.15l3.23-.94c.07-.02,.15,0,.21,.03,.06,.04,.1,.11,.11,.18,.39,3.2,.07,3.99-.21,4.3-.13,.15-.3,.23-.49,.23Zm-2.4-3.41c1.24,2.14,2.06,2.91,2.4,2.91h0s.07,0,.12-.06c.18-.2,.42-.94,.12-3.62l-2.64,.76Z"/><path class="y" d="M44.58,49.73h0c-.84,0-1.89-1.3-2.63-2.38-.04-.07-.06-.15-.03-.23,.03-.08,.09-.13,.17-.16l3.23-.94c.07-.02,.15,0,.21,.04,.06,.04,.1,.11,.11,.19,.11,1.72-.05,2.77-.47,3.22-.16,.17-.36,.26-.58,.26Zm-2.02-2.38c.83,1.17,1.6,1.88,2.02,1.88h0c.09,0,.16-.03,.22-.1,.17-.18,.43-.74,.35-2.53l-2.59,.75Z"/><path class="au" d="M69.17,17.49l-.88-.62s3.5-4.38,7.62-3.5c0,0-4.25,.88-6.75,4.12Z"/><path class="a`" d="M6.67,27.12l-.5,1.62S.17,25.99,1.05,21.49c0,0,.38,3.88,5.62,5.62Z"/><path class="x" d="M21.05,61.37s-3.12,4.25-2,6c0,0,.75,.5,1.12-.62,0,0,0-4.12,.88-5.38Z"/><path class="x" d="M40.46,65.62s-1.42,8.44,.87,4.28c0,0-1.09-.91-.87-4.28Z"/><path class="x" d="M59.55,62.62s-.25,8.62,1.75,5.25l-1.75-5.25Z"/><path class="ao" d="M20.17,15.29S3.34,25.12,7.67,41.12c0,0-.5-15,12.5-25.83Z"/><path class="w" d="M14.3,29.38s-2.35-.43,.24-3.18c0,0,5.36-4.83,7.34-5.72,0,0-6.85,5.37-7.58,8.89Z"/><path class="ad" d="M53.92,22.12s6.88,2,8.5,4.5c0,0-7.38-4.38-8.5-4.5Z"/><path class="ae" d="M24.05,13.24s15.12-8,33.62-.5c0,0-15.88-4.12-33.62,.5Z"/></g></g></g></svg>