<svg xmlns="http://www.w3.org/2000/svg" xmlns:xlink="http://www.w3.org/1999/xlink" viewBox="0 0 69.83 72.98"><defs><style>.r{fill:#fff;}.s{fill:#491c44;}.t{fill:#d1d1d1;}.u{fill:url(#l);}.v{fill:url(#m);}.w{fill:url(#f);}.x{fill:url(#p);}.y{fill:#f9f0dd;}.a`{fill:url(#g);}.aa{fill:#e16962;}.ab{fill:url(#i);}.ac{fill:url(#h);}.ad{fill:url(#d);}.ae{fill:url(#e);}.af{fill:#f1b2cc;}.ag{fill:url(#n);}.ah{fill:#d5b29a;}.ai{fill:url(#j);}.aj{fill:url(#o);}.ak{fill:url(#q);}.al{fill:url(#k);}</style><linearGradient id="d" x1="22.72" y1="50.77" x2="22.72" y2="72.6" gradientTransform="matrix(1, 0, 0, 1, 0, 0)" gradientUnits="userSpaceOnUse"><stop offset=".06" stop-color="#d5b29a"></stop><stop offset=".3" stop-color="#d1ae99"></stop><stop offset=".51" stop-color="#c6a496"></stop><stop offset=".71" stop-color="#b49392"></stop><stop offset=".9" stop-color="#9a7b8c"></stop><stop offset="1" stop-color="#8a6b89"></stop></linearGradient><linearGradient id="e" x1="47.08" y1="50.89" x2="47.08" y2="72.64" xlink:href="#d"></linearGradient><linearGradient id="f" x1="13.11" y1="21.39" x2="13.11" y2="34.4" gradientTransform="matrix(1, 0, 0, 1, 0, 0)" gradientUnits="userSpaceOnUse"><stop offset="0" stop-color="#f9f0dd"></stop><stop offset=".15" stop-color="#f9e8d4"></stop><stop offset=".39" stop-color="#fad3bc"></stop><stop offset=".7" stop-color="#fcb295"></stop><stop offset="1" stop-color="#ff8b69"></stop></linearGradient><linearGradient id="g" x1="60.47" y1="28.24" x2="60.47" y2="34.12" xlink:href="#f"></linearGradient><linearGradient id="h" x1=".74" y1="40.11" x2="14.13" y2="40.11" xlink:href="#d"></linearGradient><linearGradient id="i" x1="62.28" y1="38.79" x2="62.28" y2="43.35" gradientTransform="matrix(1, 0, 0, 1, 0, 0)" gradientUnits="userSpaceOnUse"><stop offset=".06" stop-color="#d5b29a"></stop><stop offset=".28" stop-color="#c9a797"></stop><stop offset=".65" stop-color="#ab8b90"></stop><stop offset="1" stop-color="#8a6b89"></stop></linearGradient><linearGradient id="j" x1="33.81" y1="9.79" x2="33.81" y2="56.97" gradientTransform="matrix(1, 0, 0, 1, 0, 0)" gradientUnits="userSpaceOnUse"><stop offset="0" stop-color="#e16962"></stop><stop offset=".22" stop-color="#de6561"></stop><stop offset=".41" stop-color="#d85a5e"></stop><stop offset=".59" stop-color="#cd485a"></stop><stop offset=".76" stop-color="#bd2f54"></stop><stop offset=".94" stop-color="#a90e4d"></stop><stop offset="1" stop-color="#a1004a"></stop></linearGradient><linearGradient id="k" x1="15.26" y1="41.4" x2="25.16" y2="41.4" gradientTransform="matrix(1, 0, 0, 1, 0, 0)" gradientUnits="userSpaceOnUse"><stop offset="0" stop-color="#f1b2cc"></stop><stop offset=".14" stop-color="#eeadc7"></stop><stop offset=".3" stop-color="#e69eb9"></stop><stop offset=".48" stop-color="#da86a3"></stop><stop offset=".67" stop-color="#c86583"></stop><stop offset=".86" stop-color="#b23b5b"></stop><stop offset="1" stop-color="#9f1739"></stop></linearGradient><linearGradient id="l" x1="22.57" y1="1.52" x2="22.57" y2="23.14" xlink:href="#f"></linearGradient><linearGradient id="m" x1="51.35" y1=".59" x2="51.35" y2="20.07" xlink:href="#f"></linearGradient><linearGradient id="n" x1="37.13" y1="20.59" x2="37.13" y2="39.6" gradientTransform="matrix(1, 0, 0, 1, 0, 0)" gradientUnits="userSpaceOnUse"><stop offset="0" stop-color="#e16962"></stop><stop offset=".26" stop-color="#df6661"></stop><stop offset=".45" stop-color="#d95d5f"></stop><stop offset=".61" stop-color="#d04d5b"></stop><stop offset=".76" stop-color="#c23756"></stop><stop offset=".89" stop-color="#b11b50"></stop><stop offset="1" stop-color="#a1004a"></stop></linearGradient><linearGradient id="o" x1="22.99" y1="14.7" x2="45.04" y2="14.7" gradientTransform="matrix(1, 0, 0, 1, 0, 0)" gradientUnits="userSpaceOnUse"><stop offset="0" stop-color="#fff"></stop><stop offset=".07" stop-color="#fcf4f4"></stop><stop offset=".71" stop-color="#e8908b"></stop><stop offset="1" stop-color="#e16962"></stop></linearGradient><linearGradient id="p" x1="19.79" y1="20.65" x2="19.79" y2="43.62" gradientTransform="matrix(1, 0, 0, 1, 0, 0)" gradientUnits="userSpaceOnUse"><stop offset="0" stop-color="#fff"></stop><stop offset=".02" stop-color="#fefbfb"></stop><stop offset=".27" stop-color="#f3c7c5"></stop><stop offset=".5" stop-color="#eb9e9a"></stop><stop offset=".7" stop-color="#e5817b"></stop><stop offset=".88" stop-color="#e26f68"></stop><stop offset="1" stop-color="#e16962"></stop></linearGradient><linearGradient id="q" x1="25.11" y1="32.12" x2="25.11" y2="40.87" xlink:href="#p"></linearGradient></defs><g id="a"></g><g id="b"><g id="c"><g><path class="ah" d="M23.92,53.41s-.09,12.59-.09,12.67c-.01,1.87-.77,4.38-2.92,3.06-1.77-1.09-2.51-.18-2.68,1.88,0,0-.19,1.96,3.26,1.68l4.57-.28s1.49,.37,1.21-2.24l.19-17.15-1.58-2.14-1.96,2.52Z" style="fill: #d5b29a;"></path><path class="ad" d="M27.34,52.91l-1.58-2.14-.03,.03,.36,.49-.19,17.15c.28,2.61-1.36,2.81-1.36,2.81l-4.25,.25c-.89,.07-1.7-.55-2.17-.7,0,.04,0,.07-.01,.1,0,0-.19,1.96,3.26,1.68l4.57-.28s1.49,.37,1.21-2.24l.19-17.15Z" style="fill: url(#d);"></path><path class="r" d="M19.17,70.37s-.25-1.62,1.25-.62c0,0,3.75,1.25,3.88-2,0,0,.5,4.38-5.12,2.62Z" style="fill: #fff;"></path><polygon class="r" points="25.17 55.24 24.42 55.74 24.17 62.74 25.17 55.24" style="fill: #fff;"></polygon><path class="s" d="M27.71,52.95l-1.83-2.48-2.21,2.84v.08c0,.51-.09,12.59-.09,12.67-.01,1.53-.51,3.18-1.57,3.18-.29,0-.61-.11-.97-.33-.55-.34-1.02-.5-1.43-.5-1.42,0-1.58,1.94-1.63,2.58,0,.03-.05,.64,.44,1.18,.48,.53,1.3,.8,2.43,.8,.21,0,.42,0,.66-.03l4.53-.28s.11,.02,.2,.02c.34,0,.65-.14,.87-.38,.37-.42,.51-1.14,.4-2.12l.19-17.23Zm-1.84-1.65l1.34,1.81-.06,5.34h-.01c-.07,.09-.19,.19-.33,.29-.13,.11-.32,.18-.51,.24-.09,.04-.2,.03-.3,.06-.11,0-.21,.02-.32,0-.22,0-.45-.05-.66-.09-.21-.05-.42-.09-.59-.15-.11-.03-.21-.06-.3-.09,.02-2.49,.03-4.76,.04-5.22l1.7-2.19Zm-1.74,7.62c.05,.04,.11,.09,.18,.13,.31,.22,.8,.46,1.35,.48,.27,0,.56-.03,.8-.15,.24-.11,.43-.29,.55-.45,.06-.08,.11-.16,.14-.23l-.03,2.73c-.09,.03-.26,.09-.46,.18-.07,.03-.14,.09-.23,.09-.09,.01-.18,.03-.27,.05-.09,.02-.18,.06-.27,.05h-.29c-.1,.03-.19,0-.29-.02-.09-.02-.19-.02-.28-.04-.18-.06-.37-.07-.51-.15-.19-.06-.33-.11-.42-.15,0-.83,.01-1.69,.02-2.54Zm2.62,13.05c-.25,.28-.63,.21-.62,.21h-.04l-4.61,.27c-.22,.02-.43,.03-.62,.03-.96,0-1.67-.22-2.05-.63-.35-.37-.32-.79-.32-.8,.17-2.12,.89-2.12,1.13-2.12,.31,0,.7,.14,1.16,.43,.44,.27,.85,.41,1.23,.41,1.41,0,2.05-1.84,2.07-3.67,0-.04,.01-2.08,.03-4.51,.06,.08,.15,.18,.28,.29,.13,.12,.31,.22,.51,.32,.21,.07,.45,.15,.69,.14l.37-.03c.12,0,.23-.07,.33-.11,.11-.04,.2-.1,.29-.14,.1-.04,.16-.12,.22-.18,.15-.15,.25-.28,.31-.36l-.09,8.7c.12,1.07-.09,1.55-.28,1.76Z" style="fill: #491c44;"></path><path class="ah" d="M46.01,53.41s.09,12.59,.09,12.67c.01,1.87,.77,4.38,2.92,3.06,1.77-1.09,2.51-.18,2.68,1.88,0,0,.19,1.96-3.26,1.68l-4.57-.28s-1.49,.37-1.21-2.24l-.19-17.15,1.58-2.14,1.96,2.52Z" style="fill: #d5b29a;"></path><path class="ae" d="M51.69,71.02c-.17-2.06-.9-2.97-2.68-1.88-2.15,1.32-2.9-1.18-2.92-3.06,0-.09-.09-12.67-.09-12.67l-1.96-2.52-1.58,2.14,.04,3.26c.97-.15,2.34,.19,2.42,3.32,0,0-1,9.74,1.62,10.62,.93,.31,1.97-.36,2.8,0,.86,.38,1.15,1.65,.7,2.39,1.77-.34,1.65-1.62,1.65-1.62Z" style="fill: url(#e);"></path><path class="y" d="M16.75,31.51s-5.84-5.01-5.87-5.03c.01,.01,.14-1.37,.14-1.45,0-.88,.06-2-.27-2.83-1.07-2.78-1.96,2.46-2.02,3.16,0,0-1.96-3.73-3.63-2.52,0,0-1.86,1.12,2.42,4.29,0,0-4.01-.75-3.63,1.49,0,0,.37,1.4,5.4,.28l6.71,5.5,.75-2.89Z" style="fill: #f9f0dd;"></path><path class="w" d="M16,34.4l.61-2.35c-.01-.22-.03-.45-.04-.69-.96-.82-5.67-4.86-5.69-4.88,.01,.01,.14-1.37,.14-1.45,0-.88,.06-2-.27-2.83-.43-1.1-.82-.94-1.15-.3,.35,.78,.63,2.27,.06,4.98,0,0,5.04,2.8,4.3,5.86l2.04,1.67Z" style="fill: url(#f);"></path><path class="y" d="M53.09,32.16l5.87-5.03s-.14-1.37-.14-1.45c0-.88-.06-2,.27-2.83,1.07-2.78,1.96,2.46,2.02,3.16,0,0,1.96-3.73,3.63-2.52,0,0,1.86,1.12-2.42,4.29,0,0,4.01-.75,3.63,1.49,0,0-.37,1.4-5.4,.28l-6.71,5.5-.75-2.89Z" style="fill: #f9f0dd;"></path><path class="a`" d="M60.54,29.55c5.03,1.12,5.4-.28,5.4-.28,.06-.39,0-.68-.16-.91-.66,.63-2,.95-4.74-.12l-5.88,4s-.16,.97-.2,1.88l5.58-4.57Z"></path><path class="s" d="M49.07,72.98c-.21,0-.42,0-.66-.03l-4.53-.28s-.11,.02-.2,.02c-.34,0-.65-.14-.87-.38-.37-.42-.51-1.14-.4-2.15l-.19-17.2,1.83-2.48,2.21,2.84v.08s.09,12.58,.09,12.67c.01,1.53,.51,3.18,1.56,3.18,.29,0,.61-.11,.97-.33,.55-.34,1.02-.5,1.43-.5,1.42,0,1.58,1.94,1.63,2.58,0,.02,.05,.63-.44,1.17-.48,.53-1.3,.8-2.43,.8Zm-5.23-.81h.04l4.57,.28c.23,.02,.43,.03,.63,.03,.97,0,1.68-.22,2.06-.64,.34-.37,.31-.79,.31-.79-.17-2.12-.89-2.12-1.13-2.12-.31,0-.7,.14-1.16,.43-.44,.27-.85,.41-1.23,.41h0c-1.41,0-2.05-1.84-2.06-3.67,0-.08-.08-11.49-.09-12.59l-1.7-2.19-1.34,1.81,.19,17.06c-.12,1.1,.09,1.58,.28,1.79,.25,.28,.63,.2,.63,.21h.04Z" style="fill: #491c44;"></path><path class="s" d="M42.47,61.98l.6,.18c.17,.06,.38,.1,.59,.15,.21,.04,.44,.09,.66,.09,.11,.01,.22,0,.32,0,.1-.03,.21-.02,.3-.06,.19-.05,.37-.13,.51-.24,.14-.1,.26-.19,.33-.28,.08-.08,.13-.12,.13-.12-.02-.01-.02,.27-.27,.6-.12,.16-.3,.34-.55,.45-.24,.12-.53,.16-.8,.15-.55-.03-1.04-.27-1.35-.48-.32-.22-.48-.43-.48-.43Z" style="fill: #491c44;"></path><path class="s" d="M42.65,64.78s.21,.1,.52,.19c.14,.07,.33,.08,.51,.15,.09,.02,.19,.02,.28,.04,.09,.02,.19,.04,.29,.02h.29c.1,0,.18-.04,.27-.06,.09-.03,.18-.04,.27-.05,.09,0,.16-.06,.23-.09,.28-.13,.52-.2,.52-.2,0,0-.12,.19-.37,.44-.07,.06-.13,.14-.22,.18-.09,.05-.19,.1-.29,.14-.11,.04-.21,.12-.33,.11l-.37,.03c-.25,0-.48-.08-.69-.14-.2-.1-.38-.2-.51-.32-.27-.22-.38-.43-.38-.43Z" style="fill: #491c44;"></path><path class="s" d="M16,34.65c-.06,0-.11-.02-.16-.06l-6.62-5.42c-1.26,.27-2.34,.41-3.21,.41-2.08,0-2.35-.81-2.37-.9-.09-.51,0-.91,.27-1.23,.39-.46,1.14-.7,2.21-.7,.18,0,.36,0,.53,.02-1.51-1.24-2.26-2.31-2.21-3.19,.03-.66,.5-.95,.52-.96,.25-.18,.54-.28,.84-.28,1.15,0,2.23,1.42,2.78,2.27,.2-1.2,.68-3.48,1.53-3.48,.45,0,.71,.55,.87,.97,.29,.76,.29,1.7,.28,2.53v.39s-.05,.88-.13,1.34c.72,.62,4.88,4.18,5.77,4.95,.07,.06,.1,.16,.08,.25l-.75,2.89c-.02,.08-.08,.15-.16,.17-.03,0-.05,.01-.08,.01Zm-6.71-6c.06,0,.11,.02,.16,.06l6.41,5.25,.61-2.36c-.82-.71-5.68-4.87-5.75-4.93-.07-.06-.11-.16-.08-.26,.02-.15,.13-1.27,.13-1.38v-.39c0-.79,.01-1.68-.25-2.35-.24-.62-.4-.65-.4-.65-.4,0-1.04,2.6-1.14,3.74,0,.11-.09,.2-.2,.22-.11,.02-.22-.03-.27-.13-.38-.73-1.62-2.62-2.7-2.62-.2,0-.39,.06-.57,.2-.03,.02-.29,.19-.3,.58-.02,.47,.32,1.52,2.72,3.3,.09,.07,.13,.19,.08,.3-.05,.11-.16,.17-.28,.15,0,0-.63-.12-1.34-.12-.91,0-1.54,.18-1.83,.52-.17,.2-.22,.46-.17,.8h0s.27,.51,1.89,.51c.86,0,1.94-.14,3.22-.43,.02,0,.04,0,.05,0Z" style="fill: #491c44;"></path><path class="ah" d="M14.05,39.84s-7-3.2-7.03-3.21c.02,0-.24-1.36-.26-1.43-.25-.85-.5-1.94-1.04-2.65-1.8-2.38-1.21,2.91-1.07,3.6,0,0-2.91-3.04-4.19-1.41,0,0-1.48,1.59,3.51,3.45,0,0-4.06,.39-3.08,2.44,0,0,.74,1.24,5.27-1.22l7.97,3.43-.08-2.98Z" style="fill: #d5b29a;"></path><path class="ac" d="M14.05,39.46l-.22-.1,.05,1.83-7.97-3.43c-3.31,1.8-4.59,1.62-5.05,1.4-.15,.3-.18,.65,.03,1.08,0,0,.74,1.24,5.27-1.22l7.97,3.43-.08-2.98Z" style="fill: url(#h);"></path><path class="s" d="M14.13,43.07s-.07,0-.1-.02l-7.86-3.38c-1.86,1-3.32,1.51-4.34,1.51-.86,0-1.12-.36-1.16-.43-.25-.51-.25-.96-.02-1.37,.42-.74,1.57-1.12,2.39-1.3-1.79-.77-2.8-1.59-3.01-2.45-.15-.64,.22-1.05,.24-1.07,.29-.36,.68-.56,1.17-.56,1.02,0,2.2,.89,2.87,1.48-.12-1.06-.26-3,.22-3.58,.14-.17,.31-.21,.42-.21,.29,0,.59,.23,.96,.71,.49,.65,.75,1.56,.97,2.36l.11,.38s.21,.84,.25,1.33c.93,.43,6.91,3.16,6.91,3.16,.09,.04,.14,.12,.15,.22l.08,2.98c0,.09-.04,.17-.11,.21-.04,.03-.09,.04-.14,.04Zm-7.97-3.93s.07,0,.1,.02l7.61,3.27-.07-2.43c-.99-.45-6.85-3.13-6.89-3.15-.07-.03-.12-.1-.14-.18,0-.02,0-.03,0-.05-.02-.16-.22-1.26-.25-1.36l-.11-.38c-.21-.76-.45-1.62-.89-2.19-.38-.5-.54-.51-.56-.51-.43,.5-.22,3.11-.06,3.91,.02,.11-.03,.22-.13,.27-.1,.05-.22,.03-.3-.05-.02-.02-1.75-1.82-3.02-1.82-.33,0-.58,.12-.79,.38-.02,.02-.22,.26-.12,.64,.11,.46,.72,1.37,3.53,2.42,.11,.04,.18,.15,.16,.27-.02,.12-.11,.21-.22,.22-.66,.06-2.46,.4-2.9,1.2-.14,.26-.14,.54,.02,.88h0s.77,.93,4.93-1.33c.04-.02,.08-.03,.12-.03Z" style="fill: #491c44;"></path><path class="s" d="M53.83,35.3s-.05,0-.08-.01c-.08-.03-.14-.09-.16-.17l-.75-2.89c-.02-.09,0-.19,.08-.25,0,0,4.99-4.28,5.77-4.95-.08-.47-.13-1.33-.13-1.34v-.4c0-.83,0-1.77,.28-2.53,.16-.42,.43-.97,.87-.97,.85,0,1.33,2.28,1.53,3.48,.55-.85,1.63-2.27,2.78-2.27,.3,0,.59,.1,.86,.29,0,0,.47,.29,.5,.95,.04,.88-.7,1.95-2.21,3.19,.16-.01,.34-.02,.53-.02,1.08,0,1.82,.23,2.21,.7,.27,.31,.36,.72,.28,1.2-.03,.12-.31,.92-2.38,.92-.87,0-1.95-.14-3.21-.41l-6.62,5.42s-.1,.06-.16,.06Zm-.46-3.05l.61,2.36,6.41-5.25c.06-.05,.14-.07,.21-.05,1.28,.28,2.36,.43,3.22,.43,1.66,0,1.89-.54,1.9-.54,.05-.3,0-.56-.18-.76-.29-.34-.92-.52-1.83-.52-.71,0-1.34,.11-1.34,.12-.12,.02-.23-.04-.28-.15-.05-.11-.01-.23,.08-.3,2.42-1.79,2.75-2.84,2.72-3.31-.02-.39-.28-.56-.28-.56-.2-.14-.38-.21-.58-.21-1.08,0-2.32,1.89-2.7,2.62-.05,.1-.16,.15-.27,.13-.11-.02-.19-.11-.2-.22-.1-1.15-.74-3.74-1.14-3.74,0,0-.16,.03-.4,.65-.26,.67-.25,1.56-.25,2.34v.4c0,.1,.11,1.22,.14,1.38,.03,.09,0,.19-.08,.26-.03,.02-4.92,4.22-5.75,4.93Z" style="fill: #491c44;"></path><path class="ah" d="M55.79,40.49s7-3.2,7.03-3.21c-.02,0,.24-1.36,.26-1.43,.25-.85,.5-1.94,1.04-2.65,1.8-2.38,1.21,2.91,1.07,3.6,0,0,2.91-3.04,4.19-1.41,0,0,1.48,1.59-3.51,3.45,0,0,4.06,.39,3.08,2.44,0,0-.74,1.24-5.27-1.22l-7.97,3.43,.08-2.98Z" style="fill: #d5b29a;"></path><path class="ab" d="M63.55,38.79l-7.94,3.42-.03,1.14,7.97-3.43c4.53,2.47,5.27,1.22,5.27,1.22,.22-.45,.18-.82,0-1.12,0,.01-.77,1.22-5.27-1.23Z" style="fill: url(#i);"></path><path class="s" d="M55.71,43.72s-.1-.01-.14-.04c-.07-.05-.11-.13-.11-.21l.08-2.98c0-.1,.06-.18,.15-.22,0,0,5.97-2.73,6.91-3.16,.04-.49,.25-1.32,.25-1.33l.11-.37c.22-.8,.48-1.71,.97-2.36,.37-.48,.67-.71,.96-.71,.11,0,.28,.04,.42,.21,.48,.58,.34,2.52,.22,3.58,.66-.58,1.85-1.48,2.87-1.48,.48,0,.88,.19,1.18,.58,0,0,.37,.41,.22,1.05-.2,.86-1.21,1.68-3.01,2.45,.82,.18,1.97,.56,2.39,1.3,.23,.4,.23,.86,0,1.34-.05,.09-.32,.45-1.17,.46-1.02,0-2.48-.51-4.34-1.51l-7.86,3.38s-.07,.02-.1,.02Zm.33-3.07l-.07,2.43,7.61-3.27c.07-.03,.15-.03,.22,0,4.29,2.34,4.94,1.31,4.95,1.3,.14-.31,.15-.59,0-.85-.45-.8-2.25-1.13-2.9-1.2-.12-.01-.21-.1-.22-.22-.01-.12,.05-.23,.16-.27,2.82-1.05,3.42-1.97,3.53-2.43,.09-.38-.11-.61-.12-.61-.22-.27-.47-.4-.8-.4-1.27,0-3,1.8-3.02,1.82-.08,.08-.2,.1-.3,.05-.1-.05-.15-.16-.13-.27,.16-.8,.36-3.41-.03-3.88-.05-.03-.22-.02-.6,.48-.44,.57-.68,1.43-.89,2.19l-.11,.38c-.03,.1-.23,1.2-.25,1.36,0,.02,0,.03,0,.05-.02,.08-.07,.14-.14,.18-.03,.01-5.9,2.7-6.89,3.15Z" style="fill: #491c44;"></path><path class="aa" d="M9.77,49.48c.45-2.49,1.4-5.02,2.03-7.05,1.58-5.12,3.36-10.25,5.81-15.03,.65-1.26,1.34-2.5,2.12-3.69,.65-.98,1.67-1.83,2.24-2.83,0,0,6.43-11.18,14.35-11.09,0,0,14.72-.84,17.33,16.68,.26,1.71,.98,3.48,1.38,5.17,1.03,4.31,1.86,8.67,2.24,13.09,.08,.96,1.98,12.83-2.2,11.7-.7-.19-3.39-2.9-3.1-3.5,0,0-3.91,8.11-8.11-.56,0,0-4.94,10.62-9.23-.47,0,0-4.57,9.69-8.67,.47,0,0-4.01,8.67-7.46-.19,.17,.45-3.11,2.77-3.43,2.99-1.42,.94-3.94,2.15-4.92,.04-.78-1.69-.76-3.7-.4-5.74Z" style="fill: #e16962;"></path><path class="ai" d="M55.03,31.65c-.41-1.69-1.13-3.46-1.38-5.17-2.61-17.52-17.33-16.68-17.33-16.68-.64,0-1.28,.07-1.9,.2,3.34,.25,8,1.29,7.9,5.12-.02,.68,.98,7.51,6.98,9.01,0,0,5,10.33,5.17,25.5,0,0,.67,5.5-3.5-1,0,0-2.83,12.17-6-2,0,0-5.5,13.67-9.83,.17,0,0-4.5,12.67-9.33,1.33,0,0-3,10.33-7,.67,0,0-5.93,7.66-8.95,5.53,.09,.31,.19,.61,.33,.9,.98,2.11,3.5,.9,4.92-.04,.32-.21,3.6-2.54,3.43-2.99,3.45,8.85,7.45,.19,7.45,.19,4.1,9.23,8.67-.47,8.67-.47,4.29,11.09,9.23,.47,9.23,.47,4.19,8.67,8.11,.56,8.11,.56-.29,.6,2.4,3.31,3.1,3.5,4.18,1.13,2.29-10.74,2.2-11.7-.38-4.42-1.21-8.78-2.24-13.09Z" style="fill: url(#j);"></path><path class="s" d="M39.05,57.22c-1.66,0-3.15-1.58-4.44-4.7-.65,1.19-2.46,4.1-4.7,4.1-1.46,0-2.79-1.23-3.95-3.66-.57,1.05-2.07,3.47-3.93,3.47-1.33,0-2.53-1.23-3.55-3.67-.84,1.03-3.21,2.61-3.24,2.63-.86,.57-2.13,1.25-3.27,1.25-.92,0-1.62-.45-2.01-1.32-.71-1.54-.85-3.47-.42-5.89,.34-1.89,.97-3.8,1.52-5.48,.18-.56,.36-1.09,.52-1.6,1.43-4.63,3.25-10.05,5.82-15.07,.75-1.46,1.43-2.64,2.13-3.71,.31-.47,.7-.9,1.07-1.33,.44-.5,.86-.97,1.16-1.49,.06-.11,6.49-11.22,14.47-11.22h.1s.12,0,.32,0c2.46,0,14.87,.82,17.26,16.9,.15,1.02,.48,2.08,.8,3.11,.21,.67,.42,1.37,.58,2.04,1.19,4.96,1.9,9.13,2.25,13.13,0,.08,.03,.25,.06,.49,.28,2.2,1.13,8.91-.66,10.95-.36,.41-.8,.61-1.32,.61h0c-.19,0-.39-.03-.6-.08-.68-.18-2.55-2.04-3.12-3.06-.6,1.01-2.03,3.02-3.9,3.02-1.47,0-2.86-1.24-4.13-3.7-.63,1.19-2.49,4.28-4.81,4.28Zm-4.39-5.94l.21,.54c1.25,3.25,2.66,4.89,4.18,4.89,2.49,0,4.56-4.4,4.58-4.44l.22-.48,.23,.47c1.24,2.56,2.55,3.86,3.9,3.86,2.14,0,3.74-3.27,3.75-3.3h0l.45,.22h0c-.08,.45,2.25,2.96,2.94,3.15,.16,.04,.32,.07,.47,.07h0c.37,0,.68-.14,.94-.44,1.09-1.24,1.27-4.79,.54-10.55-.03-.25-.05-.42-.06-.51-.34-3.97-1.05-8.12-2.24-13.05-.16-.66-.37-1.34-.58-2.01-.32-1.05-.66-2.13-.81-3.18-2.34-15.68-14.38-16.48-16.77-16.48-.19,0-.3,0-.31,0h-.11c-7.64,0-13.97,10.85-14.04,10.96-.32,.56-.78,1.07-1.22,1.57-.36,.41-.74,.83-1.03,1.27-.69,1.05-1.36,2.22-2.1,3.66-2.56,4.99-4.36,10.38-5.79,14.99-.16,.51-.33,1.04-.52,1.61-.55,1.67-1.17,3.56-1.5,5.41-.41,2.31-.29,4.14,.38,5.59,.32,.69,.83,1.03,1.56,1.03,1.07,0,2.34-.73,2.99-1.17,.81-.54,3.21-2.35,3.32-2.76,0,0,0,.04,0,.07h0l.47-.18h0c.99,2.54,2.09,3.82,3.28,3.82,2,0,3.7-3.62,3.72-3.65l.23-.5,.22,.5c1.13,2.54,2.38,3.83,3.71,3.83,2.44,0,4.48-4.26,4.5-4.3l.25-.53Z" style="fill: #491c44;"></path><path class="s" d="M29.51,41.87s-.04,0-.06,0c-4.85-1.12-7.98-5.05-9.29-8.35-.22-.55-.56-1.52-.36-1.81,.08-.12,.23-.14,.35-.07,.1,.07,.14,.2,.09,.31-.09,.81,2.53,7.87,9.33,9.44,.13,.03,.22,.17,.19,.3-.03,.12-.13,.19-.24,.19Z" style="fill: #491c44;"></path><path class="af" d="M23.97,41.1c-1.78,1.66-4.03,3.42-6.63,3.15-2.43-.26-2.27-3.11-1.07-4.6,1.27-1.57,3.45-3.02,5.22-3.94,0,0,2.33,3.08,3.82,4.01,.07,.04-.59,.69-1.35,1.39Z" style="fill: #f1b2cc;"></path><path class="al" d="M23.76,38.52c-.19,.18-.4,.38-.62,.58-1.78,1.66-4.03,3.42-6.63,3.15-.53-.06-.94-.24-1.24-.51-.11,1.2,.41,2.35,1.9,2.51,2.6,.28,4.84-1.49,6.63-3.15,.76-.7,1.42-1.35,1.35-1.39-.42-.26-.91-.7-1.4-1.19Z" style="fill: url(#k);"></path><path class="s" d="M17.89,44.53c-.19,0-.38,0-.57-.03-1.19-.13-1.71-.81-1.94-1.36-.44-1.07-.15-2.6,.7-3.65,1.1-1.36,3.08-2.86,5.3-4.01l.19-.1,.13,.17s2.32,3.05,3.75,3.95l.1,.07,.02,.13c.01,.14,.02,.24-1.43,1.59-1.73,1.6-3.82,3.24-6.25,3.24Zm3.54-8.51c-2.09,1.11-3.93,2.51-4.96,3.78-.73,.9-1,2.25-.63,3.15,.25,.62,.77,.97,1.53,1.05,2.48,.27,4.65-1.43,6.43-3.08,.65-.6,1-.96,1.17-1.14-1.31-.93-3.05-3.13-3.54-3.76Z" style="fill: #491c44;"></path><path class="r" d="M19.36,40.73l3.91-2.8-3.91,2.8Z" style="fill: #fff;"></path><path class="s" d="M19.35,40.98c-.08,0-.15-.04-.2-.1-.08-.11-.05-.27,.06-.35l3.91-2.8c.11-.08,.27-.06,.35,.06,.08,.11,.05,.27-.06,.35l-3.91,2.8s-.09,.05-.15,.05Z" style="fill: #491c44;"></path><path class="y" d="M20.19,23.31S6.4,15.2,19.36,1.69c0,0,1.86,7.46,7.27,13.05,0,0,.28,6.71-6.43,8.57Z" style="fill: #f9f0dd;"></path><path class="u" d="M26.62,14.57c-5.4-5.59-7.27-13.05-7.27-13.05-.3,.31-.57,.62-.84,.93,.29,2.09,1.4,8.1,5.01,13.28,0,0-.54,4.5-4.57,6.53,.73,.58,1.25,.89,1.25,.89,6.71-1.86,6.43-8.57,6.43-8.57Z" style="fill: url(#l);"></path><path class="y" d="M44.89,11.94S55.23,6.91,57.19,.76c0,0,3.82,9.97-5.03,19.48,0,0-6.34-.56-7.27-8.29Z" style="fill: #f9f0dd;"></path><path class="v" d="M57.02,.59c-.1,.32-.23,.64-.38,.96,.22,3.79-.59,9.57-5.82,15.19,0,0-3.82-.35-5.96-4.13,1.28,6.93,7.13,7.46,7.13,7.46C60.84,10.56,57.02,.59,57.02,.59Z" style="fill: url(#m);"></path><path class="s" d="M40.76,45.28c-.32,0-.67,.27-.93,.53-.29-.75-.97-.79-1.13-.79,0,0-.06,0-.07,0-.03,0-.07,.01-.1,.03-.55,.27-.71,.68-.75,.97-.19,1.3,1.6,3.02,1.81,3.21,.05,.05,.12,.08,.19,.08s.14-.03,.19-.08c1.47-1.37,1.49-2.84,1.49-2.92-.05-.85-.4-1.03-.69-1.03Z" style="fill: #491c44;"></path><path class="s" d="M51.03,40.64c-.26-.45-.52-.68-.82-.68-.44,0-.71,.51-.85,.95-.73-.66-1.39-.2-1.43-.17-.03,.02-.05,.04-.08,.07-.37,.49-.33,.92-.24,1.2,.41,1.25,2.78,1.99,3.05,2.07,.03,0,.05,.01,.08,.01,.11,0,.22-.07,.26-.18,.7-1.88,.06-3.21,.03-3.28Z" style="fill: #491c44;"></path><path class="s" d="M15.89,48.3c.02-.36-.04-.58-.21-.69-.25-.17-.59,.02-.84,.22-.17-.65-.71-.64-.75-.64-.02,0-.05,0-.07,.01-.39,.14-.54,.4-.59,.59-.24,.86,.83,2.18,.95,2.32,.01,.01,.03,.03,.04,.04,.06,.04,.15,.04,.22,0,1.11-.8,1.25-1.8,1.25-1.85Z" style="fill: #491c44;"></path><path class="s" d="M51.86,29.85c.02-.36-.04-.58-.21-.69-.25-.17-.59,.02-.84,.22-.17-.65-.71-.64-.75-.64-.02,0-.05,0-.07,.01-.39,.14-.54,.4-.59,.59-.24,.86,.83,2.18,.95,2.32,.01,.01,.03,.03,.04,.04,.06,.04,.15,.04,.22,0,1.11-.8,1.25-1.8,1.25-1.85Z" style="fill: #491c44;"></path><path class="s" d="M30.2,48.22c-.17-.31-.35-.47-.54-.47-.3,0-.49,.33-.6,.63-.49-.46-.94-.16-.97-.14-.02,.01-.04,.03-.05,.05-.26,.33-.24,.62-.19,.82,.26,.86,1.86,1.4,2.04,1.46,.02,0,.04,0,.05,0,.08,0,.15-.04,.18-.12,.51-1.27,.1-2.19,.08-2.23Z" style="fill: #491c44;"></path><path class="s" d="M35.7,38.44c-.17-.31-.35-.47-.54-.47-.3,0-.49,.33-.6,.63-.49-.46-.94-.16-.97-.14-.02,.01-.04,.03-.05,.05-.26,.33-.24,.62-.19,.82,.26,.86,1.86,1.4,2.04,1.46,.02,0,.04,0,.05,0,.08,0,.15-.04,.18-.12,.51-1.27,.1-2.19,.08-2.23Z" style="fill: #491c44;"></path><path class="s" d="M22.45,48.83c-.09-.17-.18-.25-.29-.25-.16,0-.26,.18-.32,.34-.26-.24-.5-.09-.52-.08-.01,0-.02,.01-.03,.02-.14,.17-.13,.33-.1,.43,.14,.46,.99,.75,1.08,.78,0,0,.02,0,.03,0,.04,0,.08-.02,.1-.06,.27-.68,.05-1.16,.04-1.19Z" style="fill: #491c44;"></path><path class="s" d="M49.23,48.03c-.09-.17-.18-.25-.29-.25-.16,0-.26,.18-.32,.34-.26-.24-.5-.09-.52-.08-.01,0-.02,.01-.03,.02-.14,.17-.13,.33-.1,.43,.14,.46,.99,.75,1.08,.78,0,0,.02,0,.03,0,.04,0,.08-.02,.1-.06,.27-.68,.05-1.16,.04-1.19Z" style="fill: #491c44;"></path><path class="s" d="M49.18,23.25c.04-.18,.03-.31-.05-.38-.12-.11-.31-.04-.46,.04-.03-.35-.32-.4-.34-.4-.01,0-.02,0-.04,0-.22,.04-.32,.16-.36,.26-.2,.43,.25,1.21,.3,1.3,0,0,.01,.02,.02,.02,.03,.03,.08,.04,.11,.02,.65-.33,.81-.83,.82-.86Z" style="fill: #491c44;"></path><path class="s" d="M32.54,45.45c.04-.18,.03-.31-.05-.38-.12-.11-.31-.04-.46,.04-.03-.35-.32-.4-.34-.4-.01,0-.02,0-.04,0-.22,.04-.32,.16-.36,.26-.2,.43,.25,1.21,.3,1.3,0,0,.01,.02,.02,.02,.03,.03,.08,.04,.11,.02,.65-.33,.81-.83,.82-.86Z" style="fill: #491c44;"></path><path class="s" d="M48.1,35.67c.04-.18,.03-.31-.05-.38-.12-.11-.31-.04-.46,.04-.03-.35-.32-.4-.34-.4-.01,0-.02,0-.04,0-.22,.04-.32,.16-.36,.26-.2,.43,.25,1.21,.3,1.3,0,0,.01,.02,.02,.02,.03,.03,.08,.04,.11,.02,.65-.33,.81-.83,.82-.86Z" style="fill: #491c44;"></path><path class="s" d="M38.04,11.81c.04-.18,.03-.31-.05-.38-.12-.11-.31-.04-.46,.04-.03-.35-.32-.4-.34-.4-.01,0-.02,0-.04,0-.22,.04-.32,.16-.36,.26-.2,.43,.25,1.21,.3,1.3,0,0,.01,.02,.02,.02,.03,.03,.08,.04,.11,.02,.65-.33,.81-.83,.82-.86Z" style="fill: #491c44;"></path><path class="s" d="M32.76,14.79c-.24-.15-.63-.11-.94-.03,.12-.7-.37-1.04-.49-1.12,0,0-.05-.03-.06-.03-.03-.01-.06-.02-.09-.02-.54-.04-.85,.18-1.01,.39-.74,.89-.18,3.01-.11,3.25,.02,.06,.06,.11,.11,.14,.05,.03,.12,.04,.18,.03,1.73-.36,2.42-1.46,2.46-1.52,.35-.66,.17-.96-.05-1.09Z" style="fill: #491c44;"></path><path class="ag" d="M46.58,31.15c-.59,5.22-5.29,8.97-10.51,8.39-5.22-.59-8.97-5.29-8.39-10.51,.59-5.22,5.29-8.97,10.51-8.39,5.22,.59,8.97,5.29,8.39,10.51Z" style="fill: url(#n);"></path><path class="s" d="M42.62,15.99c.01-.46-.09-.75-.31-.88-.33-.2-.76,.06-1.08,.33-.25-.83-.95-.79-1-.78-.03,0-.06,0-.09,.02-.5,.2-.67,.54-.73,.8-.26,1.13,1.18,2.77,1.35,2.95,.02,.02,.03,.03,.05,.05,.09,.05,.2,.05,.28-.02,1.39-1.1,1.52-2.39,1.52-2.46Z" style="fill: #491c44;"></path><path class="r" d="M44.95,30.03c-.59,5.22-5.29,8.97-10.51,8.39-5.22-.59-8.97-5.29-8.39-10.51,.59-5.22,5.29-8.97,10.51-8.39,5.22,.59,8.97,5.29,8.39,10.51Z" style="fill: #fff;"></path><path class="t" d="M41.64,21.69c1.38,1.86,2.09,4.23,1.82,6.71-.59,5.22-5.29,8.97-10.51,8.39-2-.22-3.79-1.06-5.19-2.3,1.52,2.05,3.84,3.49,6.57,3.8,5.22,.59,9.92-3.17,10.51-8.39,.36-3.21-.93-6.23-3.19-8.21Z" style="fill: #d1d1d1;"></path><path class="s" d="M35.52,38.73c-.37,0-.73-.02-1.1-.06-5.35-.6-9.21-5.44-8.61-10.78,.55-4.94,4.72-8.67,9.68-8.67,.37,0,.74,.02,1.1,.06,2.59,.29,4.91,1.57,6.54,3.61,1.63,2.04,2.36,4.58,2.07,7.17-.55,4.94-4.72,8.67-9.68,8.67Zm-.02-19.01c-4.71,0-8.66,3.54-9.19,8.22-.57,5.07,3.09,9.66,8.17,10.23,.35,.04,.7,.06,1.04,.06,4.71,0,8.66-3.54,9.19-8.22,.28-2.46-.42-4.87-1.96-6.81-1.54-1.93-3.74-3.15-6.2-3.42-.35-.04-.7-.06-1.04-.06Z" style="fill: #491c44;"></path><path class="s" d="M41.28,27.6c-.04-.16-.18-.27-.34-.28-.17,0-.31,.1-.36,.26-.4,1.31-1.67,2.14-3.02,1.99-1.55-.17-2.67-1.58-2.5-3.13,.13-1.18,1.01-2.16,2.18-2.43,.16-.04,.28-.18,.28-.34,0-.17-.1-.31-.26-.36-3.69-1.14-7.26,1.4-7.66,5.01-.37,3.26,1.99,6.2,5.24,6.57s6.2-1.99,6.57-5.24c.08-.67,.03-1.36-.13-2.03Z" style="fill: #491c44;"></path><path class="r" d="M30.32,27.33s-.13,.5-.09,1.26c.01,.38,.09,.81,.23,1.25,.08,.22,.16,.44,.28,.65,.09,.22,.25,.41,.38,.61,.15,.19,.32,.36,.48,.53,.19,.15,.36,.3,.54,.43,.19,.12,.38,.23,.55,.34,.18,.09,.37,.17,.53,.24,.32,.16,.63,.22,.82,.29l.31,.1,.05,.02c.27,.08,.41,.37,.33,.64s-.37,.41-.64,.33c-.02,0-.04-.01-.06-.02l-.34-.15c-.21-.11-.53-.21-.87-.44-.17-.11-.36-.22-.55-.34l-.57-.46c-.19-.17-.36-.37-.54-.56-.16-.21-.32-.43-.46-.66-.12-.24-.26-.47-.34-.72-.1-.24-.16-.49-.21-.74-.09-.49-.11-.94-.08-1.33,.05-.78,.25-1.26,.25-1.26Z" style="fill: #fff;"></path><path class="r" d="M16.96,6.78s-5.33,6.17,1.33,13.67c0,0-3-7.17-1.33-13.67Z" style="fill: #fff;"></path><path class="r" d="M47.29,12.12s5.17-2,7.17-5.83c2-3.83-.17-.67-.17-.67,0,0,1.33,7.5-7,6.5Z" style="fill: #fff;"></path><path class="s" d="M26.87,14.72v-.09l-.07-.07c-5.29-5.48-7.19-12.86-7.21-12.93l-.11-.44-.31,.33c-4.23,4.41-6.08,8.73-5.52,12.82,.81,5.83,6.35,9.15,6.41,9.18l.09,.05,.1-.03c6.82-1.89,6.62-8.76,6.61-8.83Zm-4.56-5.4l-.21-.08c-.65,1.77-1.66,2.92-2.98,3.4-2.33,.84-4.92-.62-4.95-.64l-.05,.09c.12-1.58,.6-3.2,1.45-4.84,.48,.29,1.39,.74,2.38,.74,.25,0,.51-.03,.77-.1,.84-.23,1.49-.86,1.95-1.85,.44,1.01,.99,2.12,1.65,3.28Zm-3.08-7.14c.19,.63,.59,1.9,1.27,3.49l-.17-.07c-.41,.99-1,1.6-1.75,1.81-1.09,.3-2.26-.28-2.79-.61,.84-1.52,1.99-3.06,3.45-4.62Zm-5.15,10.34c.45,.24,1.85,.89,3.45,.89,.57,0,1.16-.08,1.75-.29,1.42-.51,2.5-1.69,3.2-3.5,.59,1,1.26,2.02,2.02,3.03-1.64,7.13-7.73,6.51-8.4,6.42-.92-1.31-1.7-2.91-1.96-4.79-.08-.58-.09-1.16-.07-1.75Zm6.15,10.52c-.41-.26-2.19-1.46-3.73-3.44,.11,0,.23,0,.36,0,1.95,0,6.5-.66,8.03-6.46,.46,.58,.95,1.15,1.48,1.7,0,.79-.22,6.49-6.14,8.2Z" style="fill: #491c44;"></path><path class="s" d="M57.42,.67l-.25-.67-.22,.68c-1.9,5.98-12.07,10.98-12.17,11.03l-.16,.08,.02,.18c.94,7.84,7.43,8.51,7.49,8.51h.12l.08-.08C61.2,10.89,57.46,.77,57.42,.67Zm-2.26,14.85c-1.75,.51-3.24,.37-4.44-.39-2.21-1.42-2.7-4.59-2.7-4.62h-.07c.87-.52,1.85-1.16,2.86-1.9,.09,.27,.85,2.51,2.75,3.3,.43,.18,.88,.27,1.35,.27,.63,0,1.29-.17,1.99-.48-.39,1.28-.93,2.61-1.7,3.97l-.04-.15Zm1.91-4.45c-1.24,.65-2.35,.78-3.31,.39-1.76-.73-2.48-3.01-2.48-3.03l-.36,.11c1.03-.76,2.06-1.62,3.01-2.55,.3,.42,.9,1.08,1.8,1.29,.18,.04,.37,.06,.56,.06,.47,0,.94-.13,1.43-.4-.05,1.26-.24,2.66-.64,4.15v-.02Zm.09-9.53c.24,.89,.6,2.6,.57,4.79-.66,.43-1.3,.59-1.89,.46-.78-.18-1.32-.82-1.56-1.16,1.22-1.25,2.26-2.63,2.87-4.08Zm-5.11,18.43c-.85-.13-6.01-1.17-6.9-7.88,.36-.18,1.26-.65,2.4-1.33,.14,.72,.77,3.43,2.89,4.79,.8,.52,1.72,.78,2.75,.78,.55,0,1.15-.09,1.76-.25-.76,1.29-1.7,2.59-2.9,3.89Z" style="fill: #491c44;"></path><path class="r" d="M17.04,39.99s1.62-2.62,4.38-3.5l.5,.75s-4,1.62-4.88,2.75Z" style="fill: #fff;"></path><path class="aj" d="M27.92,15.12s5.5-7.12,15.38-3.12c0,0-.38,2.75,1.75,5.38,0,0-7.38-9.12-17.62-1.88s.5-.38,.5-.38Z" style="fill: url(#o);"></path><path class="x" d="M24.92,22.37s-3.25,2.38-4.5,2.12c0,0-5.38,8.88-7.75,19.12,0,0,7.12-15.75,12-20.62s.25-.62,.25-.62Z" style="fill: url(#p);"></path><path class="s" d="M18.15,33.5c.04-.18,.03-.31-.05-.38-.12-.11-.31-.04-.46,.04-.03-.35-.32-.4-.34-.4-.01,0-.02,0-.04,0-.22,.04-.32,.16-.36,.26-.2,.43,.25,1.21,.3,1.3,0,0,.01,.02,.02,.02,.03,.03,.08,.04,.11,.02,.65-.33,.81-.83,.82-.86Z" style="fill: #491c44;"></path><path class="s" d="M24.46,25.1c.03-.35-.04-.58-.21-.69-.25-.17-.59,.02-.84,.22-.17-.65-.71-.64-.75-.64-.02,0-.05,0-.07,.01-.39,.14-.54,.4-.59,.59-.24,.86,.83,2.18,.95,2.32,.01,.01,.03,.03,.04,.04,.06,.04,.15,.04,.22,0,1.11-.8,1.25-1.8,1.25-1.85Z" style="fill: #491c44;"></path><path class="ak" d="M20.67,32.12s1.12,5.75,8.88,8.75c0,0-5.12-3.25-8.88-8.75Z" style="fill: url(#q);"></path><polygon class="r" points="43.92 54.12 43.29 54.99 43.29 60.99 43.92 54.12" style="fill: #fff;"></polygon><path class="r" d="M6.04,23.49s-1.75,0,2,3.25l-2-3.25Z" style="fill: #fff;"></path><path class="r" d="M1.2,34.87s-1.51,.89,3.37,1.78l-3.37-1.78Z" style="fill: #fff;"></path><path class="r" d="M5.57,32.83s-1.67-.53,.93,3.7l-.93-3.7Z" style="fill: #fff;"></path><path class="r" d="M4.54,28.24s.38,.88,3.62,0h-3.62Z" style="fill: #fff;"></path><path class="r" d="M59.54,26.49s-.38-2.5,.25-3.5c0,0,.62,1-.25,3.5Z" style="fill: #fff;"></path><path class="r" d="M61.79,26.37s2-3.5,2.62-2.12l-2.62,2.12Z" style="fill: #fff;"></path><path class="r" d="M63.7,36.52s.22-2.52,1.06-3.35c0,0,.38,1.12-1.06,3.35Z" style="fill: #fff;"></path><path class="r" d="M65.73,37.03s3-2.7,3.16-1.2l-3.16,1.2Z" style="fill: #fff;"></path></g></g></g></svg>