<?xml version="1.0" encoding="UTF-8"?><svg xmlns="http://www.w3.org/2000/svg" xmlns:xlink="http://www.w3.org/1999/xlink" viewBox="0 0 65.93 72.19"><defs><style>.u{fill:url(#t);}.v{fill:#fff;}.w{fill:#491c44;}.x{fill:url(#r);}.y{fill:#dbdbdb;}.a`{fill:url(#l);}.aa{fill:url(#m);}.ab{fill:url(#f);}.ac{fill:url(#p);}.ad{fill:url(#g);}.ae{fill:#e16962;}.af{fill:url(#i);}.ag{fill:url(#h);}.ah{fill:url(#d);}.ai{fill:url(#e);}.aj{fill:#f1b2cc;}.ak{fill:url(#s);}.al{fill:url(#n);}.am{fill:#d5b29a;}.an{fill:#75b6c5;}.ao{fill:url(#j);}.ap{fill:url(#o);}.aq{fill:url(#q);}.ar{fill:url(#k);}.as{fill:#a27cbb;}</style><linearGradient id="d" x1="52.83" y1="32.62" x2="52.83" y2="52.26" gradientTransform="matrix(1, 0, 0, 1, 0, 0)" gradientUnits="userSpaceOnUse"><stop offset="0" stop-color="#a27cbb"/><stop offset="1" stop-color="#71376d"/></linearGradient><linearGradient id="e" x1="16.47" y1="64.01" x2="11.67" y2="72.34" gradientTransform="matrix(1, 0, 0, 1, 0, 0)" gradientUnits="userSpaceOnUse"><stop offset=".06" stop-color="#d5b29a"/><stop offset=".25" stop-color="#c3a196"/><stop offset=".75" stop-color="#997a8c"/><stop offset="1" stop-color="#8a6b89"/></linearGradient><linearGradient id="f" x1="37.45" y1="61.48" x2="37.45" y2="71.94" xlink:href="#e"/><linearGradient id="g" x1=".17" y1="26.4" x2="12.59" y2="26.4" xlink:href="#e"/><linearGradient id="h" x1="4.34" y1="29.19" x2="11.1" y2="29.19" xlink:href="#d"/><linearGradient id="i" x1="47.46" y1="22.33" x2="47.46" y2="37.25" xlink:href="#e"/><linearGradient id="j" x1="45.46" y1="26.67" x2="45.46" y2="34.78" xlink:href="#d"/><linearGradient id="k" x1="26.9" y1=".38" x2="26.9" y2="66.51" gradientTransform="matrix(1, 0, 0, 1, 0, 0)" gradientUnits="userSpaceOnUse"><stop offset=".2" stop-color="#75b6c5"/><stop offset=".99" stop-color="#006578"/></linearGradient><linearGradient id="l" x1="18.75" y1="27.18" x2="18.75" y2="39.18" xlink:href="#k"/><linearGradient id="m" x1="20.21" y1="46.57" x2="32.75" y2="46.57" gradientTransform="matrix(1, 0, 0, 1, 0, 0)" gradientUnits="userSpaceOnUse"><stop offset="0" stop-color="#e16962"/><stop offset=".21" stop-color="#d6575e"/><stop offset=".63" stop-color="#bb2b53"/><stop offset="1" stop-color="#a1004a"/></linearGradient><linearGradient id="n" x1="16.89" y1="41.76" x2="34.88" y2="41.76" gradientTransform="matrix(1, 0, 0, 1, 0, 0)" gradientUnits="userSpaceOnUse"><stop offset="0" stop-color="#f1b2cc"/><stop offset=".14" stop-color="#eeadc7"/><stop offset=".3" stop-color="#e69eb9"/><stop offset=".48" stop-color="#da86a3"/><stop offset=".67" stop-color="#c86583"/><stop offset=".86" stop-color="#b23b5b"/><stop offset="1" stop-color="#9f1739"/></linearGradient><linearGradient id="o" x1="3.16" y1="47.68" x2="16.03" y2="47.68" xlink:href="#e"/><linearGradient id="p" x1="40.82" y1="41.7" x2="40.82" y2="59.98" xlink:href="#e"/><linearGradient id="q" x1="5.31" y1="14.33" x2="12.68" y2="14.33" gradientTransform="matrix(1, 0, 0, 1, 0, 0)" gradientUnits="userSpaceOnUse"><stop offset="0" stop-color="#fff"/><stop offset=".28" stop-color="#dcecf0"/><stop offset=".9" stop-color="#84becb"/><stop offset="1" stop-color="#75b6c5"/></linearGradient><linearGradient id="r" x1="10.49" y1="23.93" x2="13.18" y2="23.93" xlink:href="#q"/><linearGradient id="s" x1="8.85" y1="29.06" x2="8.85" y2="50.44" gradientTransform="matrix(1, 0, 0, 1, 0, 0)" gradientUnits="userSpaceOnUse"><stop offset="0" stop-color="#fff"/><stop offset=".21" stop-color="#d5e8ed"/><stop offset=".45" stop-color="#abd2dc"/><stop offset=".68" stop-color="#8dc3cf"/><stop offset=".87" stop-color="#7bb9c7"/><stop offset="1" stop-color="#75b6c5"/></linearGradient><linearGradient id="t" x1="2.78" y1="53.93" x2="6.27" y2="53.93" xlink:href="#s"/></defs><g id="a"/><g id="b"><g id="c"><g><path class="as" d="M43.53,47.82c.16-.08,.31-.14,.47-.19,.2-.05,.53-.01,.8,0l.57,.05h.36s.09-.05,.11-.06c-.01-.05-.04-.06-.07-.07-.02-.04-.05-.05-.07-.03,0-.03,.04-.05,.06-.06h.03c-.29,.15-.08,.03-.14,.07h.01l.02-.02,.19-.11,.37-.21s.05-.07,.09-.09l.05-.03,.09-.09c.24-.21,.47-.52,.69-.86,.22-.35,.42-.76,.61-1.21,.18-.45,.36-.92,.51-1.43,.31-1.01,.58-2.1,.88-3.23,.3-1.13,.61-2.31,1.04-3.54,.23-.61,.47-1.23,.8-1.87,.3-.63,.72-1.27,1.2-1.87,.51-.6,1.11-1.19,1.85-1.62,.72-.47,1.53-.74,2.32-.92,.79-.14,1.57-.18,2.29-.13,.73,.04,1.41,.18,2.07,.33l.07,.02c.09,.02,.17,.05,.25,.08,.49,.22,.75,.38,1.08,.6,.32,.2,.61,.44,.9,.68,.28,.26,.56,.51,.8,.8,.25,.3,.5,.58,.69,.92,.22,.32,.41,.66,.55,1.03,.17,.36,.29,.73,.37,1.11l.13,.57,.05,.57c.03,.38,.06,.76,0,1.12-.04,.36-.05,.74-.13,1.08l-.26,1.02c-.07,.35-.23,.63-.35,.95-.13,.3-.25,.62-.4,.91l-.48,.84c-.17,.27-.31,.56-.5,.81l-1.11,1.49c-.48,.65-1.39,.78-2.04,.3-.6-.44-.76-1.26-.4-1.89l.07-.13,.79-1.39c.14-.23,.21-.47,.32-.7l.32-.7c.09-.23,.15-.47,.22-.7,.06-.23,.17-.46,.19-.69l.11-.67c.03-.22,0-.43,.01-.64,.02-.21-.03-.4-.06-.6l-.04-.29-.1-.26c-.05-.18-.12-.35-.23-.5-.08-.16-.18-.32-.3-.46-.09-.16-.24-.29-.37-.43-.13-.14-.3-.26-.45-.39-.17-.11-.33-.23-.51-.33-.15-.09-.4-.2-.44-.21l.32,.1c-.48-.07-.94-.13-1.38-.13-.43,0-.82,.04-1.17,.12-.33,.11-.63,.21-.87,.41-.26,.16-.48,.42-.71,.71-.21,.32-.44,.66-.62,1.08-.2,.41-.36,.87-.53,1.35-.32,.97-.57,2.05-.83,3.17-.26,1.12-.53,2.29-.89,3.5-.18,.6-.39,1.22-.64,1.85-.25,.63-.56,1.27-.94,1.91-.4,.64-.86,1.28-1.48,1.85l-.22,.22-.29,.23c-.2,.15-.4,.3-.6,.44l-.38,.23-.19,.11-.2,.11-.09,.04-.18,.07c-.25,.09-.49,.18-.76,.24-.31,.05-.62,.08-.93,.09-.31,0-.63-.07-.93-.14-.26-.08-.5-.19-.73-.29-.15-.1-.33-.21-.45-.31-.07-.08-.21-.19-.24-.26,0-.06,.04-.13-.04-.23-.13-.09-.27-.2-.4-.31-.73-.63-.81-1.74-.17-2.46,.16-.18,.36-.33,.56-.43Z"/><path class="ah" d="M62.64,40.73c2.25-6.75-2.5-7.75-2.5-7.75-5.12-1.88-6.75,4.25-6.75,4.25-.25,2.88-2.75,8-2.75,8-2.54,5.23-4.42,4.03-5.46,2.45l-.51-.05c-.27-.02-.6-.05-.8,0-.15,.05-.31,.12-.47,.19-.2,.1-.4,.25-.56,.43-.63,.73-.55,1.83,.17,2.46,.13,.11,.26,.22,.4,.31,.08,.1,.03,.17,.04,.23,.03,.07,.16,.17,.24,.26,.12,.11,.3,.21,.45,.31,.23,.1,.47,.21,.73,.29,.3,.07,.62,.13,.93,.14,.31,0,.62-.04,.93-.09,.27-.06,.51-.15,.76-.24l.18-.07,.09-.04,.2-.11,.19-.11,.38-.23c.2-.14,.41-.29,.6-.44l.29-.23,.22-.22c.62-.57,1.07-1.21,1.48-1.85,.39-.64,.69-1.28,.94-1.91,.25-.63,.46-1.25,.64-1.85,.37-1.21,.64-2.38,.89-3.5,.26-1.12,.51-2.19,.83-3.17,.16-.48,.33-.95,.53-1.35,.19-.43,.41-.77,.62-1.08,.23-.28,.45-.54,.71-.71,.24-.19,.54-.3,.87-.41,.35-.07,.74-.13,1.17-.12,.39,0,.81,.05,1.24,.11,.08,.04,.18,.09,.25,.13,.18,.09,.34,.21,.51,.33,.15,.13,.32,.25,.45,.39,.13,.14,.28,.27,.37,.43,.12,.14,.22,.3,.3,.46,.1,.15,.17,.32,.23,.5l.1,.26,.04,.29c.03,.19,.09,.38,.06,.6-.01,.21,.02,.41-.01,.64l-.11,.67c-.01,.22-.13,.46-.19,.69-.08,.23-.13,.46-.22,.7l-.32,.7c-.11,.23-.19,.48-.32,.7l-.79,1.39-.07,.13c-.36,.63-.2,1.44,.4,1.89,.34,.25,.76,.33,1.15,.26-.55-1.65,1.23-5.06,1.23-5.06Z"/><path class="v" d="M55.35,31.64s5.25-2.42,8.75,2.5c0,0,2.42,3.92-.75,8.75,0,0,5.42-12.42-8-11.25Z"/><path class="v" d="M48.18,45.64s2.17-4.92,2.5-8.33l.25-.92s.08,.83,.83,1c0,0-1.58,7.58-3.58,8.25Z"/><path class="w" d="M65.89,36.99l-.05-.61-.13-.56c-.09-.43-.22-.82-.38-1.15-.13-.35-.32-.7-.57-1.07-.18-.32-.41-.59-.63-.85l-.09-.11c-.23-.27-.48-.5-.72-.73l-.12-.11c-.3-.25-.59-.49-.92-.69-.33-.22-.6-.39-1.11-.62-.09-.04-.2-.08-.3-.1l-.07-.02c-.63-.14-1.34-.29-2.11-.33-.76-.05-1.56,0-2.37,.14-.97,.22-1.76,.53-2.4,.95-.65,.38-1.26,.92-1.92,1.68-.52,.65-.93,1.29-1.23,1.92-.35,.67-.6,1.33-.81,1.9-.43,1.2-.73,2.35-1.02,3.46l-.24,.91c-.22,.85-.43,1.65-.67,2.42-.14,.47-.31,.93-.5,1.41-.18,.43-.37,.82-.58,1.16-.2,.3-.42,.61-.66,.82l-.11,.09s-.07,.06-.11,.1l-.41,.23s-.05,.03-.08,.04l-.06,.04h0s-.09,.08-.11,.12l-.74-.06c-.27-.02-.53-.04-.74,.02-.16,.05-.33,.13-.5,.21-.24,.12-.47,.29-.64,.49-.72,.83-.63,2.09,.2,2.82,.12,.1,.23,.2,.35,.28,0,.05,0,.13,.01,.16,.04,.1,.12,.18,.21,.26,.03,.03,.06,.05,.1,.1,.1,.09,.24,.18,.38,.27l.1,.07s.05,.03,.06,.03c.23,.1,.47,.21,.75,.3,.31,.07,.65,.13,.98,.14h.01c.32,0,.65-.04,.98-.1,.27-.06,.52-.15,.79-.25l.19-.07,.91-.5c.21-.14,.41-.29,.62-.45l.31-.25,.22-.21c.67-.62,1.14-1.31,1.52-1.9,.08-.13,.14-.26,.22-.4,.02-.01,.05-.02,.07-.04,.09-.06,.12-.17,.09-.27,.21-.4,.4-.8,.58-1.24,.25-.61,.46-1.24,.65-1.87,.38-1.25,.65-2.45,.9-3.52,.28-1.21,.52-2.22,.82-3.14,.15-.43,.32-.91,.52-1.33,.17-.4,.38-.71,.59-1.03,.22-.27,.42-.51,.67-.67,.22-.17,.51-.27,.77-.36,.36-.08,.69-.11,1.02-.11h.1c.39,0,.81,.06,1.17,.1,.07,.03,.14,.07,.21,.11,.13,.07,.26,.16,.38,.24l.23,.18c.1,.08,.19,.16,.27,.24,.04,.04,.08,.09,.12,.13,.09,.09,.17,.17,.24,.29,.11,.13,.2,.27,.28,.44,.08,.12,.14,.25,.2,.45l.09,.21,.06,.4c.03,.14,.05,.28,.04,.43,0,.09,0,.18,0,.27,0,.11,0,.22,0,.34l-.11,.7c0,.11-.05,.24-.1,.38-.03,.08-.06,.17-.08,.24-.03,.09-.06,.18-.08,.27-.04,.14-.08,.27-.13,.4l-.32,.69c-.05,.09-.09,.19-.13,.29-.06,.13-.11,.27-.19,.4l-.86,1.52c-.42,.75-.22,1.7,.47,2.21,.73,.54,1.85,.38,2.39-.35l1.11-1.49c.14-.19,.26-.39,.37-.59,.05-.08,.09-.16,.15-.25l.48-.85c.1-.2,.19-.42,.28-.63l.13-.3c.04-.1,.08-.19,.12-.28,.09-.22,.19-.44,.24-.69l.26-1.02c.06-.26,.08-.53,.1-.79,0-.11,.02-.21,.03-.31,.06-.39,.02-.79,0-1.18Zm-16.27,13.32l-.5,.43c-.19,.15-.39,.29-.58,.42l-.56,.33-.45,.2c-.26,.1-.48,.18-.71,.23-.29,.05-.59,.08-.89,.09-.3,0-.61-.07-.86-.12-.24-.07-.46-.17-.67-.26l-.11-.07c-.11-.07-.23-.15-.3-.2-.03-.04-.07-.07-.11-.11-.02-.02-.04-.04-.06-.05,0-.07,0-.19-.1-.31-.02-.02-.04-.04-.06-.06-.13-.08-.25-.18-.37-.29-.62-.54-.69-1.49-.15-2.11,.13-.15,.3-.28,.48-.37,.15-.07,.29-.13,.41-.18,.11-.03,.36-.01,.58,0l.74,.06h.36s.1-.02,.14-.04c.06-.03,.1-.06,.12-.08,.07-.06,.11-.16,.09-.25l.29-.16s.08-.07,.1-.1l.17-.14c.18-.15,.34-.35,.49-.56,.32,.61,1.06,1.74,2.22,2.12,.26,.08,.52,.12,.78,.12s.52-.04,.79-.12c-.33,.51-.74,1.07-1.29,1.59Zm2.36-3.67c-.19,.48-.41,.93-.64,1.36-.64,.35-1.26,.44-1.83,.25-1.17-.38-1.88-1.74-2.06-2.12,.2-.34,.39-.71,.56-1.12,.2-.49,.37-.96,.52-1.45,.04-.13,.07-.26,.11-.39,.38,.52,1.12,1.32,2.13,1.42,.07,0,.14,.01,.21,.01,.67,0,1.33-.34,1.97-.98-.1,.39-.2,.79-.32,1.19-.18,.62-.4,1.23-.63,1.83Zm1.16-3.78c-.08-.01-.17,0-.23,.07-.7,.84-1.41,1.22-2.1,1.16-1.09-.11-1.86-1.32-2-1.55,.13-.46,.25-.93,.38-1.42l.24-.91c.05-.18,.1-.37,.15-.55,.41,.47,1.29,1.31,2.39,1.34h.06c.61,0,1.19-.25,1.73-.75-.08,.35-.17,.7-.26,1.08-.11,.48-.23,1-.36,1.54Zm1.2-4.73c-.12,.37-.23,.76-.34,1.17-.04,.02-.09,.03-.12,.07-.59,.76-1.22,1.13-1.89,1.12-1.24-.03-2.22-1.4-2.25-1.43,.2-.74,.42-1.49,.7-2.26,.14-.39,.32-.82,.52-1.27,.23,.56,.69,1.33,1.51,1.61,.21,.08,.44,.11,.68,.11,.54,0,1.14-.21,1.78-.6-.02,.04-.04,.06-.05,.1-.21,.43-.39,.94-.54,1.38Zm11.06-.03c-.01,.11-.02,.22-.03,.33-.02,.25-.04,.5-.09,.71l-.26,1.03c-.04,.21-.13,.41-.22,.61-.04,.1-.09,.2-.12,.29l-.12,.3c-.09,.2-.17,.41-.26,.59l-.47,.83c-.05,.08-.1,.17-.15,.25-.11,.19-.22,.38-.34,.54l-1.11,1.49c-.39,.52-1.17,.64-1.69,.25-.49-.36-.63-1.03-.33-1.56l.86-1.51c.09-.15,.16-.31,.22-.46,.04-.09,.07-.17,.12-.26l.33-.71c.06-.15,.1-.3,.15-.45,.03-.09,.05-.17,.08-.27,.02-.07,.04-.15,.07-.22,.06-.17,.11-.34,.12-.49l.11-.67c.02-.15,.02-.29,.01-.43,0-.08,0-.15,0-.22,.02-.21-.02-.4-.05-.57l-.08-.43-.09-.24c-.07-.23-.15-.41-.24-.54-.08-.18-.19-.35-.31-.49-.08-.14-.19-.25-.29-.35l-.11-.12c-.1-.1-.21-.2-.33-.29l-.26-.2c-.14-.1-.28-.19-.42-.27h-.02c-.03-.07-.08-.12-.15-.14l-.32-.1h0c-.07-.02-.14-.01-.2,.02-.3-.04-.61-.06-.92-.07h-.1c-.36,0-.73,.04-1.15,.13-.33,.11-.66,.22-.92,.43-.28,.17-.51,.44-.75,.73-1.18,.98-2.16,1.34-2.92,1.08-.92-.32-1.29-1.47-1.37-1.79,.28-.57,.66-1.16,1.12-1.75,.62-.72,1.19-1.22,1.8-1.58,.6-.39,1.33-.68,2.23-.88,.75-.14,1.51-.18,2.23-.13,.73,.04,1.42,.19,2.03,.32l.07,.02c.07,.01,.14,.04,.2,.07,.48,.22,.72,.37,1.05,.58,.3,.19,.58,.42,.86,.65l.11,.1c.24,.23,.47,.44,.68,.68l.09,.11c.21,.26,.42,.5,.59,.79,.24,.36,.4,.67,.53,1,.15,.32,.27,.66,.35,1.06l.13,.53,.05,.57c.03,.36,.06,.73,0,1.08Z"/><path class="am" d="M14.8,60.6c.42,.37,.67,.61,.67,.61,.36,.61,5.59,10.82-.24,5.96,0,0,1.82,6.45-2.68,.73,0,0-.73,11.19-5.11-3.65-.43-1.47-.7-2.66-.83-3.65H14.8Z"/><path class="ai" d="M15.23,67.16c3.38,2.81,3.05,.58,2.1-1.92-1.89-1.85-4.64-4.21-3.56-1.11,1.58,4.58-2.42,2.08-2.42,2.08,.05,4.69-1.05,4.5-1.86,3.76,2.57,5.37,3.06-2.09,3.06-2.09,4.5,5.72,2.68-.73,2.68-.73Z"/><path class="am" d="M33.83,60.6c-.42,.37-.67,.61-.67,.61-.36,.61-5.59,10.82,.24,5.96,0,0-1.82,6.45,2.68,.73,0,0,.73,11.19,5.11-3.65,.43-1.47,.7-2.66,.83-3.65h-8.18Z"/><path class="ab" d="M41.86,61.48l-2.01,1.33c-1.92,10.42-3.33,3-3.33,3-1.87,2.92-2.92,2.6-3.33,2.25-.3,1.54-.51,4.14,2.89-.17,0,0,.73,11.19,5.11-3.65,.31-1.05,.53-1.96,.68-2.76Z"/><path class="w" d="M37.5,72.19h0c-1.09,0-1.49-2.4-1.62-3.66-1.45,1.76-2.06,1.97-2.4,1.97-.2,0-.37-.08-.49-.24-.36-.47-.19-1.65-.02-2.45-1.33,1.01-2.12,1.13-2.44,.56-.78-1.38,2.37-7.25,2.4-7.3l.04-.05s.26-.25,.68-.61l.07-.06h8.56l-.04,.28c-.14,1.04-.42,2.28-.84,3.69-2.08,7.06-3.23,7.87-3.92,7.87Zm-1.22-4.96l.04,.65c.1,1.54,.54,3.81,1.18,3.81,.37,0,1.44-.73,3.44-7.51,.37-1.26,.63-2.37,.78-3.33h-7.8c-.3,.26-.5,.45-.57,.52-.56,.95-2.91,5.84-2.38,6.77,.03,.05,.07,.09,.18,.09,.22,0,.78-.16,2.09-1.25l.62-.52-.22,.78c-.26,.92-.51,2.38-.24,2.73,.02,.03,.05,.04,.09,.04,.18,0,.78-.22,2.4-2.27l.4-.51Z"/><path class="w" d="M11.13,72.19c-.69,0-1.84-.82-3.92-7.87-.42-1.41-.7-2.65-.84-3.69l-.04-.28H14.89l.07,.06c.42,.37,.68,.61,.68,.61l.04,.05c.03,.06,3.19,5.92,2.4,7.3-.32,.57-1.12,.45-2.44-.56,.17,.8,.34,1.97-.02,2.45-.12,.16-.29,.24-.49,.24h0c-.34,0-.95-.22-2.4-1.97-.13,1.26-.53,3.66-1.62,3.66Zm-4.22-11.34c.15,.95,.41,2.07,.78,3.33,2,6.78,3.07,7.51,3.44,7.51,.63,0,1.08-2.28,1.18-3.81l.04-.65,.4,.51c1.61,2.05,2.21,2.27,2.4,2.27,.04,0,.06-.01,.09-.04,.26-.35,.02-1.81-.24-2.73l-.22-.78,.62,.52c1.31,1.09,1.87,1.25,2.09,1.25,.11,0,.15-.04,.18-.09,.53-.93-1.82-5.82-2.38-6.77-.07-.06-.27-.25-.57-.52H6.9Z"/><path class="am" d="M12.68,29.14S5.54,22.49,.35,22.33c0,0-1.78,11.67,8.76,14.92l3.57-8.11Z"/><path class="ad" d="M12.15,30.3l.44-1S5.46,22.66,.27,22.5c0,0-.07,.45-.1,1.18,4.7,.26,10.88,5.63,11.98,6.62Z"/><path class="w" d="M9.11,37.5s-.05,0-.07-.01C-1.59,34.22,.09,22.41,.11,22.29c.02-.12,.12-.23,.25-.21,5.22,.16,12.19,6.6,12.49,6.88,.08,.07,.1,.19,.06,.28l-3.57,8.11c-.04,.09-.13,.15-.23,.15ZM.57,22.59c-.17,1.61-.79,11.37,8.4,14.35l3.4-7.74c-.97-.88-7.17-6.3-11.8-6.61Z"/><path class="as" d="M10.97,30.25s-3.88-3.61-6.7-3.7c0,0-.97,6.34,4.76,8.11l1.94-4.41Z"/><path class="ag" d="M10.51,31.7l.58-1.33s-3.88-3.61-6.7-3.7c0,0-.1,.68-.04,1.65,2.3,.2,5.19,2.55,6.15,3.38Z"/><path class="w" d="M9.03,34.9s-.05,0-.07-.01c-5.87-1.8-4.94-8.32-4.93-8.38,.02-.12,.14-.23,.25-.21,2.88,.09,6.7,3.62,6.86,3.77,.08,.07,.1,.19,.06,.28l-1.94,4.41c-.04,.09-.13,.15-.23,.15Zm-4.54-8.09c-.11,1.12-.3,5.95,4.4,7.54l1.78-4.03c-.67-.6-3.79-3.27-6.18-3.5Z"/><path class="am" d="M39.64,29.14s7.13-6.65,12.32-6.81c0,0,1.78,11.67-8.76,14.92l-3.57-8.11Z"/><path class="af" d="M51.88,22.33c-.58,.02-1.2,.13-1.82,.29,.15,1.19,1.01,10.54-7.14,14.17l.2,.45c10.54-3.24,8.76-14.92,8.76-14.92Z"/><path class="w" d="M43.21,37.5c-.1,0-.19-.06-.23-.15l-3.57-8.11c-.04-.1-.02-.21,.06-.28,.29-.27,7.26-6.71,12.49-6.88,.12-.01,.24,.09,.25,.21,.02,.12,1.69,11.93-8.93,15.19-.02,0-.05,.01-.07,.01Zm-3.27-8.29l3.4,7.74c9.2-2.98,8.57-12.74,8.4-14.35-4.63,.31-10.83,5.73-11.8,6.61Z"/><path class="as" d="M41.34,30.25s3.88-3.61,6.7-3.7c0,0,.97,6.34-4.76,8.11l-1.94-4.41Z"/><path class="ao" d="M48.04,26.67c-.38,.01-.78,.09-1.19,.22,.01,1.72-.43,5.29-4.03,6.84l.46,1.05c5.73-1.76,4.76-8.11,4.76-8.11Z"/><path class="w" d="M43.28,34.9c-.1,0-.19-.06-.23-.15l-1.94-4.41c-.04-.1-.02-.21,.06-.28,.16-.15,3.98-3.68,6.86-3.77,.13-.01,.24,.09,.25,.21,.01,.07,.93,6.58-4.93,8.38-.02,0-.05,.01-.07,.01Zm-1.64-4.59l1.78,4.03c4.7-1.59,4.51-6.41,4.4-7.54-2.39,.23-5.5,2.9-6.18,3.5Z"/><path class="an" d="M21.32,17.14c.48-1.8,.53-4.36-.26-6.07-.62-1.36-3-3.24-.88-4.47,0,0,3.08-1.78,3.24,5.68l.32,3.89s.49,2.43,1.62,2.59c0,0,1.62,.49,.65-6.97,0,0-1.78-10.22,3.73-11.51,0,0,4.38-.49,4.54,2.43,0,0,.65,2.92-1.95,3.24,0,0-3.08-.65-3.73,3.89,0,0-2.11,16.38,2.27,3.57,0,0,1.3-4.22,2.59-3.08,0,0,1.13,.97-.65,4.38,0,0-2.11,5.03,.32,5.51,0,0,2.43,1.62,2.27-3.89,0,0-.65-3.24,1.46-2.92,0,0,4.22-1.46,1.62,8.76,0,0,2.92-3.4,3.89-1.95,0,0,2.27,.65-1.3,6.32,0,0,6.32,13.78,4.7,24.81,0,0,0,15.08-18.65,15.08,0,0-25.62,1.95-24.81-14.59,0,0-.97-15.57,9.89-25.94,0,0-6.81-6.49,1.3-3.4,0,0,4.05,.65,.81-4.05,0,0-3.08-4.05-5.68-2.43,0,0-1.13,3.57-3.24,2.76,0,0-4.22-4.22,1.14-7.62,0,0,4.86-4.05,8.43,3.08l1.95,3.4s2.92,5.03,4.38-.49Z"/><g><path class="ar" d="M41.1,26.55c3.57-5.67,1.3-6.32,1.3-6.32-.97-1.46-3.89,1.95-3.89,1.95,2.59-10.22-1.62-8.76-1.62-8.76-2.11-.32-1.46,2.92-1.46,2.92,.16,5.51-2.27,3.89-2.27,3.89-2.43-.49-.32-5.51-.32-5.51,1.78-3.4,.65-4.38,.65-4.38-1.3-1.13-2.59,3.08-2.59,3.08-4.38,12.81-2.27-3.57-2.27-3.57,.65-4.54,3.73-3.89,3.73-3.89,2.59-.32,1.95-3.24,1.95-3.24-.08-1.52-1.31-2.11-2.46-2.33,.24,1.08,.14,2.32-1.18,3.1,0,0-2.25-1.25-3.12,6.75,0,0-1.62,10.88,2.25,11.12,0,0,6.49-.21,8.92,7.02-.82-.61-1.81-1.03-2.9-1.15-3.29-.37-6.26,2-6.63,5.29-.37,3.29,2,6.26,5.29,6.63,2.71,.3,5.2-1.25,6.2-3.65,1.13,5.67,1.83,14.07-1.5,21.1,0,0-5.26,11.21-31.42,5.94,7.3,4.81,19.43,3.89,19.43,3.89,18.65,0,18.65-15.08,18.65-15.08,1.62-11.03-4.7-24.81-4.7-24.81Z"/><path class="a`" d="M18.08,39.14c3.29,.37,6.26-2,6.63-5.29,.37-3.29-2-6.26-5.29-6.63-3.29-.37-6.26,2-6.63,5.29-.37,3.29,2,6.26,5.29,6.63Z"/></g><path class="w" d="M24.73,66.75c-5.17,0-14.57-.78-19.52-5.97-2.24-2.35-3.29-5.37-3.11-8.96,0-.13-.85-15.59,9.78-25.93-.78-.77-2.91-2.99-2.51-3.99,.3-.76,1.62-.65,4.25,.35,0,0,.15,.02,.37,.02,.37,0,1.03-.07,1.26-.52,.21-.4,.19-1.28-1.11-3.17-.01-.02-2.08-2.71-4.15-2.71-.39,0-.77,.1-1.11,.3-.18,.52-1.12,2.96-2.84,2.96-.23,0-.47-.05-.7-.14-.03-.01-.06-.03-.09-.06-.08-.08-1.88-1.91-1.63-4.2,.16-1.45,1.1-2.73,2.81-3.81,.03-.03,1.44-1.19,3.34-1.19,2.17,0,4.01,1.47,5.45,4.37l1.94,3.39c.32,.55,1.35,1.97,2.26,1.97h0c.85,0,1.37-1.3,1.66-2.4,.43-1.64,.54-4.19-.24-5.9-.15-.33-.41-.69-.69-1.08-.57-.8-1.22-1.71-1.04-2.56,.1-.45,.42-.84,.96-1.15,.07-.04,.42-.22,.89-.22,1.18,0,2.62,1.06,2.73,6.11l.32,3.88c.12,.6,.62,2.26,1.41,2.37,.04,0,.11,0,.2-.11,.27-.31,.82-1.56,.17-6.59-.07-.42-1.76-10.45,3.92-11.79,.03,0,.31-.04,.74-.04,2.51,0,4.01,.98,4.1,2.7,0,.02,.32,1.49-.41,2.54-.38,.54-.97,.87-1.75,.96-.03,0-.05,0-.08,0-.05,0-2.83-.55-3.43,3.68-.47,3.66-.71,7.83-.28,8.19,.04-.04,.58-.4,2.07-4.74,.18-.57,1.12-3.44,2.37-3.44,.22,0,.43,.09,.62,.26,.13,.11,1.23,1.2-.59,4.68,0,.01-1.34,3.22-.6,4.6,.16,.3,.41,.48,.75,.55,.03,0,.06,.02,.09,.04,0,0,.28,.18,.61,.18,.23,0,.42-.08,.59-.26,.35-.36,.75-1.28,.68-3.6-.01-.03-.36-1.84,.36-2.72,.31-.38,.74-.54,1.33-.46,.26-.07,1.27-.29,2.02,.67,.93,1.19,.96,3.7,.09,7.48,.72-.71,1.86-1.69,2.75-1.69,.34,0,.63,.14,.83,.41,.16,.07,.48,.28,.66,.76,.45,1.17-.17,3.11-1.84,5.79,.62,1.41,6.2,14.41,4.67,24.82,0,.12-.21,15.29-18.89,15.29,0,0-.94,.07-2.43,.07ZM10.36,21.91c-.17,0-.47,.02-.53,.18-.23,.58,1.37,2.47,2.58,3.62,.05,.05,.08,.11,.08,.18s-.03,.13-.08,.18C1.75,36.26,2.59,51.67,2.6,51.83c-.17,3.47,.83,6.36,2.97,8.61,5,5.25,15.06,5.82,19.16,5.82,1.47,0,2.4-.07,2.41-.07,18.19,0,18.42-14.22,18.42-14.83,1.6-10.86-4.62-24.57-4.68-24.7-.04-.08-.03-.17,.02-.24,2.12-3.37,2.09-4.86,1.87-5.44-.15-.42-.43-.51-.44-.51-.05-.02-.1-.05-.13-.1-.64-.96-2.85,1.22-3.49,1.97-.08,.09-.2,.11-.31,.06-.1-.05-.16-.17-.13-.28,1.31-5.15,.84-7.18,.22-7.97-.28-.36-.65-.54-1.1-.54-.25,0-.42,.06-.42,.06-.04,.01-.08,.02-.12,.01-.42-.06-.72,.02-.92,.27-.47,.58-.34,1.89-.25,2.35,.06,2.04-.21,3.38-.82,4-.26,.27-.59,.41-.95,.41-.39,0-.72-.17-.84-.24-.48-.11-.83-.37-1.05-.8-.84-1.59,.53-4.91,.59-5.05,1.65-3.15,.72-4.09,.71-4.1-.1-.09-.2-.13-.29-.13-.65,0-1.5,1.81-1.9,3.1-1.73,5.07-2.29,5.07-2.58,5.07-.09,0-.22-.03-.34-.16-.78-.89,0-7.3,.17-8.58,.53-3.74,2.68-4.14,3.58-4.14,.19,0,.33,.02,.4,.03,.61-.08,1.07-.34,1.37-.75,.61-.86,.33-2.17,.33-2.19-.11-1.98-2.31-2.27-3.61-2.27-.39,0-.65,.03-.66,.03-5.19,1.22-3.53,11.12-3.51,11.22,.5,3.85,.41,6.2-.29,6.99-.21,.24-.44,.28-.55,.28-.02,0-.11,0-.13-.02-1.24-.17-1.74-2.52-1.79-2.78l-.33-3.92c-.11-4.9-1.44-5.63-2.23-5.63-.36,0-.63,.15-.64,.15-.41,.24-.65,.51-.71,.82-.14,.63,.42,1.41,.96,2.16,.29,.41,.57,.8,.74,1.16,.84,1.83,.73,4.51,.27,6.24-.49,1.84-1.21,2.77-2.15,2.77h0c-1.38,0-2.64-2.13-2.69-2.22l-1.95-3.41c-1.36-2.73-3.05-4.1-5.01-4.1-1.71,0-3.03,1.08-3.04,1.09-1.59,1.02-2.46,2.18-2.6,3.47-.21,1.88,1.2,3.49,1.45,3.75,.16,.06,.32,.08,.47,.08,1.51,0,2.38-2.68,2.39-2.7,.02-.06,.06-.11,.11-.14,.45-.28,.94-.42,1.45-.42,2.31,0,4.46,2.8,4.55,2.91,1.18,1.72,1.56,2.92,1.15,3.7-.34,.65-1.12,.78-1.71,.78-.29,0-.49-.03-.49-.03-1.47-.55-2.51-.83-3.13-.83Z"/><path class="v" d="M23.34,32.98c-.37,3.29-3.34,5.66-6.63,5.29s-5.66-3.34-5.29-6.63c.37-3.29,3.34-5.66,6.63-5.29,3.29,.37,5.66,3.34,5.29,6.63Z"/><path class="y" d="M20.97,27.28c1.07,1.22,1.65,2.87,1.45,4.61-.37,3.29-3.34,5.66-6.63,5.29-1.07-.12-2.03-.51-2.84-1.1,.95,1.09,2.29,1.84,3.84,2.02,3.29,.37,6.26-2,6.63-5.29,.25-2.23-.76-4.3-2.45-5.53Z"/><path class="w" d="M17.38,38.56c-.23,0-.47-.01-.7-.04-1.66-.19-3.15-1.01-4.19-2.31-1.04-1.3-1.51-2.94-1.33-4.6,.38-3.4,3.44-5.9,6.91-5.51,3.42,.39,5.9,3.48,5.51,6.91-.36,3.17-3.02,5.55-6.2,5.55Zm-.02-12c-2.93,0-5.38,2.2-5.71,5.11-.17,1.53,.26,3.03,1.22,4.23s2.33,1.96,3.85,2.13c3.2,.36,6-1.95,6.36-5.07,.35-3.15-1.92-6-5.07-6.36-.22-.02-.43-.04-.65-.04Z"/><path class="w" d="M21.02,31.44c-.02-.1-.11-.17-.22-.18-.1,0-.2,.06-.23,.16-.25,.82-1.05,1.35-1.91,1.26-.98-.11-1.69-1-1.58-1.98,.08-.75,.64-1.36,1.38-1.54,.1-.02,.18-.11,.18-.22,0-.1-.06-.2-.16-.23-2.33-.72-4.58,.88-4.84,3.16-.23,2.05,1.25,3.91,3.31,4.14,2.05,.23,3.91-1.25,4.14-3.31,.05-.42,.02-.86-.08-1.28Z"/><path class="v" d="M14.1,31.27s-.08,.32-.06,.79c0,.24,.06,.51,.14,.79,.05,.14,.1,.28,.17,.41,.06,.14,.16,.26,.24,.38,.09,.12,.2,.23,.3,.33,.12,.09,.23,.19,.34,.27,.12,.07,.24,.15,.35,.21,.12,.06,.23,.11,.33,.15,.2,.1,.4,.14,.52,.18l.2,.06h.03c.17,.06,.26,.24,.21,.41-.05,.17-.23,.26-.4,.21-.01,0-.02,0-.04-.01l-.21-.1c-.13-.07-.33-.13-.55-.28-.11-.07-.23-.14-.35-.22-.11-.09-.24-.19-.36-.29-.12-.11-.23-.23-.34-.35-.1-.14-.2-.27-.29-.42-.08-.15-.17-.3-.21-.46-.06-.15-.1-.31-.13-.46-.06-.31-.07-.6-.05-.84,.03-.49,.16-.79,.16-.79Z"/><path class="v" d="M40.2,32.98c-.37,3.29-3.34,5.66-6.63,5.29s-5.66-3.34-5.29-6.63c.37-3.29,3.34-5.66,6.63-5.29,3.29,.37,5.66,3.34,5.29,6.63Z"/><path class="w" d="M37.88,31.44c-.02-.1-.11-.17-.22-.18-.1,0-.2,.06-.23,.16-.25,.82-1.05,1.35-1.91,1.26-.98-.11-1.69-1-1.58-1.98,.08-.75,.64-1.36,1.38-1.54,.1-.02,.17-.11,.18-.22,0-.1-.06-.2-.16-.23-2.33-.72-4.58,.88-4.84,3.16-.23,2.05,1.25,3.91,3.31,4.14,2.05,.23,3.91-1.25,4.14-3.31,.05-.42,.02-.86-.08-1.28Z"/><path class="v" d="M30.96,31.27s-.08,.32-.06,.79c0,.24,.06,.51,.14,.79,.05,.14,.1,.28,.17,.41,.06,.14,.16,.26,.24,.38,.09,.12,.2,.23,.3,.33,.12,.09,.23,.19,.34,.27,.12,.07,.24,.15,.35,.21,.12,.06,.23,.11,.33,.15,.2,.1,.4,.14,.52,.18l.2,.06h.03c.17,.06,.26,.24,.21,.41-.05,.17-.23,.26-.4,.21-.01,0-.02,0-.04-.01l-.21-.1c-.13-.07-.33-.13-.55-.28-.11-.07-.23-.14-.35-.22l-.36-.29c-.12-.11-.23-.23-.34-.35-.1-.14-.2-.27-.29-.42-.08-.15-.17-.3-.21-.46-.06-.15-.1-.31-.13-.46-.06-.31-.07-.6-.05-.84,.03-.49,.16-.79,.16-.79Z"/><path class="ae" d="M18.78,43.41c.29,3.63,3.32,6.49,7.02,6.49s6.73-2.86,7.02-6.49h-14.05Z"/><path class="aa" d="M31.38,43.33c-.77,3.06-3.53,5.32-6.83,5.32-1.64,0-3.15-.56-4.35-1.5,1.29,1.62,3.28,2.67,5.51,2.67,3.7,0,6.73-2.86,7.02-6.49h-1.36Z"/><path class="w" d="M25.8,50.15c-3.78,0-6.97-2.95-7.27-6.72l-.02-.27h14.59l-.02,.27c-.3,3.77-3.5,6.72-7.27,6.72Zm-6.75-6.49c.41,3.38,3.32,5.99,6.75,5.99s6.34-2.61,6.75-5.99h-13.5Z"/><path class="v" d="M23.94,43.17c0,1.21-.98,2.19-2.19,2.19h0c-1.21,0-2.19-.98-2.19-2.19h0c0-1.21,.98-2.19,2.19-2.19h0c1.21,0,2.19,.98,2.19,2.19h0Z"/><path class="y" d="M23.57,41.65c.09,.24,.15,.5,.15,.77,0,1.21-.98,2.19-2.19,2.19-.7,0-1.31-.33-1.71-.84,.31,.83,1.11,1.42,2.04,1.42,1.21,0,2.19-.98,2.19-2.19,0-.51-.18-.98-.48-1.35Z"/><path class="w" d="M21.75,45.61c-1.34,0-2.44-1.09-2.44-2.44s1.09-2.44,2.44-2.44,2.44,1.09,2.44,2.44-1.09,2.44-2.44,2.44Zm0-4.38c-1.07,0-1.94,.87-1.94,1.94s.87,1.94,1.94,1.94,1.94-.87,1.94-1.94-.87-1.94-1.94-1.94Z"/><path class="v" d="M32.05,43.17c0,1.21-.98,2.19-2.19,2.19h0c-1.21,0-2.19-.98-2.19-2.19h0c0-1.21,.98-2.19,2.19-2.19h0c1.21,0,2.19,.98,2.19,2.19h0Z"/><path class="y" d="M31.57,41.65c.09,.24,.15,.5,.15,.77,0,1.21-.98,2.19-2.19,2.19-.7,0-1.31-.33-1.71-.84,.31,.83,1.11,1.42,2.04,1.42,1.21,0,2.19-.98,2.19-2.19,0-.51-.18-.98-.48-1.35Z"/><path class="w" d="M29.86,45.61c-1.34,0-2.44-1.09-2.44-2.44s1.09-2.44,2.44-2.44,2.44,1.09,2.44,2.44-1.09,2.44-2.44,2.44Zm0-4.38c-1.07,0-1.94,.87-1.94,1.94s.87,1.94,1.94,1.94,1.94-.87,1.94-1.94-.87-1.94-1.94-1.94Z"/><path class="aj" d="M34.88,41.71c0,1.03-.83,1.86-1.86,1.86h-14.43c-1.03,0-1.86-.83-1.86-1.86h0c0-1.03,.83-1.86,1.86-1.86h14.43c1.03,0,1.86,.83,1.86,1.86h0Z"/><path class="al" d="M33.59,39.94c.11,.23,.17,.49,.17,.77,0,1.03-.83,1.86-1.86,1.86h-14.43c-.2,0-.39-.04-.57-.1,.29,.65,.94,1.1,1.7,1.1h14.43c1.03,0,1.86-.83,1.86-1.86,0-.83-.54-1.52-1.29-1.77Z"/><path class="w" d="M33.02,43.82h-14.43c-1.17,0-2.11-.95-2.11-2.11s.95-2.12,2.11-2.12h14.43c1.17,0,2.11,.95,2.11,2.12s-.95,2.11-2.11,2.11Zm-14.43-3.73c-.89,0-1.61,.72-1.61,1.62s.72,1.61,1.61,1.61h14.43c.89,0,1.61-.72,1.61-1.61s-.72-1.62-1.61-1.62h-14.43Z"/><path class="am" d="M3.57,41.54s1.51,6.92,8.42,10.61c0,0,4.33-1.67,4.2,.43,0,0,.18,2.29-3.68,1.71,0,0,4.81,.96,3.54,3.15,0,0-1.24,1.55-4.46-1.42,0,0,2.89,3.11,.57,3.77,0,0-2.15,.51-2.58-5.36,0,0-8.48-4.6-6-12.89Z"/><path class="ap" d="M11.58,53.32s4.15-1.6,4.19,.32c.29-.45,.26-.89,.26-.89,.13-2.1-4.2-.43-4.2-.43-6.91-3.69-8.42-10.61-8.42-10.61-.1,.34-.18,.68-.25,1.01,.03,.12,1.57,6.94,8.42,10.6Z"/><path class="w" d="M12.02,60.06c-.68,0-2.3-.54-2.69-5.48-1.04-.61-8.34-5.28-6-13.12,.03-.11,.14-.17,.25-.18,.11,0,.21,.09,.23,.2,.02,.07,1.55,6.79,8.19,10.39,.39-.14,1.75-.61,2.84-.61,.6,0,1.04,.14,1.3,.43,.21,.23,.31,.53,.28,.9h0s.05,.68-.49,1.26c-.37,.4-.91,.64-1.61,.74,.84,.34,1.72,.85,2.04,1.55,.2,.45,.16,.93-.12,1.43-.04,.05-.43,.53-1.28,.53-.63,0-1.34-.25-2.12-.75,.32,.58,.55,1.23,.4,1.78-.12,.45-.47,.75-1.03,.91-.03,0-.09,.02-.2,.02ZM3.59,42.49c-1.58,7.45,6.02,11.69,6.1,11.73,.07,.04,.12,.12,.13,.2,.36,4.9,1.9,5.14,2.2,5.14,.04,0,.07,0,.08,0,.37-.11,.6-.29,.67-.56,.23-.83-.91-2.3-1.37-2.8-.09-.1-.09-.25,0-.35,.1-.09,.25-.1,.35,0,1.58,1.45,2.62,1.76,3.22,1.76s.86-.3,.87-.31c.18-.32,.21-.63,.08-.94-.45-1.01-2.66-1.65-3.47-1.81-.13-.03-.22-.15-.2-.29,.02-.13,.15-.22,.28-.2,1.47,.21,2.51,.04,3.03-.53,.39-.42,.36-.9,.36-.92,.02-.27-.03-.44-.15-.56-.16-.17-.49-.27-.94-.27-1.17,0-2.76,.61-2.77,.61-.07,.02-.14,.02-.21-.01-5.46-2.92-7.61-7.88-8.28-9.89Z"/><path class="am" d="M45.47,41.7s-1.51,6.92-8.42,10.61c0,0-4.33-1.67-4.2,.43,0,0-.18,2.29,3.68,1.71,0,0-4.81,.96-3.54,3.15,0,0,1.24,1.55,4.46-1.42,0,0-2.89,3.11-.57,3.77,0,0,2.15,.51,2.58-5.36,0,0,8.48-4.6,6-12.89Z"/><path class="ac" d="M45.31,41.7s-.12,.53-.42,1.35c.64,6.96-6.41,10.79-6.41,10.79-.44,5.88-2.58,5.36-2.58,5.36,0,0-.01,0-.02,0,.09,.33,.33,.61,.86,.76,0,0,2.14,.51,2.58-5.36,0,0,8.48-4.6,6-12.89Z"/><path class="w" d="M37.02,60.23h0c-.1,0-.17-.01-.19-.02-.57-.16-.92-.47-1.04-.92-.15-.54,.08-1.2,.4-1.78-.78,.5-1.49,.75-2.12,.75-.85,0-1.24-.48-1.26-.5-.31-.52-.35-1-.14-1.46,.32-.7,1.2-1.21,2.04-1.55-.7-.09-1.24-.34-1.61-.74-.54-.58-.49-1.26-.49-1.29-.02-.34,.07-.64,.28-.87,.26-.28,.7-.43,1.3-.43,1.09,0,2.45,.46,2.84,.61,6.64-3.61,8.18-10.32,8.19-10.39,.02-.11,.12-.19,.23-.2,.12,0,.22,.07,.25,.18,2.35,7.84-4.96,12.5-6,13.12-.39,4.94-2.01,5.48-2.69,5.48Zm-.06-.5s.03,0,.06,0h0c.3,0,1.84-.25,2.2-5.14,0-.08,.06-.16,.13-.2,.08-.04,7.68-4.28,6.1-11.73-.68,2.01-2.83,6.98-8.28,9.89-.06,.03-.14,.04-.21,.01-.02,0-1.6-.61-2.77-.61-.45,0-.77,.09-.94,.27-.12,.12-.16,.3-.15,.53,0,.05-.03,.54,.36,.96,.53,.56,1.57,.74,3.04,.53,.13-.02,.26,.07,.28,.2,.02,.13-.06,.26-.2,.29-.81,.16-3.01,.8-3.47,1.81-.14,.3-.1,.62,.1,.97h0s.27,.28,.85,.28,1.65-.31,3.22-1.76c.1-.09,.25-.09,.35,0,.09,.1,.1,.25,0,.35-.46,.5-1.61,1.97-1.37,2.8,.08,.27,.3,.45,.69,.57h0Z"/><path class="y" d="M37.8,27.36c1.07,1.22,1.65,2.87,1.45,4.61-.37,3.29-3.34,5.66-6.63,5.29-1.07-.12-2.03-.51-2.84-1.1,.95,1.09,2.29,1.84,3.84,2.02,3.29,.37,6.26-2,6.63-5.29,.25-2.23-.76-4.3-2.45-5.53Z"/><path class="w" d="M34.24,38.56c-.23,0-.47-.01-.71-.04-1.66-.19-3.15-1.01-4.19-2.31-1.04-1.3-1.51-2.94-1.33-4.6,.38-3.4,3.44-5.9,6.91-5.51,3.42,.39,5.9,3.48,5.51,6.91-.36,3.17-3.02,5.55-6.2,5.55Zm-.02-12c-2.93,0-5.38,2.2-5.71,5.11-.17,1.53,.26,3.03,1.22,4.23s2.33,1.96,3.85,2.13c3.2,.36,6-1.95,6.36-5.07,.35-3.15-1.92-6-5.07-6.36-.22-.02-.43-.04-.65-.04Z"/><path class="aq" d="M9.18,11.06s-4.33,.5-3.83,4.83c0,0,.5,4.33,2.67-.67,0,0,1.33-4.83,4.67-2,0,0-1.17-2.5-3.5-2.17Z"/><path class="x" d="M13.18,25.23s-5.33-3.83-1-2.17l1,2.17Z"/><path class="ak" d="M11.18,29.06s-5.17,5-6.33,12.5c0,0,1.09,4.83,5.23,8.01,.14,.11,.29,.22,.44,.32,4.5,3.17-1.67-8.33,2.33-11.83,0,0-4.17-2.5-1.67-9Z"/><path class="v" d="M17.6,41.48s-.08-1.08,1-1h11.26l-12.26,1Z"/><path class="v" d="M.97,26.01s0,5.17,4.44,8.71l.32-.35s-3.29-2.34-4.75-8.36Z"/><path class="v" d="M5.35,29.73s.17,1,1.08,2.42l.67-.75s-1.5-.58-1.75-1.67Z"/><path class="v" d="M43.52,30.89l-.33-1.08s1.17-1.25,2.42-1.67c1.25-.42-2.17,2-2.08,2.75Z"/><path class="v" d="M42.35,28.31l-.17-.58s5.17-3.92,6.83-4.08l-6.67,4.67Z"/><path class="u" d="M6.27,52.89s-2.5-2.58-3.17-4.5c0,0-1.58,6.75,2.25,11.08,0,0-.5-3.42,.92-6.58Z"/><path class="v" d="M10.43,56.48s.5,3.17,1.83,2.5c0,0-1.67-1.25-1.83-2.5Z"/><path class="v" d="M12.27,55.98s3.08,2.08,3.5,1l-3.5-1Z"/><path class="v" d="M33.35,52.23s-.85,1.89,2.82,1.82c0,0-2.91-.65-2.82-1.82Z"/><path class="v" d="M33.43,56.98s.58,1.5,3.5-1.08c0,0-2.92,1.58-3.5,1.08Z"/><path class="v" d="M9.18,64.23l-1.25-.75s.33,2.25,1.67,4.83c0,0-.83-2.83-.42-4.08Z"/><path class="v" d="M31.43,66.73s-.92,2.5,1.33-.17l-1.33,.17Z"/></g></g></g></svg>