<svg xmlns="http://www.w3.org/2000/svg" xmlns:xlink="http://www.w3.org/1999/xlink" viewBox="0 0 85.92 74.07"><defs><style>.w{fill:url(#t);}.x{fill:#fff;}.y{fill:#491c44;}.a`{fill:url(#r);}.aa{fill:url(#l);}.ab{fill:#c7e4f8;}.ac{fill:url(#u);}.ad{fill:url(#v);}.ae{fill:url(#m);}.af{fill:url(#f);}.ag{fill:url(#p);}.ah{fill:url(#g);}.ai{fill:#e16962;}.aj{fill:url(#i);}.ak{fill:url(#h);}.al{fill:url(#d);}.am{fill:url(#e);}.an{fill:#f1b2cc;}.ao{fill:url(#s);}.ap{fill:url(#n);}.aq{fill:url(#j);}.ar{fill:#cecece;}.as{fill:url(#o);}.at{fill:url(#q);}.au{fill:#814e54;}.av{fill:url(#k);}</style><linearGradient id="d" x1=".24" y1="34.4" x2="19.93" y2="34.4" gradientTransform="matrix(1, 0, 0, 1, 0, 0)" gradientUnits="userSpaceOnUse"><stop offset="0" stop-color="#f1b2cc"></stop><stop offset=".12" stop-color="#edabc5"></stop><stop offset=".3" stop-color="#e398b3"></stop><stop offset=".51" stop-color="#d27895"></stop><stop offset=".75" stop-color="#bb4d6c"></stop><stop offset="1" stop-color="#9f1739"></stop></linearGradient><linearGradient id="e" x1="59.25" y1="1.48" x2="59.25" y2="11.93" xlink:href="#d"></linearGradient><linearGradient id="f" x1="74.35" y1="37.35" x2="74.35" y2="29.51" gradientTransform="matrix(1, 0, 0, 1, 0, 0)" gradientUnits="userSpaceOnUse"><stop offset="0" stop-color="#c7e4f8"></stop><stop offset=".19" stop-color="#c3e2f7"></stop><stop offset=".34" stop-color="#badef4"></stop><stop offset=".47" stop-color="#aad7ee"></stop><stop offset=".59" stop-color="#93cce7"></stop><stop offset=".7" stop-color="#75bfde"></stop><stop offset=".81" stop-color="#51afd2"></stop><stop offset=".92" stop-color="#279cc5"></stop><stop offset="1" stop-color="#008bb9"></stop></linearGradient><linearGradient id="g" x1="21.86" y1="56.68" x2="27.81" y2="56.68" gradientTransform="matrix(1, 0, 0, 1, 0, 0)" gradientUnits="userSpaceOnUse"><stop offset="0" stop-color="#c7e4f8"></stop><stop offset=".06" stop-color="#b8ddf3"></stop><stop offset=".53" stop-color="#56b1d4"></stop><stop offset=".85" stop-color="#1895c0"></stop><stop offset="1" stop-color="#008bb9"></stop></linearGradient><linearGradient id="h" x1="46.76" y1="63.11" x2="46.76" y2="73.95" xlink:href="#f"></linearGradient><linearGradient id="i" x1="73.51" y1="48.01" x2="73.51" y2="54.82" xlink:href="#f"></linearGradient><linearGradient id="j" x1="50.8" y1="17.21" x2="50.8" y2="64.59" gradientTransform="matrix(1, 0, 0, 1, 0, 0)" gradientUnits="userSpaceOnUse"><stop offset="0" stop-color="#f1b2cc"></stop><stop offset=".3" stop-color="#efafc9"></stop><stop offset=".46" stop-color="#eba7c2"></stop><stop offset=".59" stop-color="#e49ab5"></stop><stop offset=".69" stop-color="#da87a3"></stop><stop offset=".79" stop-color="#cd6e8c"></stop><stop offset=".88" stop-color="#bd506f"></stop><stop offset=".96" stop-color="#aa2d4d"></stop><stop offset="1" stop-color="#9f1739"></stop></linearGradient><linearGradient id="k" x1="23.09" y1="21.87" x2="40.96" y2="21.87" xlink:href="#g"></linearGradient><linearGradient id="l" x1="35.72" y1="33.43" x2="35.72" y2="50.41" gradientTransform="matrix(1, 0, 0, 1, 0, 0)" gradientUnits="userSpaceOnUse"><stop offset="0" stop-color="#f1b2cc"></stop><stop offset=".13" stop-color="#eeacc6"></stop><stop offset=".3" stop-color="#e69db8"></stop><stop offset=".48" stop-color="#d884a0"></stop><stop offset=".68" stop-color="#c5607e"></stop><stop offset=".88" stop-color="#ae3354"></stop><stop offset="1" stop-color="#9f1739"></stop></linearGradient><linearGradient id="m" x1="54.42" y1="19.74" x2="54.42" y2="40.18" xlink:href="#l"></linearGradient><linearGradient id="n" x1="46.9" y1="50.44" x2="60.98" y2="50.44" gradientTransform="matrix(1, 0, 0, 1, 0, 0)" gradientUnits="userSpaceOnUse"><stop offset="0" stop-color="#814e54"></stop><stop offset=".26" stop-color="#784750"></stop><stop offset=".67" stop-color="#623645"></stop><stop offset="1" stop-color="#4b253b"></stop></linearGradient><linearGradient id="o" x1="48.28" y1="54.38" x2="60.39" y2="54.38" gradientTransform="matrix(1, 0, 0, 1, 0, 0)" gradientUnits="userSpaceOnUse"><stop offset="0" stop-color="#e16962"></stop><stop offset=".17" stop-color="#da5d5f"></stop><stop offset=".48" stop-color="#c73f58"></stop><stop offset=".88" stop-color="#aa0f4d"></stop><stop offset="1" stop-color="#a1004a"></stop></linearGradient><linearGradient id="p" x1="45.24" y1="13.33" x2="51.72" y2="13.33" gradientTransform="matrix(1, 0, 0, 1, 0, 0)" gradientUnits="userSpaceOnUse"><stop offset="0" stop-color="#c7e4f8"></stop><stop offset=".25" stop-color="#c4e2f7"></stop><stop offset=".4" stop-color="#bcdff4"></stop><stop offset=".52" stop-color="#aed8f0"></stop><stop offset=".63" stop-color="#9acfe9"></stop><stop offset=".72" stop-color="#80c4e1"></stop><stop offset=".81" stop-color="#60b6d7"></stop><stop offset=".9" stop-color="#3aa5cb"></stop><stop offset=".97" stop-color="#0f92be"></stop><stop offset="1" stop-color="#008bb9"></stop></linearGradient><linearGradient id="q" x1="36.86" y1="17.5" x2="50.24" y2="17.5" xlink:href="#o"></linearGradient><linearGradient id="r" x1="17.59" y1="29.49" x2="28.23" y2="29.49" xlink:href="#o"></linearGradient><linearGradient id="s" x1="23.86" y1="22.3" x2="57.47" y2="22.3" xlink:href="#g"></linearGradient><linearGradient id="t" x1="15.89" y1="34.27" x2="26.93" y2="34.27" xlink:href="#g"></linearGradient><linearGradient id="u" x1="19.45" y1="33.34" x2="65.96" y2="33.34" xlink:href="#o"></linearGradient><linearGradient id="v" x1="23.93" y1="53.35" x2="36.18" y2="53.35" gradientTransform="matrix(1, 0, 0, 1, 0, 0)" gradientUnits="userSpaceOnUse"><stop offset="0" stop-color="#fff"></stop><stop offset=".8" stop-color="#f3c2d6"></stop><stop offset="1" stop-color="#f1b2cc"></stop></linearGradient></defs><g id="a"></g><g id="b"><g id="c"><g><path class="an" d="M20.05,25.73c-.47,.16-7.7-3.62-15.72,3.3,0,0-5.97,6.6-3.46,12.42,0,0,2.83,5.66,3.3-2.52,0,0,0-11.79,14.94-8.8l.94-4.4Z" style="fill: #f1b2cc;"></path><path class="al" d="M18.76,25.43l-.52,2.45c-14.94-2.99-14.94,8.8-14.94,8.8-.39,6.7-2.36,4.11-3.05,2.95,.09,.61,.24,1.21,.5,1.81,0,0,2.83,5.66,3.3-2.52,0,0,0-11.79,14.94-8.8l.94-4.4c-.1,.03-.51-.11-1.17-.29Z" style="fill: url(#d);"></path><path class="x" d="M2.06,41.78s-3-3.75,1.38-10.5c0,0-2.38,5.38-1.38,10.5Z" style="fill: #fff;"></path><path class="y" d="M20.01,25.48c-.06,0-.31-.07-.55-.14-.89-.26-2.56-.75-4.73-.75-3.74,0-7.29,1.43-10.58,4.27-.08,.08-.67,.75-1.38,1.79v-.05s-.02,.04-.03,.1c-1.63,2.4-3.85,6.77-2.09,10.86,.1,.21,1.05,2.05,2.07,2.05s1.52-1.48,1.71-4.67c0-.37,.13-9.04,10.19-9.04,1.36,0,2.85,.16,4.44,.48l.24,.05,1-4.64,.13-.44-.41,.14ZM2.72,43.11c-.54,0-1.28-1.09-1.62-1.76-.36-.83-.52-1.68-.57-2.53,.07,.1,.17,.22,.31,.36,.31,.3,.78,.68,1.38,.83,.3,.08,.63,.09,.92,0,.29-.08,.52-.26,.67-.43,.03-.03,.04-.05,.06-.08-.25,3.24-.89,3.61-1.17,3.61Zm1.21-4.19c0,.09-.01,.17-.02,.25-.08,.06-.16,.13-.26,.2-.07,.07-.17,.1-.27,.14-.09,.05-.21,.05-.31,.08-.22,.02-.46,.02-.7-.06-.25-.05-.48-.16-.71-.26-.22-.11-.45-.2-.62-.31-.21-.12-.38-.21-.49-.27-.09-2.63,1.08-5.2,2.18-7,.02,.17,.05,.36,.12,.55,.05,.15,.12,.3,.2,.45,.1,.14,.19,.29,.33,.41,.13,.13,.27,.23,.43,.31,.15,.1,.33,.11,.48,.17,.32,.06,.62,.03,.86-.02,.25-.02,.43-.14,.56-.18,.06-.02,.1-.04,.13-.06-1.87,2.61-1.91,5.57-1.91,5.61Zm14.99-9.08c-1.35-.26-2.62-.38-3.81-.42-.04-.13-.1-.29-.17-.49-.04-.1-.1-.21-.12-.33-.02-.12-.05-.25-.08-.38-.03-.13-.07-.26-.1-.4l-.03-.42c-.01-.14-.05-.28-.03-.42,.01-.14,0-.28,.01-.41,0-.14,.03-.26,.04-.39,.02-.12,.02-.25,.05-.35,.05-.21,.08-.4,.13-.52l.06-.2s-.24,.21-.45,.64c-.06,.1-.09,.23-.14,.35-.04,.13-.11,.26-.12,.41-.04,.3-.1,.62-.05,.94l.06,.47c.04,.15,.1,.29,.15,.43,.05,.14,.11,.27,.16,.39,.05,.12,.14,.22,.21,.32,.11,.15,.2,.26,.28,.35-.11,0-.24-.02-.35-.02-4.65,0-7.27,1.83-8.76,3.88-.04,0-.09,0-.18,0-.14,0-.33,.02-.56,0-.23,0-.48-.05-.73-.12-.12-.06-.25-.08-.36-.17-.12-.06-.23-.14-.32-.24-.4-.37-.62-.95-.76-1.38v-.04c.81-1.28,1.52-2.09,1.54-2.1,1.4-1.21,2.86-2.14,4.36-2.82-.02,.02-.05,.06-.07,.11-.06,.1-.16,.25-.22,.45-.08,.19-.11,.44-.14,.71,.01,.13,.02,.27,.03,.41,0,.14,.05,.28,.11,.42l.17,.4c.07,.12,.18,.22,.26,.32,.09,.1,.18,.19,.26,.28,.08,.08,.2,.13,.28,.18,.37,.21,.62,.3,.62,.3,0,0-.17-.23-.43-.51-.06-.07-.15-.13-.2-.23-.05-.09-.11-.19-.17-.29-.06-.1-.13-.19-.19-.29l-.12-.33c-.12-.21-.1-.46-.17-.68,0-.22-.05-.45-.02-.64,.01-.19,0-.36,.03-.47l.02-.16c1.88-.85,3.83-1.29,5.84-1.29,2.11,0,3.72,.47,4.59,.73,.18,.05,.32,.09,.43,.12l-.83,3.9Z" style="fill: #491c44;"></path><path class="an" d="M48.35,10.64S51.02,1.67,59.98,.26c0,0,6.92-.47,9.9,5.34,.31,.61,.49,2.61-.25,3.02-1.43,.78-4.62-3.81-5.73-4.4-2.53-1.36-5.36-.72-7.51,1.01-.68,.55-5.45,6.64-5.06,6.82,0,0-2.99-1.41-2.99-1.41Z" style="fill: #f1b2cc;"></path><path class="am" d="M69.98,5.73c-.07,.41-.21,.75-.47,.9-1.43,.78-4.62-3.81-5.73-4.4-2.53-1.36-5.36-.72-7.51,1.01-.68,.55-5.45,6.64-5.06,6.82,0,0-1.37-.65-2.25-1.07-.42,.92-.61,1.53-.61,1.53,0,0,2.98,1.41,2.99,1.41-.39-.18,4.37-6.27,5.06-6.82,2.16-1.73,4.99-2.37,7.51-1.01,1.1,.59,4.29,5.18,5.73,4.4,.67-.36,.59-1.99,.35-2.77Z" style="fill: url(#e);"></path><path class="x" d="M60.06,1.03s5.62-.62,8.38,3.88c0,0-6-4.25-8.38-3.88Z" style="fill: #fff;"></path><path class="y" d="M70.11,5.49C67.49,.4,61.98,0,60.36,0c-.25,0-.39,0-.41,.01-9.01,1.42-11.81,10.46-11.83,10.55l-.06,.21,.19,.09s2.78,1.32,2.98,1.41h.01l.21-.45c.1,.05,.13,.15,.12,.19,.1-.62,4.33-6.06,4.99-6.59,1.36-1.09,2.95-1.69,4.47-1.69,.97,0,1.9,.24,2.77,.7,.33,.18,.95,.84,1.6,1.54,1.3,1.4,2.78,2.98,3.88,2.98,.18,0,.34-.04,.49-.12,.9-.49,.71-2.66,.36-3.35Zm-13.87-.46c-.16,.13-1.22,1.38-2.34,2.8,.04-.19,.08-.4,.02-.63-.02-.15-.07-.29-.15-.43-.07-.14-.18-.25-.28-.37-.45-.43-1.03-.59-1.45-.64-.42-.05-.7,0-.7,0,0,0,.25,.11,.63,.27,.18,.07,.39,.19,.59,.3,.21,.12,.41,.26,.58,.42,.07,.09,.17,.17,.21,.26,.06,.1,.12,.19,.14,.29,.07,.2,.11,.42,.1,.61,0,.12,0,.23-.02,.32-1.05,1.35-2.08,2.76-2.41,3.45-.6-.28-1.99-.94-2.51-1.19,.37-1.04,2.27-5.84,6.93-8.46,.1,.04,.25,.1,.41,.18,.16,.07,.33,.19,.49,.31,.15,.13,.29,.29,.39,.47,.1,.18,.16,.39,.2,.59,.04,.21,.06,.41,.06,.59v.21c-.3,.19-.61,.4-.9,.63Zm1.17-.79h0c.05-.2,.11-.42,.1-.68,0-.26-.07-.53-.2-.79-.15-.25-.35-.46-.58-.59-.23-.13-.46-.19-.66-.22-.12-.02-.21-.02-.3-.02,1.22-.66,2.62-1.18,4.23-1.43,0,0,.13,0,.36,0,.64,0,1.9,.07,3.33,.48,.03,.09,.07,.18,.11,.3,.12,.31,.24,.75,.21,1.11-.02,.18-.09,.34-.19,.49-.11,.14-.24,.27-.38,.36-.13,.1-.26,.17-.34,.23-.08,.05-.13,.09-.13,.09-.63-.21-1.28-.32-1.96-.32-1.21,0-2.45,.35-3.61,1Zm12.1,4.16c-.07,.04-.15,.06-.25,.06-.88,0-2.4-1.63-3.51-2.82-.74-.79-1.33-1.42-1.73-1.64-.34-.18-.69-.32-1.05-.44,.01,0,.06,0,.16,0,.1-.02,.27,0,.44-.07,.18-.05,.39-.14,.58-.32,.19-.18,.33-.45,.36-.73,.04-.57-.24-1.03-.47-1.3-.03-.03-.05-.05-.08-.08,2.01,.62,4.29,1.93,5.69,4.66,.3,.59,.41,2.38-.15,2.68Z" style="fill: #491c44;"></path><path class="ab" d="M65.93,29.52s7.25-.12,12.75,.8c0,0,1.85-3.58,3.53-2.75,0,0,1.6,.88-.42,3.27,0,0,4-.34,3.88,1.99,0,0-.73,1.84-4.46-.25,0,0,2.75,3.53,.97,4.7,0,0-1.67,.99-3.24-3.99,0,0-8.19-2.01-11.76-.95l-1.24-2.81Z" style="fill: #c7e4f8;"></path><path class="af" d="M79.69,31.78s-8.19-2.01-11.76-.95l-.58-1.31c-.88,0-1.41,0-1.41,0l1.24,2.81c3.57-1.05,11.76,.95,11.76,.95,1.57,4.98,3.24,3.99,3.24,3.99,.51-.33,.64-.86,.58-1.44-.46,.1-1.8-.02-3.07-4.05Z" style="fill: url(#f);"></path><path class="y" d="M81.81,37.6c-.8,0-1.97-.72-3.07-4.11-.84-.2-5.37-1.22-8.86-1.22-1.09,0-1.97,.1-2.64,.29-.12,.03-.25-.02-.3-.14l-1.24-2.81c-.03-.08-.03-.17,.02-.24,.04-.07,.12-.11,.21-.12,0,0,.32,0,.87,0,2.11,0,7.42,.08,11.75,.78,.35-.63,1.69-2.85,3.14-2.85,.22,0,.44,.05,.64,.15,.03,.02,.58,.32,.71,1.04,.12,.63-.12,1.37-.72,2.18,.85,0,2.36,.13,3.13,.93,.34,.36,.5,.81,.47,1.34,0,.03,0,.05-.02,.08-.01,.04-.38,.9-1.71,.9-.63,0-1.37-.19-2.21-.58,.52,.84,1.2,2.15,1.03,3.17-.08,.46-.31,.81-.68,1.06-.04,.03-.22,.12-.5,.12Zm-11.93-5.83c3.9,0,9.06,1.25,9.11,1.27,.08,.02,.15,.08,.18,.17,1.11,3.52,2.21,3.9,2.63,3.9,.15,0,.24-.05,.24-.05,.25-.16,.4-.4,.45-.72,.23-1.38-1.48-3.59-1.5-3.61-.07-.09-.07-.23,0-.32,.08-.09,.21-.11,.31-.05,1.14,.64,2.1,.97,2.85,.97,.86,0,1.16-.43,1.23-.56,0-.37-.1-.67-.34-.92-.67-.7-2.17-.78-2.78-.78-.29,0-.49,.02-.49,.02-.1,0-.2-.04-.24-.13-.05-.09-.03-.2,.03-.28,.72-.86,1.05-1.62,.94-2.2-.09-.48-.45-.69-.45-.69-.13-.06-.26-.09-.41-.09-1.12,0-2.39,1.98-2.78,2.74-.05,.1-.16,.15-.26,.13-4.32-.72-9.72-.8-11.84-.8-.19,0-.35,0-.48,0l1,2.27c.68-.17,1.54-.26,2.57-.26Z" style="fill: #491c44;"></path><path class="ab" d="M26.2,47.86s-3.6,6.29-5.44,11.56c0,0-4.03-.1-4.11,1.77,0,0,0,1.82,3.06,1.2,0,0-2.22,3.34-.12,4.36,0,0,1.96,.24,1.93-4.03,0,0,1.77,4.11,3.65,3.11,0,0,1.67-.98-1.94-4.76,0,0,2.19-8.15,4.83-10.77l-1.86-2.44Z" style="fill: #c7e4f8;"></path><path class="ah" d="M27.81,50.06l-1.86-2.44s-.17,.29-.43,.78l1.17,1.54c-2.64,2.62-4.83,10.77-4.83,10.77,3.61,3.78,1.94,4.76,1.94,4.76-.07,.04-.14,.05-.2,.07,.42,.23,.87,.29,1.33,.05,0,0,1.67-.98-1.94-4.76,0,0,2.19-8.15,4.83-10.77Z" style="fill: url(#g);"></path><path class="y" d="M19.65,67s-.08,0-.09,0c-.03,0-.05-.01-.08-.02-.5-.24-.83-.63-.97-1.14-.29-1.06,.32-2.41,.71-3.11-.23,.03-.46,.04-.66,.04-1.09,0-1.62-.42-1.88-.77-.28-.39-.29-.77-.29-.81,.08-1.83,3.14-2.01,4.18-2.02,1.85-5.19,5.36-11.37,5.4-11.43,.04-.07,.12-.12,.2-.13,.09,0,.17,.03,.22,.1l1.86,2.44c.08,.1,.07,.24-.02,.33-2.38,2.36-4.43,9.45-4.73,10.52,1.65,1.75,2.42,3.16,2.28,4.19-.08,.6-.45,.83-.5,.86-.24,.13-.48,.19-.73,.19h0c-1.21,0-2.26-1.51-2.82-2.52-.1,1.29-.42,2.22-.97,2.77-.46,.46-.94,.51-1.12,.51Zm.07-4.86c.08,0,.16,.04,.21,.11,.06,.08,.06,.19,0,.28-.01,.02-1.27,1.93-.92,3.18,.1,.35,.31,.62,.66,.8,.13,0,.44-.04,.76-.36,.4-.4,.87-1.32,.85-3.41,0-.12,.08-.22,.2-.25,.12-.03,.23,.04,.28,.15,.37,.87,1.61,3.12,2.81,3.12h0c.17,0,.33-.04,.49-.13h0s.2-.14,.25-.51c.06-.5-.16-1.66-2.25-3.85-.06-.06-.08-.15-.06-.24,.09-.33,2.15-7.94,4.74-10.72l-1.5-1.97c-.76,1.36-3.66,6.68-5.24,11.18-.04,.1-.14,.18-.24,.17h-.1c-.38,0-3.68,.04-3.75,1.53,0,.1,.06,1.07,1.66,1.07,.33,0,.7-.04,1.1-.12,.02,0,.03,0,.05,0Z" style="fill: #491c44;"></path><path class="ab" d="M48.04,63.46l-.47,7.23s-4.72-2.36-5.03,.94c0,0,.31,3.93,7.86,1.26l-.16-9.9-2.2,.47Z" style="fill: #c7e4f8;"></path><path class="ak" d="M50.36,63.11l-1.23,.26,.14,8.64c-3.25,1.15-5.16,1.07-6.28,.62,.63,.98,2.41,2.19,7.53,.38l-.16-9.9Z" style="fill: url(#h);"></path><path class="y" d="M45.93,74.07c-3.42,0-3.65-2.39-3.65-2.42,.12-1.34,.9-2.03,2.24-2.03,1.07,0,2.25,.44,2.81,.69l.46-7.06,2.68-.57,.16,10.39-.17,.06c-1.77,.63-3.3,.95-4.54,.95Zm-1.41-3.95c-1.07,0-1.64,.5-1.74,1.53,0,.03,.21,1.92,3.15,1.92,1.15,0,2.56-.29,4.21-.86l-.15-9.42-1.72,.37-.48,7.42-.34-.17s-1.6-.79-2.93-.79Z" style="fill: #491c44;"></path><path class="ab" d="M68.66,48.98l6.81,2.49s-.25-5.27,2.9-4.22c0,0,3.47,1.88-2.03,7.7l-9-4.15,1.32-1.82Z" style="fill: #c7e4f8;"></path><path class="aj" d="M79.28,48.01c-.13,1.2-.89,2.88-3.07,5.19l-7.93-3.65-.82,1.13,9,4.15c3.46-3.66,3.37-5.76,2.82-6.82Z" style="fill: url(#i);"></path><path class="y" d="M76.39,55.25l-9.43-4.35,1.61-2.22,6.64,2.43c0-.81,.12-2.71,1.04-3.67,.55-.58,1.3-.72,2.19-.43,.08,.04,1,.55,1.21,1.84,.27,1.67-.79,3.78-3.14,6.27l-.12,.13Zm-8.67-4.55l8.56,3.94c2.67-2.87,3.04-4.68,2.88-5.7-.16-1.04-.89-1.46-.92-1.47-.21-.06-.44-.11-.65-.11-.39,0-.71,.14-.98,.42-1.01,1.05-.89,3.65-.89,3.67l.02,.38-6.98-2.56-1.03,1.42Z" style="fill: #491c44;"></path><circle class="an" cx="45.99" cy="39.56" r="25.15" transform="translate(-14.5 44.11) rotate(-45)" style="fill: #f1b2cc;"></circle><path class="aq" d="M57.65,17.21c6,4.6,9.87,11.83,9.87,19.97,0,13.89-11.26,25.15-25.15,25.15-4.26,0-8.27-1.06-11.78-2.93,4.24,3.25,9.53,5.18,15.28,5.18,13.89,0,25.15-11.26,25.15-25.15,0-9.63-5.42-18-13.37-22.22Z" style="fill: url(#j);"></path><path class="y" d="M45.99,64.97c-14.01,0-25.4-11.4-25.4-25.4S31.98,14.16,45.99,14.16s25.4,11.4,25.4,25.4-11.4,25.4-25.4,25.4Zm0-50.31c-13.73,0-24.9,11.17-24.9,24.9s11.17,24.9,24.9,24.9,24.9-11.17,24.9-24.9-11.17-24.9-24.9-24.9Z" style="fill: #491c44;"></path><path class="ab" d="M23.2,25.57s-1.89-7.23,4.4-10.38c0,0,8.65-3.93,13.36,2.67l-1.1,8.65-8.65,5.5-6.92-.63-1.1-5.82Z" style="fill: #c7e4f8;"></path><path class="av" d="M40.96,17.87c-4.72-6.6-13.36-2.67-13.36-2.67-.4,.2-.76,.41-1.1,.64,3.18-.58,9.92-1.4,7.93,2.57-.12,.25-3.5,6.5-9.75,6.5-.63,0-1.16,.05-1.59,.13,.06,.33,.11,.53,.11,.53l.78,4.12c2,.22,12.37-1.71,13.46-3.65,.52-.93,1.85-2.59,3.03-4.26l.5-3.91Z" style="fill: url(#k);"></path><path class="y" d="M31.21,32.27h-.02l-6.92-.63c-.11-.01-.2-.09-.22-.2l-1.1-5.82c-.02-.06-1.86-7.45,4.54-10.65,.11-.05,2.65-1.19,5.75-1.19,3.39,0,6.06,1.32,7.92,3.94,.04,.05,.05,.11,.04,.18l-1.1,8.65c0,.07-.05,.14-.11,.18l-8.65,5.5s-.09,.04-.13,.04Zm-6.71-1.11l6.64,.6,8.48-5.39,1.07-8.43c-1.76-2.42-4.27-3.65-7.46-3.65-3,0-5.51,1.13-5.54,1.14-6.02,3.01-4.34,9.8-4.26,10.09l1.07,5.65Z" style="fill: #491c44;"></path><path class="aa" d="M41.75,35.95c3.3,3.33,3.27,8.71-.06,12.01-3.33,3.3-8.71,3.27-12.01-.06-3.3-3.33-3.27-8.71,.06-12.01,3.33-3.3,8.71-3.27,12.01,.06Z" style="fill: url(#l);"></path><path class="x" d="M39.92,35.95c3.3,3.33,3.27,8.71-.06,12.01-3.33,3.3-8.71,3.27-12.01-.06-3.3-3.33-3.27-8.71,.06-12.01,3.33-3.3,8.71-3.27,12.01,.06Z" style="fill: #fff;"></path><path class="ar" d="M40.16,36.34c2.12,3.3,1.73,7.74-1.17,10.62-3.33,3.3-8.71,3.27-12.01-.06-.08-.09-.16-.18-.24-.26,.32,.49,.68,.96,1.11,1.39,3.3,3.33,8.67,3.36,12.01,.06,3.25-3.21,3.35-8.4,.3-11.74Z" style="fill: #cecece;"></path><path class="y" d="M33.89,50.66c-2.35,0-4.56-.92-6.21-2.59-1.64-1.66-2.54-3.86-2.53-6.19,.01-2.33,.93-4.52,2.59-6.17,1.65-1.63,3.83-2.53,6.15-2.53s4.56,.92,6.21,2.59c1.64,1.66,2.54,3.86,2.53,6.19-.01,2.33-.93,4.52-2.59,6.17-1.65,1.63-3.83,2.53-6.15,2.53Zm0-16.98c-2.19,0-4.24,.85-5.8,2.38-1.56,1.55-2.43,3.61-2.44,5.81-.01,2.2,.84,4.27,2.38,5.84,1.56,1.58,3.64,2.44,5.85,2.44s4.24-.85,5.8-2.38c1.56-1.55,2.43-3.61,2.44-5.81,.01-2.2-.84-4.27-2.38-5.84-1.56-1.58-3.64-2.44-5.86-2.44Z" style="fill: #491c44;"></path><path class="y" d="M36.17,37.14c-.13-.06-.29-.03-.39,.08-.1,.11-.11,.27-.02,.4,.69,1.01,.55,2.36-.31,3.22-.99,.98-2.6,.97-3.58-.02-.75-.76-.94-1.91-.47-2.88,.06-.13,.03-.29-.08-.39-.11-.1-.27-.11-.4-.02-2.86,1.93-3.1,5.83-.81,8.14,2.06,2.08,5.42,2.1,7.5,.04s2.1-5.42,.04-7.5c-.43-.43-.93-.78-1.49-1.05Z" style="fill: #491c44;"></path><path class="ae" d="M61.68,22.77c3.97,4.01,3.94,10.48-.07,14.45-4.01,3.97-10.48,3.94-14.45-.07-3.97-4.01-3.94-10.48,.07-14.45,4.01-3.97,10.48-3.94,14.45,.07Z" style="fill: url(#m);"></path><path class="x" d="M29.84,44.61s.27,.37,.82,.77c.27,.2,.61,.39,1,.54,.19,.07,.39,.14,.61,.17,.21,.06,.43,.05,.64,.08,.21,0,.43-.02,.64-.03,.21-.05,.41-.08,.6-.13l.54-.19c.17-.08,.32-.16,.46-.23,.29-.13,.5-.31,.66-.41l.25-.16,.04-.02c.21-.14,.49-.08,.63,.13,.14,.21,.08,.49-.13,.63-.01,0-.03,.02-.05,.03l-.3,.15c-.19,.08-.44,.25-.79,.36-.17,.06-.35,.13-.55,.19-.2,.04-.42,.09-.64,.14-.22,.03-.46,.04-.7,.06-.24-.01-.48-.02-.72-.05-.24-.05-.47-.08-.69-.17-.23-.07-.43-.17-.63-.27-.39-.21-.72-.45-.97-.69-.51-.47-.73-.88-.73-.88Z" style="fill: #fff;"></path><path class="x" d="M60.01,22.94c3.97,4.01,3.94,10.48-.07,14.45-4.01,3.97-10.48,3.94-14.45-.07-3.97-4.01-3.94-10.48,.07-14.45,4.01-3.97,10.48-3.94,14.45,.07Z" style="fill: #fff;"></path><path class="ar" d="M60.01,22.94c-1.14-1.15-2.48-1.96-3.91-2.45,.72,.43,1.41,.95,2.03,1.58,3.97,4.01,3.94,10.48-.07,14.45-2.86,2.84-6.98,3.62-10.54,2.38,3.91,2.33,9.04,1.84,12.42-1.51,4.01-3.97,4.04-10.44,.07-14.45Z" style="fill: #cecece;"></path><path class="y" d="M52.75,40.6c-2.82,0-5.46-1.1-7.44-3.1-1.97-1.99-3.04-4.62-3.03-7.42,.01-2.8,1.12-5.42,3.1-7.39,1.97-1.95,4.59-3.03,7.36-3.03s5.46,1.1,7.44,3.1c1.97,1.99,3.04,4.62,3.03,7.42-.01,2.8-1.12,5.42-3.1,7.39-1.97,1.95-4.59,3.03-7.37,3.03Zm0-20.44c-2.64,0-5.13,1.02-7.01,2.88-1.89,1.87-2.94,4.37-2.96,7.03s1.01,5.17,2.88,7.06c1.89,1.91,4.4,2.96,7.08,2.96s5.13-1.02,7.01-2.88c1.89-1.87,2.94-4.37,2.95-7.03,.01-2.66-1.01-5.17-2.88-7.06-1.89-1.91-4.4-2.95-7.08-2.95Z" style="fill: #491c44;"></path><path class="y" d="M55.5,24.37c-.16-.08-.35-.03-.47,.1-.12,.13-.13,.33-.03,.48,.82,1.21,.67,2.84-.37,3.87-1.19,1.18-3.13,1.17-4.31-.02-.9-.91-1.13-2.31-.56-3.47,.08-.16,.04-.35-.1-.47-.13-.12-.33-.13-.48-.03-3.44,2.32-3.73,7.01-.98,9.79,2.48,2.5,6.53,2.52,9.03,.05,2.5-2.48,2.52-6.53,.05-9.03-.51-.52-1.11-.94-1.79-1.26Z" style="fill: #491c44;"></path><path class="x" d="M47.88,33.37s.33,.45,.99,.92c.32,.24,.74,.47,1.2,.65,.23,.08,.47,.17,.73,.21,.25,.07,.51,.07,.77,.09,.26,0,.52-.02,.77-.04,.25-.06,.49-.09,.72-.16,.23-.08,.45-.16,.65-.23,.2-.09,.39-.19,.56-.28,.35-.15,.61-.38,.8-.49l.3-.2,.05-.03c.25-.17,.59-.1,.75,.15,.17,.25,.1,.59-.15,.75-.02,.01-.04,.02-.06,.03l-.36,.18c-.23,.1-.53,.3-.95,.43-.21,.07-.42,.16-.66,.23-.24,.05-.5,.11-.77,.17-.27,.04-.55,.05-.84,.08-.29-.01-.58-.02-.86-.06-.28-.06-.57-.1-.83-.2-.27-.08-.52-.2-.76-.32-.47-.25-.87-.54-1.17-.83-.61-.57-.88-1.05-.88-1.05Z" style="fill: #fff;"></path><path class="au" d="M41.28,52.77l17.14-10.06s6.76,8.18-2.2,13.83c0,0-10.38,6.13-14.93-3.77Z" style="fill: #814e54;"></path><path class="ap" d="M58.54,42.58l-1.52,.89c1.48,2.51,3.75,8.27-3.06,12.57,0,0-3.34,1.97-7.06,1.87,4.54,1.4,9.43-1.5,9.43-1.5,8.96-5.66,2.2-13.83,2.2-13.83Z" style="fill: url(#n);"></path><path class="y" d="M49.43,58.67c-3.79,0-6.61-1.95-8.38-5.79l-.09-.21,17.52-10.28,.14,.16c.13,.15,3.07,3.77,2.41,7.93-.39,2.45-1.96,4.56-4.67,6.27-.14,.08-3.28,1.91-6.92,1.91Zm-7.83-5.8c1.69,3.52,4.32,5.3,7.83,5.3s6.63-1.82,6.66-1.84c2.57-1.62,4.06-3.62,4.43-5.92,.55-3.46-1.61-6.62-2.17-7.37l-16.75,9.83Z" style="fill: #491c44;"></path><path class="x" d="M44.76,52.83c.29,.48,.92,.63,1.4,.34,.48-.29,.63-.92,.34-1.4l-.93-1.52-1.76,1.03,.95,1.55Z" style="fill: #fff;"></path><path class="y" d="M45.63,53.57h0c-.45,0-.85-.23-1.09-.61l-1.08-1.77,2.19-1.29,1.06,1.73c.37,.6,.18,1.38-.42,1.75-.2,.12-.43,.19-.66,.19Zm-1.48-2.21l.82,1.34c.14,.23,.39,.37,.66,.37h0c.14,0,.28-.04,.4-.11,.36-.22,.48-.7,.26-1.06l-.8-1.31-1.33,.78Z" style="fill: #491c44;"></path><path class="x" d="M54.82,46.86c.29,.48,.92,.63,1.4,.34,.48-.29,.63-.92,.34-1.4l-.9-1.48-1.76,1.03,.92,1.51Z" style="fill: #fff;"></path><path class="y" d="M55.69,47.6h0c-.45,0-.85-.23-1.09-.61l-1.05-1.72,2.19-1.29,1.03,1.69c.37,.6,.18,1.38-.42,1.75-.2,.12-.43,.19-.66,.19Zm-1.45-2.16l.79,1.29c.14,.23,.39,.37,.66,.37h0c.14,0,.28-.04,.4-.11,.36-.22,.48-.7,.26-1.06l-.77-1.27-1.33,.78Z" style="fill: #491c44;"></path><path class="ai" d="M60.51,51.49c-7.61-4.64-11.06,3.53-12.11,6.87,4.01,.42,7.81-1.82,7.81-1.82,2.48-1.57,3.75-3.32,4.3-5.05Z" style="fill: #e16962;"></path><path class="as" d="M55.31,50.28c.87,.2,1.81,.59,2.82,1.21-.55,1.72-1.82,3.48-4.3,5.05,0,0-2.46,1.45-5.51,1.8-.02,.05-.03,.1-.05,.15,4.01,.42,7.81-1.82,7.81-1.82,2.48-1.57,3.75-3.32,4.3-5.05-1.96-1.19-3.64-1.53-5.07-1.33Z" style="fill: url(#o);"></path><path class="y" d="M49.43,58.66c-.36,0-.71-.02-1.05-.05l-.3-.03,.09-.29c.8-2.54,3.18-8.43,8.05-8.43,1.38,0,2.87,.48,4.43,1.43l.17,.1-.06,.19c-.63,2-2.12,3.74-4.41,5.19-.14,.08-3.28,1.91-6.92,1.91Zm-.69-.52c.23,.02,.46,.02,.69,.02,3.5,0,6.62-1.82,6.66-1.84,2.11-1.33,3.5-2.92,4.13-4.72-1.41-.83-2.76-1.25-4-1.25-4.36,0-6.63,5.22-7.48,7.79Z" style="fill: #491c44;"></path><ellipse class="ab" cx="47.41" cy="13.23" rx="4.56" ry="4.32" style="fill: #c7e4f8;"></ellipse><path class="ag" d="M47.16,9.03c-.69,0-1.34,.16-1.92,.42,.14-.01,.28-.04,.42-.04,2.52,0,4.56,1.94,4.56,4.32,0,1.73-1.08,3.22-2.64,3.91,2.32-.2,4.14-2.03,4.14-4.28,0-2.39-2.04-4.32-4.56-4.32Z" style="fill: url(#p);"></path><path class="y" d="M47.41,17.8c-2.65,0-4.81-2.05-4.81-4.57s2.16-4.57,4.81-4.57,4.81,2.05,4.81,4.57-2.16,4.57-4.81,4.57Zm0-8.65c-2.38,0-4.31,1.83-4.31,4.07s1.93,4.07,4.31,4.07,4.31-1.83,4.31-4.07-1.93-4.07-4.31-4.07Z" style="fill: #491c44;"></path><path class="ai" d="M37.5,22.58s-2.52-7.7,1.89-9.75c0,0,7.23-3.14,10.85,4.24l-.63,5.5-5.03,2.67-3.62,.16-3.46-2.83Z" style="fill: #e16962;"></path><path class="at" d="M41.51,12.28c.78-.11,2.68,1.34,3.03,1.98,.63,1.12,.09,2.3-.65,3.22-1.71,2.13-4.44,2.65-7.03,1.95,.18,1.76,.64,3.16,.64,3.16l.31,.25c3.38-.04,7.96-.43,8.62-.93,.66-.49,2.44-1.69,3.56-2.7l.24-2.13c-2.37-4.85-6.3-5.16-8.72-4.8Z" style="fill: url(#q);"></path><path class="ai" d="M18.48,32.49s-3.3-6.76,2.2-8.96c0,0,4.4-1.26,7.55,5.19l-1.57,5.03-2.83,3.62-5.35-4.87Z" style="fill: #e16962;"></path><path class="a`" d="M28.23,28.71c-3.14-6.45-7.55-5.19-7.55-5.19-.2,.08-.37,.18-.55,.27,.96,.26,2.23,.98,2.31,2.98,0,0-.01,4.22-4.84,2.72,.24,1.66,.89,2.99,.89,2.99l.87,.79c2.17,.9,5.42,2.23,5.42,2.23,0,0,.19,.03,.47,.04l1.42-1.81,1.57-5.03Z"></path><path class="y" d="M23.83,37.61c-.06,0-.12-.02-.17-.07l-5.35-4.87s-.04-.05-.06-.07c-.07-.15-1.73-3.61-.64-6.46,.5-1.3,1.5-2.26,2.97-2.84,.04-.01,.41-.12,1.01-.12,1.57,0,4.55,.71,6.85,5.43,.03,.06,.03,.12,.01,.18l-1.57,5.03s-.02,.06-.04,.08l-2.83,3.62c-.04,.05-.11,.09-.18,.09h-.02Zm-5.14-5.27l5.11,4.66,2.64-3.37,1.53-4.89c-2.18-4.4-4.92-5.06-6.36-5.06-.52,0-.84,.09-.85,.09-1.31,.53-2.21,1.39-2.66,2.55-.96,2.49,.42,5.62,.6,6.02Z" style="fill: #491c44;"></path><path class="y" d="M40.96,25.66c-.06,0-.11-.02-.16-.06l-3.46-2.83s-.06-.07-.08-.12c-.11-.32-2.53-7.94,2.02-10.05,.07-.03,1.61-.69,3.64-.69,2.31,0,5.5,.88,7.54,5.05,.02,.04,.03,.09,.02,.14l-.63,5.5c0,.08-.06,.15-.13,.19l-5.03,2.67s-.07,.03-.11,.03l-3.62,.16h-.01Zm-3.24-3.23l3.33,2.72,3.46-.15,4.86-2.58,.61-5.3c-1.93-3.89-4.9-4.7-7.06-4.7-1.92,0-3.42,.64-3.43,.64-3.93,1.83-2,8.61-1.77,9.37Z" style="fill: #491c44;"></path><path class="ab" d="M19.74,42.23s-7.23-6.76-1.89-11.16c0,0,4.4-2.04,7.7,4.09,0,0-3.93-6.45,.16-8.96,0,0,4.56-2.2,6.6,2.04,0,0-.47-9.75,8.33-6.45l6.6-2.36s-.47-4.72,2.99-5.97c0,0,4.87-1.26,7.07,4.4l.16,2.83-8.28,4.13s-8.54,4.04-9.02,4.51c-.47,.47-5.66,5.5-5.66,5.5l-5.03,3.93-4.24,4.4-3.62,1.41-1.89-2.36Z" style="fill: #c7e4f8;"></path><g><path class="ao" d="M25.71,28.7s4.56-2.2,6.6,2.04c0,0-.47-9.75,8.33-6.45l6.6-2.36s-.47-4.72,2.99-5.97c0,0,4.87-1.26,7.07,4.4l.03,.52,.13-.06-.16-2.83c-2.2-5.66-7.07-4.4-7.07-4.4-3.46,1.26-2.99,5.97-2.99,5.97l-6.6,2.36c-8.8-3.3-8.33,6.45-8.33,6.45-2.04-4.24-6.6-2.04-6.6-2.04-1.83,1.12-2.05,3.03-1.74,4.8,.21-.94,.73-1.81,1.74-2.43Z" style="fill: url(#s);"></path><path class="w" d="M17.85,33.57s5.78-2.05,9.08,4.09c0,0-1.75-3.12-3.04-4.72-2.95-3.16-6.05-1.74-6.05-1.74-1.88,1.55-2.2,3.39-1.83,5.13,.24-.96,.8-1.9,1.83-2.75Z" style="fill: url(#t);"></path></g><path class="y" d="M21.62,44.84c-.07,0-.15-.03-.2-.09l-1.89-2.36c-.14-.13-4.03-3.81-3.91-7.59,.05-1.52,.74-2.84,2.06-3.92,.02-.01,.03-.02,.05-.03,.07-.03,3.37-1.49,6.42,1.87-.74-2.17-1.14-5.15,1.42-6.73,.07-.04,1.27-.61,2.74-.61,1.15,0,2.66,.36,3.75,1.95,.07-1.27,.41-3.58,1.84-5.07,1.49-1.56,3.78-1.82,6.73-.73l6.34-2.26c-.04-.93-.02-4.88,3.16-6.04,.04-.01,.52-.13,1.25-.13,1.61,0,4.56,.61,6.14,4.68,0,.02,.02,.05,.02,.08l.16,2.83c0,.1-.05,.19-.14,.24l-8.28,4.13c-3.28,1.55-8.6,4.13-8.95,4.47-.47,.47-5.45,5.3-5.66,5.5l-5.05,3.95-4.22,4.38s-.06,.05-.09,.06l-3.62,1.41s-.06,.02-.09,.02Zm-3.64-13.55c-1.18,.99-1.81,2.17-1.85,3.53-.11,3.56,3.73,7.2,3.77,7.23l1.8,2.24,3.39-1.33,4.21-4.36,5.06-3.95s5.17-5.02,5.64-5.48c.48-.48,7.65-3.88,9.09-4.56l8.13-4.06-.15-2.63c-1.48-3.76-4.18-4.32-5.66-4.32-.66,0-1.1,.11-1.1,.11-3.21,1.17-2.81,5.66-2.8,5.71,.01,.11-.06,.22-.16,.26l-6.6,2.36c-.05,.02-.12,.02-.17,0-2.79-1.04-4.92-.85-6.28,.57-1.87,1.96-1.71,5.59-1.71,5.63,0,.12-.07,.23-.19,.25-.12,.03-.24-.03-.29-.13-.79-1.64-2.06-2.47-3.77-2.47-1.35,0-2.49,.54-2.5,.55-3.24,2-1.04,6.77-.29,8.19,.08,.13,.16,.28,.24,.43,.06,.12,.02,.27-.1,.34-.12,.07-.27,.03-.34-.09,0,0-.1-.16-.25-.44-1.86-3.18-4.01-3.85-5.48-3.85-.87,0-1.49,.24-1.63,.29Z" style="fill: #491c44;"></path><path class="ai" d="M63.64,18.38c-1.91-2-5.13-3.4-7.77-2.03-2.12,1.1-3.77,3.68-3.38,6.13-.06-.22-.13-.43-.23-.65-1.31-2.82-5.21-3.78-8.72-2.15-3.39,1.57-5.16,4.98-4.11,7.75-3.3-1.34-7.11-.41-9.47,2.53,0,0-2.36,3.77,.94,6.76,0,0-3.93-3.3-6.29-1.41,0,0-3.46,2.67,.47,6.92-1.28-1.38-1.98-2.85-4.13-2.93-1.77-.07-3.17,.93-3.87,2.51-1.63,3.64,.64,6.94,3.61,9.07,0,0,19.81-27.04,45.28-28.61,.03,0-2.05-3.62-2.32-3.89Z" style="fill: #e16962;"></path><path class="ac" d="M65.96,22.27s-2.05-3.62-2.32-3.89c-1.91-2-5.13-3.4-7.77-2.03-.11,.06-.22,.14-.33,.2,1.87,.3,4.49,1.2,5.27,3.85,0,0-22.11,3.62-41.36,29.48,.39,.35,.8,.69,1.23,1,0,0,19.81-27.04,45.28-28.61Z" style="fill: url(#u);"></path><path class="y" d="M20.68,51.13c-.05,0-.1-.02-.15-.05-1.79-1.29-5.74-4.79-3.69-9.38,.77-1.73,2.3-2.72,4.11-2.65,1,.04,1.71,.37,2.29,.83-.24-.65-.34-1.29-.28-1.92,.15-1.79,1.43-2.8,1.49-2.84,.52-.42,1.16-.63,1.9-.63,1.15,0,2.33,.52,3.23,1.04-1.62-2.77,.14-5.65,.16-5.69,1.67-2.07,4.08-3.25,6.63-3.25,.91,0,1.8,.15,2.66,.44-.73-2.8,1.11-6.04,4.4-7.56,1.15-.53,2.4-.82,3.6-.82,2.25,0,4.18,.98,5.18,2.58,.21-2.03,1.58-4.08,3.54-5.1,.74-.38,1.55-.58,2.41-.58,1.93,0,4.1,1.02,5.66,2.65,.03,.03,2.47,3.88,2.37,4.15-.04,.09-.12,.15-.22,.16-25.06,1.55-44.89,28.24-45.09,28.51-.05,.07-.12,.1-.2,.1Zm.09-11.58c-1.53,0-2.8,.86-3.47,2.36-1.83,4.1,1.56,7.3,3.33,8.62,1.88-2.47,20.97-26.76,44.93-28.49-.5-.89-1.91-3.29-2.1-3.49-1.47-1.54-3.5-2.5-5.29-2.5-.78,0-1.52,.18-2.18,.52-2.2,1.14-3.59,3.67-3.25,5.87,.02,.13-.06,.25-.19,.28-.13,.03-.26-.05-.29-.18-.07-.24-.14-.43-.22-.61-.8-1.73-2.72-2.8-5-2.8-1.13,0-2.31,.27-3.39,.77-3.25,1.51-4.99,4.77-3.98,7.43,.04,.09,.01,.2-.06,.27-.07,.07-.18,.09-.27,.05-.95-.39-1.95-.58-2.96-.58-2.4,0-4.67,1.11-6.22,3.04-.07,.12-2.19,3.61,.92,6.42,.1,.09,.11,.25,.02,.35-.09,.1-.24,.12-.35,.03-.02-.02-2.33-1.94-4.38-1.94-.62,0-1.15,.18-1.59,.53-.01,.01-1.17,.93-1.3,2.5-.1,1.29,.5,2.65,1.8,4.05,.09,.1,.09,.26-.01,.35-.1,.09-.26,.09-.35-.01h-.01v-.02h-.02v-.02h-.02c-.24-.28-.46-.54-.67-.8-.91-1.09-1.63-1.95-3.24-2.02-.06,0-.11,0-.17,0Z" style="fill: #491c44;"></path><path class="x" d="M17.93,46.41s-2-4.62,1.75-6c0,0-3,2.88-1.75,6Z" style="fill: #fff;"></path><path class="x" d="M25.31,41.03s-3.14-3.94,.37-5.66c0,0-1.87,2.53-.37,5.66Z" style="fill: #fff;"></path><path class="x" d="M31.18,34.66s-2.62-3.75,1.38-5.75c0,0-2.12,2.38-1.38,5.75Z" style="fill: #fff;"></path><path class="x" d="M40.56,26.66s-1.38-3.38,2.5-5.75c0,0,2.12-1.12,3.62-1,0,0-6.25,2.75-6.12,6.75Z" style="fill: #fff;"></path><path class="x" d="M37.68,18.41s-.5-4.75,3-5.25c0,0-2.62,1.75-3,5.25Z" style="fill: #fff;"></path><path class="x" d="M44.43,11.41s.5-1.12,1.38-1.12l1.38,2.38s-1.88-1.38-2.75-1.25Z" style="fill: #fff;"></path><path class="x" d="M26.56,17.16s-2.88,1.62-2.5,6l1.38,.62s-.62-4.38,1.12-6.62Z" style="fill: #fff;"></path><path class="x" d="M19.93,24.91s-2.25,1.5-1.62,4l1.62-4Z" style="fill: #fff;"></path><path class="x" d="M17.06,35.78l1,3s2.5-1.12,4,0c0,0-4.88-1.5-5-3Z" style="fill: #fff;"></path><path class="x" d="M25.18,31.03l.75,2.62s1.62-.25,2.38,.88l-3.12-3.5Z" style="fill: #fff;"></path><path class="ad" d="M25.68,46.78l-1.75,2.25s3.75,9.38,12.25,10.88l-.12-8s-7.25,1.38-10.38-5.12Z" style="fill: url(#v);"></path><path class="x" d="M43.43,71.53s0-1.75,3.88-.12l-3.88,.12Z" style="fill: #fff;"></path><path class="x" d="M76.31,51.41s-.62-3.25,1.5-3.38l-1.5,3.38Z" style="fill: #fff;"></path><path class="x" d="M17.93,61.28s-1.12-1.12,2.5-1.12l-2.5,1.12Z" style="fill: #fff;"></path><path class="x" d="M20.06,63.03s-1.62,2.25-.38,2.88l.24-3.38,.14,.51Z" style="fill: #fff;"></path><path class="x" d="M79.43,30.41s1-2.5,2.38-2.12l-2.38,2.12Z" style="fill: #fff;"></path><path class="x" d="M82.06,31.53s3-.25,2.75,1.25l-2.75-1.25Z" style="fill: #fff;"></path></g></g></g></svg>